G04 #@! TF.FileFunction,Paste,Top*
%FSLAX46Y46*%
G04 Gerber Fmt 4.6, Leading zero omitted, Abs format (unit mm)*
G04 Created by KiCad (PCBNEW (2015-03-12 BZR 5508)-product) date Fri 13 Mar 2015 09:00:28 AM EDT*
%MOMM*%
G01*
G04 APERTURE LIST*
%ADD10C,0.100000*%
%ADD11O,1.450000X0.450000*%
%ADD12R,1.500000X1.500000*%
%ADD13O,1.550000X0.600000*%
%ADD14R,2.750000X3.800000*%
%ADD15R,1.300000X0.900000*%
%ADD16R,1.300000X0.800000*%
%ADD17O,1.550000X0.550000*%
%ADD18R,1.000000X0.850000*%
%ADD19R,0.900000X0.950000*%
%ADD20R,1.100000X2.700000*%
%ADD21R,1.800000X5.300000*%
%ADD22R,1.900000X2.150000*%
%ADD23R,1.800000X1.050000*%
%ADD24O,1.550000X0.400000*%
%ADD25R,1.150000X1.450000*%
%ADD26R,0.950000X0.900000*%
%ADD27R,0.600000X0.650000*%
%ADD28R,0.650000X0.600000*%
%ADD29R,1.800000X1.200000*%
%ADD30R,1.450000X1.150000*%
%ADD31R,1.200000X1.800000*%
%ADD32R,1.600000X3.150000*%
%ADD33R,0.900000X1.200000*%
%ADD34R,0.300000X0.400000*%
%ADD35R,0.900000X1.300000*%
%ADD36R,0.800000X1.300000*%
%ADD37R,1.100000X1.300000*%
%ADD38R,1.450000X1.200000*%
%ADD39R,1.200000X1.450000*%
%ADD40R,0.650000X0.700000*%
%ADD41R,1.100000X2.100000*%
%ADD42R,3.500000X2.100000*%
%ADD43R,1.050000X1.800000*%
%ADD44R,1.100000X0.600000*%
%ADD45O,0.600000X1.550000*%
%ADD46R,0.950000X1.000000*%
%ADD47R,1.500000X2.300000*%
%ADD48R,1.550000X2.400000*%
%ADD49R,0.899160X0.800100*%
%ADD50R,0.950000X0.550000*%
%ADD51R,0.550000X0.950000*%
%ADD52R,0.850000X1.000000*%
%ADD53R,2.450000X1.450000*%
%ADD54R,2.457000X2.457000*%
%ADD55R,1.450000X2.450000*%
%ADD56R,0.800100X0.899160*%
G04 APERTURE END LIST*
D10*
D11*
X124300000Y-101525000D03*
X124300000Y-102175000D03*
X124300000Y-102825000D03*
X124300000Y-103475000D03*
X128700000Y-103475000D03*
X128700000Y-102825000D03*
X128700000Y-102175000D03*
X128700000Y-101525000D03*
D12*
X144000000Y-66500000D03*
X144000000Y-68500000D03*
X144000000Y-64500000D03*
X142000000Y-68500000D03*
X142000000Y-66500000D03*
X142000000Y-64500000D03*
X146000000Y-68500000D03*
X146000000Y-66500000D03*
X146000000Y-64500000D03*
D13*
X159300000Y-99095000D03*
X159300000Y-100365000D03*
X159300000Y-101635000D03*
X159300000Y-102905000D03*
X164700000Y-102905000D03*
X164700000Y-101635000D03*
X164700000Y-100365000D03*
X164700000Y-99095000D03*
D14*
X162000000Y-101000000D03*
D15*
X97600000Y-39950000D03*
X97600000Y-38050000D03*
D16*
X95400000Y-39000000D03*
D13*
X91300000Y-45095000D03*
X91300000Y-46365000D03*
D17*
X91300000Y-47635000D03*
X91300000Y-48905000D03*
X96700000Y-48905000D03*
X96700000Y-47635000D03*
D13*
X96700000Y-46365000D03*
X96700000Y-45095000D03*
D18*
X91500000Y-114250000D03*
X91500000Y-115750000D03*
D19*
X86500000Y-98500000D03*
X85000000Y-98500000D03*
X85000000Y-100250000D03*
X86500000Y-100250000D03*
D15*
X148900000Y-107050000D03*
X148900000Y-108950000D03*
D16*
X151100000Y-108000000D03*
D20*
X113000000Y-43500000D03*
X116000000Y-43500000D03*
D21*
X154500000Y-61400000D03*
X154500000Y-70600000D03*
D11*
X164150000Y-107975000D03*
X164150000Y-107325000D03*
X164150000Y-106675000D03*
X164150000Y-106025000D03*
X159850000Y-106025000D03*
X159850000Y-106675000D03*
X159850000Y-107325000D03*
X159850000Y-107975000D03*
D22*
X162000000Y-107000000D03*
D23*
X106500000Y-115000000D03*
X106500000Y-118000000D03*
D24*
X94200000Y-102205000D03*
X94200000Y-101575000D03*
X94200000Y-100945000D03*
X94200000Y-100315000D03*
X94200000Y-99685000D03*
X94200000Y-99055000D03*
X94200000Y-98425000D03*
X94200000Y-97795000D03*
X88800000Y-97795000D03*
X88800000Y-98425000D03*
X88800000Y-99055000D03*
X88800000Y-99685000D03*
X88800000Y-100315000D03*
X88800000Y-100945000D03*
X88800000Y-101575000D03*
X88800000Y-102205000D03*
D21*
X86000000Y-80400000D03*
X86000000Y-89600000D03*
D15*
X164150000Y-80050000D03*
X164150000Y-81950000D03*
D16*
X166350000Y-81000000D03*
D25*
X88100000Y-29500000D03*
X89900000Y-29500000D03*
D15*
X101100000Y-45450000D03*
X101100000Y-43550000D03*
D16*
X98900000Y-44500000D03*
D15*
X93000000Y-39950000D03*
X93000000Y-38050000D03*
D16*
X90800000Y-39000000D03*
D25*
X101150000Y-41500000D03*
X99350000Y-41500000D03*
D26*
X149000000Y-60750000D03*
X149000000Y-59250000D03*
D25*
X140100000Y-81000000D03*
X141900000Y-81000000D03*
X144100000Y-81000000D03*
X145900000Y-81000000D03*
D27*
X166250000Y-94550000D03*
X166250000Y-95450000D03*
X165000000Y-94550000D03*
X165000000Y-95450000D03*
D28*
X163800000Y-92000000D03*
X164700000Y-92000000D03*
D27*
X163250000Y-94550000D03*
X163250000Y-95450000D03*
D28*
X161550000Y-90750000D03*
X162450000Y-90750000D03*
X161550000Y-92000000D03*
X162450000Y-92000000D03*
D27*
X160750000Y-94550000D03*
X160750000Y-95450000D03*
D28*
X159300000Y-92000000D03*
X160200000Y-92000000D03*
D27*
X159000000Y-94550000D03*
X159000000Y-95450000D03*
X157750000Y-94550000D03*
X157750000Y-95450000D03*
D29*
X150000000Y-94550000D03*
X150000000Y-97450000D03*
D30*
X135500000Y-95600000D03*
X135500000Y-97400000D03*
D26*
X134000000Y-90250000D03*
X134000000Y-88750000D03*
X131750000Y-90250000D03*
X131750000Y-88750000D03*
X129500000Y-90250000D03*
X129500000Y-88750000D03*
D30*
X128000000Y-98900000D03*
X128000000Y-97100000D03*
X125000000Y-98900000D03*
X125000000Y-97100000D03*
D31*
X127050000Y-110000000D03*
X129950000Y-110000000D03*
D26*
X131000000Y-104750000D03*
X131000000Y-103250000D03*
D19*
X125500000Y-105500000D03*
X124000000Y-105500000D03*
D25*
X86600000Y-104500000D03*
X88400000Y-104500000D03*
D32*
X133000000Y-32050000D03*
X133000000Y-36950000D03*
X107500000Y-32050000D03*
X107500000Y-36950000D03*
X133000000Y-41550000D03*
X133000000Y-46450000D03*
X107500000Y-46000000D03*
X107500000Y-41100000D03*
D31*
X130050000Y-49550000D03*
X132950000Y-49550000D03*
X157550000Y-56000000D03*
X160450000Y-56000000D03*
X156550000Y-38000000D03*
X159450000Y-38000000D03*
D29*
X118000000Y-70550000D03*
X118000000Y-73450000D03*
D30*
X95000000Y-95500000D03*
X95000000Y-93700000D03*
D29*
X127450000Y-35550000D03*
X127450000Y-38450000D03*
D30*
X128000000Y-72900000D03*
X128000000Y-71100000D03*
D25*
X90850000Y-91250000D03*
X92650000Y-91250000D03*
X167650000Y-54000000D03*
X165850000Y-54000000D03*
X162100000Y-30000000D03*
X163900000Y-30000000D03*
D15*
X101100000Y-48950000D03*
X101100000Y-47050000D03*
D16*
X98900000Y-48000000D03*
D33*
X141600000Y-44000000D03*
X138400000Y-44000000D03*
X116100000Y-40500000D03*
X112900000Y-40500000D03*
D34*
X135300000Y-107500000D03*
X136200000Y-107500000D03*
X137300000Y-107500000D03*
X138200000Y-107500000D03*
X141050000Y-107500000D03*
X141950000Y-107500000D03*
X143050000Y-107500000D03*
X143950000Y-107500000D03*
D35*
X139450000Y-46400000D03*
X137550000Y-46400000D03*
D36*
X138500000Y-48600000D03*
D37*
X94250000Y-106400000D03*
D35*
X92550000Y-106400000D03*
X92550000Y-108600000D03*
X94450000Y-108600000D03*
X120550000Y-37100000D03*
X122450000Y-37100000D03*
D36*
X121500000Y-34900000D03*
D38*
X89500000Y-115850000D03*
X89500000Y-114150000D03*
D39*
X138150000Y-60000000D03*
X139850000Y-60000000D03*
D40*
X163800000Y-93250000D03*
X164700000Y-93250000D03*
X161550000Y-93250000D03*
X162450000Y-93250000D03*
X159300000Y-93250000D03*
X160200000Y-93250000D03*
D10*
G36*
X132699480Y-92795495D02*
X132204505Y-92300520D01*
X132664124Y-91840901D01*
X133159099Y-92335876D01*
X132699480Y-92795495D01*
X132699480Y-92795495D01*
G37*
G36*
X133335876Y-92159099D02*
X132840901Y-91664124D01*
X133300520Y-91204505D01*
X133795495Y-91699480D01*
X133335876Y-92159099D01*
X133335876Y-92159099D01*
G37*
G36*
X129654505Y-91699480D02*
X130149480Y-91204505D01*
X130609099Y-91664124D01*
X130114124Y-92159099D01*
X129654505Y-91699480D01*
X129654505Y-91699480D01*
G37*
G36*
X130290901Y-92335876D02*
X130785876Y-91840901D01*
X131245495Y-92300520D01*
X130750520Y-92795495D01*
X130290901Y-92335876D01*
X130290901Y-92335876D01*
G37*
D15*
X166350000Y-73400000D03*
X166350000Y-71500000D03*
D16*
X164150000Y-72450000D03*
D15*
X164150000Y-76550000D03*
X164150000Y-78450000D03*
D16*
X166350000Y-77500000D03*
D15*
X148900000Y-111050000D03*
X148900000Y-112950000D03*
D16*
X151100000Y-112000000D03*
D15*
X151100000Y-105450000D03*
X151100000Y-103550000D03*
D16*
X148900000Y-104500000D03*
D15*
X150900000Y-90050000D03*
X150900000Y-91950000D03*
D16*
X153100000Y-91000000D03*
D15*
X139600000Y-94450000D03*
X139600000Y-92550000D03*
D16*
X137400000Y-93500000D03*
D15*
X144000000Y-92450000D03*
X144000000Y-90550000D03*
D16*
X141800000Y-91500000D03*
D35*
X146050000Y-31600000D03*
X147950000Y-31600000D03*
D36*
X147000000Y-29400000D03*
D15*
X84600000Y-50950000D03*
X84600000Y-49050000D03*
D16*
X82400000Y-50000000D03*
D35*
X142950000Y-46400000D03*
X141050000Y-46400000D03*
D36*
X142000000Y-48600000D03*
D35*
X120550000Y-31600000D03*
X122450000Y-31600000D03*
D36*
X121500000Y-29400000D03*
D41*
X143300000Y-31400000D03*
X141000000Y-31400000D03*
X138700000Y-31400000D03*
D42*
X141000000Y-37600000D03*
D41*
X117800000Y-31400000D03*
X115500000Y-31400000D03*
X113200000Y-31400000D03*
D42*
X115500000Y-37600000D03*
D35*
X115950000Y-46150000D03*
X114050000Y-46150000D03*
D36*
X115000000Y-48350000D03*
D43*
X85000000Y-39750000D03*
X88000000Y-39750000D03*
D18*
X155500000Y-110750000D03*
X155500000Y-109250000D03*
X157500000Y-110750000D03*
X157500000Y-109250000D03*
X153500000Y-112500000D03*
X153500000Y-111000000D03*
X159500000Y-112500000D03*
X159500000Y-111000000D03*
X157500000Y-114250000D03*
X157500000Y-112750000D03*
X155500000Y-114250000D03*
X155500000Y-112750000D03*
D20*
X138500000Y-41000000D03*
X141500000Y-41000000D03*
D23*
X127500000Y-30500000D03*
X127500000Y-33500000D03*
D15*
X84600000Y-55450000D03*
X84600000Y-53550000D03*
D16*
X82400000Y-54500000D03*
D44*
X133000000Y-82450000D03*
X133000000Y-80550000D03*
X133000000Y-81500000D03*
X130800000Y-80550000D03*
X130800000Y-82450000D03*
X157600000Y-82450000D03*
X157600000Y-80550000D03*
X157600000Y-81500000D03*
X155400000Y-80550000D03*
X155400000Y-82450000D03*
X164150000Y-86550000D03*
X164150000Y-88450000D03*
X164150000Y-87500000D03*
X166350000Y-88450000D03*
X166350000Y-86550000D03*
D45*
X137905000Y-100050000D03*
X136635000Y-100050000D03*
X135365000Y-100050000D03*
X134095000Y-100050000D03*
X134095000Y-105450000D03*
X135365000Y-105450000D03*
X136635000Y-105450000D03*
X137905000Y-105450000D03*
X141095000Y-105450000D03*
X142365000Y-105450000D03*
X143635000Y-105450000D03*
X144905000Y-105450000D03*
X144905000Y-100050000D03*
X143635000Y-100050000D03*
X142365000Y-100050000D03*
X141095000Y-100050000D03*
D41*
X125300000Y-70900000D03*
X123000000Y-70900000D03*
X120700000Y-70900000D03*
D42*
X123000000Y-77100000D03*
D35*
X92650000Y-93400000D03*
X90750000Y-93400000D03*
D36*
X91700000Y-95600000D03*
D30*
X99500000Y-88100000D03*
X99500000Y-89900000D03*
D26*
X104000000Y-88250000D03*
X104000000Y-89750000D03*
D19*
X91750000Y-84500000D03*
X90250000Y-84500000D03*
X91750000Y-75500000D03*
X90250000Y-75500000D03*
D26*
X105500000Y-67000000D03*
X105500000Y-65500000D03*
D19*
X112000000Y-77000000D03*
X113500000Y-77000000D03*
D30*
X102000000Y-88100000D03*
X102000000Y-89900000D03*
D19*
X91750000Y-82500000D03*
X90250000Y-82500000D03*
X112000000Y-81750000D03*
X113500000Y-81750000D03*
X91750000Y-78500000D03*
X90250000Y-78500000D03*
X100000000Y-67250000D03*
X101500000Y-67250000D03*
D25*
X95600000Y-90000000D03*
X97400000Y-90000000D03*
D46*
X97300000Y-88000000D03*
X95700000Y-88000000D03*
D47*
X113000000Y-112500000D03*
X113000000Y-108200000D03*
X116500000Y-108200000D03*
X116500000Y-112500000D03*
D48*
X107500000Y-112500000D03*
X107500000Y-108300000D03*
D23*
X113000000Y-115000000D03*
X113000000Y-118000000D03*
X116000000Y-115000000D03*
X116000000Y-118000000D03*
D49*
X162350840Y-56000000D03*
X164149160Y-56000000D03*
D50*
X88400000Y-45950000D03*
X88400000Y-45150000D03*
X88400000Y-44350000D03*
X88400000Y-43550000D03*
X86600000Y-43550000D03*
X86600000Y-44350000D03*
X86600000Y-45150000D03*
X86600000Y-45950000D03*
X84150000Y-45950000D03*
X84150000Y-45150000D03*
X84150000Y-44350000D03*
X84150000Y-43550000D03*
X82350000Y-43550000D03*
X82350000Y-44350000D03*
X82350000Y-45150000D03*
X82350000Y-45950000D03*
X87350000Y-48800000D03*
X87350000Y-49600000D03*
X87350000Y-50400000D03*
X87350000Y-51200000D03*
X89150000Y-51200000D03*
X89150000Y-50400000D03*
X89150000Y-49600000D03*
X89150000Y-48800000D03*
X159600000Y-71300000D03*
X159600000Y-72100000D03*
X159600000Y-72900000D03*
X159600000Y-73700000D03*
X161400000Y-73700000D03*
X161400000Y-72900000D03*
X161400000Y-72100000D03*
X161400000Y-71300000D03*
D51*
X149300000Y-101400000D03*
X150100000Y-101400000D03*
X150900000Y-101400000D03*
X151700000Y-101400000D03*
X151700000Y-99600000D03*
X150900000Y-99600000D03*
X150100000Y-99600000D03*
X149300000Y-99600000D03*
D26*
X141250000Y-72750000D03*
X141250000Y-74250000D03*
D19*
X149250000Y-75250000D03*
X150750000Y-75250000D03*
D26*
X149500000Y-71750000D03*
X149500000Y-73250000D03*
X150750000Y-64250000D03*
X150750000Y-62750000D03*
X137500000Y-69000000D03*
X137500000Y-70500000D03*
D19*
X136750000Y-66000000D03*
X135250000Y-66000000D03*
D26*
X150750000Y-68250000D03*
X150750000Y-66750000D03*
X142250000Y-60000000D03*
X142250000Y-58500000D03*
X144500000Y-60000000D03*
X144500000Y-58500000D03*
X146750000Y-60000000D03*
X146750000Y-58500000D03*
X137500000Y-63500000D03*
X137500000Y-62000000D03*
D19*
X91750000Y-121500000D03*
X93250000Y-121500000D03*
X144750000Y-94500000D03*
X143250000Y-94500000D03*
D26*
X130000000Y-98750000D03*
X130000000Y-97250000D03*
X123000000Y-98750000D03*
X123000000Y-97250000D03*
D19*
X127500000Y-105500000D03*
X129000000Y-105500000D03*
X127500000Y-107250000D03*
X129000000Y-107250000D03*
D26*
X90000000Y-33000000D03*
X90000000Y-34500000D03*
D19*
X83750000Y-41750000D03*
X82250000Y-41750000D03*
X146750000Y-35000000D03*
X145250000Y-35000000D03*
D26*
X124250000Y-30250000D03*
X124250000Y-28750000D03*
X90500000Y-108750000D03*
X90500000Y-110250000D03*
D19*
X86500000Y-106500000D03*
X88000000Y-106500000D03*
D15*
X82400000Y-108550000D03*
X82400000Y-110450000D03*
D16*
X84600000Y-109500000D03*
D15*
X82400000Y-104550000D03*
X82400000Y-106450000D03*
D16*
X84600000Y-105500000D03*
D35*
X86550000Y-110600000D03*
X88450000Y-110600000D03*
D36*
X87500000Y-108400000D03*
D18*
X93000000Y-114250000D03*
X93000000Y-115750000D03*
D52*
X91750000Y-120000000D03*
X93250000Y-120000000D03*
X89750000Y-106500000D03*
X91250000Y-106500000D03*
X90250000Y-112250000D03*
X88750000Y-112250000D03*
D19*
X91750000Y-80500000D03*
X90250000Y-80500000D03*
X91750000Y-86500000D03*
X90250000Y-86500000D03*
D26*
X158500000Y-63250000D03*
X158500000Y-64750000D03*
X158500000Y-68750000D03*
X158500000Y-67250000D03*
D52*
X82750000Y-57250000D03*
X84250000Y-57250000D03*
X96250000Y-42000000D03*
X94750000Y-42000000D03*
X92750000Y-42000000D03*
X91250000Y-42000000D03*
X89750000Y-31250000D03*
X88250000Y-31250000D03*
D18*
X124250000Y-33250000D03*
X124250000Y-31750000D03*
D52*
X112750000Y-29000000D03*
X114250000Y-29000000D03*
X116750000Y-29000000D03*
X118250000Y-29000000D03*
X138250000Y-29000000D03*
X139750000Y-29000000D03*
X142250000Y-29000000D03*
X143750000Y-29000000D03*
D19*
X145250000Y-33500000D03*
X146750000Y-33500000D03*
D52*
X88250000Y-59500000D03*
X89750000Y-59500000D03*
X88250000Y-65500000D03*
X89750000Y-65500000D03*
X88250000Y-61500000D03*
X89750000Y-61500000D03*
X89750000Y-63500000D03*
X88250000Y-63500000D03*
D19*
X120450000Y-33250000D03*
X121950000Y-33250000D03*
D18*
X148250000Y-33500000D03*
X148250000Y-35000000D03*
D52*
X165750000Y-30000000D03*
X167250000Y-30000000D03*
X164000000Y-54000000D03*
X162500000Y-54000000D03*
X167500000Y-56000000D03*
X166000000Y-56000000D03*
D18*
X151000000Y-71750000D03*
X151000000Y-73250000D03*
X143000000Y-75250000D03*
X143000000Y-73750000D03*
X144500000Y-75250000D03*
X144500000Y-73750000D03*
X146000000Y-75250000D03*
X146000000Y-73750000D03*
X147500000Y-75250000D03*
X147500000Y-73750000D03*
X135000000Y-83000000D03*
X135000000Y-81500000D03*
X159500000Y-83000000D03*
X159500000Y-81500000D03*
D52*
X131250000Y-84750000D03*
X129750000Y-84750000D03*
X131250000Y-78250000D03*
X129750000Y-78250000D03*
X155750000Y-84750000D03*
X154250000Y-84750000D03*
X155750000Y-78250000D03*
X154250000Y-78250000D03*
X134250000Y-84750000D03*
X132750000Y-84750000D03*
X134250000Y-78250000D03*
X132750000Y-78250000D03*
X158750000Y-84750000D03*
X157250000Y-84750000D03*
X158750000Y-78250000D03*
X157250000Y-78250000D03*
X137500000Y-84750000D03*
X136000000Y-84750000D03*
X161750000Y-84750000D03*
X160250000Y-84750000D03*
D18*
X129000000Y-82250000D03*
X129000000Y-83750000D03*
X153500000Y-82250000D03*
X153500000Y-83750000D03*
X129000000Y-80750000D03*
X129000000Y-79250000D03*
X153500000Y-80750000D03*
X153500000Y-79250000D03*
D52*
X164500000Y-69500000D03*
X166000000Y-69500000D03*
D18*
X164500000Y-85000000D03*
X164500000Y-83500000D03*
X166250000Y-85000000D03*
X166250000Y-83500000D03*
D26*
X167750000Y-89750000D03*
X167750000Y-88250000D03*
X167750000Y-85250000D03*
X167750000Y-86750000D03*
D52*
X151250000Y-87500000D03*
X152750000Y-87500000D03*
D18*
X149000000Y-90250000D03*
X149000000Y-91750000D03*
D52*
X138750000Y-96000000D03*
X137250000Y-96000000D03*
X140250000Y-96000000D03*
X141750000Y-96000000D03*
X138750000Y-97500000D03*
X137250000Y-97500000D03*
X140250000Y-97500000D03*
X141750000Y-97500000D03*
D19*
X135750000Y-93500000D03*
X134250000Y-93500000D03*
D52*
X138250000Y-88500000D03*
X139750000Y-88500000D03*
D18*
X136750000Y-90000000D03*
X136750000Y-88500000D03*
D52*
X138250000Y-90750000D03*
X139750000Y-90750000D03*
X127250000Y-93500000D03*
X125750000Y-93500000D03*
X127250000Y-95000000D03*
X125750000Y-95000000D03*
D26*
X122500000Y-108750000D03*
X122500000Y-110250000D03*
D18*
X122500000Y-107250000D03*
X122500000Y-105750000D03*
X125000000Y-108750000D03*
X125000000Y-110250000D03*
D52*
X108750000Y-115500000D03*
X110250000Y-115500000D03*
X108750000Y-117000000D03*
X110250000Y-117000000D03*
D18*
X166000000Y-109250000D03*
X166000000Y-107750000D03*
X168000000Y-107750000D03*
X168000000Y-109250000D03*
D19*
X157000000Y-104750000D03*
X155500000Y-104750000D03*
D18*
X157250000Y-101500000D03*
X157250000Y-103000000D03*
X155500000Y-100000000D03*
X155500000Y-98500000D03*
X155500000Y-101500000D03*
X155500000Y-103000000D03*
X157250000Y-98500000D03*
X157250000Y-100000000D03*
D52*
X136000000Y-111500000D03*
X134500000Y-111500000D03*
X137500000Y-111500000D03*
X139000000Y-111500000D03*
X142000000Y-111500000D03*
X140500000Y-111500000D03*
X143500000Y-111500000D03*
X145000000Y-111500000D03*
D18*
X136750000Y-108750000D03*
X136750000Y-110250000D03*
X142500000Y-108500000D03*
X142500000Y-110000000D03*
D52*
X148750000Y-114750000D03*
X150250000Y-114750000D03*
D49*
X120399160Y-79500000D03*
X118600840Y-79500000D03*
X120399160Y-81000000D03*
X118600840Y-81000000D03*
X120399160Y-82500000D03*
X118600840Y-82500000D03*
X120399160Y-84000000D03*
X118600840Y-84000000D03*
D52*
X115500000Y-79500000D03*
X117000000Y-79500000D03*
X115500000Y-81000000D03*
X117000000Y-81000000D03*
X115500000Y-82500000D03*
X117000000Y-82500000D03*
X115500000Y-84000000D03*
X117000000Y-84000000D03*
X114750000Y-66000000D03*
X116250000Y-66000000D03*
X114750000Y-62000000D03*
X116250000Y-62000000D03*
X118250000Y-65000000D03*
X119750000Y-65000000D03*
X114750000Y-64000000D03*
X116250000Y-64000000D03*
X118250000Y-63000000D03*
X119750000Y-63000000D03*
X119750000Y-61000000D03*
X118250000Y-61000000D03*
D53*
X159600000Y-34800000D03*
X159600000Y-30200000D03*
D54*
X154437500Y-34237500D03*
X154437500Y-30762500D03*
X150962500Y-30762500D03*
X150962500Y-34237500D03*
D53*
X92400000Y-30700000D03*
X92400000Y-35300000D03*
D54*
X97562500Y-31262500D03*
X97562500Y-34737500D03*
X101037500Y-34737500D03*
X101037500Y-31262500D03*
D55*
X161700000Y-51100000D03*
X166300000Y-51100000D03*
D54*
X162262500Y-45937500D03*
X165737500Y-45937500D03*
X165737500Y-42462500D03*
X162262500Y-42462500D03*
D52*
X112750000Y-74000000D03*
X114250000Y-74000000D03*
X114250000Y-68500000D03*
X112750000Y-68500000D03*
D38*
X135000000Y-51350000D03*
X135000000Y-49650000D03*
X112000000Y-47850000D03*
X112000000Y-46150000D03*
D39*
X130400000Y-29000000D03*
X132100000Y-29000000D03*
D18*
X168000000Y-118750000D03*
X168000000Y-120250000D03*
D49*
X162350840Y-39500000D03*
X164149160Y-39500000D03*
D52*
X167500000Y-39500000D03*
X166000000Y-39500000D03*
D49*
X143100840Y-53000000D03*
X144899160Y-53000000D03*
D52*
X148250000Y-53000000D03*
X146750000Y-53000000D03*
D49*
X124600840Y-53000000D03*
X126399160Y-53000000D03*
D52*
X124750000Y-51000000D03*
X126250000Y-51000000D03*
D49*
X135600840Y-73500000D03*
X137399160Y-73500000D03*
D52*
X135750000Y-75500000D03*
X137250000Y-75500000D03*
D56*
X106500000Y-88100840D03*
X106500000Y-89899160D03*
D52*
X104750000Y-91500000D03*
X106250000Y-91500000D03*
M02*
