M48
;DRILL file {kicad (2015-03-10 BZR 5500)-product} date Wed 11 Mar 2015 02:59:46 PM EDT
;FORMAT={-:-/ absolute / inch / decimal}
FMAT,2
INCH,TZ
T1C0.012
T2C0.016
T3C0.020
T4C0.022
T5C0.028
T6C0.031
T7C0.039
T8C0.039
T9C0.059
T10C0.063
T11C0.093
T12C0.114
%
G90
G05
M72
T1
X3.7894Y-1.2992
X3.8287Y-1.2992
X3.8681Y-1.2992
X3.9075Y-1.1811
X3.9075Y-1.2205
X3.9075Y-1.2598
X3.9075Y-1.2992
X3.9075Y-1.3386
X3.9075Y-1.378
X3.9075Y-1.4173
X3.9469Y-1.2992
X3.9862Y-1.2992
X4.0256Y-1.2992
X5.5512Y-2.5
X5.5512Y-2.5787
X5.5512Y-2.6575
X5.5512Y-2.7362
X5.6299Y-2.5
X5.6299Y-2.5787
X5.6299Y-2.6575
X5.6299Y-2.7362
X5.7087Y-2.5
X5.7087Y-2.5787
X5.7087Y-2.6575
X5.7087Y-2.7362
X5.7874Y-2.5
X5.7874Y-2.5787
X5.7874Y-2.6575
X5.7874Y-2.7362
X5.8957Y-1.2795
X5.935Y-1.2795
X5.9744Y-1.2795
X6.0138Y-1.1614
X6.0138Y-1.2008
X6.0138Y-1.2402
X6.0138Y-1.2795
X6.0138Y-1.3189
X6.0138Y-1.3583
X6.0138Y-1.3976
X6.0531Y-1.2795
X6.0925Y-1.2795
X6.1319Y-1.2795
X6.3386Y-1.7421
X6.3583Y-3.9173
X6.3583Y-3.9567
X6.3583Y-3.9961
X6.3583Y-4.0354
X6.3583Y-4.1929
X6.3583Y-4.2323
X6.378Y-1.7421
X6.3976Y-3.9173
X6.3976Y-3.9567
X6.3976Y-3.9961
X6.3976Y-4.0354
X6.3976Y-4.1929
X6.3976Y-4.2323
X6.4173Y-1.7421
X6.4567Y-1.624
X6.4567Y-1.6634
X6.4567Y-1.7028
X6.4567Y-1.7421
X6.4567Y-1.7815
X6.4567Y-1.8209
X6.4567Y-1.8602
X6.4961Y-1.7421
X6.5354Y-1.7421
X6.5748Y-1.7421
T2
X3.0709Y-1.3386
X3.0709Y-1.6929
X3.0709Y-2.0866
X3.0709Y-2.4803
X3.0709Y-2.874
X3.0709Y-3.2677
X3.0709Y-3.6614
X3.0709Y-4.0551
X3.0709Y-4.4488
X3.0709Y-4.8425
X3.248Y-1.5551
X3.248Y-1.5945
X3.2874Y-1.5551
X3.2874Y-1.5945
X3.2972Y-1.8504
X3.2972Y-3.878
X3.2972Y-3.9469
X3.3071Y-4.0748
X3.3169Y-1.6732
X3.3169Y-2.9724
X3.3169Y-4.8228
X3.3366Y-4.1929
X3.3366Y-4.2323
X3.3366Y-4.2717
X3.3465Y-4.0748
X3.3465Y-4.1142
X3.3563Y-4.8228
X3.376Y-4.2717
X3.3858Y-1.8898
X3.3957Y-4.8228
X3.4055Y-3.9862
X3.4252Y-2.3425
X3.4252Y-2.4213
X3.4252Y-2.5
X3.4252Y-2.5787
X3.435Y-4.8228
X3.4547Y-2.6378
X3.4744Y-4.8228
X3.4826Y-3.0698
X3.4843Y-1.6339
X3.4843Y-3.0118
X3.4941Y-2.9232
X3.4941Y-2.9724
X3.4941Y-3.1693
X3.4941Y-3.2087
X3.5021Y-2.6438
X3.5138Y-3.0906
X3.5138Y-3.248
X3.5138Y-3.3268
X3.5236Y-4.1142
X3.5423Y-2.6576
X3.5433Y-1.8307
X3.5531Y-3.878
X3.5531Y-3.878
X3.5531Y-3.9469
X3.5531Y-4.0256
X3.5531Y-4.0256
X3.5531Y-4.0256
X3.5591Y-4.6614
X3.563Y-1.9783
X3.5827Y-3.4843
X3.5827Y-3.5236
X3.6024Y-4.1535
X3.6024Y-4.2421
X3.6122Y-2.4016
X3.622Y-2.5591
X3.622Y-3.4843
X3.622Y-3.5236
X3.622Y-3.8091
X3.6417Y-1.939
X3.6516Y-2.7953
X3.6516Y-2.8543
X3.6516Y-2.8937
X3.6516Y-2.9331
X3.6516Y-2.9724
X3.6516Y-3.0906
X3.6516Y-3.1691
X3.6516Y-3.9272
X3.6516Y-3.9764
X3.6516Y-2.313
X3.6525Y-3.4013
X3.6614Y-3.2968
X3.6614Y-3.8091
X3.6713Y-4.6752
X3.6811Y-2.4114
X3.6909Y-3.5925
X3.7008Y-3.8091
X3.7106Y-4.1437
X3.7402Y-2.6969
X3.7402Y-3.6417
X3.7402Y-3.8091
X3.75Y-1.8701
X3.75Y-4.1831
X3.7639Y-3.999
X3.7697Y-2.6673
X3.7792Y-3.2343
X3.7896Y-3.9365
X3.7932Y-3.3957
X3.8189Y-2.4606
X3.8189Y-2.8346
X3.8265Y-3.2637
X3.8285Y-3.0278
X3.8386Y-2.9724
X3.8386Y-2.9331
X3.8401Y-2.8931
X3.8404Y-3.1657
X3.8437Y-3.1095
X3.8484Y-2.4311
X3.8517Y-3.0578
X3.8558Y-2.5897
X3.8579Y-3.0045
X3.8583Y-3.4055
X3.8758Y-2.3464
X3.8836Y-2.4746
X3.8876Y-3.1398
X3.8976Y-1.6831
X3.8976Y-3.4055
X3.9113Y-3.5925
X3.9145Y-2.4956
X3.9166Y-2.858
X3.921Y-2.583
X3.9274Y-2.4304
X3.937Y-1.7913
X3.937Y-1.7913
X3.937Y-3.4055
X3.9528Y-2.9057
X3.9567Y-3.2087
X3.9619Y-3.0976
X3.965Y-3.1374
X3.9725Y-3.5433
X3.9785Y-2.9363
X3.9833Y-2.581
X4.0033Y-2.6141
X4.0157Y-3.6516
X4.0277Y-2.5857
X4.0316Y-2.8839
X4.0453Y-2.3722
X4.0453Y-2.4409
X4.0491Y-3.101
X4.0551Y-2.5394
X4.0568Y-3.0157
X4.0846Y-2.8642
X4.0945Y-3.9961
X4.1013Y-2.8978
X4.1043Y-2.6378
X4.1043Y-3.1594
X4.12Y-2.5788
X4.124Y-3.0834
X4.1337Y-3.5335
X4.136Y-2.8589
X4.1535Y-2.6772
X4.1732Y-1.4173
X4.1732Y-1.4567
X4.1732Y-1.4961
X4.1732Y-1.5354
X4.1732Y-1.5748
X4.1732Y-1.6142
X4.1732Y-1.6535
X4.1732Y-2.8543
X4.1831Y-1.811
X4.1831Y-1.811
X4.1831Y-1.8406
X4.1831Y-1.8701
X4.1831Y-3.0315
X4.1929Y-2.4016
X4.1929Y-3.1594
X4.2028Y-2.6673
X4.2028Y-3.6516
X4.2066Y-2.8051
X4.2323Y-2.6378
X4.2323Y-3.937
X4.2323Y-4.1535
X4.2323Y-4.1929
X4.2441Y-3.2205
X4.2618Y-2.5492
X4.2717Y-3.2677
X4.2815Y-3.3071
X4.2913Y-4.4783
X4.3012Y-4.3701
X4.3012Y-4.4094
X4.3307Y-2.3465
X4.3307Y-4.4783
X4.3602Y-3.3465
X4.3701Y-2.4803
X4.3701Y-2.7953
X4.3701Y-2.9823
X4.3701Y-3.4941
X4.3701Y-3.622
X4.3719Y-2.8918
X4.3799Y-2.8543
X4.3898Y-2.5591
X4.3898Y-4.3898
X4.3898Y-4.4291
X4.4193Y-3.622
X4.4291Y-2.9626
X4.4291Y-3.7408
X4.4291Y-3.8189
X4.4313Y-2.7362
X4.439Y-3.2972
X4.439Y-3.4941
X4.4488Y-4.1535
X4.4488Y-4.1929
X4.4587Y-3.1398
X4.4685Y-1.9094
X4.4685Y-1.9094
X4.4712Y-2.5367
X4.4728Y-2.4957
X4.4788Y-3.2615
X4.4882Y-3.8189
X4.4882Y-3.8976
X4.5079Y-3.0315
X4.5135Y-3.0927
X4.5177Y-2.7657
X4.5594Y-3.0413
X4.5669Y-2.7559
X4.5669Y-2.7953
X4.5669Y-2.8346
X4.5669Y-2.874
X4.5866Y-4.1535
X4.5866Y-4.1929
X4.5965Y-3.6516
X4.6457Y-2.9528
X4.6457Y-3.9764
X4.6457Y-4.3701
X4.6457Y-4.5019
X4.685Y-4.5019
X4.7047Y-4.3898
X4.7441Y-1.4173
X4.7441Y-3.1594
X4.7441Y-3.2185
X4.7441Y-3.2776
X4.7638Y-3.4252
X4.7638Y-3.5039
X4.7638Y-3.7008
X4.7638Y-3.9469
X4.7638Y-4.1634
X4.7638Y-4.3602
X4.7638Y-4.4488
X4.8228Y-1.378
X4.8228Y-1.378
X4.8228Y-4.3898
X4.8425Y-1.2992
X4.8425Y-4.0256
X4.8524Y-3.4252
X4.8524Y-4.4488
X4.8819Y-4.1929
X4.9114Y-1.3583
X4.9114Y-1.3976
X4.9213Y-4.2323
X4.9311Y-1.1319
X4.9409Y-3.622
X4.9508Y-1.3189
X4.9508Y-1.3583
X4.9508Y-1.3976
X4.9803Y-1.1614
X4.9803Y-1.2402
X4.9803Y-1.565
X4.9803Y-3.1907
X4.9803Y-3.2285
X5.0197Y-1.1614
X5.0197Y-1.2402
X5.0197Y-1.565
X5.0394Y-2.7559
X5.0394Y-3.4252
X5.0492Y-4.4488
X5.0591Y-1.1614
X5.0591Y-1.2402
X5.0591Y-1.565
X5.0591Y-3.0816
X5.0591Y-3.4941
X5.0688Y-3.2087
X5.1181Y-1.7126
X5.1181Y-1.752
X5.1181Y-1.7913
X5.1181Y-1.8307
X5.1181Y-1.8701
X5.1181Y-2.874
X5.1181Y-4.1535
X5.1181Y-4.2224
X5.1378Y-1.2205
X5.1378Y-1.2598
X5.1378Y-1.4173
X5.1378Y-1.4567
X5.1378Y-1.4961
X5.1378Y-3.4941
X5.1476Y-3.2776
X5.1575Y-1.7126
X5.1575Y-2.874
X5.1575Y-4.1634
X5.1575Y-4.3307
X5.1772Y-1.2205
X5.1772Y-1.2598
X5.1772Y-1.4173
X5.1772Y-1.4567
X5.1772Y-1.4961
X5.187Y-1.7913
X5.187Y-1.8307
X5.187Y-1.8701
X5.187Y-1.9094
X5.1969Y-1.7126
X5.1969Y-2.874
X5.2112Y-3.2852
X5.2264Y-3.4941
X5.2362Y-1.7126
X5.2362Y-2.874
X5.2362Y-3.7598
X5.2362Y-4.2913
X5.2461Y-3.6811
X5.2559Y-4.3996
X5.2756Y-2.3622
X5.2756Y-2.4016
X5.2756Y-2.4409
X5.2756Y-2.4803
X5.2756Y-2.5984
X5.2756Y-3.7598
X5.2756Y-3.8878
X5.2756Y-3.9862
X5.2854Y-3.4252
X5.2854Y-3.7205
X5.2854Y-3.8287
X5.2854Y-4.4488
X5.2953Y-1.2205
X5.2953Y-1.2598
X5.2953Y-1.4173
X5.2953Y-1.4567
X5.2953Y-1.4961
X5.2953Y-3.1791
X5.2953Y-4.2323
X5.315Y-3.4941
X5.3248Y-3.0807
X5.3248Y-4.2618
X5.3248Y-4.2618
X5.3346Y-1.2205
X5.3346Y-1.2598
X5.3346Y-1.4173
X5.3346Y-1.4567
X5.3346Y-1.4961
X5.3346Y-2.3622
X5.3346Y-3.9764
X5.3346Y-3.9764
X5.3346Y-4.1043
X5.374Y-3.9764
X5.374Y-3.9764
X5.374Y-4.1043
X5.4035Y-3.75
X5.4035Y-3.8091
X5.4134Y-1.9094
X5.4232Y-2.5984
X5.4331Y-3.8878
X5.4331Y-3.9862
X5.4528Y-2.4409
X5.4528Y-2.7362
X5.4528Y-2.7756
X5.4626Y-3.189
X5.4757Y-4.2911
X5.4757Y-4.2911
X5.502Y-4.3602
X5.5118Y-2.4606
X5.5118Y-3.1299
X5.5118Y-3.248
X5.5118Y-3.4252
X5.5217Y-2.9232
X5.5217Y-4.311
X5.5217Y-4.4488
X5.5413Y-3.4843
X5.553Y-4.2719
X5.561Y-4.1043
X5.5796Y-3.7517
X5.5807Y-3.8091
X5.5906Y-2.9626
X5.5906Y-3.1299
X5.5906Y-3.248
X5.6004Y-2.4114
X5.6004Y-3.7205
X5.6102Y-3.8878
X5.6102Y-4.1043
X5.6201Y-2.8248
X5.6299Y-3.189
X5.6398Y-2.3031
X5.6398Y-2.4114
X5.6496Y-3.8878
X5.6496Y-4.1043
X5.6594Y-2.8543
X5.6693Y-3.1299
X5.6693Y-3.248
X5.6791Y-2.4114
X5.689Y-4.1043
X5.6988Y-4.2323
X5.6988Y-2.8543
X5.7087Y-3.4252
X5.7087Y-4.4488
X5.7185Y-2.4114
X5.7283Y-1.4173
X5.7283Y-1.4173
X5.7283Y-2.3031
X5.7283Y-2.8248
X5.748Y-3.002
X5.748Y-3.1299
X5.748Y-3.248
X5.748Y-4.3898
X5.7579Y-2.4114
X5.7677Y-1.4173
X5.7685Y-2.8346
X5.7874Y-3.4252
X5.7874Y-3.5039
X5.7874Y-3.7008
X5.7874Y-3.9469
X5.7874Y-4.2224
X5.7874Y-4.3602
X5.7874Y-4.4488
X5.7971Y-3.199
X5.7972Y-2.4114
X5.8063Y-2.8346
X5.8169Y-2.3031
X5.8169Y-4.2913
X5.8268Y-1.2008
X5.8366Y-1.4173
X5.8563Y-4.1535
X5.8563Y-4.6063
X5.8563Y-4.6063
X5.876Y-2.6358
X5.876Y-2.6772
X5.876Y-2.7461
X5.8767Y-2.5303
X5.8858Y-2.9134
X5.8957Y-4.1535
X5.9055Y-3.4449
X5.9449Y-2.9232
X5.9547Y-3.1898
X5.9547Y-3.2276
X5.9744Y-2.4705
X5.9744Y-2.628
X5.9744Y-3.7205
X5.9744Y-3.8386
X5.9941Y-3.6319
X5.9941Y-4.0748
X6.0236Y-3.0816
X6.0334Y-3.2087
X6.1122Y-3.2776
X6.122Y-3.8386
X6.122Y-4.0846
X6.1751Y-3.2889
X6.2106Y-1.3583
X6.2106Y-1.3976
X6.2106Y-1.437
X6.2106Y-3.7894
X6.2402Y-2.1063
X6.2402Y-2.1457
X6.2402Y-2.5984
X6.2402Y-4.2323
X6.2402Y-4.3307
X6.25Y-3.1791
X6.25Y-3.1791
X6.2598Y-1.2402
X6.2598Y-1.2795
X6.2598Y-1.437
X6.2598Y-3.7894
X6.2795Y-2.1063
X6.2795Y-2.1457
X6.2795Y-2.2244
X6.2894Y-3.0807
X6.2992Y-1.2402
X6.2992Y-1.2795
X6.3091Y-2.7657
X6.3189Y-2.2638
X6.3189Y-3.2087
X6.3287Y-3.7894
X6.3386Y-1.2402
X6.3386Y-1.2795
X6.3441Y-4.0748
X6.3484Y-4.3307
X6.3878Y-3.1988
X6.3976Y-2.874
X6.4036Y-4.3838
X6.4173Y-3.4449
X6.4272Y-2.0177
X6.4272Y-2.0571
X6.4272Y-3.7894
X6.4272Y-3.8878
X6.4567Y-4.3307
X6.4665Y-2.0177
X6.4665Y-2.0571
X6.4961Y-3.7894
X6.4961Y-4.3307
X6.5354Y-3.8976
X6.5354Y-3.9567
X6.5453Y-3.7894
X6.5846Y-1.2303
X6.5945Y-3.8386
X6.6043Y-3.4449
X6.6142Y-2.8937
X6.6142Y-4.1339
X6.6142Y-4.3406
X6.7717Y-1.2992
X6.7717Y-1.6929
X6.7717Y-2.0866
X6.7717Y-2.4803
X6.7717Y-2.874
X6.7717Y-3.2677
X6.7717Y-3.6614
X6.7717Y-4.0551
X6.7717Y-4.4488
X6.7717Y-4.8425
T5
X3.2579Y-1.378
X3.2579Y-4.5276
X3.3022Y-1.3012
X3.3022Y-1.4547
X3.3022Y-4.4508
X3.3022Y-4.6043
X3.378Y-2.7992
X3.3907Y-1.3012
X3.3907Y-1.4547
X3.3907Y-4.4508
X3.3907Y-4.6043
X3.435Y-1.378
X3.435Y-4.5276
X3.9764Y-3.878
X5.0787Y-2.1457
X6.4075Y-1.378
X6.4075Y-4.5276
X6.4518Y-1.3012
X6.4518Y-1.4547
X6.4518Y-4.4508
X6.4518Y-4.6043
X6.5404Y-1.3012
X6.5404Y-1.4547
X6.5404Y-4.4508
X6.5404Y-4.6043
X6.5846Y-1.378
X6.5846Y-4.5276
T6
X4.8425Y-1.6339
X4.8425Y-1.8307
X5.8661Y-1.6339
X5.8661Y-1.8307
T7
X4.2988Y-3.5585
X4.5988Y-3.5185
X4.5988Y-3.5985
T8
X3.7626Y-2.1154
X3.7626Y-2.2154
X3.8626Y-2.1154
X3.8626Y-2.2154
X3.9626Y-2.1154
X3.9626Y-2.2154
X4.0626Y-2.1154
X4.0626Y-2.2154
X4.1626Y-2.1154
X4.1626Y-2.2154
X4.2579Y-4.7638
X4.2626Y-2.1154
X4.2626Y-2.2154
X4.3579Y-4.7638
X4.3626Y-2.1154
X4.3626Y-2.2154
X4.4579Y-4.7638
X4.4626Y-2.1154
X4.4626Y-2.2154
X4.5579Y-4.7638
X4.5626Y-2.1154
X4.5626Y-2.2154
X4.6579Y-4.7638
X4.6626Y-2.1154
X4.6626Y-2.2154
X4.7579Y-4.7638
T9
X5.0394Y-4.7244
X5.6496Y-4.7244
X6.2205Y-4.7244
T10
X4.939Y-4.624
X4.939Y-4.8248
X5.1398Y-4.624
X5.1398Y-4.8248
X5.5492Y-4.624
X5.5492Y-4.8248
X5.75Y-4.624
X5.75Y-4.8248
X6.1201Y-4.624
X6.1201Y-4.8248
X6.3209Y-4.624
X6.3209Y-4.8248
T11
X4.2988Y-3.4585
X4.2988Y-3.6585
X4.5238Y-3.4585
X4.5238Y-3.6585
T12
X3.3465Y-1.378
X3.3465Y-4.5276
X6.4961Y-1.378
X6.4961Y-4.5276
T3
X3.248Y-4.8494G85X3.248Y-4.875
G05
X3.5236Y-4.8494G85X3.5236Y-4.875
G05
T4
X3.2815Y-4.7559G85X3.2933Y-4.7559
G05
X3.4783Y-4.7559G85X3.4902Y-4.7559
G05
T8
X3.9862Y-4.4291G85X3.8878Y-4.4291
G05
X3.9764Y-4.6654G85X3.8976Y-4.6654
G05
T0
M30
