G04 #@! TF.FileFunction,Other,ECO1*
%FSLAX46Y46*%
G04 Gerber Fmt 4.6, Leading zero omitted, Abs format (unit mm)*
G04 Created by KiCad (PCBNEW (2015-03-09 BZR 5487)-product) date Tue 10 Mar 2015 02:13:43 PM EDT*
%MOMM*%
G01*
G04 APERTURE LIST*
%ADD10C,0.100000*%
%ADD11C,0.300000*%
%ADD12C,0.200000*%
G04 APERTURE END LIST*
D10*
D11*
X182028571Y-81071427D02*
X182028571Y-81928570D01*
X182028571Y-81499998D02*
X180528571Y-81499998D01*
X180742857Y-81642855D01*
X180885714Y-81785713D01*
X180957143Y-81928570D01*
X180528571Y-80142856D02*
X180528571Y-79999999D01*
X180600000Y-79857142D01*
X180671429Y-79785713D01*
X180814286Y-79714284D01*
X181100000Y-79642856D01*
X181457143Y-79642856D01*
X181742857Y-79714284D01*
X181885714Y-79785713D01*
X181957143Y-79857142D01*
X182028571Y-79999999D01*
X182028571Y-80142856D01*
X181957143Y-80285713D01*
X181885714Y-80357142D01*
X181742857Y-80428570D01*
X181457143Y-80499999D01*
X181100000Y-80499999D01*
X180814286Y-80428570D01*
X180671429Y-80357142D01*
X180600000Y-80285713D01*
X180528571Y-80142856D01*
X180528571Y-78714285D02*
X180528571Y-78571428D01*
X180600000Y-78428571D01*
X180671429Y-78357142D01*
X180814286Y-78285713D01*
X181100000Y-78214285D01*
X181457143Y-78214285D01*
X181742857Y-78285713D01*
X181885714Y-78357142D01*
X181957143Y-78428571D01*
X182028571Y-78571428D01*
X182028571Y-78714285D01*
X181957143Y-78857142D01*
X181885714Y-78928571D01*
X181742857Y-78999999D01*
X181457143Y-79071428D01*
X181100000Y-79071428D01*
X180814286Y-78999999D01*
X180671429Y-78928571D01*
X180600000Y-78857142D01*
X180528571Y-78714285D01*
X181885714Y-77571428D02*
X181957143Y-77500000D01*
X182028571Y-77571428D01*
X181957143Y-77642857D01*
X181885714Y-77571428D01*
X182028571Y-77571428D01*
X180528571Y-76571428D02*
X180528571Y-76428571D01*
X180600000Y-76285714D01*
X180671429Y-76214285D01*
X180814286Y-76142856D01*
X181100000Y-76071428D01*
X181457143Y-76071428D01*
X181742857Y-76142856D01*
X181885714Y-76214285D01*
X181957143Y-76285714D01*
X182028571Y-76428571D01*
X182028571Y-76571428D01*
X181957143Y-76714285D01*
X181885714Y-76785714D01*
X181742857Y-76857142D01*
X181457143Y-76928571D01*
X181100000Y-76928571D01*
X180814286Y-76857142D01*
X180671429Y-76785714D01*
X180600000Y-76714285D01*
X180528571Y-76571428D01*
X180528571Y-75142857D02*
X180528571Y-75000000D01*
X180600000Y-74857143D01*
X180671429Y-74785714D01*
X180814286Y-74714285D01*
X181100000Y-74642857D01*
X181457143Y-74642857D01*
X181742857Y-74714285D01*
X181885714Y-74785714D01*
X181957143Y-74857143D01*
X182028571Y-75000000D01*
X182028571Y-75142857D01*
X181957143Y-75285714D01*
X181885714Y-75357143D01*
X181742857Y-75428571D01*
X181457143Y-75500000D01*
X181100000Y-75500000D01*
X180814286Y-75428571D01*
X180671429Y-75357143D01*
X180600000Y-75285714D01*
X180528571Y-75142857D01*
X180528571Y-73714286D02*
X180528571Y-73571429D01*
X180600000Y-73428572D01*
X180671429Y-73357143D01*
X180814286Y-73285714D01*
X181100000Y-73214286D01*
X181457143Y-73214286D01*
X181742857Y-73285714D01*
X181885714Y-73357143D01*
X181957143Y-73428572D01*
X182028571Y-73571429D01*
X182028571Y-73714286D01*
X181957143Y-73857143D01*
X181885714Y-73928572D01*
X181742857Y-74000000D01*
X181457143Y-74071429D01*
X181100000Y-74071429D01*
X180814286Y-74000000D01*
X180671429Y-73928572D01*
X180600000Y-73857143D01*
X180528571Y-73714286D01*
X182028571Y-71428572D02*
X181028571Y-71428572D01*
X181171429Y-71428572D02*
X181100000Y-71357144D01*
X181028571Y-71214286D01*
X181028571Y-71000001D01*
X181100000Y-70857144D01*
X181242857Y-70785715D01*
X182028571Y-70785715D01*
X181242857Y-70785715D02*
X181100000Y-70714286D01*
X181028571Y-70571429D01*
X181028571Y-70357144D01*
X181100000Y-70214286D01*
X181242857Y-70142858D01*
X182028571Y-70142858D01*
X182028571Y-69428572D02*
X181028571Y-69428572D01*
X181171429Y-69428572D02*
X181100000Y-69357144D01*
X181028571Y-69214286D01*
X181028571Y-69000001D01*
X181100000Y-68857144D01*
X181242857Y-68785715D01*
X182028571Y-68785715D01*
X181242857Y-68785715D02*
X181100000Y-68714286D01*
X181028571Y-68571429D01*
X181028571Y-68357144D01*
X181100000Y-68214286D01*
X181242857Y-68142858D01*
X182028571Y-68142858D01*
X180000000Y-125000000D02*
X180000000Y-25000000D01*
X177500000Y-125000000D02*
X182700000Y-125000000D01*
X177500000Y-25000000D02*
X182700000Y-25000000D01*
X180000000Y-25000000D02*
X180586421Y-26126504D01*
X180000000Y-25000000D02*
X179413579Y-26126504D01*
X180000000Y-125000000D02*
X180586421Y-123873496D01*
X180000000Y-125000000D02*
X179413579Y-123873496D01*
D12*
X75000000Y-125000000D02*
X75000000Y-25000000D01*
X175000000Y-125000000D02*
X75000000Y-125000000D01*
X175000000Y-25000000D02*
X175000000Y-125000000D01*
X75000000Y-25000000D02*
X175000000Y-25000000D01*
D11*
X118928573Y-132028571D02*
X118071430Y-132028571D01*
X118500002Y-132028571D02*
X118500002Y-130528571D01*
X118357145Y-130742857D01*
X118214287Y-130885714D01*
X118071430Y-130957143D01*
X119857144Y-130528571D02*
X120000001Y-130528571D01*
X120142858Y-130600000D01*
X120214287Y-130671429D01*
X120285716Y-130814286D01*
X120357144Y-131100000D01*
X120357144Y-131457143D01*
X120285716Y-131742857D01*
X120214287Y-131885714D01*
X120142858Y-131957143D01*
X120000001Y-132028571D01*
X119857144Y-132028571D01*
X119714287Y-131957143D01*
X119642858Y-131885714D01*
X119571430Y-131742857D01*
X119500001Y-131457143D01*
X119500001Y-131100000D01*
X119571430Y-130814286D01*
X119642858Y-130671429D01*
X119714287Y-130600000D01*
X119857144Y-130528571D01*
X121285715Y-130528571D02*
X121428572Y-130528571D01*
X121571429Y-130600000D01*
X121642858Y-130671429D01*
X121714287Y-130814286D01*
X121785715Y-131100000D01*
X121785715Y-131457143D01*
X121714287Y-131742857D01*
X121642858Y-131885714D01*
X121571429Y-131957143D01*
X121428572Y-132028571D01*
X121285715Y-132028571D01*
X121142858Y-131957143D01*
X121071429Y-131885714D01*
X121000001Y-131742857D01*
X120928572Y-131457143D01*
X120928572Y-131100000D01*
X121000001Y-130814286D01*
X121071429Y-130671429D01*
X121142858Y-130600000D01*
X121285715Y-130528571D01*
X122428572Y-131885714D02*
X122500000Y-131957143D01*
X122428572Y-132028571D01*
X122357143Y-131957143D01*
X122428572Y-131885714D01*
X122428572Y-132028571D01*
X123428572Y-130528571D02*
X123571429Y-130528571D01*
X123714286Y-130600000D01*
X123785715Y-130671429D01*
X123857144Y-130814286D01*
X123928572Y-131100000D01*
X123928572Y-131457143D01*
X123857144Y-131742857D01*
X123785715Y-131885714D01*
X123714286Y-131957143D01*
X123571429Y-132028571D01*
X123428572Y-132028571D01*
X123285715Y-131957143D01*
X123214286Y-131885714D01*
X123142858Y-131742857D01*
X123071429Y-131457143D01*
X123071429Y-131100000D01*
X123142858Y-130814286D01*
X123214286Y-130671429D01*
X123285715Y-130600000D01*
X123428572Y-130528571D01*
X124857143Y-130528571D02*
X125000000Y-130528571D01*
X125142857Y-130600000D01*
X125214286Y-130671429D01*
X125285715Y-130814286D01*
X125357143Y-131100000D01*
X125357143Y-131457143D01*
X125285715Y-131742857D01*
X125214286Y-131885714D01*
X125142857Y-131957143D01*
X125000000Y-132028571D01*
X124857143Y-132028571D01*
X124714286Y-131957143D01*
X124642857Y-131885714D01*
X124571429Y-131742857D01*
X124500000Y-131457143D01*
X124500000Y-131100000D01*
X124571429Y-130814286D01*
X124642857Y-130671429D01*
X124714286Y-130600000D01*
X124857143Y-130528571D01*
X126285714Y-130528571D02*
X126428571Y-130528571D01*
X126571428Y-130600000D01*
X126642857Y-130671429D01*
X126714286Y-130814286D01*
X126785714Y-131100000D01*
X126785714Y-131457143D01*
X126714286Y-131742857D01*
X126642857Y-131885714D01*
X126571428Y-131957143D01*
X126428571Y-132028571D01*
X126285714Y-132028571D01*
X126142857Y-131957143D01*
X126071428Y-131885714D01*
X126000000Y-131742857D01*
X125928571Y-131457143D01*
X125928571Y-131100000D01*
X126000000Y-130814286D01*
X126071428Y-130671429D01*
X126142857Y-130600000D01*
X126285714Y-130528571D01*
X128571428Y-132028571D02*
X128571428Y-131028571D01*
X128571428Y-131171429D02*
X128642856Y-131100000D01*
X128785714Y-131028571D01*
X128999999Y-131028571D01*
X129142856Y-131100000D01*
X129214285Y-131242857D01*
X129214285Y-132028571D01*
X129214285Y-131242857D02*
X129285714Y-131100000D01*
X129428571Y-131028571D01*
X129642856Y-131028571D01*
X129785714Y-131100000D01*
X129857142Y-131242857D01*
X129857142Y-132028571D01*
X130571428Y-132028571D02*
X130571428Y-131028571D01*
X130571428Y-131171429D02*
X130642856Y-131100000D01*
X130785714Y-131028571D01*
X130999999Y-131028571D01*
X131142856Y-131100000D01*
X131214285Y-131242857D01*
X131214285Y-132028571D01*
X131214285Y-131242857D02*
X131285714Y-131100000D01*
X131428571Y-131028571D01*
X131642856Y-131028571D01*
X131785714Y-131100000D01*
X131857142Y-131242857D01*
X131857142Y-132028571D01*
X75000000Y-130000000D02*
X175000000Y-130000000D01*
X75000000Y-127500000D02*
X75000000Y-132700000D01*
X175000000Y-127500000D02*
X175000000Y-132700000D01*
X175000000Y-130000000D02*
X173873496Y-130586421D01*
X175000000Y-130000000D02*
X173873496Y-129413579D01*
X75000000Y-130000000D02*
X76126504Y-130586421D01*
X75000000Y-130000000D02*
X76126504Y-129413579D01*
M02*
