G04 #@! TF.FileFunction,Soldermask,Bot*
%FSLAX46Y46*%
G04 Gerber Fmt 4.6, Leading zero omitted, Abs format (unit mm)*
G04 Created by KiCad (PCBNEW (2015-03-10 BZR 5500)-product) date Tue 10 Mar 2015 09:04:04 PM EDT*
%MOMM*%
G01*
G04 APERTURE LIST*
%ADD10C,0.100000*%
%ADD11C,0.300000*%
%ADD12C,1.200000*%
%ADD13R,4.500000X2.000000*%
%ADD14O,5.000000X2.000000*%
%ADD15C,6.000000*%
%ADD16C,1.000000*%
%ADD17R,1.150000X1.450000*%
%ADD18R,1.450000X1.150000*%
%ADD19R,1.800000X1.200000*%
%ADD20R,1.300000X0.900000*%
%ADD21R,1.300000X0.800000*%
%ADD22O,1.550000X1.550000*%
%ADD23O,1.250000X1.250000*%
%ADD24C,2.000000*%
%ADD25C,2.400000*%
%ADD26R,1.524000X2.286000*%
%ADD27O,1.524000X2.286000*%
%ADD28R,0.950000X0.900000*%
%ADD29R,0.900000X0.950000*%
%ADD30R,0.850000X1.000000*%
%ADD31R,1.000000X0.850000*%
%ADD32C,0.254000*%
%ADD33C,0.200000*%
G04 APERTURE END LIST*
D10*
D11*
X138357143Y-126392857D02*
X138571429Y-126464286D01*
X138642857Y-126535714D01*
X138714286Y-126678571D01*
X138714286Y-126892857D01*
X138642857Y-127035714D01*
X138571429Y-127107143D01*
X138428571Y-127178571D01*
X137857143Y-127178571D01*
X137857143Y-125678571D01*
X138357143Y-125678571D01*
X138500000Y-125750000D01*
X138571429Y-125821429D01*
X138642857Y-125964286D01*
X138642857Y-126107143D01*
X138571429Y-126250000D01*
X138500000Y-126321429D01*
X138357143Y-126392857D01*
X137857143Y-126392857D01*
X139642857Y-125678571D02*
X139928571Y-125678571D01*
X140071429Y-125750000D01*
X140214286Y-125892857D01*
X140285714Y-126178571D01*
X140285714Y-126678571D01*
X140214286Y-126964286D01*
X140071429Y-127107143D01*
X139928571Y-127178571D01*
X139642857Y-127178571D01*
X139500000Y-127107143D01*
X139357143Y-126964286D01*
X139285714Y-126678571D01*
X139285714Y-126178571D01*
X139357143Y-125892857D01*
X139500000Y-125750000D01*
X139642857Y-125678571D01*
X140714286Y-125678571D02*
X141571429Y-125678571D01*
X141142858Y-127178571D02*
X141142858Y-125678571D01*
X142071429Y-127178571D02*
X142071429Y-125678571D01*
X142571429Y-126750000D01*
X143071429Y-125678571D01*
X143071429Y-127178571D01*
X143714286Y-126750000D02*
X144428572Y-126750000D01*
X143571429Y-127178571D02*
X144071429Y-125678571D01*
X144571429Y-127178571D01*
X145000000Y-127107143D02*
X145214286Y-127178571D01*
X145571429Y-127178571D01*
X145714286Y-127107143D01*
X145785715Y-127035714D01*
X145857143Y-126892857D01*
X145857143Y-126750000D01*
X145785715Y-126607143D01*
X145714286Y-126535714D01*
X145571429Y-126464286D01*
X145285715Y-126392857D01*
X145142857Y-126321429D01*
X145071429Y-126250000D01*
X145000000Y-126107143D01*
X145000000Y-125964286D01*
X145071429Y-125821429D01*
X145142857Y-125750000D01*
X145285715Y-125678571D01*
X145642857Y-125678571D01*
X145857143Y-125750000D01*
X146500000Y-127178571D02*
X146500000Y-125678571D01*
X147357143Y-127178571D02*
X146714286Y-126321429D01*
X147357143Y-125678571D02*
X146500000Y-126535714D01*
D12*
X85800000Y-71100000D03*
X101000000Y-98500000D03*
D13*
X100000000Y-112500000D03*
D14*
X100000000Y-118500000D03*
D15*
X85000000Y-35000000D03*
D16*
X87250000Y-35000000D03*
X86125000Y-36949000D03*
X83875000Y-36949000D03*
X82750000Y-35000000D03*
X83875000Y-33051000D03*
X86125000Y-33051000D03*
D15*
X85000000Y-115000000D03*
D16*
X87250000Y-115000000D03*
X86125000Y-116949000D03*
X83875000Y-116949000D03*
X82750000Y-115000000D03*
X83875000Y-113051000D03*
X86125000Y-113051000D03*
D15*
X165000000Y-115000000D03*
D16*
X167250000Y-115000000D03*
X166125000Y-116949000D03*
X163875000Y-116949000D03*
X162750000Y-115000000D03*
X163875000Y-113051000D03*
X166125000Y-113051000D03*
D15*
X165000000Y-35000000D03*
D16*
X167250000Y-35000000D03*
X166125000Y-36949000D03*
X163875000Y-36949000D03*
X162750000Y-35000000D03*
X163875000Y-33051000D03*
X166125000Y-33051000D03*
D17*
X131100000Y-79750000D03*
X132900000Y-79750000D03*
X155600000Y-79500000D03*
X157400000Y-79500000D03*
D18*
X160000000Y-108100000D03*
X160000000Y-109900000D03*
X164000000Y-108900000D03*
X164000000Y-107100000D03*
D19*
X156500000Y-107550000D03*
X156500000Y-110450000D03*
X166250000Y-109450000D03*
X166250000Y-106550000D03*
D20*
X137850000Y-110050000D03*
X137850000Y-111950000D03*
D21*
X135650000Y-111000000D03*
D20*
X137850000Y-106300000D03*
X137850000Y-108200000D03*
D21*
X135650000Y-107250000D03*
D22*
X82500000Y-123500000D03*
X89500000Y-123500000D03*
D23*
X83500000Y-120800000D03*
X88500000Y-120800000D03*
D24*
X149000000Y-46500000D03*
X149000000Y-41500000D03*
X123000000Y-46500000D03*
X123000000Y-41500000D03*
X128000000Y-120000000D03*
D25*
X125450000Y-117450000D03*
X130550000Y-117450000D03*
X125450000Y-122550000D03*
X130550000Y-122550000D03*
D24*
X143500000Y-120000000D03*
D25*
X140950000Y-117450000D03*
X146050000Y-117450000D03*
X140950000Y-122550000D03*
X146050000Y-122550000D03*
D24*
X158000000Y-120000000D03*
D25*
X155450000Y-117450000D03*
X160550000Y-117450000D03*
X155450000Y-122550000D03*
X160550000Y-122550000D03*
D26*
X95570000Y-56524000D03*
D27*
X98110000Y-56524000D03*
X100650000Y-56524000D03*
X103190000Y-56524000D03*
X105730000Y-56524000D03*
X108270000Y-56524000D03*
X110810000Y-56524000D03*
X113350000Y-56524000D03*
X115890000Y-56524000D03*
X118430000Y-56524000D03*
X95570000Y-53476000D03*
X98110000Y-53476000D03*
X100650000Y-53476000D03*
X103190000Y-53476000D03*
X105730000Y-53476000D03*
X108270000Y-53476000D03*
X110810000Y-53476000D03*
X113350000Y-53476000D03*
X115890000Y-53476000D03*
X118430000Y-53476000D03*
D26*
X108150000Y-121000000D03*
D27*
X110690000Y-121000000D03*
X113230000Y-121000000D03*
X115770000Y-121000000D03*
X118310000Y-121000000D03*
X120850000Y-121000000D03*
D12*
X129000000Y-54500000D03*
D28*
X128500000Y-80750000D03*
X128500000Y-79250000D03*
X153000000Y-80750000D03*
X153000000Y-79250000D03*
D29*
X129750000Y-81750000D03*
X131250000Y-81750000D03*
X132750000Y-81750000D03*
X134250000Y-81750000D03*
X154250000Y-81750000D03*
X155750000Y-81750000D03*
X157250000Y-81750000D03*
X158750000Y-81750000D03*
D28*
X164500000Y-100250000D03*
X164500000Y-98750000D03*
D18*
X167500000Y-100400000D03*
X167500000Y-98600000D03*
D28*
X159500000Y-101500000D03*
X159500000Y-103000000D03*
D18*
X157500000Y-101350000D03*
X157500000Y-103150000D03*
D30*
X147500000Y-104250000D03*
X146000000Y-104250000D03*
X147500000Y-106000000D03*
X146000000Y-106000000D03*
D29*
X136750000Y-102250000D03*
X138250000Y-102250000D03*
X135250000Y-102250000D03*
X133750000Y-102250000D03*
D30*
X134250000Y-110000000D03*
X132750000Y-110000000D03*
D31*
X140000000Y-108000000D03*
X140000000Y-106500000D03*
D32*
G36*
X81127000Y-119127000D02*
X80127000Y-119127000D01*
X80127000Y-124877000D01*
X75123000Y-124877000D01*
X75123000Y-124000000D01*
X75123000Y-25123000D01*
X81127000Y-25123000D01*
X81127000Y-119127000D01*
X81127000Y-119127000D01*
G37*
X81127000Y-119127000D02*
X80127000Y-119127000D01*
X80127000Y-124877000D01*
X75123000Y-124877000D01*
X75123000Y-124000000D01*
X75123000Y-25123000D01*
X81127000Y-25123000D01*
X81127000Y-119127000D01*
G36*
X174877000Y-124877000D02*
X168873000Y-124877000D01*
X168873000Y-25123000D01*
X174877000Y-25123000D01*
X174877000Y-124877000D01*
X174877000Y-124877000D01*
G37*
X174877000Y-124877000D02*
X168873000Y-124877000D01*
X168873000Y-25123000D01*
X174877000Y-25123000D01*
X174877000Y-124877000D01*
D11*
G36*
X163150000Y-108350000D02*
X160850000Y-108350000D01*
X160850000Y-105650000D01*
X163150000Y-105650000D01*
X163150000Y-108350000D01*
X163150000Y-108350000D01*
G37*
X163150000Y-108350000D02*
X160850000Y-108350000D01*
X160850000Y-105650000D01*
X163150000Y-105650000D01*
X163150000Y-108350000D01*
D33*
G36*
X163350000Y-102850000D02*
X161226393Y-102850000D01*
X160650000Y-102561803D01*
X160650000Y-99150000D01*
X163350000Y-99150000D01*
X163350000Y-102850000D01*
X163350000Y-102850000D01*
G37*
X163350000Y-102850000D02*
X161226393Y-102850000D01*
X160650000Y-102561803D01*
X160650000Y-99150000D01*
X163350000Y-99150000D01*
X163350000Y-102850000D01*
M02*
