G04 #@! TF.FileFunction,Legend,Bot*
%FSLAX46Y46*%
G04 Gerber Fmt 4.6, Leading zero omitted, Abs format (unit mm)*
G04 Created by KiCad (PCBNEW (2015-03-12 BZR 5508)-product) date Fri 13 Mar 2015 09:00:28 AM EDT*
%MOMM*%
G01*
G04 APERTURE LIST*
%ADD10C,0.100000*%
%ADD11C,0.200000*%
%ADD12C,0.150000*%
%ADD13C,0.300000*%
%ADD14C,0.600000*%
%ADD15C,0.075000*%
%ADD16C,0.002540*%
%ADD17C,0.350000*%
%ADD18C,0.990600*%
%ADD19C,2.374900*%
%ADD20C,1.200000*%
%ADD21R,4.500000X2.000000*%
%ADD22O,5.000000X2.000000*%
%ADD23C,6.000000*%
%ADD24C,1.000000*%
%ADD25R,1.150000X1.450000*%
%ADD26R,1.450000X1.150000*%
%ADD27R,1.800000X1.200000*%
%ADD28R,1.300000X0.900000*%
%ADD29R,1.300000X0.800000*%
%ADD30O,1.550000X1.550000*%
%ADD31O,1.250000X1.250000*%
%ADD32C,2.000000*%
%ADD33C,2.400000*%
%ADD34R,1.524000X2.286000*%
%ADD35O,1.524000X2.286000*%
%ADD36R,0.950000X0.900000*%
%ADD37R,0.900000X0.950000*%
%ADD38R,0.850000X1.000000*%
%ADD39R,1.000000X0.850000*%
%ADD40R,1.000000X0.950000*%
%ADD41R,1.500000X1.500000*%
%ADD42C,1.500000*%
%ADD43C,0.254000*%
G04 APERTURE END LIST*
D10*
D11*
X121000000Y-64500000D02*
X124000000Y-61500000D01*
X126500000Y-59500000D02*
X126000000Y-60000000D01*
X127500000Y-59500000D02*
X126500000Y-59500000D01*
X158000000Y-118500000D02*
X158750000Y-117750000D01*
X158000000Y-118500000D02*
X157250000Y-117750000D01*
X143500000Y-117750000D02*
X144250000Y-118500000D01*
X142750000Y-118500000D02*
X143500000Y-117750000D01*
X130250000Y-120000000D02*
X129500000Y-120750000D01*
X129500000Y-119250000D02*
X130250000Y-120000000D01*
X139500000Y-98500000D02*
X140250000Y-99250000D01*
X139500000Y-98500000D02*
X138750000Y-99250000D01*
X117500000Y-96000000D02*
X118250000Y-96000000D01*
X117500000Y-96000000D02*
X117500000Y-96750000D01*
X119500000Y-105250000D02*
X120000000Y-106000000D01*
X119500000Y-105250000D02*
X119000000Y-106000000D01*
X126500000Y-101500000D02*
X127250000Y-100500000D01*
X125750000Y-100500000D02*
X126500000Y-101500000D01*
X126500000Y-91750000D02*
X127250000Y-90750000D01*
X125750000Y-90750000D02*
X126500000Y-91750000D01*
X137500000Y-87250000D02*
X138000000Y-86500000D01*
X137000000Y-86500000D02*
X137500000Y-87250000D01*
X141750000Y-77250000D02*
X142500000Y-78000000D01*
X141750000Y-77250000D02*
X142500000Y-76500000D01*
X148715714Y-109695238D02*
X148753810Y-109657143D01*
X148791905Y-109542857D01*
X148791905Y-109466667D01*
X148753810Y-109352381D01*
X148677619Y-109276190D01*
X148601429Y-109238095D01*
X148449048Y-109200000D01*
X148334762Y-109200000D01*
X148182381Y-109238095D01*
X148106190Y-109276190D01*
X148030000Y-109352381D01*
X147991905Y-109466667D01*
X147991905Y-109542857D01*
X148030000Y-109657143D01*
X148068095Y-109695238D01*
X148791905Y-110038095D02*
X147991905Y-110038095D01*
X148372857Y-110038095D02*
X148372857Y-110495238D01*
X148791905Y-110495238D02*
X147991905Y-110495238D01*
X148563333Y-110838095D02*
X148563333Y-111219047D01*
X148791905Y-110761904D02*
X147991905Y-111028571D01*
X148791905Y-111295238D01*
X148791905Y-111561904D02*
X147991905Y-111561904D01*
X148791905Y-112019047D01*
X147991905Y-112019047D01*
X148753810Y-112971428D02*
X148791905Y-113085714D01*
X148791905Y-113276190D01*
X148753810Y-113352380D01*
X148715714Y-113390476D01*
X148639524Y-113428571D01*
X148563333Y-113428571D01*
X148487143Y-113390476D01*
X148449048Y-113352380D01*
X148410952Y-113276190D01*
X148372857Y-113123809D01*
X148334762Y-113047618D01*
X148296667Y-113009523D01*
X148220476Y-112971428D01*
X148144286Y-112971428D01*
X148068095Y-113009523D01*
X148030000Y-113047618D01*
X147991905Y-113123809D01*
X147991905Y-113314285D01*
X148030000Y-113428571D01*
X148372857Y-113771428D02*
X148372857Y-114038095D01*
X148791905Y-114152381D02*
X148791905Y-113771428D01*
X147991905Y-113771428D01*
X147991905Y-114152381D01*
X148791905Y-114876191D02*
X148791905Y-114495238D01*
X147991905Y-114495238D01*
X150073810Y-110000000D02*
X150111905Y-110114286D01*
X150111905Y-110304762D01*
X150073810Y-110380952D01*
X150035714Y-110419048D01*
X149959524Y-110457143D01*
X149883333Y-110457143D01*
X149807143Y-110419048D01*
X149769048Y-110380952D01*
X149730952Y-110304762D01*
X149692857Y-110152381D01*
X149654762Y-110076190D01*
X149616667Y-110038095D01*
X149540476Y-110000000D01*
X149464286Y-110000000D01*
X149388095Y-110038095D01*
X149350000Y-110076190D01*
X149311905Y-110152381D01*
X149311905Y-110342857D01*
X149350000Y-110457143D01*
X149311905Y-110723810D02*
X150111905Y-110914286D01*
X149540476Y-111066667D01*
X150111905Y-111219048D01*
X149311905Y-111409524D01*
X150111905Y-111714286D02*
X149311905Y-111714286D01*
X149311905Y-111980952D02*
X149311905Y-112438095D01*
X150111905Y-112209524D02*
X149311905Y-112209524D01*
X150035714Y-113161905D02*
X150073810Y-113123810D01*
X150111905Y-113009524D01*
X150111905Y-112933334D01*
X150073810Y-112819048D01*
X149997619Y-112742857D01*
X149921429Y-112704762D01*
X149769048Y-112666667D01*
X149654762Y-112666667D01*
X149502381Y-112704762D01*
X149426190Y-112742857D01*
X149350000Y-112819048D01*
X149311905Y-112933334D01*
X149311905Y-113009524D01*
X149350000Y-113123810D01*
X149388095Y-113161905D01*
X150111905Y-113504762D02*
X149311905Y-113504762D01*
X149692857Y-113504762D02*
X149692857Y-113961905D01*
X150111905Y-113961905D02*
X149311905Y-113961905D01*
X151012857Y-110133334D02*
X151050952Y-110247620D01*
X151089048Y-110285715D01*
X151165238Y-110323810D01*
X151279524Y-110323810D01*
X151355714Y-110285715D01*
X151393810Y-110247620D01*
X151431905Y-110171429D01*
X151431905Y-109866667D01*
X150631905Y-109866667D01*
X150631905Y-110133334D01*
X150670000Y-110209524D01*
X150708095Y-110247620D01*
X150784286Y-110285715D01*
X150860476Y-110285715D01*
X150936667Y-110247620D01*
X150974762Y-110209524D01*
X151012857Y-110133334D01*
X151012857Y-109866667D01*
X151431905Y-110666667D02*
X150631905Y-110666667D01*
X151203333Y-111009524D02*
X151203333Y-111390476D01*
X151431905Y-110933333D02*
X150631905Y-111200000D01*
X151431905Y-111466667D01*
X151393810Y-111695238D02*
X151431905Y-111809524D01*
X151431905Y-112000000D01*
X151393810Y-112076190D01*
X151355714Y-112114286D01*
X151279524Y-112152381D01*
X151203333Y-112152381D01*
X151127143Y-112114286D01*
X151089048Y-112076190D01*
X151050952Y-112000000D01*
X151012857Y-111847619D01*
X150974762Y-111771428D01*
X150936667Y-111733333D01*
X150860476Y-111695238D01*
X150784286Y-111695238D01*
X150708095Y-111733333D01*
X150670000Y-111771428D01*
X150631905Y-111847619D01*
X150631905Y-112038095D01*
X150670000Y-112152381D01*
X151431905Y-112495238D02*
X150631905Y-112495238D01*
X151431905Y-112876190D02*
X150631905Y-112876190D01*
X151431905Y-113333333D01*
X150631905Y-113333333D01*
X150670000Y-114133333D02*
X150631905Y-114057142D01*
X150631905Y-113942857D01*
X150670000Y-113828571D01*
X150746190Y-113752380D01*
X150822381Y-113714285D01*
X150974762Y-113676190D01*
X151089048Y-113676190D01*
X151241429Y-113714285D01*
X151317619Y-113752380D01*
X151393810Y-113828571D01*
X151431905Y-113942857D01*
X151431905Y-114019047D01*
X151393810Y-114133333D01*
X151355714Y-114171428D01*
X151089048Y-114171428D01*
X151089048Y-114019047D01*
D12*
X104452936Y-109856997D02*
X104456303Y-109914239D01*
X104513545Y-110025356D01*
X104567420Y-110079231D01*
X104671802Y-110129738D01*
X104772818Y-110123004D01*
X104846896Y-110089333D01*
X104968114Y-109995052D01*
X105038824Y-109904137D01*
X105106168Y-109755982D01*
X105126372Y-109668435D01*
X105119637Y-109553951D01*
X105062394Y-109442834D01*
X105008520Y-109388960D01*
X104904137Y-109338452D01*
X104853630Y-109341819D01*
X104163359Y-109675170D02*
X104658334Y-109038774D01*
X104422632Y-109341819D02*
X104099383Y-109018570D01*
X103840110Y-109351921D02*
X104335085Y-108715525D01*
X103739096Y-108927657D02*
X103469722Y-108658283D01*
X103651549Y-109163360D02*
X103957961Y-108338402D01*
X103274425Y-108786236D01*
X103085863Y-108597674D02*
X103580838Y-107961278D01*
X102762614Y-108274425D01*
X103257589Y-107638029D01*
X102112749Y-107570686D02*
X102008367Y-107520178D01*
X101873680Y-107385491D01*
X101843376Y-107301312D01*
X101840008Y-107244069D01*
X101860211Y-107156523D01*
X101907352Y-107095914D01*
X101981430Y-107062242D01*
X102031938Y-107058876D01*
X102109383Y-107082445D01*
X102240702Y-107159890D01*
X102318148Y-107183461D01*
X102368655Y-107180093D01*
X102442733Y-107146421D01*
X102489873Y-107085813D01*
X102510077Y-106998266D01*
X102506710Y-106941024D01*
X102476404Y-106856845D01*
X102341718Y-106722158D01*
X102237335Y-106671650D01*
X101782767Y-106701954D02*
X101594205Y-106513392D01*
X101254119Y-106765930D02*
X101523494Y-107035305D01*
X102018469Y-106398909D01*
X101749094Y-106129534D01*
X100742308Y-106254119D02*
X101011683Y-106523494D01*
X101506658Y-105887098D01*
X119111905Y-102061905D02*
X119111905Y-101680952D01*
X118311905Y-101780952D01*
X118692857Y-102380952D02*
X118692857Y-102647619D01*
X119111905Y-102709524D02*
X119111905Y-102328571D01*
X118311905Y-102428571D01*
X118311905Y-102809524D01*
X118311905Y-103038095D02*
X119111905Y-103204762D01*
X118311905Y-103571429D01*
X118692857Y-103790476D02*
X118692857Y-104057143D01*
X119111905Y-104119048D02*
X119111905Y-103738095D01*
X118311905Y-103838095D01*
X118311905Y-104219048D01*
X119111905Y-104842858D02*
X119111905Y-104461905D01*
X118311905Y-104561905D01*
X107111905Y-89311905D02*
X107111905Y-88930952D01*
X106311905Y-89030952D01*
X106692857Y-89630952D02*
X106692857Y-89897619D01*
X107111905Y-89959524D02*
X107111905Y-89578571D01*
X106311905Y-89678571D01*
X106311905Y-90059524D01*
X106311905Y-90288095D02*
X107111905Y-90454762D01*
X106311905Y-90821429D01*
X106692857Y-91040476D02*
X106692857Y-91307143D01*
X107111905Y-91369048D02*
X107111905Y-90988095D01*
X106311905Y-91088095D01*
X106311905Y-91469048D01*
X107111905Y-92092858D02*
X107111905Y-91711905D01*
X106311905Y-91811905D01*
X103361905Y-73311905D02*
X103361905Y-72930952D01*
X102561905Y-73030952D01*
X102942857Y-73630952D02*
X102942857Y-73897619D01*
X103361905Y-73959524D02*
X103361905Y-73578571D01*
X102561905Y-73678571D01*
X102561905Y-74059524D01*
X102561905Y-74288095D02*
X103361905Y-74454762D01*
X102561905Y-74821429D01*
X102942857Y-75040476D02*
X102942857Y-75307143D01*
X103361905Y-75369048D02*
X103361905Y-74988095D01*
X102561905Y-75088095D01*
X102561905Y-75469048D01*
X103361905Y-76092858D02*
X103361905Y-75711905D01*
X102561905Y-75811905D01*
X101785714Y-77659524D02*
X101823810Y-77616667D01*
X101861905Y-77497619D01*
X101861905Y-77421429D01*
X101823810Y-77311905D01*
X101747619Y-77245238D01*
X101671429Y-77216666D01*
X101519048Y-77197619D01*
X101404762Y-77211905D01*
X101252381Y-77269047D01*
X101176190Y-77316666D01*
X101100000Y-77402381D01*
X101061905Y-77521429D01*
X101061905Y-77597619D01*
X101100000Y-77707143D01*
X101138095Y-77740476D01*
X101861905Y-77992857D02*
X101061905Y-78092857D01*
X101442857Y-78045238D02*
X101442857Y-78502381D01*
X101861905Y-78450000D02*
X101061905Y-78550000D01*
X101633333Y-78821428D02*
X101633333Y-79202380D01*
X101861905Y-78716666D02*
X101061905Y-79083333D01*
X101861905Y-79250000D01*
X101861905Y-79516666D02*
X101061905Y-79616666D01*
X101861905Y-79973809D01*
X101061905Y-80073809D01*
X101823810Y-80930952D02*
X101861905Y-81040476D01*
X101861905Y-81230952D01*
X101823810Y-81311904D01*
X101785714Y-81354762D01*
X101709524Y-81402381D01*
X101633333Y-81411904D01*
X101557143Y-81383333D01*
X101519048Y-81349999D01*
X101480952Y-81278571D01*
X101442857Y-81130952D01*
X101404762Y-81059523D01*
X101366667Y-81026190D01*
X101290476Y-80997619D01*
X101214286Y-81007142D01*
X101138095Y-81054761D01*
X101100000Y-81097618D01*
X101061905Y-81178571D01*
X101061905Y-81369047D01*
X101100000Y-81478571D01*
X101442857Y-81778571D02*
X101442857Y-82045238D01*
X101861905Y-82107143D02*
X101861905Y-81726190D01*
X101061905Y-81826190D01*
X101061905Y-82207143D01*
X101861905Y-82830953D02*
X101861905Y-82450000D01*
X101061905Y-82550000D01*
X99061905Y-75545238D02*
X99709524Y-75464286D01*
X99785714Y-75492857D01*
X99823810Y-75526191D01*
X99861905Y-75597619D01*
X99861905Y-75750000D01*
X99823810Y-75830953D01*
X99785714Y-75873810D01*
X99709524Y-75921429D01*
X99061905Y-76002381D01*
X99823810Y-76250000D02*
X99861905Y-76359524D01*
X99861905Y-76550000D01*
X99823810Y-76630952D01*
X99785714Y-76673810D01*
X99709524Y-76721429D01*
X99633333Y-76730952D01*
X99557143Y-76702381D01*
X99519048Y-76669047D01*
X99480952Y-76597619D01*
X99442857Y-76450000D01*
X99404762Y-76378571D01*
X99366667Y-76345238D01*
X99290476Y-76316667D01*
X99214286Y-76326190D01*
X99138095Y-76373809D01*
X99100000Y-76416666D01*
X99061905Y-76497619D01*
X99061905Y-76688095D01*
X99100000Y-76797619D01*
X99442857Y-77364286D02*
X99480952Y-77473810D01*
X99519048Y-77507143D01*
X99595238Y-77535714D01*
X99709524Y-77521429D01*
X99785714Y-77473810D01*
X99823810Y-77430953D01*
X99861905Y-77350000D01*
X99861905Y-77045238D01*
X99061905Y-77145238D01*
X99061905Y-77411905D01*
X99100000Y-77483333D01*
X99138095Y-77516667D01*
X99214286Y-77545238D01*
X99290476Y-77535715D01*
X99366667Y-77488096D01*
X99404762Y-77445238D01*
X99442857Y-77364286D01*
X99442857Y-77097619D01*
D11*
X100500000Y-73000000D02*
X101000000Y-72500000D01*
X100000000Y-72500000D02*
X100500000Y-73000000D01*
X109000000Y-115000000D02*
X148500000Y-115000000D01*
X98000000Y-104000000D02*
X109000000Y-115000000D01*
X98000000Y-91500000D02*
X98000000Y-104000000D01*
X97500000Y-91000000D02*
X98000000Y-91500000D01*
X97500000Y-84000000D02*
X97500000Y-91000000D01*
X100500000Y-81000000D02*
X97500000Y-84000000D01*
X100500000Y-72000000D02*
X100500000Y-81000000D01*
X102000000Y-69500000D02*
X102500000Y-70000000D01*
X101500000Y-70000000D02*
X102000000Y-69500000D01*
X102000000Y-69000000D02*
X102000000Y-70000000D01*
X105500000Y-65500000D02*
X102000000Y-69000000D01*
X120000000Y-65500000D02*
X105500000Y-65500000D01*
X121000000Y-64500000D02*
X120000000Y-65500000D01*
X122000000Y-58000000D02*
X121500000Y-58500000D01*
X129500000Y-59500000D02*
X127500000Y-59500000D01*
X118000000Y-67000000D02*
X117000000Y-68000000D01*
X118000000Y-67000000D02*
X117000000Y-66000000D01*
X103500000Y-69500000D02*
X104000000Y-70000000D01*
X103000000Y-70000000D02*
X103500000Y-69500000D01*
X103500000Y-69000000D02*
X103500000Y-70000000D01*
X104000000Y-68500000D02*
X103500000Y-69000000D01*
X105500000Y-67000000D02*
X104000000Y-68500000D01*
X113000000Y-67000000D02*
X105500000Y-67000000D01*
X102000000Y-72000000D02*
X102500000Y-72500000D01*
X102000000Y-72000000D02*
X101500000Y-72500000D01*
X102000000Y-76500000D02*
X102000000Y-72000000D01*
X107500000Y-82500000D02*
X102000000Y-76500000D01*
X98750000Y-72000000D02*
X99250000Y-72500000D01*
X98750000Y-72000000D02*
X98250000Y-72500000D01*
X98750000Y-76750000D02*
X98750000Y-72000000D01*
X98250000Y-77250000D02*
X98750000Y-76750000D01*
X94250000Y-77250000D02*
X98250000Y-77250000D01*
X106697619Y-71361905D02*
X106697619Y-70561905D01*
X106430952Y-71133333D01*
X106164285Y-70561905D01*
X106164285Y-71361905D01*
X105783333Y-71361905D02*
X105783333Y-70561905D01*
X104945238Y-71285714D02*
X104983333Y-71323810D01*
X105097619Y-71361905D01*
X105173809Y-71361905D01*
X105288095Y-71323810D01*
X105364286Y-71247619D01*
X105402381Y-71171429D01*
X105440476Y-71019048D01*
X105440476Y-70904762D01*
X105402381Y-70752381D01*
X105364286Y-70676190D01*
X105288095Y-70600000D01*
X105173809Y-70561905D01*
X105097619Y-70561905D01*
X104983333Y-70600000D01*
X104945238Y-70638095D01*
X104145238Y-71361905D02*
X104411905Y-70980952D01*
X104602381Y-71361905D02*
X104602381Y-70561905D01*
X104297619Y-70561905D01*
X104221428Y-70600000D01*
X104183333Y-70638095D01*
X104145238Y-70714286D01*
X104145238Y-70828571D01*
X104183333Y-70904762D01*
X104221428Y-70942857D01*
X104297619Y-70980952D01*
X104602381Y-70980952D01*
X103650000Y-70561905D02*
X103497619Y-70561905D01*
X103421428Y-70600000D01*
X103345238Y-70676190D01*
X103307143Y-70828571D01*
X103307143Y-71095238D01*
X103345238Y-71247619D01*
X103421428Y-71323810D01*
X103497619Y-71361905D01*
X103650000Y-71361905D01*
X103726190Y-71323810D01*
X103802381Y-71247619D01*
X103840476Y-71095238D01*
X103840476Y-70828571D01*
X103802381Y-70676190D01*
X103726190Y-70600000D01*
X103650000Y-70561905D01*
X102507143Y-71285714D02*
X102545238Y-71323810D01*
X102659524Y-71361905D01*
X102735714Y-71361905D01*
X102850000Y-71323810D01*
X102926191Y-71247619D01*
X102964286Y-71171429D01*
X103002381Y-71019048D01*
X103002381Y-70904762D01*
X102964286Y-70752381D01*
X102926191Y-70676190D01*
X102850000Y-70600000D01*
X102735714Y-70561905D01*
X102659524Y-70561905D01*
X102545238Y-70600000D01*
X102507143Y-70638095D01*
X102011905Y-70561905D02*
X101859524Y-70561905D01*
X101783333Y-70600000D01*
X101707143Y-70676190D01*
X101669048Y-70828571D01*
X101669048Y-71095238D01*
X101707143Y-71247619D01*
X101783333Y-71323810D01*
X101859524Y-71361905D01*
X102011905Y-71361905D01*
X102088095Y-71323810D01*
X102164286Y-71247619D01*
X102202381Y-71095238D01*
X102202381Y-70828571D01*
X102164286Y-70676190D01*
X102088095Y-70600000D01*
X102011905Y-70561905D01*
X101326191Y-71361905D02*
X101326191Y-70561905D01*
X100869048Y-71361905D01*
X100869048Y-70561905D01*
X100602382Y-70561905D02*
X100145239Y-70561905D01*
X100373810Y-71361905D02*
X100373810Y-70561905D01*
X99421429Y-71361905D02*
X99688096Y-70980952D01*
X99878572Y-71361905D02*
X99878572Y-70561905D01*
X99573810Y-70561905D01*
X99497619Y-70600000D01*
X99459524Y-70638095D01*
X99421429Y-70714286D01*
X99421429Y-70828571D01*
X99459524Y-70904762D01*
X99497619Y-70942857D01*
X99573810Y-70980952D01*
X99878572Y-70980952D01*
X98926191Y-70561905D02*
X98773810Y-70561905D01*
X98697619Y-70600000D01*
X98621429Y-70676190D01*
X98583334Y-70828571D01*
X98583334Y-71095238D01*
X98621429Y-71247619D01*
X98697619Y-71323810D01*
X98773810Y-71361905D01*
X98926191Y-71361905D01*
X99002381Y-71323810D01*
X99078572Y-71247619D01*
X99116667Y-71095238D01*
X99116667Y-70828571D01*
X99078572Y-70676190D01*
X99002381Y-70600000D01*
X98926191Y-70561905D01*
X97859524Y-71361905D02*
X98240477Y-71361905D01*
X98240477Y-70561905D01*
X97211905Y-71361905D02*
X97592858Y-71361905D01*
X97592858Y-70561905D01*
X96945239Y-70942857D02*
X96678572Y-70942857D01*
X96564286Y-71361905D02*
X96945239Y-71361905D01*
X96945239Y-70561905D01*
X96564286Y-70561905D01*
X95764286Y-71361905D02*
X96030953Y-70980952D01*
X96221429Y-71361905D02*
X96221429Y-70561905D01*
X95916667Y-70561905D01*
X95840476Y-70600000D01*
X95802381Y-70638095D01*
X95764286Y-70714286D01*
X95764286Y-70828571D01*
X95802381Y-70904762D01*
X95840476Y-70942857D01*
X95916667Y-70980952D01*
X96221429Y-70980952D01*
D12*
X84311905Y-81045238D02*
X84959524Y-80964286D01*
X85035714Y-80992857D01*
X85073810Y-81026191D01*
X85111905Y-81097619D01*
X85111905Y-81250000D01*
X85073810Y-81330953D01*
X85035714Y-81373810D01*
X84959524Y-81421429D01*
X84311905Y-81502381D01*
X85073810Y-81750000D02*
X85111905Y-81859524D01*
X85111905Y-82050000D01*
X85073810Y-82130952D01*
X85035714Y-82173810D01*
X84959524Y-82221429D01*
X84883333Y-82230952D01*
X84807143Y-82202381D01*
X84769048Y-82169047D01*
X84730952Y-82097619D01*
X84692857Y-81950000D01*
X84654762Y-81878571D01*
X84616667Y-81845238D01*
X84540476Y-81816667D01*
X84464286Y-81826190D01*
X84388095Y-81873809D01*
X84350000Y-81916666D01*
X84311905Y-81997619D01*
X84311905Y-82188095D01*
X84350000Y-82297619D01*
X84692857Y-82864286D02*
X84730952Y-82973810D01*
X84769048Y-83007143D01*
X84845238Y-83035714D01*
X84959524Y-83021429D01*
X85035714Y-82973810D01*
X85073810Y-82930953D01*
X85111905Y-82850000D01*
X85111905Y-82545238D01*
X84311905Y-82645238D01*
X84311905Y-82911905D01*
X84350000Y-82983333D01*
X84388095Y-83016667D01*
X84464286Y-83045238D01*
X84540476Y-83035715D01*
X84616667Y-82988096D01*
X84654762Y-82945238D01*
X84692857Y-82864286D01*
X84692857Y-82597619D01*
X87954762Y-94311905D02*
X88035714Y-94959524D01*
X88007143Y-95035714D01*
X87973809Y-95073810D01*
X87902381Y-95111905D01*
X87750000Y-95111905D01*
X87669047Y-95073810D01*
X87626190Y-95035714D01*
X87578571Y-94959524D01*
X87497619Y-94311905D01*
X87250000Y-95073810D02*
X87140476Y-95111905D01*
X86950000Y-95111905D01*
X86869048Y-95073810D01*
X86826190Y-95035714D01*
X86778571Y-94959524D01*
X86769048Y-94883333D01*
X86797619Y-94807143D01*
X86830953Y-94769048D01*
X86902381Y-94730952D01*
X87050000Y-94692857D01*
X87121429Y-94654762D01*
X87154762Y-94616667D01*
X87183333Y-94540476D01*
X87173810Y-94464286D01*
X87126191Y-94388095D01*
X87083334Y-94350000D01*
X87002381Y-94311905D01*
X86811905Y-94311905D01*
X86702381Y-94350000D01*
X86135714Y-94692857D02*
X86026190Y-94730952D01*
X85992857Y-94769048D01*
X85964286Y-94845238D01*
X85978571Y-94959524D01*
X86026190Y-95035714D01*
X86069047Y-95073810D01*
X86150000Y-95111905D01*
X86454762Y-95111905D01*
X86354762Y-94311905D01*
X86088095Y-94311905D01*
X86016667Y-94350000D01*
X85983333Y-94388095D01*
X85954762Y-94464286D01*
X85964285Y-94540476D01*
X86011904Y-94616667D01*
X86054762Y-94654762D01*
X86135714Y-94692857D01*
X86402381Y-94692857D01*
X91365339Y-117015101D02*
X91880516Y-117415795D01*
X91914188Y-117489873D01*
X91917555Y-117540381D01*
X91893985Y-117617826D01*
X91786236Y-117725575D01*
X91702056Y-117755881D01*
X91644814Y-117759247D01*
X91557267Y-117739044D01*
X91042090Y-117338350D01*
X91405745Y-118052192D02*
X91355237Y-118156574D01*
X91220550Y-118291261D01*
X91136371Y-118321565D01*
X91079128Y-118324933D01*
X90991582Y-118304730D01*
X90930973Y-118257588D01*
X90897301Y-118183511D01*
X90893935Y-118133003D01*
X90917504Y-118055558D01*
X90994949Y-117924238D01*
X91018520Y-117846793D01*
X91015153Y-117796286D01*
X90981480Y-117722208D01*
X90920872Y-117675067D01*
X90833325Y-117654864D01*
X90776083Y-117658231D01*
X90691904Y-117688536D01*
X90557217Y-117823223D01*
X90506709Y-117927606D01*
X90348451Y-118570736D02*
X90297943Y-118675119D01*
X90301311Y-118725627D01*
X90334983Y-118799704D01*
X90425896Y-118870415D01*
X90513443Y-118890618D01*
X90570685Y-118887251D01*
X90654865Y-118856946D01*
X90870364Y-118641447D01*
X90233968Y-118146472D01*
X90045406Y-118335034D01*
X90021836Y-118412479D01*
X90025202Y-118462987D01*
X90058875Y-118537065D01*
X90119483Y-118584205D01*
X90207030Y-118604409D01*
X90264272Y-118601041D01*
X90348451Y-118570736D01*
X90537013Y-118382174D01*
D11*
X84250000Y-77750000D02*
X84000000Y-78000000D01*
X84000000Y-95000000D02*
X84000000Y-78000000D01*
X87750000Y-77250000D02*
X94250000Y-77250000D01*
X87250000Y-76750000D02*
X87750000Y-77250000D01*
X85250000Y-76750000D02*
X87250000Y-76750000D01*
X84250000Y-77750000D02*
X85250000Y-76750000D01*
X84500000Y-95500000D02*
X84000000Y-95000000D01*
X89500000Y-95500000D02*
X84500000Y-95500000D01*
X91500000Y-97500000D02*
X89500000Y-95500000D01*
X91500000Y-103500000D02*
X91500000Y-97500000D01*
X93250000Y-105250000D02*
X91500000Y-103500000D01*
X93250000Y-107250000D02*
X93250000Y-105250000D01*
X93500000Y-107500000D02*
X93250000Y-107250000D01*
X93500000Y-110500000D02*
X93500000Y-107500000D01*
X92250000Y-111750000D02*
X93500000Y-110500000D01*
X92250000Y-117750000D02*
X92250000Y-111750000D01*
X90750000Y-119250000D02*
X92250000Y-117750000D01*
X87500000Y-119250000D02*
X90750000Y-119250000D01*
D12*
X83111905Y-49857143D02*
X82311905Y-49957143D01*
X82311905Y-50261905D01*
X82350000Y-50333334D01*
X82388095Y-50366667D01*
X82464286Y-50395238D01*
X82578571Y-50380953D01*
X82654762Y-50333334D01*
X82692857Y-50290477D01*
X82730952Y-50209524D01*
X82730952Y-49904762D01*
X82311905Y-50909524D02*
X82311905Y-51061905D01*
X82350000Y-51133334D01*
X82426190Y-51200000D01*
X82578571Y-51219048D01*
X82845238Y-51185714D01*
X82997619Y-51128572D01*
X83073810Y-51042858D01*
X83111905Y-50961905D01*
X83111905Y-50809524D01*
X83073810Y-50738096D01*
X82997619Y-50671429D01*
X82845238Y-50652381D01*
X82578571Y-50685715D01*
X82426190Y-50742857D01*
X82350000Y-50828572D01*
X82311905Y-50909524D01*
X82311905Y-51519048D02*
X83111905Y-51609524D01*
X82540476Y-51833334D01*
X83111905Y-51914286D01*
X82311905Y-52204762D01*
X82692857Y-52461905D02*
X82692857Y-52728572D01*
X83111905Y-52790477D02*
X83111905Y-52409524D01*
X82311905Y-52509524D01*
X82311905Y-52890477D01*
X83111905Y-53590477D02*
X82730952Y-53371429D01*
X83111905Y-53133334D02*
X82311905Y-53233334D01*
X82311905Y-53538096D01*
X82350000Y-53609525D01*
X82388095Y-53642858D01*
X82464286Y-53671429D01*
X82578571Y-53657144D01*
X82654762Y-53609525D01*
X82692857Y-53566668D01*
X82730952Y-53485715D01*
X82730952Y-53180953D01*
X83111905Y-88607143D02*
X82311905Y-88707143D01*
X82311905Y-89011905D01*
X82350000Y-89083334D01*
X82388095Y-89116667D01*
X82464286Y-89145238D01*
X82578571Y-89130953D01*
X82654762Y-89083334D01*
X82692857Y-89040477D01*
X82730952Y-88959524D01*
X82730952Y-88654762D01*
X82311905Y-89659524D02*
X82311905Y-89811905D01*
X82350000Y-89883334D01*
X82426190Y-89950000D01*
X82578571Y-89969048D01*
X82845238Y-89935714D01*
X82997619Y-89878572D01*
X83073810Y-89792858D01*
X83111905Y-89711905D01*
X83111905Y-89559524D01*
X83073810Y-89488096D01*
X82997619Y-89421429D01*
X82845238Y-89402381D01*
X82578571Y-89435715D01*
X82426190Y-89492857D01*
X82350000Y-89578572D01*
X82311905Y-89659524D01*
X82311905Y-90269048D02*
X83111905Y-90359524D01*
X82540476Y-90583334D01*
X83111905Y-90664286D01*
X82311905Y-90954762D01*
X82692857Y-91211905D02*
X82692857Y-91478572D01*
X83111905Y-91540477D02*
X83111905Y-91159524D01*
X82311905Y-91259524D01*
X82311905Y-91640477D01*
X83111905Y-92340477D02*
X82730952Y-92121429D01*
X83111905Y-91883334D02*
X82311905Y-91983334D01*
X82311905Y-92288096D01*
X82350000Y-92359525D01*
X82388095Y-92392858D01*
X82464286Y-92421429D01*
X82578571Y-92407144D01*
X82654762Y-92359525D01*
X82692857Y-92316668D01*
X82730952Y-92235715D01*
X82730952Y-91930953D01*
X91392857Y-109861905D02*
X91292857Y-109061905D01*
X90988095Y-109061905D01*
X90916666Y-109100000D01*
X90883333Y-109138095D01*
X90854762Y-109214286D01*
X90869047Y-109328571D01*
X90916666Y-109404762D01*
X90959523Y-109442857D01*
X91040476Y-109480952D01*
X91345238Y-109480952D01*
X90340476Y-109061905D02*
X90188095Y-109061905D01*
X90116666Y-109100000D01*
X90050000Y-109176190D01*
X90030952Y-109328571D01*
X90064286Y-109595238D01*
X90121428Y-109747619D01*
X90207142Y-109823810D01*
X90288095Y-109861905D01*
X90440476Y-109861905D01*
X90511904Y-109823810D01*
X90578571Y-109747619D01*
X90597619Y-109595238D01*
X90564285Y-109328571D01*
X90507143Y-109176190D01*
X90421428Y-109100000D01*
X90340476Y-109061905D01*
X89730952Y-109061905D02*
X89640476Y-109861905D01*
X89416666Y-109290476D01*
X89335714Y-109861905D01*
X89045238Y-109061905D01*
X88788095Y-109442857D02*
X88521428Y-109442857D01*
X88459523Y-109861905D02*
X88840476Y-109861905D01*
X88740476Y-109061905D01*
X88359523Y-109061905D01*
X87659523Y-109861905D02*
X87878571Y-109480952D01*
X88116666Y-109861905D02*
X88016666Y-109061905D01*
X87711904Y-109061905D01*
X87640475Y-109100000D01*
X87607142Y-109138095D01*
X87578571Y-109214286D01*
X87592856Y-109328571D01*
X87640475Y-109404762D01*
X87683332Y-109442857D01*
X87764285Y-109480952D01*
X88069047Y-109480952D01*
D11*
X82000000Y-42000000D02*
X82500000Y-41500000D01*
X82000000Y-108000000D02*
X82000000Y-42000000D01*
X84000000Y-110000000D02*
X82000000Y-108000000D01*
X94000000Y-110000000D02*
X84000000Y-110000000D01*
X96500000Y-112500000D02*
X94000000Y-110000000D01*
X97000000Y-112500000D02*
X96500000Y-112500000D01*
X159000000Y-84500000D02*
X159000000Y-83750000D01*
X159500000Y-85000000D02*
X163500000Y-85000000D01*
X159000000Y-84500000D02*
X159500000Y-85000000D01*
X164000000Y-85000000D02*
X163500000Y-85000000D01*
X164500000Y-85500000D02*
X164500000Y-87750000D01*
X164000000Y-85000000D02*
X164500000Y-85500000D01*
X164500000Y-94000000D02*
X164500000Y-90750000D01*
X164000000Y-94500000D02*
X164500000Y-94000000D01*
X145000000Y-103500000D02*
X145000000Y-106000000D01*
X142500000Y-107000000D02*
X142500000Y-112000000D01*
X144500000Y-106500000D02*
X143000000Y-106500000D01*
X143000000Y-106500000D02*
X142500000Y-107000000D01*
X144500000Y-106500000D02*
X145000000Y-106000000D01*
X139000000Y-103500000D02*
X138000000Y-103500000D01*
X139500000Y-103000000D02*
X139500000Y-102500000D01*
X139000000Y-103500000D02*
X139500000Y-103000000D01*
X134250000Y-84250000D02*
X134250000Y-84000000D01*
X134750000Y-84750000D02*
X134250000Y-84250000D01*
X137000000Y-84750000D02*
X134750000Y-84750000D01*
X137500000Y-85250000D02*
X137500000Y-87500000D01*
X137500000Y-85250000D02*
X137000000Y-84750000D01*
X127000000Y-89750000D02*
X129750000Y-89750000D01*
X126500000Y-90250000D02*
X126500000Y-97500000D01*
X127000000Y-89750000D02*
X126500000Y-90250000D01*
X126000000Y-106000000D02*
X126500000Y-105500000D01*
X123000000Y-106000000D02*
X126000000Y-106000000D01*
X122500000Y-106500000D02*
X123000000Y-106000000D01*
X122500000Y-109000000D02*
X122500000Y-106500000D01*
X120000000Y-109500000D02*
X119500000Y-109000000D01*
X122000000Y-109500000D02*
X120000000Y-109500000D01*
X122500000Y-109000000D02*
X122000000Y-109500000D01*
D12*
X131274955Y-55015580D02*
X131005581Y-55284954D01*
X131510658Y-55103127D02*
X130685699Y-54796715D01*
X131133534Y-55480251D01*
X130389389Y-55093026D02*
X130066140Y-55416275D01*
X130864160Y-55749625D02*
X130227764Y-55254650D01*
X129958390Y-55524024D02*
X129635141Y-55847273D01*
X130433161Y-56180624D02*
X129796765Y-55685649D01*
X129749624Y-56271537D02*
X129561062Y-56460099D01*
X129813601Y-56800184D02*
X130082975Y-56530810D01*
X129446579Y-56035835D01*
X129177205Y-56305210D01*
X129571164Y-57042621D02*
X128934768Y-56547646D01*
X129247915Y-57365870D01*
X128611519Y-56870895D01*
X132617448Y-55684639D02*
X132674690Y-55681272D01*
X132785807Y-55624030D01*
X132839681Y-55570155D01*
X132890189Y-55465773D01*
X132883455Y-55364757D01*
X132849784Y-55290679D01*
X132755503Y-55169461D01*
X132664588Y-55098751D01*
X132516433Y-55031407D01*
X132428886Y-55011203D01*
X132314402Y-55017938D01*
X132203285Y-55075181D01*
X132149411Y-55129055D01*
X132098903Y-55233438D01*
X132102270Y-55283945D01*
X131691475Y-55586991D02*
X131583725Y-55694741D01*
X131560155Y-55772186D01*
X131566889Y-55873200D01*
X131661170Y-55994419D01*
X131873303Y-56159410D01*
X132021458Y-56226754D01*
X132135942Y-56220021D01*
X132220122Y-56189715D01*
X132327871Y-56081966D01*
X132351441Y-56004521D01*
X132344707Y-55903505D01*
X132250426Y-55782287D01*
X132038293Y-55617295D01*
X131890138Y-55549951D01*
X131775654Y-55556687D01*
X131691475Y-55586991D01*
X131842998Y-56566839D02*
X131206602Y-56071864D01*
X131519749Y-56890088D01*
X130883353Y-56395113D01*
X130694792Y-56583674D02*
X130371543Y-56906923D01*
X131169563Y-57240274D02*
X130533167Y-56745299D01*
X130496128Y-57913709D02*
X130381644Y-57489444D01*
X130819377Y-57590460D02*
X130182981Y-57095485D01*
X129967482Y-57310984D01*
X129943911Y-57388430D01*
X129947278Y-57438937D01*
X129980951Y-57513015D01*
X130071863Y-57583725D01*
X130159410Y-57603929D01*
X130216652Y-57600562D01*
X130300832Y-57570257D01*
X130516331Y-57354757D01*
X129509546Y-57768920D02*
X129401796Y-57876670D01*
X129378225Y-57954115D01*
X129384960Y-58055130D01*
X129479241Y-58176348D01*
X129691373Y-58341339D01*
X129839529Y-58408684D01*
X129954013Y-58401950D01*
X130038192Y-58371645D01*
X130145942Y-58263895D01*
X130169512Y-58186451D01*
X130162777Y-58085435D01*
X130068497Y-57964216D01*
X129856364Y-57799225D01*
X129708209Y-57731881D01*
X129593725Y-57738616D01*
X129509546Y-57768920D01*
X129391694Y-59018142D02*
X129661069Y-58748768D01*
X129024673Y-58253793D01*
D11*
X134500000Y-54500000D02*
X129500000Y-59500000D01*
X156000000Y-54500000D02*
X134500000Y-54500000D01*
X156500000Y-55000000D02*
X156000000Y-54500000D01*
X162000000Y-60500000D02*
X156500000Y-55000000D01*
X162000000Y-69000000D02*
X162000000Y-60500000D01*
X162500000Y-69500000D02*
X162000000Y-69000000D01*
X164500000Y-69500000D02*
X162500000Y-69500000D01*
X166000000Y-71000000D02*
X164500000Y-69500000D01*
X166000000Y-87500000D02*
X166000000Y-71000000D01*
X166000000Y-87500000D02*
X166500000Y-87000000D01*
X165500000Y-87000000D02*
X166000000Y-87500000D01*
X158000000Y-116000000D02*
X157500000Y-115500000D01*
X155000000Y-113000000D02*
X155500000Y-113500000D01*
X160733333Y-114061905D02*
X160276190Y-114061905D01*
X160504761Y-114861905D02*
X160504761Y-114061905D01*
X160009523Y-114442857D02*
X159742856Y-114442857D01*
X159628570Y-114861905D02*
X160009523Y-114861905D01*
X160009523Y-114061905D01*
X159628570Y-114061905D01*
X158828570Y-114861905D02*
X159095237Y-114480952D01*
X159285713Y-114861905D02*
X159285713Y-114061905D01*
X158980951Y-114061905D01*
X158904760Y-114100000D01*
X158866665Y-114138095D01*
X158828570Y-114214286D01*
X158828570Y-114328571D01*
X158866665Y-114404762D01*
X158904760Y-114442857D01*
X158980951Y-114480952D01*
X159285713Y-114480952D01*
X158485713Y-114861905D02*
X158485713Y-114061905D01*
X158219046Y-114633333D01*
X157952379Y-114061905D01*
X157952379Y-114861905D01*
X157571427Y-114861905D02*
X157571427Y-114061905D01*
X157190475Y-114861905D02*
X157190475Y-114061905D01*
X156733332Y-114861905D01*
X156733332Y-114061905D01*
X156390475Y-114633333D02*
X156009523Y-114633333D01*
X156466666Y-114861905D02*
X156199999Y-114061905D01*
X155933332Y-114861905D01*
X155780952Y-114061905D02*
X155323809Y-114061905D01*
X155552380Y-114861905D02*
X155552380Y-114061905D01*
X155057142Y-114861905D02*
X155057142Y-114061905D01*
X154523809Y-114061905D02*
X154371428Y-114061905D01*
X154295237Y-114100000D01*
X154219047Y-114176190D01*
X154180952Y-114328571D01*
X154180952Y-114595238D01*
X154219047Y-114747619D01*
X154295237Y-114823810D01*
X154371428Y-114861905D01*
X154523809Y-114861905D01*
X154599999Y-114823810D01*
X154676190Y-114747619D01*
X154714285Y-114595238D01*
X154714285Y-114328571D01*
X154676190Y-114176190D01*
X154599999Y-114100000D01*
X154523809Y-114061905D01*
X153838095Y-114861905D02*
X153838095Y-114061905D01*
X153380952Y-114861905D01*
X153380952Y-114061905D01*
X163047619Y-105133333D02*
X162666667Y-105133333D01*
X163123810Y-105361905D02*
X162857143Y-104561905D01*
X162590476Y-105361905D01*
X162323810Y-105361905D02*
X162323810Y-104561905D01*
X162057143Y-105133333D01*
X161790476Y-104561905D01*
X161790476Y-105361905D01*
X161409524Y-105361905D02*
X161409524Y-104561905D01*
X161104762Y-104561905D01*
X161028571Y-104600000D01*
X160990476Y-104638095D01*
X160952381Y-104714286D01*
X160952381Y-104828571D01*
X160990476Y-104904762D01*
X161028571Y-104942857D01*
X161104762Y-104980952D01*
X161409524Y-104980952D01*
X163047619Y-98633333D02*
X162666667Y-98633333D01*
X163123810Y-98861905D02*
X162857143Y-98061905D01*
X162590476Y-98861905D01*
X162323810Y-98861905D02*
X162323810Y-98061905D01*
X162057143Y-98633333D01*
X161790476Y-98061905D01*
X161790476Y-98861905D01*
X161409524Y-98861905D02*
X161409524Y-98061905D01*
X161104762Y-98061905D01*
X161028571Y-98100000D01*
X160990476Y-98138095D01*
X160952381Y-98214286D01*
X160952381Y-98328571D01*
X160990476Y-98404762D01*
X161028571Y-98442857D01*
X161104762Y-98480952D01*
X161409524Y-98480952D01*
X158000000Y-116000000D02*
X158000000Y-118500000D01*
X155000000Y-106500000D02*
X155000000Y-113000000D01*
X155500000Y-106000000D02*
X155000000Y-106500000D01*
X160500000Y-106000000D02*
X155500000Y-106000000D01*
X164000000Y-106000000D02*
X163500000Y-106000000D01*
X164500000Y-105500000D02*
X164000000Y-106000000D01*
X164500000Y-104500000D02*
X164500000Y-105500000D01*
X163500000Y-103500000D02*
X164500000Y-104500000D01*
X159500000Y-104500000D02*
X160500000Y-103500000D01*
X156500000Y-104500000D02*
X159500000Y-104500000D01*
X156000000Y-104000000D02*
X156500000Y-104500000D01*
X156000000Y-95000000D02*
X156000000Y-104000000D01*
X156500000Y-94500000D02*
X156000000Y-95000000D01*
X159500000Y-94500000D02*
X156500000Y-94500000D01*
X163466666Y-94442857D02*
X163733333Y-94442857D01*
X163733333Y-94861905D02*
X163733333Y-94061905D01*
X163352380Y-94061905D01*
X163047619Y-94861905D02*
X163047619Y-94061905D01*
X162285714Y-94861905D02*
X162666667Y-94861905D01*
X162666667Y-94061905D01*
X162133334Y-94061905D02*
X161676191Y-94061905D01*
X161904762Y-94861905D02*
X161904762Y-94061905D01*
X161409524Y-94442857D02*
X161142857Y-94442857D01*
X161028571Y-94861905D02*
X161409524Y-94861905D01*
X161409524Y-94061905D01*
X161028571Y-94061905D01*
X160228571Y-94861905D02*
X160495238Y-94480952D01*
X160685714Y-94861905D02*
X160685714Y-94061905D01*
X160380952Y-94061905D01*
X160304761Y-94100000D01*
X160266666Y-94138095D01*
X160228571Y-94214286D01*
X160228571Y-94328571D01*
X160266666Y-94404762D01*
X160304761Y-94442857D01*
X160380952Y-94480952D01*
X160685714Y-94480952D01*
X168011905Y-88913810D02*
X167897619Y-88951905D01*
X167707143Y-88951905D01*
X167630953Y-88913810D01*
X167592857Y-88875714D01*
X167554762Y-88799524D01*
X167554762Y-88723333D01*
X167592857Y-88647143D01*
X167630953Y-88609048D01*
X167707143Y-88570952D01*
X167859524Y-88532857D01*
X167935715Y-88494762D01*
X167973810Y-88456667D01*
X168011905Y-88380476D01*
X168011905Y-88304286D01*
X167973810Y-88228095D01*
X167935715Y-88190000D01*
X167859524Y-88151905D01*
X167669048Y-88151905D01*
X167554762Y-88190000D01*
X167288095Y-88151905D02*
X167097619Y-88951905D01*
X166945238Y-88380476D01*
X166792857Y-88951905D01*
X166602381Y-88151905D01*
X166297619Y-88951905D02*
X166297619Y-88151905D01*
X166030953Y-88151905D02*
X165573810Y-88151905D01*
X165802381Y-88951905D02*
X165802381Y-88151905D01*
X164850000Y-88875714D02*
X164888095Y-88913810D01*
X165002381Y-88951905D01*
X165078571Y-88951905D01*
X165192857Y-88913810D01*
X165269048Y-88837619D01*
X165307143Y-88761429D01*
X165345238Y-88609048D01*
X165345238Y-88494762D01*
X165307143Y-88342381D01*
X165269048Y-88266190D01*
X165192857Y-88190000D01*
X165078571Y-88151905D01*
X165002381Y-88151905D01*
X164888095Y-88190000D01*
X164850000Y-88228095D01*
X164507143Y-88951905D02*
X164507143Y-88151905D01*
X164507143Y-88532857D02*
X164050000Y-88532857D01*
X164050000Y-88951905D02*
X164050000Y-88151905D01*
X163669048Y-88532857D02*
X163402381Y-88532857D01*
X163288095Y-88951905D02*
X163669048Y-88951905D01*
X163669048Y-88151905D01*
X163288095Y-88151905D01*
X162945238Y-88951905D02*
X162945238Y-88151905D01*
X162754762Y-88151905D01*
X162640476Y-88190000D01*
X162564285Y-88266190D01*
X162526190Y-88342381D01*
X162488095Y-88494762D01*
X162488095Y-88609048D01*
X162526190Y-88761429D01*
X162564285Y-88837619D01*
X162640476Y-88913810D01*
X162754762Y-88951905D01*
X162945238Y-88951905D01*
X168716666Y-90043333D02*
X168335714Y-90043333D01*
X168792857Y-90271905D02*
X168526190Y-89471905D01*
X168259523Y-90271905D01*
X168107143Y-89471905D02*
X167650000Y-89471905D01*
X167878571Y-90271905D02*
X167878571Y-89471905D01*
X167497619Y-89471905D02*
X167040476Y-89471905D01*
X167269047Y-90271905D02*
X167269047Y-89471905D01*
X166773809Y-89852857D02*
X166507142Y-89852857D01*
X166392856Y-90271905D02*
X166773809Y-90271905D01*
X166773809Y-89471905D01*
X166392856Y-89471905D01*
X166049999Y-90271905D02*
X166049999Y-89471905D01*
X165592856Y-90271905D01*
X165592856Y-89471905D01*
X165211904Y-89471905D02*
X165211904Y-90119524D01*
X165173809Y-90195714D01*
X165135713Y-90233810D01*
X165059523Y-90271905D01*
X164907142Y-90271905D01*
X164830951Y-90233810D01*
X164792856Y-90195714D01*
X164754761Y-90119524D01*
X164754761Y-89471905D01*
X164411904Y-90043333D02*
X164030952Y-90043333D01*
X164488095Y-90271905D02*
X164221428Y-89471905D01*
X163954761Y-90271905D01*
X163802381Y-89471905D02*
X163345238Y-89471905D01*
X163573809Y-90271905D02*
X163573809Y-89471905D01*
X162926190Y-89471905D02*
X162773809Y-89471905D01*
X162697618Y-89510000D01*
X162621428Y-89586190D01*
X162583333Y-89738571D01*
X162583333Y-90005238D01*
X162621428Y-90157619D01*
X162697618Y-90233810D01*
X162773809Y-90271905D01*
X162926190Y-90271905D01*
X163002380Y-90233810D01*
X163078571Y-90157619D01*
X163116666Y-90005238D01*
X163116666Y-89738571D01*
X163078571Y-89586190D01*
X163002380Y-89510000D01*
X162926190Y-89471905D01*
X161783333Y-90271905D02*
X162050000Y-89890952D01*
X162240476Y-90271905D02*
X162240476Y-89471905D01*
X161935714Y-89471905D01*
X161859523Y-89510000D01*
X161821428Y-89548095D01*
X161783333Y-89624286D01*
X161783333Y-89738571D01*
X161821428Y-89814762D01*
X161859523Y-89852857D01*
X161935714Y-89890952D01*
X162240476Y-89890952D01*
X140250000Y-70250000D02*
X140250000Y-62750000D01*
X147750000Y-70250000D02*
X140250000Y-70250000D01*
X147750000Y-62750000D02*
X147750000Y-70250000D01*
X140250000Y-62750000D02*
X147750000Y-62750000D01*
D12*
X130609523Y-66573810D02*
X130499999Y-66611905D01*
X130309523Y-66611905D01*
X130228571Y-66573810D01*
X130185713Y-66535714D01*
X130138094Y-66459524D01*
X130128571Y-66383333D01*
X130157142Y-66307143D01*
X130190476Y-66269048D01*
X130261904Y-66230952D01*
X130409523Y-66192857D01*
X130480952Y-66154762D01*
X130514285Y-66116667D01*
X130542856Y-66040476D01*
X130533333Y-65964286D01*
X130485714Y-65888095D01*
X130442857Y-65850000D01*
X130361904Y-65811905D01*
X130171428Y-65811905D01*
X130061904Y-65850000D01*
X129814285Y-66611905D02*
X129714285Y-65811905D01*
X129409523Y-65811905D01*
X129338094Y-65850000D01*
X129304761Y-65888095D01*
X129276190Y-65964286D01*
X129290475Y-66078571D01*
X129338094Y-66154762D01*
X129380951Y-66192857D01*
X129461904Y-66230952D01*
X129766666Y-66230952D01*
X129014285Y-66611905D02*
X128914285Y-65811905D01*
D11*
X140000000Y-67000000D02*
X139000000Y-68000000D01*
X140000000Y-67000000D02*
X139000000Y-66000000D01*
X127000000Y-67000000D02*
X140000000Y-67000000D01*
X113000000Y-67000000D02*
X124000000Y-67000000D01*
X107500000Y-94000000D02*
X107500000Y-82500000D01*
X108500000Y-95000000D02*
X107500000Y-94000000D01*
X116500000Y-95000000D02*
X108500000Y-95000000D01*
X119500000Y-98000000D02*
X116500000Y-95000000D01*
X119500000Y-109000000D02*
X119500000Y-98000000D01*
X151500000Y-122000000D02*
X151500000Y-123000000D01*
X151500000Y-118000000D02*
X151500000Y-120000000D01*
X151500000Y-115500000D02*
X151500000Y-116000000D01*
X152000000Y-114000000D02*
X152000000Y-115500000D01*
X152000000Y-110000000D02*
X152000000Y-112000000D01*
X152000000Y-107500000D02*
X152000000Y-108000000D01*
X153500000Y-106500000D02*
X153500000Y-107500000D01*
X153500000Y-103500000D02*
X153500000Y-105000000D01*
X152500000Y-101000000D02*
X152500000Y-103000000D01*
X152500000Y-97500000D02*
X152500000Y-99000000D01*
X153000000Y-97500000D02*
X152500000Y-97500000D01*
X166500000Y-97000000D02*
X168500000Y-97000000D01*
X162500000Y-97000000D02*
X164500000Y-97000000D01*
X158500000Y-97000000D02*
X160500000Y-97000000D01*
X154500000Y-97000000D02*
X156500000Y-97000000D01*
X154500000Y-97000000D02*
X154500000Y-97500000D01*
X154500000Y-94000000D02*
X154500000Y-96000000D01*
X154500000Y-90000000D02*
X154500000Y-92000000D01*
X154500000Y-86000000D02*
X154500000Y-88000000D01*
X120000000Y-54000000D02*
X120000000Y-52500000D01*
D13*
X118857143Y-59250000D02*
X119000000Y-59178571D01*
X119214286Y-59178571D01*
X119428571Y-59250000D01*
X119571429Y-59392857D01*
X119642857Y-59535714D01*
X119714286Y-59821429D01*
X119714286Y-60035714D01*
X119642857Y-60321429D01*
X119571429Y-60464286D01*
X119428571Y-60607143D01*
X119214286Y-60678571D01*
X119071429Y-60678571D01*
X118857143Y-60607143D01*
X118785714Y-60535714D01*
X118785714Y-60035714D01*
X119071429Y-60035714D01*
X118214286Y-60250000D02*
X117500000Y-60250000D01*
X118357143Y-60678571D02*
X117857143Y-59178571D01*
X117357143Y-60678571D01*
X116857143Y-60678571D02*
X116857143Y-59178571D01*
X116142857Y-60678571D02*
X116142857Y-59178571D01*
X115285714Y-60678571D01*
X115285714Y-59178571D01*
X113500000Y-59107143D02*
X114785714Y-61035714D01*
X112999999Y-60678571D02*
X112999999Y-59178571D01*
X112428571Y-59178571D01*
X112285713Y-59250000D01*
X112214285Y-59321429D01*
X112142856Y-59464286D01*
X112142856Y-59678571D01*
X112214285Y-59821429D01*
X112285713Y-59892857D01*
X112428571Y-59964286D01*
X112999999Y-59964286D01*
X111499999Y-60678571D02*
X111499999Y-59178571D01*
X111499999Y-59892857D02*
X110642856Y-59892857D01*
X110642856Y-60678571D02*
X110642856Y-59178571D01*
X109999999Y-60250000D02*
X109285713Y-60250000D01*
X110142856Y-60678571D02*
X109642856Y-59178571D01*
X109142856Y-60678571D01*
X108714285Y-60607143D02*
X108499999Y-60678571D01*
X108142856Y-60678571D01*
X107999999Y-60607143D01*
X107928570Y-60535714D01*
X107857142Y-60392857D01*
X107857142Y-60250000D01*
X107928570Y-60107143D01*
X107999999Y-60035714D01*
X108142856Y-59964286D01*
X108428570Y-59892857D01*
X108571428Y-59821429D01*
X108642856Y-59750000D01*
X108714285Y-59607143D01*
X108714285Y-59464286D01*
X108642856Y-59321429D01*
X108571428Y-59250000D01*
X108428570Y-59178571D01*
X108071428Y-59178571D01*
X107857142Y-59250000D01*
X107214285Y-59892857D02*
X106714285Y-59892857D01*
X106499999Y-60678571D02*
X107214285Y-60678571D01*
X107214285Y-59178571D01*
X106499999Y-59178571D01*
X104785714Y-60250000D02*
X104071428Y-60250000D01*
X104928571Y-60678571D02*
X104428571Y-59178571D01*
X103928571Y-60678571D01*
X103428571Y-60678571D02*
X103428571Y-59178571D01*
X102571428Y-60678571D01*
X102571428Y-59178571D01*
X101928571Y-60250000D02*
X101214285Y-60250000D01*
X102071428Y-60678571D02*
X101571428Y-59178571D01*
X101071428Y-60678571D01*
X99857142Y-60678571D02*
X100571428Y-60678571D01*
X100571428Y-59178571D01*
X99071428Y-59964286D02*
X99071428Y-60678571D01*
X99571428Y-59178571D02*
X99071428Y-59964286D01*
X98571428Y-59178571D01*
X98214285Y-59178571D02*
X97214285Y-59178571D01*
X98214285Y-60678571D01*
X97214285Y-60678571D01*
X96642857Y-59892857D02*
X96142857Y-59892857D01*
X95928571Y-60678571D02*
X96642857Y-60678571D01*
X96642857Y-59178571D01*
X95928571Y-59178571D01*
X94428571Y-60678571D02*
X94928571Y-59964286D01*
X95285714Y-60678571D02*
X95285714Y-59178571D01*
X94714286Y-59178571D01*
X94571428Y-59250000D01*
X94500000Y-59321429D01*
X94428571Y-59464286D01*
X94428571Y-59678571D01*
X94500000Y-59821429D01*
X94571428Y-59892857D01*
X94714286Y-59964286D01*
X95285714Y-59964286D01*
D11*
X94000000Y-57500000D02*
X94000000Y-58500000D01*
X94000000Y-53500000D02*
X94000000Y-55500000D01*
X96000000Y-51500000D02*
X94000000Y-51500000D01*
X100000000Y-51500000D02*
X98000000Y-51500000D01*
X104000000Y-51500000D02*
X102000000Y-51500000D01*
X108000000Y-51500000D02*
X106000000Y-51500000D01*
X112000000Y-51500000D02*
X110000000Y-51500000D01*
X116000000Y-51500000D02*
X114000000Y-51500000D01*
X120000000Y-51500000D02*
X118000000Y-51500000D01*
X86000000Y-58500000D02*
X84000000Y-58500000D01*
X90000000Y-58500000D02*
X88000000Y-58500000D01*
X94000000Y-58500000D02*
X92000000Y-58500000D01*
X103500000Y-31500000D02*
X103500000Y-29500000D01*
X103500000Y-35500000D02*
X103500000Y-33500000D01*
X103500000Y-39500000D02*
X103500000Y-37500000D01*
X103500000Y-43500000D02*
X103500000Y-41500000D01*
X103500000Y-47500000D02*
X103500000Y-45500000D01*
X103500000Y-51500000D02*
X103500000Y-49500000D01*
X124000000Y-85000000D02*
X124000000Y-86000000D01*
X124000000Y-81000000D02*
X124000000Y-83000000D01*
X124000000Y-78500000D02*
X124000000Y-79000000D01*
X120000000Y-78500000D02*
X118500000Y-78500000D01*
X124000000Y-78500000D02*
X122000000Y-78500000D01*
X118500000Y-76500000D02*
X118500000Y-78000000D01*
X117500000Y-76500000D02*
X118500000Y-76500000D01*
X115500000Y-74500000D02*
X115500000Y-76500000D01*
X115500000Y-70500000D02*
X115500000Y-72500000D01*
X115500000Y-67000000D02*
X115500000Y-68500000D01*
X115000000Y-67000000D02*
X115500000Y-67000000D01*
X113000000Y-67000000D02*
X114000000Y-67000000D01*
X126000000Y-36000000D02*
X126000000Y-32500000D01*
X121000000Y-54000000D02*
X120000000Y-54000000D01*
X125000000Y-54000000D02*
X123000000Y-54000000D01*
X128500000Y-44500000D02*
X128500000Y-42500000D01*
X128500000Y-48500000D02*
X128500000Y-46500000D01*
X128500000Y-52500000D02*
X128500000Y-50500000D01*
X131000000Y-52500000D02*
X129000000Y-52500000D01*
X133500000Y-55000000D02*
X132000000Y-53500000D01*
X137000000Y-55000000D02*
X135000000Y-55000000D01*
X141000000Y-55000000D02*
X139000000Y-55000000D01*
X145000000Y-55000000D02*
X143000000Y-55000000D01*
X149000000Y-55000000D02*
X147000000Y-55000000D01*
X153000000Y-55000000D02*
X151000000Y-55000000D01*
X149000000Y-28500000D02*
X149000000Y-28000000D01*
X149000000Y-32500000D02*
X149000000Y-30500000D01*
X149000000Y-36000000D02*
X149000000Y-34500000D01*
X149500000Y-36500000D02*
X149000000Y-36000000D01*
X152500000Y-39500000D02*
X151000000Y-38000000D01*
X154000000Y-43000000D02*
X154000000Y-41000000D01*
X154000000Y-47000000D02*
X154000000Y-45000000D01*
X153000000Y-51000000D02*
X153000000Y-50000000D01*
X153000000Y-55000000D02*
X153000000Y-53000000D01*
X155000000Y-57000000D02*
X153500000Y-55500000D01*
X158000000Y-60000000D02*
X156500000Y-58500000D01*
X166000000Y-60000000D02*
X168000000Y-60000000D01*
X162000000Y-60000000D02*
X164000000Y-60000000D01*
X158000000Y-60000000D02*
X160000000Y-60000000D01*
X166000000Y-67000000D02*
X168000000Y-67000000D01*
X162000000Y-67000000D02*
X164000000Y-67000000D01*
X161500000Y-67500000D02*
X162000000Y-67000000D01*
X158500000Y-70500000D02*
X160000000Y-69000000D01*
X158500000Y-71000000D02*
X158500000Y-70500000D01*
X158500000Y-75000000D02*
X158500000Y-73000000D01*
X158500000Y-75000000D02*
X159000000Y-75000000D01*
X162500000Y-75000000D02*
X160500000Y-75000000D01*
X162500000Y-78000000D02*
X162500000Y-76000000D01*
X162500000Y-82000000D02*
X162500000Y-80000000D01*
X162500000Y-86000000D02*
X162500000Y-84000000D01*
X160500000Y-86000000D02*
X162500000Y-86000000D01*
X156500000Y-86000000D02*
X158500000Y-86000000D01*
X83000000Y-96500000D02*
X81000000Y-96500000D01*
X87000000Y-96500000D02*
X85000000Y-96500000D01*
X91000000Y-96500000D02*
X89000000Y-96500000D01*
X95000000Y-96500000D02*
X93000000Y-96500000D01*
X97500000Y-96500000D02*
X97000000Y-96500000D01*
X100000000Y-94500000D02*
X97500000Y-94500000D01*
X104000000Y-94500000D02*
X102000000Y-94500000D01*
X108000000Y-94500000D02*
X106000000Y-94500000D01*
X112000000Y-94500000D02*
X110000000Y-94500000D01*
X116000000Y-94500000D02*
X114000000Y-94500000D01*
X120000000Y-94500000D02*
X118000000Y-94500000D01*
X123000000Y-121000000D02*
X123000000Y-122000000D01*
X123000000Y-116500000D02*
X123000000Y-118500000D01*
X123000000Y-114000000D02*
X123000000Y-114500000D01*
X120000000Y-113500000D02*
X120000000Y-114000000D01*
X120000000Y-110000000D02*
X120000000Y-112000000D01*
X120000000Y-106000000D02*
X120000000Y-108000000D01*
X120000000Y-102000000D02*
X120000000Y-104000000D01*
X120000000Y-98000000D02*
X120000000Y-100000000D01*
X120000000Y-94000000D02*
X120000000Y-96000000D01*
X120000000Y-90000000D02*
X120000000Y-92000000D01*
X120000000Y-86000000D02*
X120000000Y-88000000D01*
X120500000Y-86000000D02*
X120000000Y-86000000D01*
X122500000Y-86000000D02*
X120500000Y-86000000D01*
X126500000Y-86000000D02*
X124500000Y-86000000D01*
X130500000Y-86000000D02*
X128500000Y-86000000D01*
X134500000Y-86000000D02*
X132500000Y-86000000D01*
X138500000Y-86000000D02*
X136500000Y-86000000D01*
X142500000Y-86000000D02*
X140500000Y-86000000D01*
X146500000Y-86000000D02*
X144500000Y-86000000D01*
X150500000Y-86000000D02*
X148500000Y-86000000D01*
X154500000Y-86000000D02*
X152500000Y-86000000D01*
X150000000Y-82000000D02*
X150750000Y-82000000D01*
X149250000Y-81250000D02*
X150000000Y-82000000D01*
X149250000Y-78500000D02*
X149250000Y-81250000D01*
X146500000Y-75750000D02*
X149250000Y-78500000D01*
X146500000Y-72500000D02*
X146500000Y-75750000D01*
X125500000Y-80500000D02*
X125750000Y-80750000D01*
X125500000Y-77750000D02*
X125500000Y-80500000D01*
X126000000Y-77250000D02*
X125500000Y-77750000D01*
X143750000Y-77250000D02*
X126000000Y-77250000D01*
X145000000Y-76000000D02*
X143750000Y-77250000D01*
X145000000Y-73000000D02*
X145000000Y-76000000D01*
X126500000Y-101000000D02*
X126500000Y-102500000D01*
X129776189Y-103701905D02*
X130157142Y-103701905D01*
X130157142Y-102901905D01*
X129357142Y-102901905D02*
X129204761Y-102901905D01*
X129128570Y-102940000D01*
X129052380Y-103016190D01*
X129014285Y-103168571D01*
X129014285Y-103435238D01*
X129052380Y-103587619D01*
X129128570Y-103663810D01*
X129204761Y-103701905D01*
X129357142Y-103701905D01*
X129433332Y-103663810D01*
X129509523Y-103587619D01*
X129547618Y-103435238D01*
X129547618Y-103168571D01*
X129509523Y-103016190D01*
X129433332Y-102940000D01*
X129357142Y-102901905D01*
X128252380Y-102940000D02*
X128328571Y-102901905D01*
X128442856Y-102901905D01*
X128557142Y-102940000D01*
X128633333Y-103016190D01*
X128671428Y-103092381D01*
X128709523Y-103244762D01*
X128709523Y-103359048D01*
X128671428Y-103511429D01*
X128633333Y-103587619D01*
X128557142Y-103663810D01*
X128442856Y-103701905D01*
X128366666Y-103701905D01*
X128252380Y-103663810D01*
X128214285Y-103625714D01*
X128214285Y-103359048D01*
X128366666Y-103359048D01*
X127909523Y-103473333D02*
X127528571Y-103473333D01*
X127985714Y-103701905D02*
X127719047Y-102901905D01*
X127452380Y-103701905D01*
X126728571Y-103701905D02*
X126995238Y-103320952D01*
X127185714Y-103701905D02*
X127185714Y-102901905D01*
X126880952Y-102901905D01*
X126804761Y-102940000D01*
X126766666Y-102978095D01*
X126728571Y-103054286D01*
X126728571Y-103168571D01*
X126766666Y-103244762D01*
X126804761Y-103282857D01*
X126880952Y-103320952D01*
X127185714Y-103320952D01*
X126385714Y-103701905D02*
X126385714Y-102901905D01*
X126119048Y-102901905D02*
X125661905Y-102901905D01*
X125890476Y-103701905D02*
X125890476Y-102901905D01*
X125395238Y-103701905D02*
X125395238Y-102901905D01*
X125395238Y-103282857D02*
X124938095Y-103282857D01*
X124938095Y-103701905D02*
X124938095Y-102901905D01*
X124557143Y-103701905D02*
X124557143Y-102901905D01*
X124290476Y-103473333D01*
X124023809Y-102901905D01*
X124023809Y-103701905D01*
X123642857Y-103701905D02*
X123642857Y-102901905D01*
X122804762Y-103625714D02*
X122842857Y-103663810D01*
X122957143Y-103701905D01*
X123033333Y-103701905D01*
X123147619Y-103663810D01*
X123223810Y-103587619D01*
X123261905Y-103511429D01*
X123300000Y-103359048D01*
X123300000Y-103244762D01*
X123261905Y-103092381D01*
X123223810Y-103016190D01*
X123147619Y-102940000D01*
X123033333Y-102901905D01*
X122957143Y-102901905D01*
X122842857Y-102940000D01*
X122804762Y-102978095D01*
X129261905Y-105021905D02*
X129261905Y-104221905D01*
X129071429Y-104221905D01*
X128957143Y-104260000D01*
X128880952Y-104336190D01*
X128842857Y-104412381D01*
X128804762Y-104564762D01*
X128804762Y-104679048D01*
X128842857Y-104831429D01*
X128880952Y-104907619D01*
X128957143Y-104983810D01*
X129071429Y-105021905D01*
X129261905Y-105021905D01*
X128461905Y-104602857D02*
X128195238Y-104602857D01*
X128080952Y-105021905D02*
X128461905Y-105021905D01*
X128461905Y-104221905D01*
X128080952Y-104221905D01*
X127852381Y-104221905D02*
X127395238Y-104221905D01*
X127623809Y-105021905D02*
X127623809Y-104221905D01*
X127128571Y-104602857D02*
X126861904Y-104602857D01*
X126747618Y-105021905D02*
X127128571Y-105021905D01*
X127128571Y-104221905D01*
X126747618Y-104221905D01*
X125947618Y-104945714D02*
X125985713Y-104983810D01*
X126099999Y-105021905D01*
X126176189Y-105021905D01*
X126290475Y-104983810D01*
X126366666Y-104907619D01*
X126404761Y-104831429D01*
X126442856Y-104679048D01*
X126442856Y-104564762D01*
X126404761Y-104412381D01*
X126366666Y-104336190D01*
X126290475Y-104260000D01*
X126176189Y-104221905D01*
X126099999Y-104221905D01*
X125985713Y-104260000D01*
X125947618Y-104298095D01*
X125719047Y-104221905D02*
X125261904Y-104221905D01*
X125490475Y-105021905D02*
X125490475Y-104221905D01*
X124842856Y-104221905D02*
X124690475Y-104221905D01*
X124614284Y-104260000D01*
X124538094Y-104336190D01*
X124499999Y-104488571D01*
X124499999Y-104755238D01*
X124538094Y-104907619D01*
X124614284Y-104983810D01*
X124690475Y-105021905D01*
X124842856Y-105021905D01*
X124919046Y-104983810D01*
X124995237Y-104907619D01*
X125033332Y-104755238D01*
X125033332Y-104488571D01*
X124995237Y-104336190D01*
X124919046Y-104260000D01*
X124842856Y-104221905D01*
X123699999Y-105021905D02*
X123966666Y-104640952D01*
X124157142Y-105021905D02*
X124157142Y-104221905D01*
X123852380Y-104221905D01*
X123776189Y-104260000D01*
X123738094Y-104298095D01*
X123699999Y-104374286D01*
X123699999Y-104488571D01*
X123738094Y-104564762D01*
X123776189Y-104602857D01*
X123852380Y-104640952D01*
X124157142Y-104640952D01*
X126500000Y-98000000D02*
X126500000Y-101000000D01*
X125500000Y-98000000D02*
X127500000Y-98000000D01*
X125500000Y-97500000D02*
X127500000Y-97500000D01*
X135500000Y-89750000D02*
X134000000Y-89750000D01*
X139500000Y-91500000D02*
X139500000Y-91000000D01*
X134500000Y-120000000D02*
X129500000Y-120000000D01*
X136000000Y-118500000D02*
X134500000Y-120000000D01*
X136000000Y-114500000D02*
X136000000Y-118500000D01*
X134000000Y-111000000D02*
X136000000Y-114500000D01*
X134000000Y-104500000D02*
X134000000Y-109000000D01*
X134500000Y-104000000D02*
X134000000Y-104500000D01*
X135000000Y-103500000D02*
X137000000Y-103000000D01*
X135000000Y-103500000D02*
G75*
G03X135000000Y-103500000I-500000J0D01*
G01*
X138000000Y-103500000D02*
G75*
G03X138000000Y-103500000I-500000J0D01*
G01*
X143500000Y-113000000D02*
X143500000Y-118500000D01*
X142500000Y-112000000D02*
X143500000Y-113000000D01*
X144500000Y-103000000D02*
X145000000Y-103500000D01*
X141000000Y-102500000D02*
X139500000Y-102500000D01*
X144000000Y-102500000D02*
X142000000Y-102000000D01*
X145000000Y-102500000D02*
G75*
G03X145000000Y-102500000I-500000J0D01*
G01*
X142000000Y-102500000D02*
G75*
G03X142000000Y-102500000I-500000J0D01*
G01*
X139500000Y-94000000D02*
X139500000Y-102500000D01*
X140250000Y-92750000D02*
X140750000Y-92750000D01*
X140250000Y-92750000D02*
X140250000Y-92250000D01*
X141500000Y-91500000D02*
X140250000Y-92750000D01*
X150938094Y-90942857D02*
X150823808Y-90980952D01*
X150785713Y-91019048D01*
X150747618Y-91095238D01*
X150747618Y-91209524D01*
X150785713Y-91285714D01*
X150823808Y-91323810D01*
X150899999Y-91361905D01*
X151204761Y-91361905D01*
X151204761Y-90561905D01*
X150938094Y-90561905D01*
X150861904Y-90600000D01*
X150823808Y-90638095D01*
X150785713Y-90714286D01*
X150785713Y-90790476D01*
X150823808Y-90866667D01*
X150861904Y-90904762D01*
X150938094Y-90942857D01*
X151204761Y-90942857D01*
X150404761Y-90561905D02*
X150404761Y-91209524D01*
X150366666Y-91285714D01*
X150328570Y-91323810D01*
X150252380Y-91361905D01*
X150099999Y-91361905D01*
X150023808Y-91323810D01*
X149985713Y-91285714D01*
X149947618Y-91209524D01*
X149947618Y-90561905D01*
X149299999Y-90942857D02*
X149566666Y-90942857D01*
X149566666Y-91361905D02*
X149566666Y-90561905D01*
X149185713Y-90561905D01*
X148614285Y-90942857D02*
X148880952Y-90942857D01*
X148880952Y-91361905D02*
X148880952Y-90561905D01*
X148499999Y-90561905D01*
X148195238Y-90942857D02*
X147928571Y-90942857D01*
X147814285Y-91361905D02*
X148195238Y-91361905D01*
X148195238Y-90561905D01*
X147814285Y-90561905D01*
X147014285Y-91361905D02*
X147280952Y-90980952D01*
X147471428Y-91361905D02*
X147471428Y-90561905D01*
X147166666Y-90561905D01*
X147090475Y-90600000D01*
X147052380Y-90638095D01*
X147014285Y-90714286D01*
X147014285Y-90828571D01*
X147052380Y-90904762D01*
X147090475Y-90942857D01*
X147166666Y-90980952D01*
X147471428Y-90980952D01*
X145795237Y-90942857D02*
X145680951Y-90980952D01*
X145642856Y-91019048D01*
X145604761Y-91095238D01*
X145604761Y-91209524D01*
X145642856Y-91285714D01*
X145680951Y-91323810D01*
X145757142Y-91361905D01*
X146061904Y-91361905D01*
X146061904Y-90561905D01*
X145795237Y-90561905D01*
X145719047Y-90600000D01*
X145680951Y-90638095D01*
X145642856Y-90714286D01*
X145642856Y-90790476D01*
X145680951Y-90866667D01*
X145719047Y-90904762D01*
X145795237Y-90942857D01*
X146061904Y-90942857D01*
X145261904Y-91361905D02*
X145261904Y-90561905D01*
X144919047Y-91133333D02*
X144538095Y-91133333D01*
X144995238Y-91361905D02*
X144728571Y-90561905D01*
X144461904Y-91361905D01*
X144233333Y-91323810D02*
X144119047Y-91361905D01*
X143928571Y-91361905D01*
X143852381Y-91323810D01*
X143814285Y-91285714D01*
X143776190Y-91209524D01*
X143776190Y-91133333D01*
X143814285Y-91057143D01*
X143852381Y-91019048D01*
X143928571Y-90980952D01*
X144080952Y-90942857D01*
X144157143Y-90904762D01*
X144195238Y-90866667D01*
X144233333Y-90790476D01*
X144233333Y-90714286D01*
X144195238Y-90638095D01*
X144157143Y-90600000D01*
X144080952Y-90561905D01*
X143890476Y-90561905D01*
X143776190Y-90600000D01*
X143433333Y-91361905D02*
X143433333Y-90561905D01*
X143052381Y-91361905D02*
X143052381Y-90561905D01*
X142595238Y-91361905D01*
X142595238Y-90561905D01*
X141795238Y-90600000D02*
X141871429Y-90561905D01*
X141985714Y-90561905D01*
X142100000Y-90600000D01*
X142176191Y-90676190D01*
X142214286Y-90752381D01*
X142252381Y-90904762D01*
X142252381Y-91019048D01*
X142214286Y-91171429D01*
X142176191Y-91247619D01*
X142100000Y-91323810D01*
X141985714Y-91361905D01*
X141909524Y-91361905D01*
X141795238Y-91323810D01*
X141757143Y-91285714D01*
X141757143Y-91019048D01*
X141909524Y-91019048D01*
X138309523Y-92942857D02*
X138195237Y-92980952D01*
X138157142Y-93019048D01*
X138119047Y-93095238D01*
X138119047Y-93209524D01*
X138157142Y-93285714D01*
X138195237Y-93323810D01*
X138271428Y-93361905D01*
X138576190Y-93361905D01*
X138576190Y-92561905D01*
X138309523Y-92561905D01*
X138233333Y-92600000D01*
X138195237Y-92638095D01*
X138157142Y-92714286D01*
X138157142Y-92790476D01*
X138195237Y-92866667D01*
X138233333Y-92904762D01*
X138309523Y-92942857D01*
X138576190Y-92942857D01*
X137776190Y-92561905D02*
X137776190Y-93209524D01*
X137738095Y-93285714D01*
X137699999Y-93323810D01*
X137623809Y-93361905D01*
X137471428Y-93361905D01*
X137395237Y-93323810D01*
X137357142Y-93285714D01*
X137319047Y-93209524D01*
X137319047Y-92561905D01*
X136671428Y-92942857D02*
X136938095Y-92942857D01*
X136938095Y-93361905D02*
X136938095Y-92561905D01*
X136557142Y-92561905D01*
X135985714Y-92942857D02*
X136252381Y-92942857D01*
X136252381Y-93361905D02*
X136252381Y-92561905D01*
X135871428Y-92561905D01*
X135566667Y-92942857D02*
X135300000Y-92942857D01*
X135185714Y-93361905D02*
X135566667Y-93361905D01*
X135566667Y-92561905D01*
X135185714Y-92561905D01*
X134385714Y-93361905D02*
X134652381Y-92980952D01*
X134842857Y-93361905D02*
X134842857Y-92561905D01*
X134538095Y-92561905D01*
X134461904Y-92600000D01*
X134423809Y-92638095D01*
X134385714Y-92714286D01*
X134385714Y-92828571D01*
X134423809Y-92904762D01*
X134461904Y-92942857D01*
X134538095Y-92980952D01*
X134842857Y-92980952D01*
X139500000Y-91000000D02*
X139250000Y-90750000D01*
X139500000Y-92000000D02*
X139500000Y-91500000D01*
X140500000Y-94000000D02*
X139500000Y-92000000D01*
X138500000Y-94000000D02*
X140500000Y-94000000D01*
X139500000Y-92000000D02*
X138500000Y-94000000D01*
X133466666Y-89692857D02*
X133733333Y-89692857D01*
X133733333Y-90111905D02*
X133733333Y-89311905D01*
X133352380Y-89311905D01*
X133047619Y-90111905D02*
X133047619Y-89311905D01*
X132285714Y-90111905D02*
X132666667Y-90111905D01*
X132666667Y-89311905D01*
X132133334Y-89311905D02*
X131676191Y-89311905D01*
X131904762Y-90111905D02*
X131904762Y-89311905D01*
X131409524Y-89692857D02*
X131142857Y-89692857D01*
X131028571Y-90111905D02*
X131409524Y-90111905D01*
X131409524Y-89311905D01*
X131028571Y-89311905D01*
X130228571Y-90111905D02*
X130495238Y-89730952D01*
X130685714Y-90111905D02*
X130685714Y-89311905D01*
X130380952Y-89311905D01*
X130304761Y-89350000D01*
X130266666Y-89388095D01*
X130228571Y-89464286D01*
X130228571Y-89578571D01*
X130266666Y-89654762D01*
X130304761Y-89692857D01*
X130380952Y-89730952D01*
X130685714Y-89730952D01*
D13*
X136976191Y-90404762D02*
X138023810Y-90404762D01*
X137357143Y-89357143D01*
X138023810Y-88404762D01*
X136976191Y-88404762D01*
D11*
X139500000Y-89500000D02*
G75*
G03X139500000Y-89500000I-2000000J0D01*
G01*
D12*
X151080409Y-77062823D02*
X150972659Y-76955073D01*
X150895214Y-76931503D01*
X150794200Y-76938237D01*
X150672981Y-77032518D01*
X150507990Y-77244650D01*
X150440645Y-77392806D01*
X150447379Y-77507290D01*
X150477684Y-77591469D01*
X150585434Y-77699219D01*
X150662878Y-77722789D01*
X150763894Y-77716054D01*
X150885113Y-77621774D01*
X151050104Y-77409641D01*
X151117448Y-77261486D01*
X151110713Y-77147002D01*
X151080409Y-77062823D01*
X150595536Y-76577950D02*
X150194842Y-77093127D01*
X150120764Y-77126799D01*
X150070256Y-77130166D01*
X149992811Y-77106596D01*
X149885062Y-76998847D01*
X149854757Y-76914667D01*
X149851390Y-76857425D01*
X149871593Y-76769878D01*
X150272287Y-76254701D01*
X150083725Y-76066140D02*
X149760477Y-75742891D01*
X149427126Y-76540911D02*
X149922101Y-75904515D01*
X149076940Y-76190725D02*
X149571915Y-75554329D01*
X149356415Y-75338829D01*
X149278970Y-75315259D01*
X149228463Y-75318626D01*
X149154385Y-75352298D01*
X149083674Y-75443211D01*
X149063471Y-75530758D01*
X149066838Y-75588000D01*
X149097143Y-75672179D01*
X149312643Y-75887679D01*
X149006229Y-74988643D02*
X148605535Y-75503821D01*
X148531458Y-75537492D01*
X148480949Y-75540860D01*
X148403505Y-75517290D01*
X148295755Y-75409540D01*
X148265450Y-75325360D01*
X148262083Y-75268118D01*
X148282286Y-75180572D01*
X148682980Y-74665394D01*
X148494419Y-74476833D02*
X148171170Y-74153584D01*
X147837819Y-74951604D02*
X148332794Y-74315208D01*
X149697509Y-78553472D02*
X149593127Y-78502964D01*
X149458440Y-78368277D01*
X149428135Y-78284098D01*
X149424768Y-78226855D01*
X149444971Y-78139308D01*
X149492112Y-78078700D01*
X149566189Y-78045028D01*
X149616697Y-78041661D01*
X149694142Y-78065231D01*
X149825462Y-78142676D01*
X149902907Y-78166246D01*
X149953415Y-78162879D01*
X150027492Y-78129207D01*
X150074633Y-78068599D01*
X150094837Y-77981052D01*
X150091469Y-77923810D01*
X150061164Y-77839630D01*
X149926477Y-77704943D01*
X149822095Y-77654435D01*
X149108254Y-78018091D02*
X149603228Y-77381694D01*
X149013973Y-76846314D02*
X149091418Y-76869884D01*
X149172230Y-76950696D01*
X149229472Y-77061813D01*
X149236207Y-77176297D01*
X149216004Y-77263844D01*
X149148660Y-77411999D01*
X149077949Y-77502913D01*
X148956731Y-77597194D01*
X148882653Y-77630865D01*
X148781637Y-77637600D01*
X148677255Y-77587092D01*
X148623381Y-77533218D01*
X148566138Y-77422101D01*
X148562772Y-77364858D01*
X148727763Y-77152727D01*
X148835513Y-77260477D01*
X148273194Y-77183031D02*
X148768169Y-76546635D01*
X147949946Y-76859782D01*
X148444920Y-76223386D01*
X147848931Y-76435518D02*
X147579557Y-76166145D01*
X147761384Y-76671221D02*
X148067797Y-75846263D01*
X147384260Y-76294097D01*
X146926324Y-75836161D02*
X147195699Y-76105536D01*
X147690674Y-75469140D01*
X141335715Y-76361905D02*
X141235715Y-75561905D01*
X140930953Y-75561905D01*
X140859524Y-75600000D01*
X140826191Y-75638095D01*
X140797620Y-75714286D01*
X140811905Y-75828571D01*
X140859524Y-75904762D01*
X140902381Y-75942857D01*
X140983334Y-75980952D01*
X141288096Y-75980952D01*
X140535715Y-76361905D02*
X140435715Y-75561905D01*
X140483334Y-75942857D02*
X140026191Y-75942857D01*
X140078572Y-76361905D02*
X139978572Y-75561905D01*
X139707144Y-76133333D02*
X139326192Y-76133333D01*
X139811906Y-76361905D02*
X139445239Y-75561905D01*
X139278572Y-76361905D01*
X139045239Y-76323810D02*
X138935715Y-76361905D01*
X138745239Y-76361905D01*
X138664287Y-76323810D01*
X138621429Y-76285714D01*
X138573810Y-76209524D01*
X138564287Y-76133333D01*
X138592858Y-76057143D01*
X138626192Y-76019048D01*
X138697620Y-75980952D01*
X138845239Y-75942857D01*
X138916668Y-75904762D01*
X138950001Y-75866667D01*
X138978572Y-75790476D01*
X138969049Y-75714286D01*
X138921430Y-75638095D01*
X138878573Y-75600000D01*
X138797620Y-75561905D01*
X138607144Y-75561905D01*
X138497620Y-75600000D01*
X138197620Y-75942857D02*
X137930953Y-75942857D01*
X137869048Y-76361905D02*
X138250001Y-76361905D01*
X138150001Y-75561905D01*
X137769048Y-75561905D01*
X136459524Y-76361905D02*
X136678572Y-75980952D01*
X136916667Y-76361905D02*
X136816667Y-75561905D01*
X136511905Y-75561905D01*
X136440476Y-75600000D01*
X136407143Y-75638095D01*
X136378572Y-75714286D01*
X136392857Y-75828571D01*
X136440476Y-75904762D01*
X136483333Y-75942857D01*
X136564286Y-75980952D01*
X136869048Y-75980952D01*
X136064286Y-75942857D02*
X135797619Y-75942857D01*
X135735714Y-76361905D02*
X136116667Y-76361905D01*
X136016667Y-75561905D01*
X135635714Y-75561905D01*
X135073809Y-75942857D02*
X135340476Y-75942857D01*
X135392857Y-76361905D02*
X135292857Y-75561905D01*
X134911904Y-75561905D01*
X134654762Y-75942857D02*
X134388095Y-75942857D01*
X134326190Y-76361905D02*
X134707143Y-76361905D01*
X134607143Y-75561905D01*
X134226190Y-75561905D01*
X133526190Y-76361905D02*
X133745238Y-75980952D01*
X133983333Y-76361905D02*
X133883333Y-75561905D01*
X133578571Y-75561905D01*
X133507142Y-75600000D01*
X133473809Y-75638095D01*
X133445238Y-75714286D01*
X133459523Y-75828571D01*
X133507142Y-75904762D01*
X133549999Y-75942857D01*
X133630952Y-75980952D01*
X133935714Y-75980952D01*
X133130952Y-75942857D02*
X132864285Y-75942857D01*
X132802380Y-76361905D02*
X133183333Y-76361905D01*
X133083333Y-75561905D01*
X132702380Y-75561905D01*
X132459523Y-76361905D02*
X132359523Y-75561905D01*
X132002380Y-76361905D01*
X131902380Y-75561905D01*
X131154761Y-76285714D02*
X131197618Y-76323810D01*
X131316666Y-76361905D01*
X131392856Y-76361905D01*
X131502380Y-76323810D01*
X131569047Y-76247619D01*
X131597619Y-76171429D01*
X131616666Y-76019048D01*
X131602380Y-75904762D01*
X131545238Y-75752381D01*
X131497619Y-75676190D01*
X131411904Y-75600000D01*
X131292856Y-75561905D01*
X131216666Y-75561905D01*
X131107142Y-75600000D01*
X131073809Y-75638095D01*
X130769047Y-75942857D02*
X130502380Y-75942857D01*
X130440475Y-76361905D02*
X130821428Y-76361905D01*
X130721428Y-75561905D01*
X130340475Y-75561905D01*
X129521427Y-76323810D02*
X129411903Y-76361905D01*
X129221427Y-76361905D01*
X129140475Y-76323810D01*
X129097617Y-76285714D01*
X129049998Y-76209524D01*
X129040475Y-76133333D01*
X129069046Y-76057143D01*
X129102380Y-76019048D01*
X129173808Y-75980952D01*
X129321427Y-75942857D01*
X129392856Y-75904762D01*
X129426189Y-75866667D01*
X129454760Y-75790476D01*
X129445237Y-75714286D01*
X129397618Y-75638095D01*
X129354761Y-75600000D01*
X129273808Y-75561905D01*
X129083332Y-75561905D01*
X128973808Y-75600000D01*
X128726189Y-76361905D02*
X128626189Y-75561905D01*
X127830951Y-75600000D02*
X127902380Y-75561905D01*
X128016665Y-75561905D01*
X128135713Y-75600000D01*
X128221428Y-75676190D01*
X128269047Y-75752381D01*
X128326189Y-75904762D01*
X128340475Y-76019048D01*
X128321428Y-76171429D01*
X128292856Y-76247619D01*
X128226189Y-76323810D01*
X128116665Y-76361905D01*
X128040475Y-76361905D01*
X127921427Y-76323810D01*
X127878570Y-76285714D01*
X127845237Y-76019048D01*
X127997618Y-76019048D01*
X127545237Y-76361905D02*
X127445237Y-75561905D01*
X127088094Y-76361905D01*
X126988094Y-75561905D01*
X126716666Y-76133333D02*
X126335714Y-76133333D01*
X126821428Y-76361905D02*
X126454761Y-75561905D01*
X126288094Y-76361905D01*
X125640475Y-76361905D02*
X126021428Y-76361905D01*
X125921428Y-75561905D01*
D11*
X151757143Y-60323810D02*
X151642857Y-60361905D01*
X151452381Y-60361905D01*
X151376191Y-60323810D01*
X151338095Y-60285714D01*
X151300000Y-60209524D01*
X151300000Y-60133333D01*
X151338095Y-60057143D01*
X151376191Y-60019048D01*
X151452381Y-59980952D01*
X151604762Y-59942857D01*
X151680953Y-59904762D01*
X151719048Y-59866667D01*
X151757143Y-59790476D01*
X151757143Y-59714286D01*
X151719048Y-59638095D01*
X151680953Y-59600000D01*
X151604762Y-59561905D01*
X151414286Y-59561905D01*
X151300000Y-59600000D01*
X150957143Y-60361905D02*
X150957143Y-59561905D01*
X150576191Y-60361905D02*
X150576191Y-59561905D01*
X150119048Y-60361905D01*
X150119048Y-59561905D01*
X149738096Y-59942857D02*
X149471429Y-59942857D01*
X149357143Y-60361905D02*
X149738096Y-60361905D01*
X149738096Y-59561905D01*
X149357143Y-59561905D01*
X148480952Y-59561905D02*
X148290476Y-60361905D01*
X148138095Y-59790476D01*
X147985714Y-60361905D01*
X147795238Y-59561905D01*
X147528571Y-60133333D02*
X147147619Y-60133333D01*
X147604762Y-60361905D02*
X147338095Y-59561905D01*
X147071428Y-60361905D01*
X146919048Y-59561905D02*
X146652381Y-60361905D01*
X146385714Y-59561905D01*
X146119048Y-59942857D02*
X145852381Y-59942857D01*
X145738095Y-60361905D02*
X146119048Y-60361905D01*
X146119048Y-59561905D01*
X145738095Y-59561905D01*
X144823809Y-60323810D02*
X144709523Y-60361905D01*
X144519047Y-60361905D01*
X144442857Y-60323810D01*
X144404761Y-60285714D01*
X144366666Y-60209524D01*
X144366666Y-60133333D01*
X144404761Y-60057143D01*
X144442857Y-60019048D01*
X144519047Y-59980952D01*
X144671428Y-59942857D01*
X144747619Y-59904762D01*
X144785714Y-59866667D01*
X144823809Y-59790476D01*
X144823809Y-59714286D01*
X144785714Y-59638095D01*
X144747619Y-59600000D01*
X144671428Y-59561905D01*
X144480952Y-59561905D01*
X144366666Y-59600000D01*
X143871428Y-59980952D02*
X143871428Y-60361905D01*
X144138095Y-59561905D02*
X143871428Y-59980952D01*
X143604761Y-59561905D01*
X143338095Y-60361905D02*
X143338095Y-59561905D01*
X142880952Y-60361905D01*
X142880952Y-59561905D01*
X142614286Y-59561905D02*
X142157143Y-59561905D01*
X142385714Y-60361905D02*
X142385714Y-59561905D01*
X141890476Y-60361905D02*
X141890476Y-59561905D01*
X141890476Y-59942857D02*
X141433333Y-59942857D01*
X141433333Y-60361905D02*
X141433333Y-59561905D01*
X141052381Y-59942857D02*
X140785714Y-59942857D01*
X140671428Y-60361905D02*
X141052381Y-60361905D01*
X141052381Y-59561905D01*
X140671428Y-59561905D01*
X140366666Y-60323810D02*
X140252380Y-60361905D01*
X140061904Y-60361905D01*
X139985714Y-60323810D01*
X139947618Y-60285714D01*
X139909523Y-60209524D01*
X139909523Y-60133333D01*
X139947618Y-60057143D01*
X139985714Y-60019048D01*
X140061904Y-59980952D01*
X140214285Y-59942857D01*
X140290476Y-59904762D01*
X140328571Y-59866667D01*
X140366666Y-59790476D01*
X140366666Y-59714286D01*
X140328571Y-59638095D01*
X140290476Y-59600000D01*
X140214285Y-59561905D01*
X140023809Y-59561905D01*
X139909523Y-59600000D01*
X139566666Y-60361905D02*
X139566666Y-59561905D01*
X139261904Y-59561905D02*
X138728571Y-59561905D01*
X139261904Y-60361905D01*
X138728571Y-60361905D01*
X138423809Y-59942857D02*
X138157142Y-59942857D01*
X138042856Y-60361905D02*
X138423809Y-60361905D01*
X138423809Y-59561905D01*
X138042856Y-59561905D01*
X137242856Y-60361905D02*
X137509523Y-59980952D01*
X137699999Y-60361905D02*
X137699999Y-59561905D01*
X137395237Y-59561905D01*
X137319046Y-59600000D01*
X137280951Y-59638095D01*
X137242856Y-59714286D01*
X137242856Y-59828571D01*
X137280951Y-59904762D01*
X137319046Y-59942857D01*
X137395237Y-59980952D01*
X137699999Y-59980952D01*
X167871428Y-54897143D02*
X167261904Y-54897143D01*
X167566666Y-55201905D02*
X167566666Y-54592381D01*
X166499999Y-54401905D02*
X166880952Y-54401905D01*
X166919047Y-54782857D01*
X166880952Y-54744762D01*
X166804761Y-54706667D01*
X166614285Y-54706667D01*
X166538095Y-54744762D01*
X166499999Y-54782857D01*
X166461904Y-54859048D01*
X166461904Y-55049524D01*
X166499999Y-55125714D01*
X166538095Y-55163810D01*
X166614285Y-55201905D01*
X166804761Y-55201905D01*
X166880952Y-55163810D01*
X166919047Y-55125714D01*
X166233333Y-54401905D02*
X165966666Y-55201905D01*
X165699999Y-54401905D01*
X164442856Y-55201905D02*
X164823809Y-55201905D01*
X164823809Y-54401905D01*
X164176190Y-55201905D02*
X164176190Y-54401905D01*
X163795238Y-55201905D02*
X163795238Y-54401905D01*
X163338095Y-55201905D01*
X163338095Y-54401905D01*
X162957143Y-54782857D02*
X162690476Y-54782857D01*
X162576190Y-55201905D02*
X162957143Y-55201905D01*
X162957143Y-54401905D01*
X162576190Y-54401905D01*
X162271428Y-54973333D02*
X161890476Y-54973333D01*
X162347619Y-55201905D02*
X162080952Y-54401905D01*
X161814285Y-55201905D01*
X161090476Y-55201905D02*
X161357143Y-54820952D01*
X161547619Y-55201905D02*
X161547619Y-54401905D01*
X161242857Y-54401905D01*
X161166666Y-54440000D01*
X161128571Y-54478095D01*
X161090476Y-54554286D01*
X161090476Y-54668571D01*
X161128571Y-54744762D01*
X161166666Y-54782857D01*
X161242857Y-54820952D01*
X161547619Y-54820952D01*
X167223809Y-56521905D02*
X167490476Y-56140952D01*
X167680952Y-56521905D02*
X167680952Y-55721905D01*
X167376190Y-55721905D01*
X167299999Y-55760000D01*
X167261904Y-55798095D01*
X167223809Y-55874286D01*
X167223809Y-55988571D01*
X167261904Y-56064762D01*
X167299999Y-56102857D01*
X167376190Y-56140952D01*
X167680952Y-56140952D01*
X166880952Y-56102857D02*
X166614285Y-56102857D01*
X166499999Y-56521905D02*
X166880952Y-56521905D01*
X166880952Y-55721905D01*
X166499999Y-55721905D01*
X165738094Y-55760000D02*
X165814285Y-55721905D01*
X165928570Y-55721905D01*
X166042856Y-55760000D01*
X166119047Y-55836190D01*
X166157142Y-55912381D01*
X166195237Y-56064762D01*
X166195237Y-56179048D01*
X166157142Y-56331429D01*
X166119047Y-56407619D01*
X166042856Y-56483810D01*
X165928570Y-56521905D01*
X165852380Y-56521905D01*
X165738094Y-56483810D01*
X165699999Y-56445714D01*
X165699999Y-56179048D01*
X165852380Y-56179048D01*
X165357142Y-55721905D02*
X165357142Y-56369524D01*
X165319047Y-56445714D01*
X165280951Y-56483810D01*
X165204761Y-56521905D01*
X165052380Y-56521905D01*
X164976189Y-56483810D01*
X164938094Y-56445714D01*
X164899999Y-56369524D01*
X164899999Y-55721905D01*
X164138094Y-56521905D02*
X164519047Y-56521905D01*
X164519047Y-55721905D01*
X163909523Y-56293333D02*
X163528571Y-56293333D01*
X163985714Y-56521905D02*
X163719047Y-55721905D01*
X163452380Y-56521905D01*
X163300000Y-55721905D02*
X162842857Y-55721905D01*
X163071428Y-56521905D02*
X163071428Y-55721905D01*
X162423809Y-55721905D02*
X162271428Y-55721905D01*
X162195237Y-55760000D01*
X162119047Y-55836190D01*
X162080952Y-55988571D01*
X162080952Y-56255238D01*
X162119047Y-56407619D01*
X162195237Y-56483810D01*
X162271428Y-56521905D01*
X162423809Y-56521905D01*
X162499999Y-56483810D01*
X162576190Y-56407619D01*
X162614285Y-56255238D01*
X162614285Y-55988571D01*
X162576190Y-55836190D01*
X162499999Y-55760000D01*
X162423809Y-55721905D01*
X161280952Y-56521905D02*
X161547619Y-56140952D01*
X161738095Y-56521905D02*
X161738095Y-55721905D01*
X161433333Y-55721905D01*
X161357142Y-55760000D01*
X161319047Y-55798095D01*
X161280952Y-55874286D01*
X161280952Y-55988571D01*
X161319047Y-56064762D01*
X161357142Y-56102857D01*
X161433333Y-56140952D01*
X161738095Y-56140952D01*
X160871428Y-28897143D02*
X160261904Y-28897143D01*
X159499999Y-28401905D02*
X159880952Y-28401905D01*
X159919047Y-28782857D01*
X159880952Y-28744762D01*
X159804761Y-28706667D01*
X159614285Y-28706667D01*
X159538095Y-28744762D01*
X159499999Y-28782857D01*
X159461904Y-28859048D01*
X159461904Y-29049524D01*
X159499999Y-29125714D01*
X159538095Y-29163810D01*
X159614285Y-29201905D01*
X159804761Y-29201905D01*
X159880952Y-29163810D01*
X159919047Y-29125714D01*
X159233333Y-28401905D02*
X158966666Y-29201905D01*
X158699999Y-28401905D01*
X157442856Y-29201905D02*
X157823809Y-29201905D01*
X157823809Y-28401905D01*
X157176190Y-29201905D02*
X157176190Y-28401905D01*
X156795238Y-29201905D02*
X156795238Y-28401905D01*
X156338095Y-29201905D01*
X156338095Y-28401905D01*
X155957143Y-28782857D02*
X155690476Y-28782857D01*
X155576190Y-29201905D02*
X155957143Y-29201905D01*
X155957143Y-28401905D01*
X155576190Y-28401905D01*
X155271428Y-28973333D02*
X154890476Y-28973333D01*
X155347619Y-29201905D02*
X155080952Y-28401905D01*
X154814285Y-29201905D01*
X154090476Y-29201905D02*
X154357143Y-28820952D01*
X154547619Y-29201905D02*
X154547619Y-28401905D01*
X154242857Y-28401905D01*
X154166666Y-28440000D01*
X154128571Y-28478095D01*
X154090476Y-28554286D01*
X154090476Y-28668571D01*
X154128571Y-28744762D01*
X154166666Y-28782857D01*
X154242857Y-28820952D01*
X154547619Y-28820952D01*
X160223809Y-30521905D02*
X160490476Y-30140952D01*
X160680952Y-30521905D02*
X160680952Y-29721905D01*
X160376190Y-29721905D01*
X160299999Y-29760000D01*
X160261904Y-29798095D01*
X160223809Y-29874286D01*
X160223809Y-29988571D01*
X160261904Y-30064762D01*
X160299999Y-30102857D01*
X160376190Y-30140952D01*
X160680952Y-30140952D01*
X159880952Y-30102857D02*
X159614285Y-30102857D01*
X159499999Y-30521905D02*
X159880952Y-30521905D01*
X159880952Y-29721905D01*
X159499999Y-29721905D01*
X158738094Y-29760000D02*
X158814285Y-29721905D01*
X158928570Y-29721905D01*
X159042856Y-29760000D01*
X159119047Y-29836190D01*
X159157142Y-29912381D01*
X159195237Y-30064762D01*
X159195237Y-30179048D01*
X159157142Y-30331429D01*
X159119047Y-30407619D01*
X159042856Y-30483810D01*
X158928570Y-30521905D01*
X158852380Y-30521905D01*
X158738094Y-30483810D01*
X158699999Y-30445714D01*
X158699999Y-30179048D01*
X158852380Y-30179048D01*
X158357142Y-29721905D02*
X158357142Y-30369524D01*
X158319047Y-30445714D01*
X158280951Y-30483810D01*
X158204761Y-30521905D01*
X158052380Y-30521905D01*
X157976189Y-30483810D01*
X157938094Y-30445714D01*
X157899999Y-30369524D01*
X157899999Y-29721905D01*
X157138094Y-30521905D02*
X157519047Y-30521905D01*
X157519047Y-29721905D01*
X156909523Y-30293333D02*
X156528571Y-30293333D01*
X156985714Y-30521905D02*
X156719047Y-29721905D01*
X156452380Y-30521905D01*
X156300000Y-29721905D02*
X155842857Y-29721905D01*
X156071428Y-30521905D02*
X156071428Y-29721905D01*
X155423809Y-29721905D02*
X155271428Y-29721905D01*
X155195237Y-29760000D01*
X155119047Y-29836190D01*
X155080952Y-29988571D01*
X155080952Y-30255238D01*
X155119047Y-30407619D01*
X155195237Y-30483810D01*
X155271428Y-30521905D01*
X155423809Y-30521905D01*
X155499999Y-30483810D01*
X155576190Y-30407619D01*
X155614285Y-30255238D01*
X155614285Y-29988571D01*
X155576190Y-29836190D01*
X155499999Y-29760000D01*
X155423809Y-29721905D01*
X154280952Y-30521905D02*
X154547619Y-30140952D01*
X154738095Y-30521905D02*
X154738095Y-29721905D01*
X154433333Y-29721905D01*
X154357142Y-29760000D01*
X154319047Y-29798095D01*
X154280952Y-29874286D01*
X154280952Y-29988571D01*
X154319047Y-30064762D01*
X154357142Y-30102857D01*
X154433333Y-30140952D01*
X154738095Y-30140952D01*
X149142857Y-44057143D02*
X148533333Y-44057143D01*
X148114286Y-44361905D02*
X147961905Y-44361905D01*
X147885714Y-44323810D01*
X147847619Y-44285714D01*
X147771428Y-44171429D01*
X147733333Y-44019048D01*
X147733333Y-43714286D01*
X147771428Y-43638095D01*
X147809524Y-43600000D01*
X147885714Y-43561905D01*
X148038095Y-43561905D01*
X148114286Y-43600000D01*
X148152381Y-43638095D01*
X148190476Y-43714286D01*
X148190476Y-43904762D01*
X148152381Y-43980952D01*
X148114286Y-44019048D01*
X148038095Y-44057143D01*
X147885714Y-44057143D01*
X147809524Y-44019048D01*
X147771428Y-43980952D01*
X147733333Y-43904762D01*
X147504762Y-43561905D02*
X147238095Y-44361905D01*
X146971428Y-43561905D01*
X146095238Y-44361905D02*
X146095238Y-43561905D01*
X145904762Y-43561905D01*
X145790476Y-43600000D01*
X145714285Y-43676190D01*
X145676190Y-43752381D01*
X145638095Y-43904762D01*
X145638095Y-44019048D01*
X145676190Y-44171429D01*
X145714285Y-44247619D01*
X145790476Y-44323810D01*
X145904762Y-44361905D01*
X146095238Y-44361905D01*
X144838095Y-44285714D02*
X144876190Y-44323810D01*
X144990476Y-44361905D01*
X145066666Y-44361905D01*
X145180952Y-44323810D01*
X145257143Y-44247619D01*
X145295238Y-44171429D01*
X145333333Y-44019048D01*
X145333333Y-43904762D01*
X145295238Y-43752381D01*
X145257143Y-43676190D01*
X145180952Y-43600000D01*
X145066666Y-43561905D01*
X144990476Y-43561905D01*
X144876190Y-43600000D01*
X144838095Y-43638095D01*
X144495238Y-44057143D02*
X143885714Y-44057143D01*
X143504762Y-44361905D02*
X143504762Y-43561905D01*
X143314286Y-43561905D01*
X143200000Y-43600000D01*
X143123809Y-43676190D01*
X143085714Y-43752381D01*
X143047619Y-43904762D01*
X143047619Y-44019048D01*
X143085714Y-44171429D01*
X143123809Y-44247619D01*
X143200000Y-44323810D01*
X143314286Y-44361905D01*
X143504762Y-44361905D01*
X142247619Y-44285714D02*
X142285714Y-44323810D01*
X142400000Y-44361905D01*
X142476190Y-44361905D01*
X142590476Y-44323810D01*
X142666667Y-44247619D01*
X142704762Y-44171429D01*
X142742857Y-44019048D01*
X142742857Y-43904762D01*
X142704762Y-43752381D01*
X142666667Y-43676190D01*
X142590476Y-43600000D01*
X142476190Y-43561905D01*
X142400000Y-43561905D01*
X142285714Y-43600000D01*
X142247619Y-43638095D01*
X140838095Y-44285714D02*
X140876190Y-44323810D01*
X140990476Y-44361905D01*
X141066666Y-44361905D01*
X141180952Y-44323810D01*
X141257143Y-44247619D01*
X141295238Y-44171429D01*
X141333333Y-44019048D01*
X141333333Y-43904762D01*
X141295238Y-43752381D01*
X141257143Y-43676190D01*
X141180952Y-43600000D01*
X141066666Y-43561905D01*
X140990476Y-43561905D01*
X140876190Y-43600000D01*
X140838095Y-43638095D01*
X140342857Y-43561905D02*
X140190476Y-43561905D01*
X140114285Y-43600000D01*
X140038095Y-43676190D01*
X140000000Y-43828571D01*
X140000000Y-44095238D01*
X140038095Y-44247619D01*
X140114285Y-44323810D01*
X140190476Y-44361905D01*
X140342857Y-44361905D01*
X140419047Y-44323810D01*
X140495238Y-44247619D01*
X140533333Y-44095238D01*
X140533333Y-43828571D01*
X140495238Y-43676190D01*
X140419047Y-43600000D01*
X140342857Y-43561905D01*
X139657143Y-44361905D02*
X139657143Y-43561905D01*
X139200000Y-44361905D01*
X139200000Y-43561905D01*
X138933334Y-43561905D02*
X138666667Y-44361905D01*
X138400000Y-43561905D01*
X138133334Y-43942857D02*
X137866667Y-43942857D01*
X137752381Y-44361905D02*
X138133334Y-44361905D01*
X138133334Y-43561905D01*
X137752381Y-43561905D01*
X136952381Y-44361905D02*
X137219048Y-43980952D01*
X137409524Y-44361905D02*
X137409524Y-43561905D01*
X137104762Y-43561905D01*
X137028571Y-43600000D01*
X136990476Y-43638095D01*
X136952381Y-43714286D01*
X136952381Y-43828571D01*
X136990476Y-43904762D01*
X137028571Y-43942857D01*
X137104762Y-43980952D01*
X137409524Y-43980952D01*
X136723810Y-43561905D02*
X136266667Y-43561905D01*
X136495238Y-44361905D02*
X136495238Y-43561905D01*
X136000000Y-43942857D02*
X135733333Y-43942857D01*
X135619047Y-44361905D02*
X136000000Y-44361905D01*
X136000000Y-43561905D01*
X135619047Y-43561905D01*
X134819047Y-44361905D02*
X135085714Y-43980952D01*
X135276190Y-44361905D02*
X135276190Y-43561905D01*
X134971428Y-43561905D01*
X134895237Y-43600000D01*
X134857142Y-43638095D01*
X134819047Y-43714286D01*
X134819047Y-43828571D01*
X134857142Y-43904762D01*
X134895237Y-43942857D01*
X134971428Y-43980952D01*
X135276190Y-43980952D01*
X126000000Y-38500000D02*
X126000000Y-38000000D01*
X122795238Y-37561905D02*
X122300000Y-37561905D01*
X122566667Y-37866667D01*
X122452381Y-37866667D01*
X122376191Y-37904762D01*
X122338095Y-37942857D01*
X122300000Y-38019048D01*
X122300000Y-38209524D01*
X122338095Y-38285714D01*
X122376191Y-38323810D01*
X122452381Y-38361905D01*
X122680953Y-38361905D01*
X122757143Y-38323810D01*
X122795238Y-38285714D01*
X121957143Y-38285714D02*
X121919048Y-38323810D01*
X121957143Y-38361905D01*
X121995238Y-38323810D01*
X121957143Y-38285714D01*
X121957143Y-38361905D01*
X121652381Y-37561905D02*
X121157143Y-37561905D01*
X121423810Y-37866667D01*
X121309524Y-37866667D01*
X121233334Y-37904762D01*
X121195238Y-37942857D01*
X121157143Y-38019048D01*
X121157143Y-38209524D01*
X121195238Y-38285714D01*
X121233334Y-38323810D01*
X121309524Y-38361905D01*
X121538096Y-38361905D01*
X121614286Y-38323810D01*
X121652381Y-38285714D01*
X120928572Y-37561905D02*
X120661905Y-38361905D01*
X120395238Y-37561905D01*
X119519048Y-38361905D02*
X119519048Y-37561905D01*
X119328572Y-37561905D01*
X119214286Y-37600000D01*
X119138095Y-37676190D01*
X119100000Y-37752381D01*
X119061905Y-37904762D01*
X119061905Y-38019048D01*
X119100000Y-38171429D01*
X119138095Y-38247619D01*
X119214286Y-38323810D01*
X119328572Y-38361905D01*
X119519048Y-38361905D01*
X118261905Y-38285714D02*
X118300000Y-38323810D01*
X118414286Y-38361905D01*
X118490476Y-38361905D01*
X118604762Y-38323810D01*
X118680953Y-38247619D01*
X118719048Y-38171429D01*
X118757143Y-38019048D01*
X118757143Y-37904762D01*
X118719048Y-37752381D01*
X118680953Y-37676190D01*
X118604762Y-37600000D01*
X118490476Y-37561905D01*
X118414286Y-37561905D01*
X118300000Y-37600000D01*
X118261905Y-37638095D01*
X117919048Y-38057143D02*
X117309524Y-38057143D01*
X116928572Y-38361905D02*
X116928572Y-37561905D01*
X116738096Y-37561905D01*
X116623810Y-37600000D01*
X116547619Y-37676190D01*
X116509524Y-37752381D01*
X116471429Y-37904762D01*
X116471429Y-38019048D01*
X116509524Y-38171429D01*
X116547619Y-38247619D01*
X116623810Y-38323810D01*
X116738096Y-38361905D01*
X116928572Y-38361905D01*
X115671429Y-38285714D02*
X115709524Y-38323810D01*
X115823810Y-38361905D01*
X115900000Y-38361905D01*
X116014286Y-38323810D01*
X116090477Y-38247619D01*
X116128572Y-38171429D01*
X116166667Y-38019048D01*
X116166667Y-37904762D01*
X116128572Y-37752381D01*
X116090477Y-37676190D01*
X116014286Y-37600000D01*
X115900000Y-37561905D01*
X115823810Y-37561905D01*
X115709524Y-37600000D01*
X115671429Y-37638095D01*
X114261905Y-38285714D02*
X114300000Y-38323810D01*
X114414286Y-38361905D01*
X114490476Y-38361905D01*
X114604762Y-38323810D01*
X114680953Y-38247619D01*
X114719048Y-38171429D01*
X114757143Y-38019048D01*
X114757143Y-37904762D01*
X114719048Y-37752381D01*
X114680953Y-37676190D01*
X114604762Y-37600000D01*
X114490476Y-37561905D01*
X114414286Y-37561905D01*
X114300000Y-37600000D01*
X114261905Y-37638095D01*
X113766667Y-37561905D02*
X113614286Y-37561905D01*
X113538095Y-37600000D01*
X113461905Y-37676190D01*
X113423810Y-37828571D01*
X113423810Y-38095238D01*
X113461905Y-38247619D01*
X113538095Y-38323810D01*
X113614286Y-38361905D01*
X113766667Y-38361905D01*
X113842857Y-38323810D01*
X113919048Y-38247619D01*
X113957143Y-38095238D01*
X113957143Y-37828571D01*
X113919048Y-37676190D01*
X113842857Y-37600000D01*
X113766667Y-37561905D01*
X113080953Y-38361905D02*
X113080953Y-37561905D01*
X112623810Y-38361905D01*
X112623810Y-37561905D01*
X112357144Y-37561905D02*
X112090477Y-38361905D01*
X111823810Y-37561905D01*
X111557144Y-37942857D02*
X111290477Y-37942857D01*
X111176191Y-38361905D02*
X111557144Y-38361905D01*
X111557144Y-37561905D01*
X111176191Y-37561905D01*
X110376191Y-38361905D02*
X110642858Y-37980952D01*
X110833334Y-38361905D02*
X110833334Y-37561905D01*
X110528572Y-37561905D01*
X110452381Y-37600000D01*
X110414286Y-37638095D01*
X110376191Y-37714286D01*
X110376191Y-37828571D01*
X110414286Y-37904762D01*
X110452381Y-37942857D01*
X110528572Y-37980952D01*
X110833334Y-37980952D01*
X110147620Y-37561905D02*
X109690477Y-37561905D01*
X109919048Y-38361905D02*
X109919048Y-37561905D01*
X109423810Y-37942857D02*
X109157143Y-37942857D01*
X109042857Y-38361905D02*
X109423810Y-38361905D01*
X109423810Y-37561905D01*
X109042857Y-37561905D01*
X108242857Y-38361905D02*
X108509524Y-37980952D01*
X108700000Y-38361905D02*
X108700000Y-37561905D01*
X108395238Y-37561905D01*
X108319047Y-37600000D01*
X108280952Y-37638095D01*
X108242857Y-37714286D01*
X108242857Y-37828571D01*
X108280952Y-37904762D01*
X108319047Y-37942857D01*
X108395238Y-37980952D01*
X108700000Y-37980952D01*
X102352381Y-38881905D02*
X102619048Y-38500952D01*
X102809524Y-38881905D02*
X102809524Y-38081905D01*
X102504762Y-38081905D01*
X102428571Y-38120000D01*
X102390476Y-38158095D01*
X102352381Y-38234286D01*
X102352381Y-38348571D01*
X102390476Y-38424762D01*
X102428571Y-38462857D01*
X102504762Y-38500952D01*
X102809524Y-38500952D01*
X102009524Y-38462857D02*
X101742857Y-38462857D01*
X101628571Y-38881905D02*
X102009524Y-38881905D01*
X102009524Y-38081905D01*
X101628571Y-38081905D01*
X101400000Y-38081905D02*
X101133333Y-38881905D01*
X100866666Y-38081905D01*
X100600000Y-38462857D02*
X100333333Y-38462857D01*
X100219047Y-38881905D02*
X100600000Y-38881905D01*
X100600000Y-38081905D01*
X100219047Y-38081905D01*
X99419047Y-38881905D02*
X99685714Y-38500952D01*
X99876190Y-38881905D02*
X99876190Y-38081905D01*
X99571428Y-38081905D01*
X99495237Y-38120000D01*
X99457142Y-38158095D01*
X99419047Y-38234286D01*
X99419047Y-38348571D01*
X99457142Y-38424762D01*
X99495237Y-38462857D01*
X99571428Y-38500952D01*
X99876190Y-38500952D01*
X99114285Y-38843810D02*
X98999999Y-38881905D01*
X98809523Y-38881905D01*
X98733333Y-38843810D01*
X98695237Y-38805714D01*
X98657142Y-38729524D01*
X98657142Y-38653333D01*
X98695237Y-38577143D01*
X98733333Y-38539048D01*
X98809523Y-38500952D01*
X98961904Y-38462857D01*
X99038095Y-38424762D01*
X99076190Y-38386667D01*
X99114285Y-38310476D01*
X99114285Y-38234286D01*
X99076190Y-38158095D01*
X99038095Y-38120000D01*
X98961904Y-38081905D01*
X98771428Y-38081905D01*
X98657142Y-38120000D01*
X98314285Y-38462857D02*
X98047618Y-38462857D01*
X97933332Y-38881905D02*
X98314285Y-38881905D01*
X98314285Y-38081905D01*
X97933332Y-38081905D01*
X96980951Y-38881905D02*
X96980951Y-38081905D01*
X96676189Y-38081905D01*
X96599998Y-38120000D01*
X96561903Y-38158095D01*
X96523808Y-38234286D01*
X96523808Y-38348571D01*
X96561903Y-38424762D01*
X96599998Y-38462857D01*
X96676189Y-38500952D01*
X96980951Y-38500952D01*
X96028570Y-38081905D02*
X95876189Y-38081905D01*
X95799998Y-38120000D01*
X95723808Y-38196190D01*
X95685713Y-38348571D01*
X95685713Y-38615238D01*
X95723808Y-38767619D01*
X95799998Y-38843810D01*
X95876189Y-38881905D01*
X96028570Y-38881905D01*
X96104760Y-38843810D01*
X96180951Y-38767619D01*
X96219046Y-38615238D01*
X96219046Y-38348571D01*
X96180951Y-38196190D01*
X96104760Y-38120000D01*
X96028570Y-38081905D01*
X94961903Y-38881905D02*
X95342856Y-38881905D01*
X95342856Y-38081905D01*
X94733332Y-38653333D02*
X94352380Y-38653333D01*
X94809523Y-38881905D02*
X94542856Y-38081905D01*
X94276189Y-38881905D01*
X93552380Y-38881905D02*
X93819047Y-38500952D01*
X94009523Y-38881905D02*
X94009523Y-38081905D01*
X93704761Y-38081905D01*
X93628570Y-38120000D01*
X93590475Y-38158095D01*
X93552380Y-38234286D01*
X93552380Y-38348571D01*
X93590475Y-38424762D01*
X93628570Y-38462857D01*
X93704761Y-38500952D01*
X94009523Y-38500952D01*
X93209523Y-38881905D02*
X93209523Y-38081905D01*
X92942857Y-38081905D02*
X92485714Y-38081905D01*
X92714285Y-38881905D02*
X92714285Y-38081905D01*
X92066666Y-38500952D02*
X92066666Y-38881905D01*
X92333333Y-38081905D02*
X92066666Y-38500952D01*
X91799999Y-38081905D01*
X90923809Y-38881905D02*
X90923809Y-38081905D01*
X90619047Y-38081905D01*
X90542856Y-38120000D01*
X90504761Y-38158095D01*
X90466666Y-38234286D01*
X90466666Y-38348571D01*
X90504761Y-38424762D01*
X90542856Y-38462857D01*
X90619047Y-38500952D01*
X90923809Y-38500952D01*
X89666666Y-38881905D02*
X89933333Y-38500952D01*
X90123809Y-38881905D02*
X90123809Y-38081905D01*
X89819047Y-38081905D01*
X89742856Y-38120000D01*
X89704761Y-38158095D01*
X89666666Y-38234286D01*
X89666666Y-38348571D01*
X89704761Y-38424762D01*
X89742856Y-38462857D01*
X89819047Y-38500952D01*
X90123809Y-38500952D01*
X89171428Y-38081905D02*
X89019047Y-38081905D01*
X88942856Y-38120000D01*
X88866666Y-38196190D01*
X88828571Y-38348571D01*
X88828571Y-38615238D01*
X88866666Y-38767619D01*
X88942856Y-38843810D01*
X89019047Y-38881905D01*
X89171428Y-38881905D01*
X89247618Y-38843810D01*
X89323809Y-38767619D01*
X89361904Y-38615238D01*
X89361904Y-38348571D01*
X89323809Y-38196190D01*
X89247618Y-38120000D01*
X89171428Y-38081905D01*
X88600000Y-38081905D02*
X88142857Y-38081905D01*
X88371428Y-38881905D02*
X88371428Y-38081905D01*
X87876190Y-38462857D02*
X87609523Y-38462857D01*
X87495237Y-38881905D02*
X87876190Y-38881905D01*
X87876190Y-38081905D01*
X87495237Y-38081905D01*
X86695237Y-38805714D02*
X86733332Y-38843810D01*
X86847618Y-38881905D01*
X86923808Y-38881905D01*
X87038094Y-38843810D01*
X87114285Y-38767619D01*
X87152380Y-38691429D01*
X87190475Y-38539048D01*
X87190475Y-38424762D01*
X87152380Y-38272381D01*
X87114285Y-38196190D01*
X87038094Y-38120000D01*
X86923808Y-38081905D01*
X86847618Y-38081905D01*
X86733332Y-38120000D01*
X86695237Y-38158095D01*
X86466666Y-38081905D02*
X86009523Y-38081905D01*
X86238094Y-38881905D02*
X86238094Y-38081905D01*
X85742856Y-38881905D02*
X85742856Y-38081905D01*
X85209523Y-38081905D02*
X85057142Y-38081905D01*
X84980951Y-38120000D01*
X84904761Y-38196190D01*
X84866666Y-38348571D01*
X84866666Y-38615238D01*
X84904761Y-38767619D01*
X84980951Y-38843810D01*
X85057142Y-38881905D01*
X85209523Y-38881905D01*
X85285713Y-38843810D01*
X85361904Y-38767619D01*
X85399999Y-38615238D01*
X85399999Y-38348571D01*
X85361904Y-38196190D01*
X85285713Y-38120000D01*
X85209523Y-38081905D01*
X84523809Y-38881905D02*
X84523809Y-38081905D01*
X84066666Y-38881905D01*
X84066666Y-38081905D01*
X83647619Y-38843810D02*
X83647619Y-38881905D01*
X83685714Y-38958095D01*
X83723809Y-38996190D01*
X102352381Y-40201905D02*
X102619048Y-39820952D01*
X102809524Y-40201905D02*
X102809524Y-39401905D01*
X102504762Y-39401905D01*
X102428571Y-39440000D01*
X102390476Y-39478095D01*
X102352381Y-39554286D01*
X102352381Y-39668571D01*
X102390476Y-39744762D01*
X102428571Y-39782857D01*
X102504762Y-39820952D01*
X102809524Y-39820952D01*
X102009524Y-39782857D02*
X101742857Y-39782857D01*
X101628571Y-40201905D02*
X102009524Y-40201905D01*
X102009524Y-39401905D01*
X101628571Y-39401905D01*
X101323809Y-40163810D02*
X101209523Y-40201905D01*
X101019047Y-40201905D01*
X100942857Y-40163810D01*
X100904761Y-40125714D01*
X100866666Y-40049524D01*
X100866666Y-39973333D01*
X100904761Y-39897143D01*
X100942857Y-39859048D01*
X101019047Y-39820952D01*
X101171428Y-39782857D01*
X101247619Y-39744762D01*
X101285714Y-39706667D01*
X101323809Y-39630476D01*
X101323809Y-39554286D01*
X101285714Y-39478095D01*
X101247619Y-39440000D01*
X101171428Y-39401905D01*
X100980952Y-39401905D01*
X100866666Y-39440000D01*
X100523809Y-39782857D02*
X100257142Y-39782857D01*
X100142856Y-40201905D02*
X100523809Y-40201905D01*
X100523809Y-39401905D01*
X100142856Y-39401905D01*
X99914285Y-39401905D02*
X99457142Y-39401905D01*
X99685713Y-40201905D02*
X99685713Y-39401905D01*
X99304761Y-39401905D02*
X98847618Y-39401905D01*
X99076189Y-40201905D02*
X99076189Y-39401905D01*
X98619046Y-39973333D02*
X98238094Y-39973333D01*
X98695237Y-40201905D02*
X98428570Y-39401905D01*
X98161903Y-40201905D01*
X97628570Y-39782857D02*
X97514284Y-39820952D01*
X97476189Y-39859048D01*
X97438094Y-39935238D01*
X97438094Y-40049524D01*
X97476189Y-40125714D01*
X97514284Y-40163810D01*
X97590475Y-40201905D01*
X97895237Y-40201905D01*
X97895237Y-39401905D01*
X97628570Y-39401905D01*
X97552380Y-39440000D01*
X97514284Y-39478095D01*
X97476189Y-39554286D01*
X97476189Y-39630476D01*
X97514284Y-39706667D01*
X97552380Y-39744762D01*
X97628570Y-39782857D01*
X97895237Y-39782857D01*
X96714284Y-40201905D02*
X97095237Y-40201905D01*
X97095237Y-39401905D01*
X96447618Y-39782857D02*
X96180951Y-39782857D01*
X96066665Y-40201905D02*
X96447618Y-40201905D01*
X96447618Y-39401905D01*
X96066665Y-39401905D01*
X94847617Y-39782857D02*
X95114284Y-39782857D01*
X95114284Y-40201905D02*
X95114284Y-39401905D01*
X94733331Y-39401905D01*
X94428570Y-39401905D02*
X94428570Y-40049524D01*
X94390475Y-40125714D01*
X94352379Y-40163810D01*
X94276189Y-40201905D01*
X94123808Y-40201905D01*
X94047617Y-40163810D01*
X94009522Y-40125714D01*
X93971427Y-40049524D01*
X93971427Y-39401905D01*
X93628570Y-40163810D02*
X93514284Y-40201905D01*
X93323808Y-40201905D01*
X93247618Y-40163810D01*
X93209522Y-40125714D01*
X93171427Y-40049524D01*
X93171427Y-39973333D01*
X93209522Y-39897143D01*
X93247618Y-39859048D01*
X93323808Y-39820952D01*
X93476189Y-39782857D01*
X93552380Y-39744762D01*
X93590475Y-39706667D01*
X93628570Y-39630476D01*
X93628570Y-39554286D01*
X93590475Y-39478095D01*
X93552380Y-39440000D01*
X93476189Y-39401905D01*
X93285713Y-39401905D01*
X93171427Y-39440000D01*
X92828570Y-39782857D02*
X92561903Y-39782857D01*
X92447617Y-40201905D02*
X92828570Y-40201905D01*
X92828570Y-39401905D01*
X92447617Y-39401905D01*
X92066665Y-40163810D02*
X92066665Y-40201905D01*
X92104760Y-40278095D01*
X92142855Y-40316190D01*
X91114284Y-39401905D02*
X91114284Y-40049524D01*
X91076189Y-40125714D01*
X91038093Y-40163810D01*
X90961903Y-40201905D01*
X90809522Y-40201905D01*
X90733331Y-40163810D01*
X90695236Y-40125714D01*
X90657141Y-40049524D01*
X90657141Y-39401905D01*
X90276189Y-40201905D02*
X90276189Y-39401905D01*
X89819046Y-40201905D01*
X89819046Y-39401905D01*
X89438094Y-40201905D02*
X89438094Y-39401905D01*
X89247618Y-39401905D01*
X89133332Y-39440000D01*
X89057141Y-39516190D01*
X89019046Y-39592381D01*
X88980951Y-39744762D01*
X88980951Y-39859048D01*
X89019046Y-40011429D01*
X89057141Y-40087619D01*
X89133332Y-40163810D01*
X89247618Y-40201905D01*
X89438094Y-40201905D01*
X88638094Y-39782857D02*
X88371427Y-39782857D01*
X88257141Y-40201905D02*
X88638094Y-40201905D01*
X88638094Y-39401905D01*
X88257141Y-39401905D01*
X87457141Y-40201905D02*
X87723808Y-39820952D01*
X87914284Y-40201905D02*
X87914284Y-39401905D01*
X87609522Y-39401905D01*
X87533331Y-39440000D01*
X87495236Y-39478095D01*
X87457141Y-39554286D01*
X87457141Y-39668571D01*
X87495236Y-39744762D01*
X87533331Y-39782857D01*
X87609522Y-39820952D01*
X87914284Y-39820952D01*
X87228570Y-39401905D02*
X86961903Y-40201905D01*
X86695236Y-39401905D01*
X86276189Y-39401905D02*
X86123808Y-39401905D01*
X86047617Y-39440000D01*
X85971427Y-39516190D01*
X85933332Y-39668571D01*
X85933332Y-39935238D01*
X85971427Y-40087619D01*
X86047617Y-40163810D01*
X86123808Y-40201905D01*
X86276189Y-40201905D01*
X86352379Y-40163810D01*
X86428570Y-40087619D01*
X86466665Y-39935238D01*
X86466665Y-39668571D01*
X86428570Y-39516190D01*
X86352379Y-39440000D01*
X86276189Y-39401905D01*
X85209522Y-40201905D02*
X85590475Y-40201905D01*
X85590475Y-39401905D01*
X85057142Y-39401905D02*
X84599999Y-39401905D01*
X84828570Y-40201905D02*
X84828570Y-39401905D01*
X102428571Y-41521905D02*
X102809524Y-41521905D01*
X102809524Y-40721905D01*
X102009524Y-40721905D02*
X101857143Y-40721905D01*
X101780952Y-40760000D01*
X101704762Y-40836190D01*
X101666667Y-40988571D01*
X101666667Y-41255238D01*
X101704762Y-41407619D01*
X101780952Y-41483810D01*
X101857143Y-41521905D01*
X102009524Y-41521905D01*
X102085714Y-41483810D01*
X102161905Y-41407619D01*
X102200000Y-41255238D01*
X102200000Y-40988571D01*
X102161905Y-40836190D01*
X102085714Y-40760000D01*
X102009524Y-40721905D01*
X100866667Y-41445714D02*
X100904762Y-41483810D01*
X101019048Y-41521905D01*
X101095238Y-41521905D01*
X101209524Y-41483810D01*
X101285715Y-41407619D01*
X101323810Y-41331429D01*
X101361905Y-41179048D01*
X101361905Y-41064762D01*
X101323810Y-40912381D01*
X101285715Y-40836190D01*
X101209524Y-40760000D01*
X101095238Y-40721905D01*
X101019048Y-40721905D01*
X100904762Y-40760000D01*
X100866667Y-40798095D01*
X100523810Y-41521905D02*
X100523810Y-40721905D01*
X100066667Y-41521905D02*
X100409524Y-41064762D01*
X100066667Y-40721905D02*
X100523810Y-41179048D01*
X99571429Y-40721905D02*
X99419048Y-40721905D01*
X99342857Y-40760000D01*
X99266667Y-40836190D01*
X99228572Y-40988571D01*
X99228572Y-41255238D01*
X99266667Y-41407619D01*
X99342857Y-41483810D01*
X99419048Y-41521905D01*
X99571429Y-41521905D01*
X99647619Y-41483810D01*
X99723810Y-41407619D01*
X99761905Y-41255238D01*
X99761905Y-40988571D01*
X99723810Y-40836190D01*
X99647619Y-40760000D01*
X99571429Y-40721905D01*
X98885715Y-40721905D02*
X98885715Y-41369524D01*
X98847620Y-41445714D01*
X98809524Y-41483810D01*
X98733334Y-41521905D01*
X98580953Y-41521905D01*
X98504762Y-41483810D01*
X98466667Y-41445714D01*
X98428572Y-41369524D01*
X98428572Y-40721905D01*
X98161906Y-40721905D02*
X97704763Y-40721905D01*
X97933334Y-41521905D02*
X97933334Y-40721905D01*
X97400001Y-41483810D02*
X97400001Y-41521905D01*
X97438096Y-41598095D01*
X97476191Y-41636190D01*
X96295239Y-40721905D02*
X96142858Y-40721905D01*
X96066667Y-40760000D01*
X95990477Y-40836190D01*
X95952382Y-40988571D01*
X95952382Y-41255238D01*
X95990477Y-41407619D01*
X96066667Y-41483810D01*
X96142858Y-41521905D01*
X96295239Y-41521905D01*
X96371429Y-41483810D01*
X96447620Y-41407619D01*
X96485715Y-41255238D01*
X96485715Y-40988571D01*
X96447620Y-40836190D01*
X96371429Y-40760000D01*
X96295239Y-40721905D01*
X95723811Y-40721905D02*
X95457144Y-41521905D01*
X95190477Y-40721905D01*
X94923811Y-41102857D02*
X94657144Y-41102857D01*
X94542858Y-41521905D02*
X94923811Y-41521905D01*
X94923811Y-40721905D01*
X94542858Y-40721905D01*
X93742858Y-41521905D02*
X94009525Y-41140952D01*
X94200001Y-41521905D02*
X94200001Y-40721905D01*
X93895239Y-40721905D01*
X93819048Y-40760000D01*
X93780953Y-40798095D01*
X93742858Y-40874286D01*
X93742858Y-40988571D01*
X93780953Y-41064762D01*
X93819048Y-41102857D01*
X93895239Y-41140952D01*
X94200001Y-41140952D01*
X93514287Y-40721905D02*
X93247620Y-41521905D01*
X92980953Y-40721905D01*
X92561906Y-40721905D02*
X92409525Y-40721905D01*
X92333334Y-40760000D01*
X92257144Y-40836190D01*
X92219049Y-40988571D01*
X92219049Y-41255238D01*
X92257144Y-41407619D01*
X92333334Y-41483810D01*
X92409525Y-41521905D01*
X92561906Y-41521905D01*
X92638096Y-41483810D01*
X92714287Y-41407619D01*
X92752382Y-41255238D01*
X92752382Y-40988571D01*
X92714287Y-40836190D01*
X92638096Y-40760000D01*
X92561906Y-40721905D01*
X91495239Y-41521905D02*
X91876192Y-41521905D01*
X91876192Y-40721905D01*
X91342859Y-40721905D02*
X90885716Y-40721905D01*
X91114287Y-41521905D02*
X91114287Y-40721905D01*
X89628572Y-41521905D02*
X90009525Y-41521905D01*
X90009525Y-40721905D01*
X89209525Y-40721905D02*
X89057144Y-40721905D01*
X88980953Y-40760000D01*
X88904763Y-40836190D01*
X88866668Y-40988571D01*
X88866668Y-41255238D01*
X88904763Y-41407619D01*
X88980953Y-41483810D01*
X89057144Y-41521905D01*
X89209525Y-41521905D01*
X89285715Y-41483810D01*
X89361906Y-41407619D01*
X89400001Y-41255238D01*
X89400001Y-40988571D01*
X89361906Y-40836190D01*
X89285715Y-40760000D01*
X89209525Y-40721905D01*
X88066668Y-41445714D02*
X88104763Y-41483810D01*
X88219049Y-41521905D01*
X88295239Y-41521905D01*
X88409525Y-41483810D01*
X88485716Y-41407619D01*
X88523811Y-41331429D01*
X88561906Y-41179048D01*
X88561906Y-41064762D01*
X88523811Y-40912381D01*
X88485716Y-40836190D01*
X88409525Y-40760000D01*
X88295239Y-40721905D01*
X88219049Y-40721905D01*
X88104763Y-40760000D01*
X88066668Y-40798095D01*
X87723811Y-41521905D02*
X87723811Y-40721905D01*
X87266668Y-41521905D02*
X87609525Y-41064762D01*
X87266668Y-40721905D02*
X87723811Y-41179048D01*
X86771430Y-40721905D02*
X86619049Y-40721905D01*
X86542858Y-40760000D01*
X86466668Y-40836190D01*
X86428573Y-40988571D01*
X86428573Y-41255238D01*
X86466668Y-41407619D01*
X86542858Y-41483810D01*
X86619049Y-41521905D01*
X86771430Y-41521905D01*
X86847620Y-41483810D01*
X86923811Y-41407619D01*
X86961906Y-41255238D01*
X86961906Y-40988571D01*
X86923811Y-40836190D01*
X86847620Y-40760000D01*
X86771430Y-40721905D01*
X86085716Y-40721905D02*
X86085716Y-41369524D01*
X86047621Y-41445714D01*
X86009525Y-41483810D01*
X85933335Y-41521905D01*
X85780954Y-41521905D01*
X85704763Y-41483810D01*
X85666668Y-41445714D01*
X85628573Y-41369524D01*
X85628573Y-40721905D01*
X85361907Y-40721905D02*
X84904764Y-40721905D01*
X85133335Y-41521905D02*
X85133335Y-40721905D01*
X84600002Y-41483810D02*
X84600002Y-41521905D01*
X84638097Y-41598095D01*
X84676192Y-41636190D01*
X102809524Y-42841905D02*
X102809524Y-42041905D01*
X102428572Y-42841905D02*
X102428572Y-42041905D01*
X101971429Y-42841905D01*
X101971429Y-42041905D01*
X101133334Y-42841905D02*
X101400001Y-42460952D01*
X101590477Y-42841905D02*
X101590477Y-42041905D01*
X101285715Y-42041905D01*
X101209524Y-42080000D01*
X101171429Y-42118095D01*
X101133334Y-42194286D01*
X101133334Y-42308571D01*
X101171429Y-42384762D01*
X101209524Y-42422857D01*
X101285715Y-42460952D01*
X101590477Y-42460952D01*
X100790477Y-42041905D02*
X100790477Y-42689524D01*
X100752382Y-42765714D01*
X100714286Y-42803810D01*
X100638096Y-42841905D01*
X100485715Y-42841905D01*
X100409524Y-42803810D01*
X100371429Y-42765714D01*
X100333334Y-42689524D01*
X100333334Y-42041905D01*
X99990477Y-42803810D02*
X99876191Y-42841905D01*
X99685715Y-42841905D01*
X99609525Y-42803810D01*
X99571429Y-42765714D01*
X99533334Y-42689524D01*
X99533334Y-42613333D01*
X99571429Y-42537143D01*
X99609525Y-42499048D01*
X99685715Y-42460952D01*
X99838096Y-42422857D01*
X99914287Y-42384762D01*
X99952382Y-42346667D01*
X99990477Y-42270476D01*
X99990477Y-42194286D01*
X99952382Y-42118095D01*
X99914287Y-42080000D01*
X99838096Y-42041905D01*
X99647620Y-42041905D01*
X99533334Y-42080000D01*
X99190477Y-42841905D02*
X99190477Y-42041905D01*
X99190477Y-42422857D02*
X98733334Y-42422857D01*
X98733334Y-42841905D02*
X98733334Y-42041905D01*
X97361905Y-42841905D02*
X97742858Y-42841905D01*
X97742858Y-42041905D01*
X97095239Y-42841905D02*
X97095239Y-42041905D01*
X96714287Y-42841905D02*
X96714287Y-42041905D01*
X96447620Y-42613333D01*
X96180953Y-42041905D01*
X96180953Y-42841905D01*
X95800001Y-42841905D02*
X95800001Y-42041905D01*
X95533335Y-42041905D02*
X95076192Y-42041905D01*
X95304763Y-42841905D02*
X95304763Y-42041905D01*
X94809525Y-42841905D02*
X94809525Y-42041905D01*
X94428573Y-42841905D02*
X94428573Y-42041905D01*
X93971430Y-42841905D01*
X93971430Y-42041905D01*
X93171430Y-42080000D02*
X93247621Y-42041905D01*
X93361906Y-42041905D01*
X93476192Y-42080000D01*
X93552383Y-42156190D01*
X93590478Y-42232381D01*
X93628573Y-42384762D01*
X93628573Y-42499048D01*
X93590478Y-42651429D01*
X93552383Y-42727619D01*
X93476192Y-42803810D01*
X93361906Y-42841905D01*
X93285716Y-42841905D01*
X93171430Y-42803810D01*
X93133335Y-42765714D01*
X93133335Y-42499048D01*
X93285716Y-42499048D01*
D12*
X147892857Y-32861905D02*
X147792857Y-32061905D01*
X147488095Y-32061905D01*
X147416666Y-32100000D01*
X147383333Y-32138095D01*
X147354762Y-32214286D01*
X147369047Y-32328571D01*
X147416666Y-32404762D01*
X147459523Y-32442857D01*
X147540476Y-32480952D01*
X147845238Y-32480952D01*
X146840476Y-32061905D02*
X146688095Y-32061905D01*
X146616666Y-32100000D01*
X146550000Y-32176190D01*
X146530952Y-32328571D01*
X146564286Y-32595238D01*
X146621428Y-32747619D01*
X146707142Y-32823810D01*
X146788095Y-32861905D01*
X146940476Y-32861905D01*
X147011904Y-32823810D01*
X147078571Y-32747619D01*
X147097619Y-32595238D01*
X147064285Y-32328571D01*
X147007143Y-32176190D01*
X146921428Y-32100000D01*
X146840476Y-32061905D01*
X146230952Y-32061905D02*
X146140476Y-32861905D01*
X145916666Y-32290476D01*
X145835714Y-32861905D01*
X145545238Y-32061905D01*
X145288095Y-32442857D02*
X145021428Y-32442857D01*
X144959523Y-32861905D02*
X145340476Y-32861905D01*
X145240476Y-32061905D01*
X144859523Y-32061905D01*
X144159523Y-32861905D02*
X144378571Y-32480952D01*
X144616666Y-32861905D02*
X144516666Y-32061905D01*
X144211904Y-32061905D01*
X144140475Y-32100000D01*
X144107142Y-32138095D01*
X144078571Y-32214286D01*
X144092856Y-32328571D01*
X144140475Y-32404762D01*
X144183332Y-32442857D01*
X144264285Y-32480952D01*
X144569047Y-32480952D01*
D11*
X134466666Y-33942857D02*
X134733333Y-33942857D01*
X134733333Y-34361905D02*
X134733333Y-33561905D01*
X134352380Y-33561905D01*
X134047619Y-34361905D02*
X134047619Y-33561905D01*
X133285714Y-34361905D02*
X133666667Y-34361905D01*
X133666667Y-33561905D01*
X133133334Y-33561905D02*
X132676191Y-33561905D01*
X132904762Y-34361905D02*
X132904762Y-33561905D01*
X132409524Y-33942857D02*
X132142857Y-33942857D01*
X132028571Y-34361905D02*
X132409524Y-34361905D01*
X132409524Y-33561905D01*
X132028571Y-33561905D01*
X131228571Y-34361905D02*
X131495238Y-33980952D01*
X131685714Y-34361905D02*
X131685714Y-33561905D01*
X131380952Y-33561905D01*
X131304761Y-33600000D01*
X131266666Y-33638095D01*
X131228571Y-33714286D01*
X131228571Y-33828571D01*
X131266666Y-33904762D01*
X131304761Y-33942857D01*
X131380952Y-33980952D01*
X131685714Y-33980952D01*
D12*
X120892857Y-31361905D02*
X120792857Y-30561905D01*
X120488095Y-30561905D01*
X120416666Y-30600000D01*
X120383333Y-30638095D01*
X120354762Y-30714286D01*
X120369047Y-30828571D01*
X120416666Y-30904762D01*
X120459523Y-30942857D01*
X120540476Y-30980952D01*
X120845238Y-30980952D01*
X119840476Y-30561905D02*
X119688095Y-30561905D01*
X119616666Y-30600000D01*
X119550000Y-30676190D01*
X119530952Y-30828571D01*
X119564286Y-31095238D01*
X119621428Y-31247619D01*
X119707142Y-31323810D01*
X119788095Y-31361905D01*
X119940476Y-31361905D01*
X120011904Y-31323810D01*
X120078571Y-31247619D01*
X120097619Y-31095238D01*
X120064285Y-30828571D01*
X120007143Y-30676190D01*
X119921428Y-30600000D01*
X119840476Y-30561905D01*
X119230952Y-30561905D02*
X119140476Y-31361905D01*
X118916666Y-30790476D01*
X118835714Y-31361905D01*
X118545238Y-30561905D01*
X118288095Y-30942857D02*
X118021428Y-30942857D01*
X117959523Y-31361905D02*
X118340476Y-31361905D01*
X118240476Y-30561905D01*
X117859523Y-30561905D01*
X117159523Y-31361905D02*
X117378571Y-30980952D01*
X117616666Y-31361905D02*
X117516666Y-30561905D01*
X117211904Y-30561905D01*
X117140475Y-30600000D01*
X117107142Y-30638095D01*
X117078571Y-30714286D01*
X117092856Y-30828571D01*
X117140475Y-30904762D01*
X117183332Y-30942857D01*
X117264285Y-30980952D01*
X117569047Y-30980952D01*
X98392857Y-31361905D02*
X98292857Y-30561905D01*
X97988095Y-30561905D01*
X97916666Y-30600000D01*
X97883333Y-30638095D01*
X97854762Y-30714286D01*
X97869047Y-30828571D01*
X97916666Y-30904762D01*
X97959523Y-30942857D01*
X98040476Y-30980952D01*
X98345238Y-30980952D01*
X97340476Y-30561905D02*
X97188095Y-30561905D01*
X97116666Y-30600000D01*
X97050000Y-30676190D01*
X97030952Y-30828571D01*
X97064286Y-31095238D01*
X97121428Y-31247619D01*
X97207142Y-31323810D01*
X97288095Y-31361905D01*
X97440476Y-31361905D01*
X97511904Y-31323810D01*
X97578571Y-31247619D01*
X97597619Y-31095238D01*
X97564285Y-30828571D01*
X97507143Y-30676190D01*
X97421428Y-30600000D01*
X97340476Y-30561905D01*
X96730952Y-30561905D02*
X96640476Y-31361905D01*
X96416666Y-30790476D01*
X96335714Y-31361905D01*
X96045238Y-30561905D01*
X95788095Y-30942857D02*
X95521428Y-30942857D01*
X95459523Y-31361905D02*
X95840476Y-31361905D01*
X95740476Y-30561905D01*
X95359523Y-30561905D01*
X94659523Y-31361905D02*
X94878571Y-30980952D01*
X95116666Y-31361905D02*
X95016666Y-30561905D01*
X94711904Y-30561905D01*
X94640475Y-30600000D01*
X94607142Y-30638095D01*
X94578571Y-30714286D01*
X94592856Y-30828571D01*
X94640475Y-30904762D01*
X94683332Y-30942857D01*
X94764285Y-30980952D01*
X95069047Y-30980952D01*
D14*
X143000000Y-33500000D02*
X142000000Y-34500000D01*
X143000000Y-33500000D02*
X142000000Y-32500000D01*
X159000000Y-51500000D02*
X160000000Y-50500000D01*
X159000000Y-51500000D02*
X158000000Y-50500000D01*
X159000000Y-42500000D02*
X159000000Y-51500000D01*
X150000000Y-33500000D02*
X159000000Y-42500000D01*
X142000000Y-33500000D02*
X150000000Y-33500000D01*
X135500000Y-40000000D02*
X142000000Y-33500000D01*
X133000000Y-40000000D02*
X135500000Y-40000000D01*
X133000000Y-38000000D02*
X133000000Y-40000000D01*
X107000000Y-30000000D02*
X106000000Y-31000000D01*
X107000000Y-30000000D02*
X106000000Y-29000000D01*
X133000000Y-32000000D02*
X134000000Y-31000000D01*
X132000000Y-31000000D02*
X133000000Y-32000000D01*
X133000000Y-30000000D02*
X133000000Y-32000000D01*
X96000000Y-30000000D02*
X133000000Y-30000000D01*
D11*
X97500000Y-96500000D02*
X97500000Y-94500000D01*
X153500000Y-103500000D02*
X152500000Y-103500000D01*
X152000000Y-107500000D02*
X153500000Y-107500000D01*
X151500000Y-115500000D02*
X152000000Y-115500000D01*
X120000000Y-114000000D02*
X123000000Y-114000000D01*
X153000000Y-50000000D02*
X154000000Y-49000000D01*
X128500000Y-41000000D02*
X126000000Y-38500000D01*
X127000000Y-54000000D02*
X128500000Y-52500000D01*
D13*
X118857143Y-63678571D02*
X119714286Y-63678571D01*
X119285714Y-63678571D02*
X119285714Y-62178571D01*
X119428571Y-62392857D01*
X119571429Y-62535714D01*
X119714286Y-62607143D01*
X117071429Y-63678571D02*
X117071429Y-62178571D01*
X116928572Y-63107143D02*
X116500001Y-63678571D01*
X116500001Y-62678571D02*
X117071429Y-63250000D01*
X115857143Y-63678571D02*
X115857143Y-62178571D01*
X115857143Y-62892857D02*
X115000000Y-62892857D01*
X115000000Y-63678571D02*
X115000000Y-62178571D01*
X114428571Y-62678571D02*
X113642857Y-62678571D01*
X114428571Y-63678571D01*
X113642857Y-63678571D01*
X111571428Y-63178571D02*
X112142857Y-63178571D01*
X109142857Y-63678571D02*
X110000000Y-63678571D01*
X109571428Y-63678571D02*
X109571428Y-62178571D01*
X109714285Y-62392857D01*
X109857143Y-62535714D01*
X110000000Y-62607143D01*
X107785714Y-62178571D02*
X108500000Y-62178571D01*
X108571429Y-62892857D01*
X108500000Y-62821429D01*
X108357143Y-62750000D01*
X108000000Y-62750000D01*
X107857143Y-62821429D01*
X107785714Y-62892857D01*
X107714286Y-63035714D01*
X107714286Y-63392857D01*
X107785714Y-63535714D01*
X107857143Y-63607143D01*
X108000000Y-63678571D01*
X108357143Y-63678571D01*
X108500000Y-63607143D01*
X108571429Y-63535714D01*
X106785715Y-62178571D02*
X106642858Y-62178571D01*
X106500001Y-62250000D01*
X106428572Y-62321429D01*
X106357143Y-62464286D01*
X106285715Y-62750000D01*
X106285715Y-63107143D01*
X106357143Y-63392857D01*
X106428572Y-63535714D01*
X106500001Y-63607143D01*
X106642858Y-63678571D01*
X106785715Y-63678571D01*
X106928572Y-63607143D01*
X107000001Y-63535714D01*
X107071429Y-63392857D01*
X107142858Y-63107143D01*
X107142858Y-62750000D01*
X107071429Y-62464286D01*
X107000001Y-62321429D01*
X106928572Y-62250000D01*
X106785715Y-62178571D01*
X104500001Y-63678571D02*
X104500001Y-62178571D01*
X104000001Y-63250000D01*
X103500001Y-62178571D01*
X103500001Y-63678571D01*
X102785715Y-63678571D02*
X102785715Y-62178571D01*
X102785715Y-62892857D02*
X101928572Y-62892857D01*
X101928572Y-63678571D02*
X101928572Y-62178571D01*
X101357143Y-62678571D02*
X100571429Y-62678571D01*
X101357143Y-63678571D01*
X100571429Y-63678571D01*
X117357143Y-126392857D02*
X117571429Y-126464286D01*
X117642857Y-126535714D01*
X117714286Y-126678571D01*
X117714286Y-126892857D01*
X117642857Y-127035714D01*
X117571429Y-127107143D01*
X117428571Y-127178571D01*
X116857143Y-127178571D01*
X116857143Y-125678571D01*
X117357143Y-125678571D01*
X117500000Y-125750000D01*
X117571429Y-125821429D01*
X117642857Y-125964286D01*
X117642857Y-126107143D01*
X117571429Y-126250000D01*
X117500000Y-126321429D01*
X117357143Y-126392857D01*
X116857143Y-126392857D01*
X118642857Y-125678571D02*
X118928571Y-125678571D01*
X119071429Y-125750000D01*
X119214286Y-125892857D01*
X119285714Y-126178571D01*
X119285714Y-126678571D01*
X119214286Y-126964286D01*
X119071429Y-127107143D01*
X118928571Y-127178571D01*
X118642857Y-127178571D01*
X118500000Y-127107143D01*
X118357143Y-126964286D01*
X118285714Y-126678571D01*
X118285714Y-126178571D01*
X118357143Y-125892857D01*
X118500000Y-125750000D01*
X118642857Y-125678571D01*
X119714286Y-125678571D02*
X120571429Y-125678571D01*
X120142858Y-127178571D02*
X120142858Y-125678571D01*
X121000000Y-127107143D02*
X121214286Y-127178571D01*
X121571429Y-127178571D01*
X121714286Y-127107143D01*
X121785715Y-127035714D01*
X121857143Y-126892857D01*
X121857143Y-126750000D01*
X121785715Y-126607143D01*
X121714286Y-126535714D01*
X121571429Y-126464286D01*
X121285715Y-126392857D01*
X121142857Y-126321429D01*
X121071429Y-126250000D01*
X121000000Y-126107143D01*
X121000000Y-125964286D01*
X121071429Y-125821429D01*
X121142857Y-125750000D01*
X121285715Y-125678571D01*
X121642857Y-125678571D01*
X121857143Y-125750000D01*
X122500000Y-127178571D02*
X122500000Y-125678571D01*
X123928572Y-127178571D02*
X123214286Y-127178571D01*
X123214286Y-125678571D01*
X124428572Y-127178571D02*
X124428572Y-125678571D01*
X125285715Y-127178571D02*
X124642858Y-126321429D01*
X125285715Y-125678571D02*
X124428572Y-126535714D01*
X107428571Y-115142858D02*
X107428571Y-116071429D01*
X108000000Y-115571429D01*
X108000000Y-115785715D01*
X108071429Y-115928572D01*
X108142857Y-116000001D01*
X108285714Y-116071429D01*
X108642857Y-116071429D01*
X108785714Y-116000001D01*
X108857143Y-115928572D01*
X108928571Y-115785715D01*
X108928571Y-115357143D01*
X108857143Y-115214286D01*
X108785714Y-115142858D01*
X107428571Y-116500000D02*
X108928571Y-117000000D01*
X107428571Y-117500000D01*
X107428571Y-117857143D02*
X107428571Y-118785714D01*
X108000000Y-118285714D01*
X108000000Y-118500000D01*
X108071429Y-118642857D01*
X108142857Y-118714286D01*
X108285714Y-118785714D01*
X108642857Y-118785714D01*
X108785714Y-118714286D01*
X108857143Y-118642857D01*
X108928571Y-118500000D01*
X108928571Y-118071428D01*
X108857143Y-117928571D01*
X108785714Y-117857143D01*
X111107143Y-115214286D02*
X111178571Y-115428572D01*
X111178571Y-115785715D01*
X111107143Y-115928572D01*
X111035714Y-116000001D01*
X110892857Y-116071429D01*
X110750000Y-116071429D01*
X110607143Y-116000001D01*
X110535714Y-115928572D01*
X110464286Y-115785715D01*
X110392857Y-115500001D01*
X110321429Y-115357143D01*
X110250000Y-115285715D01*
X110107143Y-115214286D01*
X109964286Y-115214286D01*
X109821429Y-115285715D01*
X109750000Y-115357143D01*
X109678571Y-115500001D01*
X109678571Y-115857143D01*
X109750000Y-116071429D01*
X111035714Y-117571429D02*
X111107143Y-117500000D01*
X111178571Y-117285714D01*
X111178571Y-117142857D01*
X111107143Y-116928572D01*
X110964286Y-116785714D01*
X110821429Y-116714286D01*
X110535714Y-116642857D01*
X110321429Y-116642857D01*
X110035714Y-116714286D01*
X109892857Y-116785714D01*
X109750000Y-116928572D01*
X109678571Y-117142857D01*
X109678571Y-117285714D01*
X109750000Y-117500000D01*
X109821429Y-117571429D01*
X111178571Y-118928572D02*
X111178571Y-118214286D01*
X109678571Y-118214286D01*
X113357143Y-115071429D02*
X113357143Y-116214286D01*
X113928571Y-115642857D02*
X112785714Y-115642857D01*
X113928571Y-117000000D02*
X113928571Y-117285715D01*
X113857143Y-117428572D01*
X113785714Y-117500000D01*
X113571429Y-117642858D01*
X113285714Y-117714286D01*
X112714286Y-117714286D01*
X112571429Y-117642858D01*
X112500000Y-117571429D01*
X112428571Y-117428572D01*
X112428571Y-117142858D01*
X112500000Y-117000000D01*
X112571429Y-116928572D01*
X112714286Y-116857143D01*
X113071429Y-116857143D01*
X113214286Y-116928572D01*
X113285714Y-117000000D01*
X113357143Y-117142858D01*
X113357143Y-117428572D01*
X113285714Y-117571429D01*
X113214286Y-117642858D01*
X113071429Y-117714286D01*
X112428571Y-118142857D02*
X113928571Y-118642857D01*
X112428571Y-119142857D01*
X115857143Y-115071429D02*
X115857143Y-116214286D01*
X116428571Y-117000000D02*
X116428571Y-117285715D01*
X116357143Y-117428572D01*
X116285714Y-117500000D01*
X116071429Y-117642858D01*
X115785714Y-117714286D01*
X115214286Y-117714286D01*
X115071429Y-117642858D01*
X115000000Y-117571429D01*
X114928571Y-117428572D01*
X114928571Y-117142858D01*
X115000000Y-117000000D01*
X115071429Y-116928572D01*
X115214286Y-116857143D01*
X115571429Y-116857143D01*
X115714286Y-116928572D01*
X115785714Y-117000000D01*
X115857143Y-117142858D01*
X115857143Y-117428572D01*
X115785714Y-117571429D01*
X115714286Y-117642858D01*
X115571429Y-117714286D01*
X114928571Y-118142857D02*
X116428571Y-118642857D01*
X114928571Y-119142857D01*
X118857143Y-115178572D02*
X118928571Y-115392858D01*
X118928571Y-115750001D01*
X118857143Y-115892858D01*
X118785714Y-115964287D01*
X118642857Y-116035715D01*
X118500000Y-116035715D01*
X118357143Y-115964287D01*
X118285714Y-115892858D01*
X118214286Y-115750001D01*
X118142857Y-115464287D01*
X118071429Y-115321429D01*
X118000000Y-115250001D01*
X117857143Y-115178572D01*
X117714286Y-115178572D01*
X117571429Y-115250001D01*
X117500000Y-115321429D01*
X117428571Y-115464287D01*
X117428571Y-115821429D01*
X117500000Y-116035715D01*
X118928571Y-116678572D02*
X117428571Y-116678572D01*
X117428571Y-117035715D01*
X117500000Y-117250000D01*
X117642857Y-117392858D01*
X117785714Y-117464286D01*
X118071429Y-117535715D01*
X118285714Y-117535715D01*
X118571429Y-117464286D01*
X118714286Y-117392858D01*
X118857143Y-117250000D01*
X118928571Y-117035715D01*
X118928571Y-116678572D01*
X118500000Y-118107143D02*
X118500000Y-118821429D01*
X118928571Y-117964286D02*
X117428571Y-118464286D01*
X118928571Y-118964286D01*
X120250000Y-115857143D02*
X120178571Y-115714286D01*
X120178571Y-115500000D01*
X120250000Y-115285715D01*
X120392857Y-115142857D01*
X120535714Y-115071429D01*
X120821429Y-115000000D01*
X121035714Y-115000000D01*
X121321429Y-115071429D01*
X121464286Y-115142857D01*
X121607143Y-115285715D01*
X121678571Y-115500000D01*
X121678571Y-115642857D01*
X121607143Y-115857143D01*
X121535714Y-115928572D01*
X121035714Y-115928572D01*
X121035714Y-115642857D01*
X121678571Y-116571429D02*
X120178571Y-116571429D01*
X121678571Y-117428572D01*
X120178571Y-117428572D01*
X121678571Y-118142858D02*
X120178571Y-118142858D01*
X120178571Y-118500001D01*
X120250000Y-118714286D01*
X120392857Y-118857144D01*
X120535714Y-118928572D01*
X120821429Y-119000001D01*
X121035714Y-119000001D01*
X121321429Y-118928572D01*
X121464286Y-118857144D01*
X121607143Y-118714286D01*
X121678571Y-118500001D01*
X121678571Y-118142858D01*
D15*
X120840000Y-60620000D02*
X120840000Y-61080000D01*
X120750000Y-60620000D02*
X120700000Y-60620000D01*
X120800000Y-60650000D02*
X120750000Y-60620000D01*
X120820000Y-60670000D02*
X120800000Y-60650000D01*
X120840000Y-60740000D02*
X120820000Y-60670000D01*
X120400000Y-61080000D02*
X120350000Y-61050000D01*
X120500000Y-61080000D02*
X120400000Y-61080000D01*
X120540000Y-61050000D02*
X120500000Y-61080000D01*
X120560000Y-60980000D02*
X120540000Y-61050000D01*
X120560000Y-60710000D02*
X120560000Y-60980000D01*
X120530000Y-60650000D02*
X120560000Y-60710000D01*
X120490000Y-60620000D02*
X120530000Y-60650000D01*
X120390000Y-60620000D02*
X120490000Y-60620000D01*
X120350000Y-60660000D02*
X120390000Y-60620000D01*
X120330000Y-60730000D02*
X120350000Y-60660000D01*
X120330000Y-60850000D02*
X120330000Y-60730000D01*
X120330000Y-60850000D02*
X120560000Y-60850000D01*
X121080000Y-60710000D02*
X121080000Y-61080000D01*
X121110000Y-60650000D02*
X121080000Y-60710000D01*
X121150000Y-60620000D02*
X121110000Y-60650000D01*
X121250000Y-60620000D02*
X121150000Y-60620000D01*
X121300000Y-60650000D02*
X121250000Y-60620000D01*
X121240000Y-60810000D02*
X121290000Y-60840000D01*
X121120000Y-60810000D02*
X121240000Y-60810000D01*
X121080000Y-60780000D02*
X121120000Y-60810000D01*
X121130000Y-61080000D02*
X121080000Y-61040000D01*
X121250000Y-61080000D02*
X121130000Y-61080000D01*
X121300000Y-61040000D02*
X121250000Y-61080000D01*
X121320000Y-60980000D02*
X121300000Y-61040000D01*
X121320000Y-60910000D02*
X121320000Y-60980000D01*
X121290000Y-60840000D02*
X121320000Y-60910000D01*
X121870000Y-60620000D02*
X121770000Y-61080000D01*
X121770000Y-61080000D02*
X121680000Y-60740000D01*
X121680000Y-60740000D02*
X121580000Y-61080000D01*
X121580000Y-61080000D02*
X121480000Y-60620000D01*
X122060000Y-61050000D02*
X122100000Y-61080000D01*
X122100000Y-61080000D02*
X122210000Y-61080000D01*
X122210000Y-61080000D02*
X122250000Y-61050000D01*
X122250000Y-61050000D02*
X122270000Y-61020000D01*
X122270000Y-61020000D02*
X122300000Y-60950000D01*
X122300000Y-60950000D02*
X122300000Y-60750000D01*
X122300000Y-60750000D02*
X122270000Y-60680000D01*
X122270000Y-60680000D02*
X122250000Y-60650000D01*
X122250000Y-60650000D02*
X122190000Y-60610000D01*
X122190000Y-60610000D02*
X122120000Y-60610000D01*
X122120000Y-60610000D02*
X122060000Y-60650000D01*
X122060000Y-60380000D02*
X122060000Y-61080000D01*
X122580000Y-60740000D02*
X122560000Y-60670000D01*
X122560000Y-60670000D02*
X122540000Y-60650000D01*
X122540000Y-60650000D02*
X122490000Y-60620000D01*
X122490000Y-60620000D02*
X122440000Y-60620000D01*
X122580000Y-60620000D02*
X122580000Y-61080000D01*
X123030000Y-60840000D02*
X123060000Y-60910000D01*
X123060000Y-60910000D02*
X123060000Y-60980000D01*
X123060000Y-60980000D02*
X123040000Y-61040000D01*
X123040000Y-61040000D02*
X122990000Y-61080000D01*
X122990000Y-61080000D02*
X122870000Y-61080000D01*
X122870000Y-61080000D02*
X122820000Y-61040000D01*
X122820000Y-60780000D02*
X122860000Y-60810000D01*
X122860000Y-60810000D02*
X122980000Y-60810000D01*
X122980000Y-60810000D02*
X123030000Y-60840000D01*
X123040000Y-60650000D02*
X122990000Y-60620000D01*
X122990000Y-60620000D02*
X122890000Y-60620000D01*
X122890000Y-60620000D02*
X122850000Y-60650000D01*
X122850000Y-60650000D02*
X122820000Y-60710000D01*
X122820000Y-60710000D02*
X122820000Y-61080000D01*
X123490000Y-60690000D02*
X123470000Y-60650000D01*
X123470000Y-60650000D02*
X123420000Y-60620000D01*
X123420000Y-60620000D02*
X123340000Y-60620000D01*
X123340000Y-60620000D02*
X123300000Y-60650000D01*
X123300000Y-60650000D02*
X123280000Y-60710000D01*
X123280000Y-60710000D02*
X123280000Y-61080000D01*
X123490000Y-60380000D02*
X123490000Y-61080000D01*
X124540000Y-60850000D02*
X124770000Y-60850000D01*
X124320000Y-60680000D02*
X124300000Y-60650000D01*
X124300000Y-60650000D02*
X124260000Y-60620000D01*
X124260000Y-60620000D02*
X124170000Y-60620000D01*
X124170000Y-60620000D02*
X124130000Y-60650000D01*
X124130000Y-60650000D02*
X124110000Y-60710000D01*
X124110000Y-60710000D02*
X124110000Y-61080000D01*
X124320000Y-60620000D02*
X124320000Y-61080000D01*
X124540000Y-60850000D02*
X124540000Y-60730000D01*
X124540000Y-60730000D02*
X124560000Y-60660000D01*
X124560000Y-60660000D02*
X124600000Y-60620000D01*
X124600000Y-60620000D02*
X124700000Y-60620000D01*
X124700000Y-60620000D02*
X124740000Y-60650000D01*
X124740000Y-60650000D02*
X124770000Y-60710000D01*
X124770000Y-60710000D02*
X124770000Y-60980000D01*
X124770000Y-60980000D02*
X124750000Y-61050000D01*
X124750000Y-61050000D02*
X124710000Y-61080000D01*
X124710000Y-61080000D02*
X124610000Y-61080000D01*
X124610000Y-61080000D02*
X124560000Y-61050000D01*
X125200000Y-60650000D02*
X125160000Y-60620000D01*
X125160000Y-60620000D02*
X125060000Y-60620000D01*
X125060000Y-60620000D02*
X125020000Y-60650000D01*
X125020000Y-60650000D02*
X124990000Y-60680000D01*
X124990000Y-60680000D02*
X124970000Y-60740000D01*
X124970000Y-60740000D02*
X124970000Y-60960000D01*
X124970000Y-60960000D02*
X124990000Y-61020000D01*
X124990000Y-61020000D02*
X125010000Y-61050000D01*
X125010000Y-61050000D02*
X125050000Y-61080000D01*
X125050000Y-61080000D02*
X125150000Y-61080000D01*
X125150000Y-61080000D02*
X125200000Y-61050000D01*
X125200000Y-61320000D02*
X125200000Y-60620000D01*
X125510000Y-60620000D02*
X125590000Y-60620000D01*
X125590000Y-60620000D02*
X125630000Y-60650000D01*
X125630000Y-60650000D02*
X125650000Y-60680000D01*
X125650000Y-60680000D02*
X125680000Y-60750000D01*
X125590000Y-61080000D02*
X125510000Y-61080000D01*
X125510000Y-61080000D02*
X125460000Y-61050000D01*
X125460000Y-61050000D02*
X125440000Y-61020000D01*
X125440000Y-61020000D02*
X125420000Y-60950000D01*
X125420000Y-60950000D02*
X125420000Y-60750000D01*
X125420000Y-60750000D02*
X125440000Y-60690000D01*
X125440000Y-60690000D02*
X125460000Y-60660000D01*
X125460000Y-60660000D02*
X125510000Y-60620000D01*
X125680000Y-60750000D02*
X125680000Y-60950000D01*
X125680000Y-60950000D02*
X125660000Y-61010000D01*
X125660000Y-61010000D02*
X125640000Y-61040000D01*
X125640000Y-61040000D02*
X125590000Y-61080000D01*
D16*
G36*
X124513840Y-60245360D02*
X124488440Y-60230120D01*
X124430020Y-60194560D01*
X124346200Y-60138680D01*
X124247140Y-60072640D01*
X124148080Y-60006600D01*
X124066800Y-59953260D01*
X124010920Y-59915160D01*
X123985520Y-59902460D01*
X123972820Y-59907540D01*
X123927100Y-59930400D01*
X123858520Y-59965960D01*
X123817880Y-59986280D01*
X123756920Y-60011680D01*
X123723900Y-60019300D01*
X123718820Y-60009140D01*
X123695960Y-59960880D01*
X123660400Y-59879600D01*
X123614680Y-59770380D01*
X123558800Y-59643380D01*
X123502920Y-59508760D01*
X123444500Y-59369060D01*
X123388620Y-59234440D01*
X123340360Y-59115060D01*
X123299720Y-59018540D01*
X123274320Y-58949960D01*
X123264160Y-58922020D01*
X123266700Y-58914400D01*
X123299720Y-58883920D01*
X123353060Y-58843280D01*
X123472440Y-58746760D01*
X123589280Y-58601980D01*
X123660400Y-58436880D01*
X123683260Y-58251460D01*
X123662940Y-58081280D01*
X123596900Y-57918720D01*
X123482600Y-57771400D01*
X123342900Y-57662180D01*
X123180340Y-57593600D01*
X123000000Y-57570740D01*
X122827280Y-57591060D01*
X122659640Y-57657100D01*
X122512320Y-57768860D01*
X122448820Y-57839980D01*
X122362460Y-57989840D01*
X122314200Y-58147320D01*
X122309120Y-58187960D01*
X122316740Y-58363220D01*
X122367540Y-58533400D01*
X122461520Y-58683260D01*
X122591060Y-58807720D01*
X122606300Y-58817880D01*
X122664720Y-58863600D01*
X122705360Y-58894080D01*
X122735840Y-58919480D01*
X122512320Y-59457960D01*
X122476760Y-59541780D01*
X122415800Y-59689100D01*
X122362460Y-59816100D01*
X122319280Y-59917700D01*
X122288800Y-59983740D01*
X122276100Y-60011680D01*
X122276100Y-60014220D01*
X122255780Y-60016760D01*
X122215140Y-60001520D01*
X122138940Y-59965960D01*
X122090680Y-59940560D01*
X122032260Y-59912620D01*
X122006860Y-59902460D01*
X121984000Y-59915160D01*
X121930660Y-59950720D01*
X121849380Y-60004060D01*
X121752860Y-60067560D01*
X121661420Y-60131060D01*
X121577600Y-60186940D01*
X121516640Y-60225040D01*
X121486160Y-60242820D01*
X121481080Y-60242820D01*
X121455680Y-60227580D01*
X121407420Y-60186940D01*
X121333760Y-60118360D01*
X121229620Y-60014220D01*
X121214380Y-59998980D01*
X121128020Y-59912620D01*
X121059440Y-59838960D01*
X121013720Y-59788160D01*
X120995940Y-59765300D01*
X120995940Y-59765300D01*
X121011180Y-59734820D01*
X121049280Y-59673860D01*
X121105160Y-59587500D01*
X121173740Y-59488440D01*
X121351540Y-59229360D01*
X121255020Y-58985520D01*
X121224540Y-58909320D01*
X121186440Y-58820420D01*
X121158500Y-58754380D01*
X121143260Y-58726440D01*
X121117860Y-58716280D01*
X121049280Y-58701040D01*
X120952760Y-58680720D01*
X120838460Y-58660400D01*
X120726700Y-58640080D01*
X120627640Y-58619760D01*
X120556520Y-58607060D01*
X120523500Y-58599440D01*
X120515880Y-58594360D01*
X120508260Y-58579120D01*
X120505720Y-58546100D01*
X120503180Y-58485140D01*
X120500640Y-58391160D01*
X120500640Y-58251460D01*
X120500640Y-58236220D01*
X120503180Y-58106680D01*
X120505720Y-58000000D01*
X120508260Y-57933960D01*
X120513340Y-57906020D01*
X120513340Y-57906020D01*
X120543820Y-57898400D01*
X120614940Y-57883160D01*
X120714000Y-57865380D01*
X120833380Y-57842520D01*
X120841000Y-57839980D01*
X120957840Y-57817120D01*
X121056900Y-57796800D01*
X121128020Y-57781560D01*
X121155960Y-57771400D01*
X121163580Y-57763780D01*
X121186440Y-57718060D01*
X121219460Y-57644400D01*
X121260100Y-57555500D01*
X121298200Y-57461520D01*
X121331220Y-57377700D01*
X121354080Y-57316740D01*
X121361700Y-57288800D01*
X121359160Y-57286260D01*
X121341380Y-57258320D01*
X121300740Y-57197360D01*
X121244860Y-57113540D01*
X121176280Y-57011940D01*
X121171200Y-57004320D01*
X121102620Y-56905260D01*
X121046740Y-56818900D01*
X121011180Y-56760480D01*
X120995940Y-56732540D01*
X120995940Y-56730000D01*
X121018800Y-56699520D01*
X121069600Y-56643640D01*
X121143260Y-56567440D01*
X121229620Y-56478540D01*
X121257560Y-56453140D01*
X121356620Y-56356620D01*
X121422660Y-56295660D01*
X121465840Y-56262640D01*
X121486160Y-56255020D01*
X121486160Y-56255020D01*
X121516640Y-56272800D01*
X121580140Y-56313440D01*
X121663960Y-56371860D01*
X121765560Y-56440440D01*
X121773180Y-56445520D01*
X121872240Y-56514100D01*
X121956060Y-56569980D01*
X122014480Y-56610620D01*
X122042420Y-56625860D01*
X122044960Y-56625860D01*
X122085600Y-56613160D01*
X122156720Y-56587760D01*
X122245620Y-56554740D01*
X122337060Y-56516640D01*
X122420880Y-56481080D01*
X122484380Y-56453140D01*
X122514860Y-56435360D01*
X122514860Y-56435360D01*
X122525020Y-56399800D01*
X122542800Y-56323600D01*
X122563120Y-56222000D01*
X122588520Y-56100080D01*
X122591060Y-56079760D01*
X122613920Y-55960380D01*
X122631700Y-55861320D01*
X122646940Y-55792740D01*
X122654560Y-55764800D01*
X122669800Y-55762260D01*
X122728220Y-55757180D01*
X122817120Y-55754640D01*
X122926340Y-55754640D01*
X123038100Y-55754640D01*
X123147320Y-55757180D01*
X123241300Y-55759720D01*
X123309880Y-55764800D01*
X123337820Y-55769880D01*
X123337820Y-55772420D01*
X123347980Y-55810520D01*
X123365760Y-55884180D01*
X123386080Y-55988320D01*
X123408940Y-56110240D01*
X123414020Y-56133100D01*
X123436880Y-56249940D01*
X123457200Y-56349000D01*
X123469900Y-56415040D01*
X123477520Y-56442980D01*
X123490220Y-56448060D01*
X123538480Y-56468380D01*
X123617220Y-56501400D01*
X123716280Y-56542040D01*
X123944880Y-56633480D01*
X124226820Y-56442980D01*
X124252220Y-56425200D01*
X124353820Y-56356620D01*
X124435100Y-56300740D01*
X124493520Y-56262640D01*
X124516380Y-56249940D01*
X124518920Y-56249940D01*
X124546860Y-56275340D01*
X124602740Y-56328680D01*
X124678940Y-56402340D01*
X124767840Y-56488700D01*
X124831340Y-56554740D01*
X124910080Y-56633480D01*
X124958340Y-56686820D01*
X124986280Y-56719840D01*
X124993900Y-56740160D01*
X124991360Y-56755400D01*
X124973580Y-56783340D01*
X124932940Y-56844300D01*
X124874520Y-56930660D01*
X124805940Y-57029720D01*
X124750060Y-57113540D01*
X124689100Y-57207520D01*
X124651000Y-57273560D01*
X124635760Y-57306580D01*
X124640840Y-57319280D01*
X124658620Y-57375160D01*
X124694180Y-57458980D01*
X124734820Y-57558040D01*
X124833880Y-57779020D01*
X124978660Y-57806960D01*
X125067560Y-57824740D01*
X125189480Y-57847600D01*
X125308860Y-57870460D01*
X125491740Y-57906020D01*
X125499360Y-58581660D01*
X125471420Y-58594360D01*
X125443480Y-58601980D01*
X125374900Y-58617220D01*
X125278380Y-58637540D01*
X125161540Y-58657860D01*
X125065020Y-58675640D01*
X124965960Y-58695960D01*
X124894840Y-58708660D01*
X124864360Y-58716280D01*
X124854200Y-58726440D01*
X124831340Y-58774700D01*
X124795780Y-58850900D01*
X124755140Y-58942340D01*
X124717040Y-59036320D01*
X124681480Y-59125220D01*
X124658620Y-59191260D01*
X124648460Y-59224280D01*
X124661160Y-59252220D01*
X124699260Y-59310640D01*
X124752600Y-59391920D01*
X124821180Y-59490980D01*
X124887220Y-59587500D01*
X124945640Y-59671320D01*
X124983740Y-59732280D01*
X125001520Y-59760220D01*
X124991360Y-59778000D01*
X124953260Y-59826260D01*
X124879600Y-59902460D01*
X124767840Y-60011680D01*
X124750060Y-60029460D01*
X124663700Y-60113280D01*
X124590040Y-60181860D01*
X124536700Y-60227580D01*
X124513840Y-60245360D01*
X124513840Y-60245360D01*
G37*
X124513840Y-60245360D02*
X124488440Y-60230120D01*
X124430020Y-60194560D01*
X124346200Y-60138680D01*
X124247140Y-60072640D01*
X124148080Y-60006600D01*
X124066800Y-59953260D01*
X124010920Y-59915160D01*
X123985520Y-59902460D01*
X123972820Y-59907540D01*
X123927100Y-59930400D01*
X123858520Y-59965960D01*
X123817880Y-59986280D01*
X123756920Y-60011680D01*
X123723900Y-60019300D01*
X123718820Y-60009140D01*
X123695960Y-59960880D01*
X123660400Y-59879600D01*
X123614680Y-59770380D01*
X123558800Y-59643380D01*
X123502920Y-59508760D01*
X123444500Y-59369060D01*
X123388620Y-59234440D01*
X123340360Y-59115060D01*
X123299720Y-59018540D01*
X123274320Y-58949960D01*
X123264160Y-58922020D01*
X123266700Y-58914400D01*
X123299720Y-58883920D01*
X123353060Y-58843280D01*
X123472440Y-58746760D01*
X123589280Y-58601980D01*
X123660400Y-58436880D01*
X123683260Y-58251460D01*
X123662940Y-58081280D01*
X123596900Y-57918720D01*
X123482600Y-57771400D01*
X123342900Y-57662180D01*
X123180340Y-57593600D01*
X123000000Y-57570740D01*
X122827280Y-57591060D01*
X122659640Y-57657100D01*
X122512320Y-57768860D01*
X122448820Y-57839980D01*
X122362460Y-57989840D01*
X122314200Y-58147320D01*
X122309120Y-58187960D01*
X122316740Y-58363220D01*
X122367540Y-58533400D01*
X122461520Y-58683260D01*
X122591060Y-58807720D01*
X122606300Y-58817880D01*
X122664720Y-58863600D01*
X122705360Y-58894080D01*
X122735840Y-58919480D01*
X122512320Y-59457960D01*
X122476760Y-59541780D01*
X122415800Y-59689100D01*
X122362460Y-59816100D01*
X122319280Y-59917700D01*
X122288800Y-59983740D01*
X122276100Y-60011680D01*
X122276100Y-60014220D01*
X122255780Y-60016760D01*
X122215140Y-60001520D01*
X122138940Y-59965960D01*
X122090680Y-59940560D01*
X122032260Y-59912620D01*
X122006860Y-59902460D01*
X121984000Y-59915160D01*
X121930660Y-59950720D01*
X121849380Y-60004060D01*
X121752860Y-60067560D01*
X121661420Y-60131060D01*
X121577600Y-60186940D01*
X121516640Y-60225040D01*
X121486160Y-60242820D01*
X121481080Y-60242820D01*
X121455680Y-60227580D01*
X121407420Y-60186940D01*
X121333760Y-60118360D01*
X121229620Y-60014220D01*
X121214380Y-59998980D01*
X121128020Y-59912620D01*
X121059440Y-59838960D01*
X121013720Y-59788160D01*
X120995940Y-59765300D01*
X120995940Y-59765300D01*
X121011180Y-59734820D01*
X121049280Y-59673860D01*
X121105160Y-59587500D01*
X121173740Y-59488440D01*
X121351540Y-59229360D01*
X121255020Y-58985520D01*
X121224540Y-58909320D01*
X121186440Y-58820420D01*
X121158500Y-58754380D01*
X121143260Y-58726440D01*
X121117860Y-58716280D01*
X121049280Y-58701040D01*
X120952760Y-58680720D01*
X120838460Y-58660400D01*
X120726700Y-58640080D01*
X120627640Y-58619760D01*
X120556520Y-58607060D01*
X120523500Y-58599440D01*
X120515880Y-58594360D01*
X120508260Y-58579120D01*
X120505720Y-58546100D01*
X120503180Y-58485140D01*
X120500640Y-58391160D01*
X120500640Y-58251460D01*
X120500640Y-58236220D01*
X120503180Y-58106680D01*
X120505720Y-58000000D01*
X120508260Y-57933960D01*
X120513340Y-57906020D01*
X120513340Y-57906020D01*
X120543820Y-57898400D01*
X120614940Y-57883160D01*
X120714000Y-57865380D01*
X120833380Y-57842520D01*
X120841000Y-57839980D01*
X120957840Y-57817120D01*
X121056900Y-57796800D01*
X121128020Y-57781560D01*
X121155960Y-57771400D01*
X121163580Y-57763780D01*
X121186440Y-57718060D01*
X121219460Y-57644400D01*
X121260100Y-57555500D01*
X121298200Y-57461520D01*
X121331220Y-57377700D01*
X121354080Y-57316740D01*
X121361700Y-57288800D01*
X121359160Y-57286260D01*
X121341380Y-57258320D01*
X121300740Y-57197360D01*
X121244860Y-57113540D01*
X121176280Y-57011940D01*
X121171200Y-57004320D01*
X121102620Y-56905260D01*
X121046740Y-56818900D01*
X121011180Y-56760480D01*
X120995940Y-56732540D01*
X120995940Y-56730000D01*
X121018800Y-56699520D01*
X121069600Y-56643640D01*
X121143260Y-56567440D01*
X121229620Y-56478540D01*
X121257560Y-56453140D01*
X121356620Y-56356620D01*
X121422660Y-56295660D01*
X121465840Y-56262640D01*
X121486160Y-56255020D01*
X121486160Y-56255020D01*
X121516640Y-56272800D01*
X121580140Y-56313440D01*
X121663960Y-56371860D01*
X121765560Y-56440440D01*
X121773180Y-56445520D01*
X121872240Y-56514100D01*
X121956060Y-56569980D01*
X122014480Y-56610620D01*
X122042420Y-56625860D01*
X122044960Y-56625860D01*
X122085600Y-56613160D01*
X122156720Y-56587760D01*
X122245620Y-56554740D01*
X122337060Y-56516640D01*
X122420880Y-56481080D01*
X122484380Y-56453140D01*
X122514860Y-56435360D01*
X122514860Y-56435360D01*
X122525020Y-56399800D01*
X122542800Y-56323600D01*
X122563120Y-56222000D01*
X122588520Y-56100080D01*
X122591060Y-56079760D01*
X122613920Y-55960380D01*
X122631700Y-55861320D01*
X122646940Y-55792740D01*
X122654560Y-55764800D01*
X122669800Y-55762260D01*
X122728220Y-55757180D01*
X122817120Y-55754640D01*
X122926340Y-55754640D01*
X123038100Y-55754640D01*
X123147320Y-55757180D01*
X123241300Y-55759720D01*
X123309880Y-55764800D01*
X123337820Y-55769880D01*
X123337820Y-55772420D01*
X123347980Y-55810520D01*
X123365760Y-55884180D01*
X123386080Y-55988320D01*
X123408940Y-56110240D01*
X123414020Y-56133100D01*
X123436880Y-56249940D01*
X123457200Y-56349000D01*
X123469900Y-56415040D01*
X123477520Y-56442980D01*
X123490220Y-56448060D01*
X123538480Y-56468380D01*
X123617220Y-56501400D01*
X123716280Y-56542040D01*
X123944880Y-56633480D01*
X124226820Y-56442980D01*
X124252220Y-56425200D01*
X124353820Y-56356620D01*
X124435100Y-56300740D01*
X124493520Y-56262640D01*
X124516380Y-56249940D01*
X124518920Y-56249940D01*
X124546860Y-56275340D01*
X124602740Y-56328680D01*
X124678940Y-56402340D01*
X124767840Y-56488700D01*
X124831340Y-56554740D01*
X124910080Y-56633480D01*
X124958340Y-56686820D01*
X124986280Y-56719840D01*
X124993900Y-56740160D01*
X124991360Y-56755400D01*
X124973580Y-56783340D01*
X124932940Y-56844300D01*
X124874520Y-56930660D01*
X124805940Y-57029720D01*
X124750060Y-57113540D01*
X124689100Y-57207520D01*
X124651000Y-57273560D01*
X124635760Y-57306580D01*
X124640840Y-57319280D01*
X124658620Y-57375160D01*
X124694180Y-57458980D01*
X124734820Y-57558040D01*
X124833880Y-57779020D01*
X124978660Y-57806960D01*
X125067560Y-57824740D01*
X125189480Y-57847600D01*
X125308860Y-57870460D01*
X125491740Y-57906020D01*
X125499360Y-58581660D01*
X125471420Y-58594360D01*
X125443480Y-58601980D01*
X125374900Y-58617220D01*
X125278380Y-58637540D01*
X125161540Y-58657860D01*
X125065020Y-58675640D01*
X124965960Y-58695960D01*
X124894840Y-58708660D01*
X124864360Y-58716280D01*
X124854200Y-58726440D01*
X124831340Y-58774700D01*
X124795780Y-58850900D01*
X124755140Y-58942340D01*
X124717040Y-59036320D01*
X124681480Y-59125220D01*
X124658620Y-59191260D01*
X124648460Y-59224280D01*
X124661160Y-59252220D01*
X124699260Y-59310640D01*
X124752600Y-59391920D01*
X124821180Y-59490980D01*
X124887220Y-59587500D01*
X124945640Y-59671320D01*
X124983740Y-59732280D01*
X125001520Y-59760220D01*
X124991360Y-59778000D01*
X124953260Y-59826260D01*
X124879600Y-59902460D01*
X124767840Y-60011680D01*
X124750060Y-60029460D01*
X124663700Y-60113280D01*
X124590040Y-60181860D01*
X124536700Y-60227580D01*
X124513840Y-60245360D01*
D17*
X131929000Y-79279000D02*
X132071000Y-79279000D01*
X132071000Y-79279000D02*
X131929000Y-79279000D01*
X131929000Y-80221000D02*
X132071000Y-80221000D01*
X132071000Y-80221000D02*
X131929000Y-80221000D01*
X156429000Y-79029000D02*
X156571000Y-79029000D01*
X156571000Y-79029000D02*
X156429000Y-79029000D01*
X156429000Y-79971000D02*
X156571000Y-79971000D01*
X156571000Y-79971000D02*
X156429000Y-79971000D01*
X160471000Y-108929000D02*
X160471000Y-109071000D01*
X160471000Y-109071000D02*
X160471000Y-108929000D01*
X159529000Y-108929000D02*
X159529000Y-109071000D01*
X159529000Y-109071000D02*
X159529000Y-108929000D01*
X163529000Y-108071000D02*
X163529000Y-107929000D01*
X163529000Y-107929000D02*
X163529000Y-108071000D01*
X164471000Y-108071000D02*
X164471000Y-107929000D01*
X164471000Y-107929000D02*
X164471000Y-108071000D01*
X157146000Y-108404000D02*
X157146000Y-109596000D01*
X157146000Y-109596000D02*
X157146000Y-108404000D01*
X155854000Y-108404000D02*
X155854000Y-109596000D01*
X155854000Y-109596000D02*
X155854000Y-108404000D01*
X165604000Y-108596000D02*
X165604000Y-107404000D01*
X165604000Y-107404000D02*
X165604000Y-108596000D01*
X166896000Y-108596000D02*
X166896000Y-107404000D01*
X166896000Y-107404000D02*
X166896000Y-108596000D01*
D12*
X136050000Y-111600000D02*
X136050000Y-112500000D01*
X136050000Y-112500000D02*
X137050000Y-112500000D01*
X137050000Y-109500000D02*
X136050000Y-109500000D01*
X136050000Y-109500000D02*
X136050000Y-110400000D01*
X136050000Y-107850000D02*
X136050000Y-108750000D01*
X136050000Y-108750000D02*
X137050000Y-108750000D01*
X137050000Y-105750000D02*
X136050000Y-105750000D01*
X136050000Y-105750000D02*
X136050000Y-106650000D01*
D17*
X128279000Y-80046000D02*
X128279000Y-79954000D01*
X128279000Y-79954000D02*
X128279000Y-80046000D01*
X128721000Y-80046000D02*
X128721000Y-79954000D01*
X128721000Y-79954000D02*
X128721000Y-80046000D01*
X152779000Y-80046000D02*
X152779000Y-79954000D01*
X152779000Y-79954000D02*
X152779000Y-80046000D01*
X153221000Y-80046000D02*
X153221000Y-79954000D01*
X153221000Y-79954000D02*
X153221000Y-80046000D01*
X130454000Y-81529000D02*
X130546000Y-81529000D01*
X130546000Y-81529000D02*
X130454000Y-81529000D01*
X130454000Y-81971000D02*
X130546000Y-81971000D01*
X130546000Y-81971000D02*
X130454000Y-81971000D01*
X133454000Y-81529000D02*
X133546000Y-81529000D01*
X133546000Y-81529000D02*
X133454000Y-81529000D01*
X133454000Y-81971000D02*
X133546000Y-81971000D01*
X133546000Y-81971000D02*
X133454000Y-81971000D01*
X154954000Y-81529000D02*
X155046000Y-81529000D01*
X155046000Y-81529000D02*
X154954000Y-81529000D01*
X154954000Y-81971000D02*
X155046000Y-81971000D01*
X155046000Y-81971000D02*
X154954000Y-81971000D01*
X157954000Y-81529000D02*
X158046000Y-81529000D01*
X158046000Y-81529000D02*
X157954000Y-81529000D01*
X157954000Y-81971000D02*
X158046000Y-81971000D01*
X158046000Y-81971000D02*
X157954000Y-81971000D01*
X164279000Y-99546000D02*
X164279000Y-99454000D01*
X164279000Y-99454000D02*
X164279000Y-99546000D01*
X164721000Y-99546000D02*
X164721000Y-99454000D01*
X164721000Y-99454000D02*
X164721000Y-99546000D01*
X167029000Y-99571000D02*
X167029000Y-99429000D01*
X167029000Y-99429000D02*
X167029000Y-99571000D01*
X167971000Y-99571000D02*
X167971000Y-99429000D01*
X167971000Y-99429000D02*
X167971000Y-99571000D01*
X159721000Y-102204000D02*
X159721000Y-102296000D01*
X159721000Y-102296000D02*
X159721000Y-102204000D01*
X159279000Y-102204000D02*
X159279000Y-102296000D01*
X159279000Y-102296000D02*
X159279000Y-102204000D01*
X157971000Y-102179000D02*
X157971000Y-102321000D01*
X157971000Y-102321000D02*
X157971000Y-102179000D01*
X157029000Y-102179000D02*
X157029000Y-102321000D01*
X157029000Y-102321000D02*
X157029000Y-102179000D01*
X85954000Y-120529000D02*
X86046000Y-120529000D01*
X86046000Y-120529000D02*
X85954000Y-120529000D01*
X85954000Y-120971000D02*
X86046000Y-120971000D01*
X86046000Y-120971000D02*
X85954000Y-120971000D01*
X146821000Y-104496000D02*
X146679000Y-104496000D01*
X146679000Y-104496000D02*
X146821000Y-104496000D01*
X146821000Y-104004000D02*
X146679000Y-104004000D01*
X146679000Y-104004000D02*
X146821000Y-104004000D01*
X146821000Y-106246000D02*
X146679000Y-106246000D01*
X146679000Y-106246000D02*
X146821000Y-106246000D01*
X146821000Y-105754000D02*
X146679000Y-105754000D01*
X146679000Y-105754000D02*
X146821000Y-105754000D01*
X137454000Y-102029000D02*
X137546000Y-102029000D01*
X137546000Y-102029000D02*
X137454000Y-102029000D01*
X137454000Y-102471000D02*
X137546000Y-102471000D01*
X137546000Y-102471000D02*
X137454000Y-102471000D01*
X134546000Y-102471000D02*
X134454000Y-102471000D01*
X134454000Y-102471000D02*
X134546000Y-102471000D01*
X134546000Y-102029000D02*
X134454000Y-102029000D01*
X134454000Y-102029000D02*
X134546000Y-102029000D01*
X133571000Y-110246000D02*
X133429000Y-110246000D01*
X133429000Y-110246000D02*
X133571000Y-110246000D01*
X133571000Y-109754000D02*
X133429000Y-109754000D01*
X133429000Y-109754000D02*
X133571000Y-109754000D01*
X139754000Y-107321000D02*
X139754000Y-107179000D01*
X139754000Y-107179000D02*
X139754000Y-107321000D01*
X140246000Y-107321000D02*
X140246000Y-107179000D01*
X140246000Y-107179000D02*
X140246000Y-107321000D01*
X96221000Y-73429000D02*
X96221000Y-73571000D01*
X96221000Y-73571000D02*
X96221000Y-73429000D01*
X95279000Y-73429000D02*
X95279000Y-73571000D01*
X95279000Y-73571000D02*
X95279000Y-73429000D01*
X109721000Y-80679000D02*
X109721000Y-80821000D01*
X109721000Y-80821000D02*
X109721000Y-80679000D01*
X108779000Y-80679000D02*
X108779000Y-80821000D01*
X108779000Y-80821000D02*
X108779000Y-80679000D01*
X96471000Y-79179000D02*
X96471000Y-79321000D01*
X96471000Y-79321000D02*
X96471000Y-79179000D01*
X95529000Y-79179000D02*
X95529000Y-79321000D01*
X95529000Y-79321000D02*
X95529000Y-79179000D01*
X107996000Y-78679000D02*
X107996000Y-78821000D01*
X107996000Y-78821000D02*
X107996000Y-78679000D01*
X107504000Y-78679000D02*
X107504000Y-78821000D01*
X107504000Y-78821000D02*
X107504000Y-78679000D01*
X95246000Y-70229000D02*
X95246000Y-70371000D01*
X95246000Y-70371000D02*
X95246000Y-70229000D01*
X94754000Y-70229000D02*
X94754000Y-70371000D01*
X94754000Y-70371000D02*
X94754000Y-70229000D01*
X105571000Y-76246000D02*
X105429000Y-76246000D01*
X105429000Y-76246000D02*
X105571000Y-76246000D01*
X105571000Y-75754000D02*
X105429000Y-75754000D01*
X105429000Y-75754000D02*
X105571000Y-75754000D01*
X106046000Y-69971000D02*
X105954000Y-69971000D01*
X105954000Y-69971000D02*
X106046000Y-69971000D01*
X106046000Y-69529000D02*
X105954000Y-69529000D01*
X105954000Y-69529000D02*
X106046000Y-69529000D01*
D12*
X132514286Y-78285714D02*
X132552381Y-78323810D01*
X132666667Y-78361905D01*
X132742857Y-78361905D01*
X132857143Y-78323810D01*
X132933334Y-78247619D01*
X132971429Y-78171429D01*
X133009524Y-78019048D01*
X133009524Y-77904762D01*
X132971429Y-77752381D01*
X132933334Y-77676190D01*
X132857143Y-77600000D01*
X132742857Y-77561905D01*
X132666667Y-77561905D01*
X132552381Y-77600000D01*
X132514286Y-77638095D01*
X131752381Y-78361905D02*
X132209524Y-78361905D01*
X131980953Y-78361905D02*
X131980953Y-77561905D01*
X132057143Y-77676190D01*
X132133334Y-77752381D01*
X132209524Y-77790476D01*
X131371429Y-78361905D02*
X131219048Y-78361905D01*
X131142857Y-78323810D01*
X131104762Y-78285714D01*
X131028571Y-78171429D01*
X130990476Y-78019048D01*
X130990476Y-77714286D01*
X131028571Y-77638095D01*
X131066667Y-77600000D01*
X131142857Y-77561905D01*
X131295238Y-77561905D01*
X131371429Y-77600000D01*
X131409524Y-77638095D01*
X131447619Y-77714286D01*
X131447619Y-77904762D01*
X131409524Y-77980952D01*
X131371429Y-78019048D01*
X131295238Y-78057143D01*
X131142857Y-78057143D01*
X131066667Y-78019048D01*
X131028571Y-77980952D01*
X130990476Y-77904762D01*
X157014286Y-78285714D02*
X157052381Y-78323810D01*
X157166667Y-78361905D01*
X157242857Y-78361905D01*
X157357143Y-78323810D01*
X157433334Y-78247619D01*
X157471429Y-78171429D01*
X157509524Y-78019048D01*
X157509524Y-77904762D01*
X157471429Y-77752381D01*
X157433334Y-77676190D01*
X157357143Y-77600000D01*
X157242857Y-77561905D01*
X157166667Y-77561905D01*
X157052381Y-77600000D01*
X157014286Y-77638095D01*
X156709524Y-77638095D02*
X156671429Y-77600000D01*
X156595238Y-77561905D01*
X156404762Y-77561905D01*
X156328572Y-77600000D01*
X156290476Y-77638095D01*
X156252381Y-77714286D01*
X156252381Y-77790476D01*
X156290476Y-77904762D01*
X156747619Y-78361905D01*
X156252381Y-78361905D01*
X155947619Y-77638095D02*
X155909524Y-77600000D01*
X155833333Y-77561905D01*
X155642857Y-77561905D01*
X155566667Y-77600000D01*
X155528571Y-77638095D01*
X155490476Y-77714286D01*
X155490476Y-77790476D01*
X155528571Y-77904762D01*
X155985714Y-78361905D01*
X155490476Y-78361905D01*
X160514286Y-111785714D02*
X160552381Y-111823810D01*
X160666667Y-111861905D01*
X160742857Y-111861905D01*
X160857143Y-111823810D01*
X160933334Y-111747619D01*
X160971429Y-111671429D01*
X161009524Y-111519048D01*
X161009524Y-111404762D01*
X160971429Y-111252381D01*
X160933334Y-111176190D01*
X160857143Y-111100000D01*
X160742857Y-111061905D01*
X160666667Y-111061905D01*
X160552381Y-111100000D01*
X160514286Y-111138095D01*
X160247619Y-111061905D02*
X159752381Y-111061905D01*
X160019048Y-111366667D01*
X159904762Y-111366667D01*
X159828572Y-111404762D01*
X159790476Y-111442857D01*
X159752381Y-111519048D01*
X159752381Y-111709524D01*
X159790476Y-111785714D01*
X159828572Y-111823810D01*
X159904762Y-111861905D01*
X160133334Y-111861905D01*
X160209524Y-111823810D01*
X160247619Y-111785714D01*
X159066667Y-111061905D02*
X159219048Y-111061905D01*
X159295238Y-111100000D01*
X159333333Y-111138095D01*
X159409524Y-111252381D01*
X159447619Y-111404762D01*
X159447619Y-111709524D01*
X159409524Y-111785714D01*
X159371429Y-111823810D01*
X159295238Y-111861905D01*
X159142857Y-111861905D01*
X159066667Y-111823810D01*
X159028571Y-111785714D01*
X158990476Y-111709524D01*
X158990476Y-111519048D01*
X159028571Y-111442857D01*
X159066667Y-111404762D01*
X159142857Y-111366667D01*
X159295238Y-111366667D01*
X159371429Y-111404762D01*
X159409524Y-111442857D01*
X159447619Y-111519048D01*
X164514286Y-111285714D02*
X164552381Y-111323810D01*
X164666667Y-111361905D01*
X164742857Y-111361905D01*
X164857143Y-111323810D01*
X164933334Y-111247619D01*
X164971429Y-111171429D01*
X165009524Y-111019048D01*
X165009524Y-110904762D01*
X164971429Y-110752381D01*
X164933334Y-110676190D01*
X164857143Y-110600000D01*
X164742857Y-110561905D01*
X164666667Y-110561905D01*
X164552381Y-110600000D01*
X164514286Y-110638095D01*
X164247619Y-110561905D02*
X163752381Y-110561905D01*
X164019048Y-110866667D01*
X163904762Y-110866667D01*
X163828572Y-110904762D01*
X163790476Y-110942857D01*
X163752381Y-111019048D01*
X163752381Y-111209524D01*
X163790476Y-111285714D01*
X163828572Y-111323810D01*
X163904762Y-111361905D01*
X164133334Y-111361905D01*
X164209524Y-111323810D01*
X164247619Y-111285714D01*
X163485714Y-110561905D02*
X162952381Y-110561905D01*
X163295238Y-111361905D01*
X157014286Y-112285714D02*
X157052381Y-112323810D01*
X157166667Y-112361905D01*
X157242857Y-112361905D01*
X157357143Y-112323810D01*
X157433334Y-112247619D01*
X157471429Y-112171429D01*
X157509524Y-112019048D01*
X157509524Y-111904762D01*
X157471429Y-111752381D01*
X157433334Y-111676190D01*
X157357143Y-111600000D01*
X157242857Y-111561905D01*
X157166667Y-111561905D01*
X157052381Y-111600000D01*
X157014286Y-111638095D01*
X156328572Y-111828571D02*
X156328572Y-112361905D01*
X156519048Y-111523810D02*
X156709524Y-112095238D01*
X156214286Y-112095238D01*
X155757143Y-111561905D02*
X155680952Y-111561905D01*
X155604762Y-111600000D01*
X155566667Y-111638095D01*
X155528571Y-111714286D01*
X155490476Y-111866667D01*
X155490476Y-112057143D01*
X155528571Y-112209524D01*
X155566667Y-112285714D01*
X155604762Y-112323810D01*
X155680952Y-112361905D01*
X155757143Y-112361905D01*
X155833333Y-112323810D01*
X155871429Y-112285714D01*
X155909524Y-112209524D01*
X155947619Y-112057143D01*
X155947619Y-111866667D01*
X155909524Y-111714286D01*
X155871429Y-111638095D01*
X155833333Y-111600000D01*
X155757143Y-111561905D01*
X167014286Y-111285714D02*
X167052381Y-111323810D01*
X167166667Y-111361905D01*
X167242857Y-111361905D01*
X167357143Y-111323810D01*
X167433334Y-111247619D01*
X167471429Y-111171429D01*
X167509524Y-111019048D01*
X167509524Y-110904762D01*
X167471429Y-110752381D01*
X167433334Y-110676190D01*
X167357143Y-110600000D01*
X167242857Y-110561905D01*
X167166667Y-110561905D01*
X167052381Y-110600000D01*
X167014286Y-110638095D01*
X166328572Y-110828571D02*
X166328572Y-111361905D01*
X166519048Y-110523810D02*
X166709524Y-111095238D01*
X166214286Y-111095238D01*
X165490476Y-111361905D02*
X165947619Y-111361905D01*
X165719048Y-111361905D02*
X165719048Y-110561905D01*
X165795238Y-110676190D01*
X165871429Y-110752381D01*
X165947619Y-110790476D01*
X137721429Y-113611905D02*
X137721429Y-112811905D01*
X137530953Y-112811905D01*
X137416667Y-112850000D01*
X137340476Y-112926190D01*
X137302381Y-113002381D01*
X137264286Y-113154762D01*
X137264286Y-113269048D01*
X137302381Y-113421429D01*
X137340476Y-113497619D01*
X137416667Y-113573810D01*
X137530953Y-113611905D01*
X137721429Y-113611905D01*
X136997619Y-112811905D02*
X136464286Y-112811905D01*
X136997619Y-113611905D01*
X136464286Y-113611905D01*
X136197619Y-112888095D02*
X136159524Y-112850000D01*
X136083333Y-112811905D01*
X135892857Y-112811905D01*
X135816667Y-112850000D01*
X135778571Y-112888095D01*
X135740476Y-112964286D01*
X135740476Y-113040476D01*
X135778571Y-113154762D01*
X136235714Y-113611905D01*
X135740476Y-113611905D01*
X137721429Y-105611905D02*
X137721429Y-104811905D01*
X137530953Y-104811905D01*
X137416667Y-104850000D01*
X137340476Y-104926190D01*
X137302381Y-105002381D01*
X137264286Y-105154762D01*
X137264286Y-105269048D01*
X137302381Y-105421429D01*
X137340476Y-105497619D01*
X137416667Y-105573810D01*
X137530953Y-105611905D01*
X137721429Y-105611905D01*
X136997619Y-104811905D02*
X136464286Y-104811905D01*
X136997619Y-105611905D01*
X136464286Y-105611905D01*
X135816667Y-105078571D02*
X135816667Y-105611905D01*
X136007143Y-104773810D02*
X136197619Y-105345238D01*
X135702381Y-105345238D01*
X127535714Y-79235714D02*
X127573810Y-79197619D01*
X127611905Y-79083333D01*
X127611905Y-79007143D01*
X127573810Y-78892857D01*
X127497619Y-78816666D01*
X127421429Y-78778571D01*
X127269048Y-78740476D01*
X127154762Y-78740476D01*
X127002381Y-78778571D01*
X126926190Y-78816666D01*
X126850000Y-78892857D01*
X126811905Y-79007143D01*
X126811905Y-79083333D01*
X126850000Y-79197619D01*
X126888095Y-79235714D01*
X127611905Y-79997619D02*
X127611905Y-79540476D01*
X127611905Y-79769047D02*
X126811905Y-79769047D01*
X126926190Y-79692857D01*
X127002381Y-79616666D01*
X127040476Y-79540476D01*
X127154762Y-80454762D02*
X127116667Y-80378571D01*
X127078571Y-80340476D01*
X127002381Y-80302381D01*
X126964286Y-80302381D01*
X126888095Y-80340476D01*
X126850000Y-80378571D01*
X126811905Y-80454762D01*
X126811905Y-80607143D01*
X126850000Y-80683333D01*
X126888095Y-80721429D01*
X126964286Y-80759524D01*
X127002381Y-80759524D01*
X127078571Y-80721429D01*
X127116667Y-80683333D01*
X127154762Y-80607143D01*
X127154762Y-80454762D01*
X127192857Y-80378571D01*
X127230952Y-80340476D01*
X127307143Y-80302381D01*
X127459524Y-80302381D01*
X127535714Y-80340476D01*
X127573810Y-80378571D01*
X127611905Y-80454762D01*
X127611905Y-80607143D01*
X127573810Y-80683333D01*
X127535714Y-80721429D01*
X127459524Y-80759524D01*
X127307143Y-80759524D01*
X127230952Y-80721429D01*
X127192857Y-80683333D01*
X127154762Y-80607143D01*
X152035714Y-78985714D02*
X152073810Y-78947619D01*
X152111905Y-78833333D01*
X152111905Y-78757143D01*
X152073810Y-78642857D01*
X151997619Y-78566666D01*
X151921429Y-78528571D01*
X151769048Y-78490476D01*
X151654762Y-78490476D01*
X151502381Y-78528571D01*
X151426190Y-78566666D01*
X151350000Y-78642857D01*
X151311905Y-78757143D01*
X151311905Y-78833333D01*
X151350000Y-78947619D01*
X151388095Y-78985714D01*
X151311905Y-79709524D02*
X151311905Y-79328571D01*
X151692857Y-79290476D01*
X151654762Y-79328571D01*
X151616667Y-79404762D01*
X151616667Y-79595238D01*
X151654762Y-79671428D01*
X151692857Y-79709524D01*
X151769048Y-79747619D01*
X151959524Y-79747619D01*
X152035714Y-79709524D01*
X152073810Y-79671428D01*
X152111905Y-79595238D01*
X152111905Y-79404762D01*
X152073810Y-79328571D01*
X152035714Y-79290476D01*
X151311905Y-80471429D02*
X151311905Y-80090476D01*
X151692857Y-80052381D01*
X151654762Y-80090476D01*
X151616667Y-80166667D01*
X151616667Y-80357143D01*
X151654762Y-80433333D01*
X151692857Y-80471429D01*
X151769048Y-80509524D01*
X151959524Y-80509524D01*
X152035714Y-80471429D01*
X152073810Y-80433333D01*
X152111905Y-80357143D01*
X152111905Y-80166667D01*
X152073810Y-80090476D01*
X152035714Y-80052381D01*
X129514286Y-83535714D02*
X129552381Y-83573810D01*
X129666667Y-83611905D01*
X129742857Y-83611905D01*
X129857143Y-83573810D01*
X129933334Y-83497619D01*
X129971429Y-83421429D01*
X130009524Y-83269048D01*
X130009524Y-83154762D01*
X129971429Y-83002381D01*
X129933334Y-82926190D01*
X129857143Y-82850000D01*
X129742857Y-82811905D01*
X129666667Y-82811905D01*
X129552381Y-82850000D01*
X129514286Y-82888095D01*
X129209524Y-82888095D02*
X129171429Y-82850000D01*
X129095238Y-82811905D01*
X128904762Y-82811905D01*
X128828572Y-82850000D01*
X128790476Y-82888095D01*
X128752381Y-82964286D01*
X128752381Y-83040476D01*
X128790476Y-83154762D01*
X129247619Y-83611905D01*
X128752381Y-83611905D01*
X128257143Y-82811905D02*
X128180952Y-82811905D01*
X128104762Y-82850000D01*
X128066667Y-82888095D01*
X128028571Y-82964286D01*
X127990476Y-83116667D01*
X127990476Y-83307143D01*
X128028571Y-83459524D01*
X128066667Y-83535714D01*
X128104762Y-83573810D01*
X128180952Y-83611905D01*
X128257143Y-83611905D01*
X128333333Y-83573810D01*
X128371429Y-83535714D01*
X128409524Y-83459524D01*
X128447619Y-83307143D01*
X128447619Y-83116667D01*
X128409524Y-82964286D01*
X128371429Y-82888095D01*
X128333333Y-82850000D01*
X128257143Y-82811905D01*
X134764286Y-83535714D02*
X134802381Y-83573810D01*
X134916667Y-83611905D01*
X134992857Y-83611905D01*
X135107143Y-83573810D01*
X135183334Y-83497619D01*
X135221429Y-83421429D01*
X135259524Y-83269048D01*
X135259524Y-83154762D01*
X135221429Y-83002381D01*
X135183334Y-82926190D01*
X135107143Y-82850000D01*
X134992857Y-82811905D01*
X134916667Y-82811905D01*
X134802381Y-82850000D01*
X134764286Y-82888095D01*
X134459524Y-82888095D02*
X134421429Y-82850000D01*
X134345238Y-82811905D01*
X134154762Y-82811905D01*
X134078572Y-82850000D01*
X134040476Y-82888095D01*
X134002381Y-82964286D01*
X134002381Y-83040476D01*
X134040476Y-83154762D01*
X134497619Y-83611905D01*
X134002381Y-83611905D01*
X133240476Y-83611905D02*
X133697619Y-83611905D01*
X133469048Y-83611905D02*
X133469048Y-82811905D01*
X133545238Y-82926190D01*
X133621429Y-83002381D01*
X133697619Y-83040476D01*
X154264286Y-83285714D02*
X154302381Y-83323810D01*
X154416667Y-83361905D01*
X154492857Y-83361905D01*
X154607143Y-83323810D01*
X154683334Y-83247619D01*
X154721429Y-83171429D01*
X154759524Y-83019048D01*
X154759524Y-82904762D01*
X154721429Y-82752381D01*
X154683334Y-82676190D01*
X154607143Y-82600000D01*
X154492857Y-82561905D01*
X154416667Y-82561905D01*
X154302381Y-82600000D01*
X154264286Y-82638095D01*
X153959524Y-82638095D02*
X153921429Y-82600000D01*
X153845238Y-82561905D01*
X153654762Y-82561905D01*
X153578572Y-82600000D01*
X153540476Y-82638095D01*
X153502381Y-82714286D01*
X153502381Y-82790476D01*
X153540476Y-82904762D01*
X153997619Y-83361905D01*
X153502381Y-83361905D01*
X152816667Y-82828571D02*
X152816667Y-83361905D01*
X153007143Y-82523810D02*
X153197619Y-83095238D01*
X152702381Y-83095238D01*
X158764286Y-83285714D02*
X158802381Y-83323810D01*
X158916667Y-83361905D01*
X158992857Y-83361905D01*
X159107143Y-83323810D01*
X159183334Y-83247619D01*
X159221429Y-83171429D01*
X159259524Y-83019048D01*
X159259524Y-82904762D01*
X159221429Y-82752381D01*
X159183334Y-82676190D01*
X159107143Y-82600000D01*
X158992857Y-82561905D01*
X158916667Y-82561905D01*
X158802381Y-82600000D01*
X158764286Y-82638095D01*
X158459524Y-82638095D02*
X158421429Y-82600000D01*
X158345238Y-82561905D01*
X158154762Y-82561905D01*
X158078572Y-82600000D01*
X158040476Y-82638095D01*
X158002381Y-82714286D01*
X158002381Y-82790476D01*
X158040476Y-82904762D01*
X158497619Y-83361905D01*
X158002381Y-83361905D01*
X157278571Y-82561905D02*
X157659524Y-82561905D01*
X157697619Y-82942857D01*
X157659524Y-82904762D01*
X157583333Y-82866667D01*
X157392857Y-82866667D01*
X157316667Y-82904762D01*
X157278571Y-82942857D01*
X157240476Y-83019048D01*
X157240476Y-83209524D01*
X157278571Y-83285714D01*
X157316667Y-83323810D01*
X157392857Y-83361905D01*
X157583333Y-83361905D01*
X157659524Y-83323810D01*
X157697619Y-83285714D01*
X165014286Y-101785714D02*
X165052381Y-101823810D01*
X165166667Y-101861905D01*
X165242857Y-101861905D01*
X165357143Y-101823810D01*
X165433334Y-101747619D01*
X165471429Y-101671429D01*
X165509524Y-101519048D01*
X165509524Y-101404762D01*
X165471429Y-101252381D01*
X165433334Y-101176190D01*
X165357143Y-101100000D01*
X165242857Y-101061905D01*
X165166667Y-101061905D01*
X165052381Y-101100000D01*
X165014286Y-101138095D01*
X164747619Y-101061905D02*
X164252381Y-101061905D01*
X164519048Y-101366667D01*
X164404762Y-101366667D01*
X164328572Y-101404762D01*
X164290476Y-101442857D01*
X164252381Y-101519048D01*
X164252381Y-101709524D01*
X164290476Y-101785714D01*
X164328572Y-101823810D01*
X164404762Y-101861905D01*
X164633334Y-101861905D01*
X164709524Y-101823810D01*
X164747619Y-101785714D01*
X163757143Y-101061905D02*
X163680952Y-101061905D01*
X163604762Y-101100000D01*
X163566667Y-101138095D01*
X163528571Y-101214286D01*
X163490476Y-101366667D01*
X163490476Y-101557143D01*
X163528571Y-101709524D01*
X163566667Y-101785714D01*
X163604762Y-101823810D01*
X163680952Y-101861905D01*
X163757143Y-101861905D01*
X163833333Y-101823810D01*
X163871429Y-101785714D01*
X163909524Y-101709524D01*
X163947619Y-101557143D01*
X163947619Y-101366667D01*
X163909524Y-101214286D01*
X163871429Y-101138095D01*
X163833333Y-101100000D01*
X163757143Y-101061905D01*
X168014286Y-102285714D02*
X168052381Y-102323810D01*
X168166667Y-102361905D01*
X168242857Y-102361905D01*
X168357143Y-102323810D01*
X168433334Y-102247619D01*
X168471429Y-102171429D01*
X168509524Y-102019048D01*
X168509524Y-101904762D01*
X168471429Y-101752381D01*
X168433334Y-101676190D01*
X168357143Y-101600000D01*
X168242857Y-101561905D01*
X168166667Y-101561905D01*
X168052381Y-101600000D01*
X168014286Y-101638095D01*
X167747619Y-101561905D02*
X167252381Y-101561905D01*
X167519048Y-101866667D01*
X167404762Y-101866667D01*
X167328572Y-101904762D01*
X167290476Y-101942857D01*
X167252381Y-102019048D01*
X167252381Y-102209524D01*
X167290476Y-102285714D01*
X167328572Y-102323810D01*
X167404762Y-102361905D01*
X167633334Y-102361905D01*
X167709524Y-102323810D01*
X167747619Y-102285714D01*
X166566667Y-101828571D02*
X166566667Y-102361905D01*
X166757143Y-101523810D02*
X166947619Y-102095238D01*
X166452381Y-102095238D01*
X159785714Y-98985714D02*
X159823810Y-98947619D01*
X159861905Y-98833333D01*
X159861905Y-98757143D01*
X159823810Y-98642857D01*
X159747619Y-98566666D01*
X159671429Y-98528571D01*
X159519048Y-98490476D01*
X159404762Y-98490476D01*
X159252381Y-98528571D01*
X159176190Y-98566666D01*
X159100000Y-98642857D01*
X159061905Y-98757143D01*
X159061905Y-98833333D01*
X159100000Y-98947619D01*
X159138095Y-98985714D01*
X159061905Y-99252381D02*
X159061905Y-99747619D01*
X159366667Y-99480952D01*
X159366667Y-99595238D01*
X159404762Y-99671428D01*
X159442857Y-99709524D01*
X159519048Y-99747619D01*
X159709524Y-99747619D01*
X159785714Y-99709524D01*
X159823810Y-99671428D01*
X159861905Y-99595238D01*
X159861905Y-99366666D01*
X159823810Y-99290476D01*
X159785714Y-99252381D01*
X159861905Y-100509524D02*
X159861905Y-100052381D01*
X159861905Y-100280952D02*
X159061905Y-100280952D01*
X159176190Y-100204762D01*
X159252381Y-100128571D01*
X159290476Y-100052381D01*
X157785714Y-98735714D02*
X157823810Y-98697619D01*
X157861905Y-98583333D01*
X157861905Y-98507143D01*
X157823810Y-98392857D01*
X157747619Y-98316666D01*
X157671429Y-98278571D01*
X157519048Y-98240476D01*
X157404762Y-98240476D01*
X157252381Y-98278571D01*
X157176190Y-98316666D01*
X157100000Y-98392857D01*
X157061905Y-98507143D01*
X157061905Y-98583333D01*
X157100000Y-98697619D01*
X157138095Y-98735714D01*
X157061905Y-99002381D02*
X157061905Y-99497619D01*
X157366667Y-99230952D01*
X157366667Y-99345238D01*
X157404762Y-99421428D01*
X157442857Y-99459524D01*
X157519048Y-99497619D01*
X157709524Y-99497619D01*
X157785714Y-99459524D01*
X157823810Y-99421428D01*
X157861905Y-99345238D01*
X157861905Y-99116666D01*
X157823810Y-99040476D01*
X157785714Y-99002381D01*
X157061905Y-100221429D02*
X157061905Y-99840476D01*
X157442857Y-99802381D01*
X157404762Y-99840476D01*
X157366667Y-99916667D01*
X157366667Y-100107143D01*
X157404762Y-100183333D01*
X157442857Y-100221429D01*
X157519048Y-100259524D01*
X157709524Y-100259524D01*
X157785714Y-100221429D01*
X157823810Y-100183333D01*
X157861905Y-100107143D01*
X157861905Y-99916667D01*
X157823810Y-99840476D01*
X157785714Y-99802381D01*
X86514286Y-119785714D02*
X86552381Y-119823810D01*
X86666667Y-119861905D01*
X86742857Y-119861905D01*
X86857143Y-119823810D01*
X86933334Y-119747619D01*
X86971429Y-119671429D01*
X87009524Y-119519048D01*
X87009524Y-119404762D01*
X86971429Y-119252381D01*
X86933334Y-119176190D01*
X86857143Y-119100000D01*
X86742857Y-119061905D01*
X86666667Y-119061905D01*
X86552381Y-119100000D01*
X86514286Y-119138095D01*
X86247619Y-119061905D02*
X85752381Y-119061905D01*
X86019048Y-119366667D01*
X85904762Y-119366667D01*
X85828572Y-119404762D01*
X85790476Y-119442857D01*
X85752381Y-119519048D01*
X85752381Y-119709524D01*
X85790476Y-119785714D01*
X85828572Y-119823810D01*
X85904762Y-119861905D01*
X86133334Y-119861905D01*
X86209524Y-119823810D01*
X86247619Y-119785714D01*
X85371429Y-119861905D02*
X85219048Y-119861905D01*
X85142857Y-119823810D01*
X85104762Y-119785714D01*
X85028571Y-119671429D01*
X84990476Y-119519048D01*
X84990476Y-119214286D01*
X85028571Y-119138095D01*
X85066667Y-119100000D01*
X85142857Y-119061905D01*
X85295238Y-119061905D01*
X85371429Y-119100000D01*
X85409524Y-119138095D01*
X85447619Y-119214286D01*
X85447619Y-119404762D01*
X85409524Y-119480952D01*
X85371429Y-119519048D01*
X85295238Y-119557143D01*
X85142857Y-119557143D01*
X85066667Y-119519048D01*
X85028571Y-119480952D01*
X84990476Y-119404762D01*
X147264286Y-103361905D02*
X147530953Y-102980952D01*
X147721429Y-103361905D02*
X147721429Y-102561905D01*
X147416667Y-102561905D01*
X147340476Y-102600000D01*
X147302381Y-102638095D01*
X147264286Y-102714286D01*
X147264286Y-102828571D01*
X147302381Y-102904762D01*
X147340476Y-102942857D01*
X147416667Y-102980952D01*
X147721429Y-102980952D01*
X146578572Y-102561905D02*
X146730953Y-102561905D01*
X146807143Y-102600000D01*
X146845238Y-102638095D01*
X146921429Y-102752381D01*
X146959524Y-102904762D01*
X146959524Y-103209524D01*
X146921429Y-103285714D01*
X146883334Y-103323810D01*
X146807143Y-103361905D01*
X146654762Y-103361905D01*
X146578572Y-103323810D01*
X146540476Y-103285714D01*
X146502381Y-103209524D01*
X146502381Y-103019048D01*
X146540476Y-102942857D01*
X146578572Y-102904762D01*
X146654762Y-102866667D01*
X146807143Y-102866667D01*
X146883334Y-102904762D01*
X146921429Y-102942857D01*
X146959524Y-103019048D01*
X145816667Y-102561905D02*
X145969048Y-102561905D01*
X146045238Y-102600000D01*
X146083333Y-102638095D01*
X146159524Y-102752381D01*
X146197619Y-102904762D01*
X146197619Y-103209524D01*
X146159524Y-103285714D01*
X146121429Y-103323810D01*
X146045238Y-103361905D01*
X145892857Y-103361905D01*
X145816667Y-103323810D01*
X145778571Y-103285714D01*
X145740476Y-103209524D01*
X145740476Y-103019048D01*
X145778571Y-102942857D01*
X145816667Y-102904762D01*
X145892857Y-102866667D01*
X146045238Y-102866667D01*
X146121429Y-102904762D01*
X146159524Y-102942857D01*
X146197619Y-103019048D01*
X149264286Y-107611905D02*
X149530953Y-107230952D01*
X149721429Y-107611905D02*
X149721429Y-106811905D01*
X149416667Y-106811905D01*
X149340476Y-106850000D01*
X149302381Y-106888095D01*
X149264286Y-106964286D01*
X149264286Y-107078571D01*
X149302381Y-107154762D01*
X149340476Y-107192857D01*
X149416667Y-107230952D01*
X149721429Y-107230952D01*
X148578572Y-106811905D02*
X148730953Y-106811905D01*
X148807143Y-106850000D01*
X148845238Y-106888095D01*
X148921429Y-107002381D01*
X148959524Y-107154762D01*
X148959524Y-107459524D01*
X148921429Y-107535714D01*
X148883334Y-107573810D01*
X148807143Y-107611905D01*
X148654762Y-107611905D01*
X148578572Y-107573810D01*
X148540476Y-107535714D01*
X148502381Y-107459524D01*
X148502381Y-107269048D01*
X148540476Y-107192857D01*
X148578572Y-107154762D01*
X148654762Y-107116667D01*
X148807143Y-107116667D01*
X148883334Y-107154762D01*
X148921429Y-107192857D01*
X148959524Y-107269048D01*
X148235714Y-106811905D02*
X147702381Y-106811905D01*
X148045238Y-107611905D01*
X138014286Y-100535714D02*
X138052381Y-100573810D01*
X138166667Y-100611905D01*
X138242857Y-100611905D01*
X138357143Y-100573810D01*
X138433334Y-100497619D01*
X138471429Y-100421429D01*
X138509524Y-100269048D01*
X138509524Y-100154762D01*
X138471429Y-100002381D01*
X138433334Y-99926190D01*
X138357143Y-99850000D01*
X138242857Y-99811905D01*
X138166667Y-99811905D01*
X138052381Y-99850000D01*
X138014286Y-99888095D01*
X137747619Y-99811905D02*
X137214286Y-99811905D01*
X137557143Y-100611905D01*
X136490476Y-100611905D02*
X136947619Y-100611905D01*
X136719048Y-100611905D02*
X136719048Y-99811905D01*
X136795238Y-99926190D01*
X136871429Y-100002381D01*
X136947619Y-100040476D01*
X135014286Y-100535714D02*
X135052381Y-100573810D01*
X135166667Y-100611905D01*
X135242857Y-100611905D01*
X135357143Y-100573810D01*
X135433334Y-100497619D01*
X135471429Y-100421429D01*
X135509524Y-100269048D01*
X135509524Y-100154762D01*
X135471429Y-100002381D01*
X135433334Y-99926190D01*
X135357143Y-99850000D01*
X135242857Y-99811905D01*
X135166667Y-99811905D01*
X135052381Y-99850000D01*
X135014286Y-99888095D01*
X134747619Y-99811905D02*
X134214286Y-99811905D01*
X134557143Y-100611905D01*
X133947619Y-99888095D02*
X133909524Y-99850000D01*
X133833333Y-99811905D01*
X133642857Y-99811905D01*
X133566667Y-99850000D01*
X133528571Y-99888095D01*
X133490476Y-99964286D01*
X133490476Y-100040476D01*
X133528571Y-100154762D01*
X133985714Y-100611905D01*
X133490476Y-100611905D01*
X132264286Y-111611905D02*
X132530953Y-111230952D01*
X132721429Y-111611905D02*
X132721429Y-110811905D01*
X132416667Y-110811905D01*
X132340476Y-110850000D01*
X132302381Y-110888095D01*
X132264286Y-110964286D01*
X132264286Y-111078571D01*
X132302381Y-111154762D01*
X132340476Y-111192857D01*
X132416667Y-111230952D01*
X132721429Y-111230952D01*
X131540476Y-110811905D02*
X131921429Y-110811905D01*
X131959524Y-111192857D01*
X131921429Y-111154762D01*
X131845238Y-111116667D01*
X131654762Y-111116667D01*
X131578572Y-111154762D01*
X131540476Y-111192857D01*
X131502381Y-111269048D01*
X131502381Y-111459524D01*
X131540476Y-111535714D01*
X131578572Y-111573810D01*
X131654762Y-111611905D01*
X131845238Y-111611905D01*
X131921429Y-111573810D01*
X131959524Y-111535714D01*
X130816667Y-110811905D02*
X130969048Y-110811905D01*
X131045238Y-110850000D01*
X131083333Y-110888095D01*
X131159524Y-111002381D01*
X131197619Y-111154762D01*
X131197619Y-111459524D01*
X131159524Y-111535714D01*
X131121429Y-111573810D01*
X131045238Y-111611905D01*
X130892857Y-111611905D01*
X130816667Y-111573810D01*
X130778571Y-111535714D01*
X130740476Y-111459524D01*
X130740476Y-111269048D01*
X130778571Y-111192857D01*
X130816667Y-111154762D01*
X130892857Y-111116667D01*
X131045238Y-111116667D01*
X131121429Y-111154762D01*
X131159524Y-111192857D01*
X131197619Y-111269048D01*
X141611905Y-106485714D02*
X141230952Y-106219047D01*
X141611905Y-106028571D02*
X140811905Y-106028571D01*
X140811905Y-106333333D01*
X140850000Y-106409524D01*
X140888095Y-106447619D01*
X140964286Y-106485714D01*
X141078571Y-106485714D01*
X141154762Y-106447619D01*
X141192857Y-106409524D01*
X141230952Y-106333333D01*
X141230952Y-106028571D01*
X140811905Y-107209524D02*
X140811905Y-106828571D01*
X141192857Y-106790476D01*
X141154762Y-106828571D01*
X141116667Y-106904762D01*
X141116667Y-107095238D01*
X141154762Y-107171428D01*
X141192857Y-107209524D01*
X141269048Y-107247619D01*
X141459524Y-107247619D01*
X141535714Y-107209524D01*
X141573810Y-107171428D01*
X141611905Y-107095238D01*
X141611905Y-106904762D01*
X141573810Y-106828571D01*
X141535714Y-106790476D01*
X141154762Y-107704762D02*
X141116667Y-107628571D01*
X141078571Y-107590476D01*
X141002381Y-107552381D01*
X140964286Y-107552381D01*
X140888095Y-107590476D01*
X140850000Y-107628571D01*
X140811905Y-107704762D01*
X140811905Y-107857143D01*
X140850000Y-107933333D01*
X140888095Y-107971429D01*
X140964286Y-108009524D01*
X141002381Y-108009524D01*
X141078571Y-107971429D01*
X141116667Y-107933333D01*
X141154762Y-107857143D01*
X141154762Y-107704762D01*
X141192857Y-107628571D01*
X141230952Y-107590476D01*
X141307143Y-107552381D01*
X141459524Y-107552381D01*
X141535714Y-107590476D01*
X141573810Y-107628571D01*
X141611905Y-107704762D01*
X141611905Y-107857143D01*
X141573810Y-107933333D01*
X141535714Y-107971429D01*
X141459524Y-108009524D01*
X141307143Y-108009524D01*
X141230952Y-107971429D01*
X141192857Y-107933333D01*
X141154762Y-107857143D01*
X94535714Y-72985714D02*
X94573810Y-72947619D01*
X94611905Y-72833333D01*
X94611905Y-72757143D01*
X94573810Y-72642857D01*
X94497619Y-72566666D01*
X94421429Y-72528571D01*
X94269048Y-72490476D01*
X94154762Y-72490476D01*
X94002381Y-72528571D01*
X93926190Y-72566666D01*
X93850000Y-72642857D01*
X93811905Y-72757143D01*
X93811905Y-72833333D01*
X93850000Y-72947619D01*
X93888095Y-72985714D01*
X93811905Y-73252381D02*
X93811905Y-73785714D01*
X94611905Y-73442857D01*
X93811905Y-74014286D02*
X93811905Y-74547619D01*
X94611905Y-74204762D01*
X111035714Y-80235714D02*
X111073810Y-80197619D01*
X111111905Y-80083333D01*
X111111905Y-80007143D01*
X111073810Y-79892857D01*
X110997619Y-79816666D01*
X110921429Y-79778571D01*
X110769048Y-79740476D01*
X110654762Y-79740476D01*
X110502381Y-79778571D01*
X110426190Y-79816666D01*
X110350000Y-79892857D01*
X110311905Y-80007143D01*
X110311905Y-80083333D01*
X110350000Y-80197619D01*
X110388095Y-80235714D01*
X110311905Y-80502381D02*
X110311905Y-81035714D01*
X111111905Y-80692857D01*
X111111905Y-81378571D02*
X111111905Y-81530952D01*
X111073810Y-81607143D01*
X111035714Y-81645238D01*
X110921429Y-81721429D01*
X110769048Y-81759524D01*
X110464286Y-81759524D01*
X110388095Y-81721429D01*
X110350000Y-81683333D01*
X110311905Y-81607143D01*
X110311905Y-81454762D01*
X110350000Y-81378571D01*
X110388095Y-81340476D01*
X110464286Y-81302381D01*
X110654762Y-81302381D01*
X110730952Y-81340476D01*
X110769048Y-81378571D01*
X110807143Y-81454762D01*
X110807143Y-81607143D01*
X110769048Y-81683333D01*
X110730952Y-81721429D01*
X110654762Y-81759524D01*
X94785714Y-78735714D02*
X94823810Y-78697619D01*
X94861905Y-78583333D01*
X94861905Y-78507143D01*
X94823810Y-78392857D01*
X94747619Y-78316666D01*
X94671429Y-78278571D01*
X94519048Y-78240476D01*
X94404762Y-78240476D01*
X94252381Y-78278571D01*
X94176190Y-78316666D01*
X94100000Y-78392857D01*
X94061905Y-78507143D01*
X94061905Y-78583333D01*
X94100000Y-78697619D01*
X94138095Y-78735714D01*
X94404762Y-79192857D02*
X94366667Y-79116666D01*
X94328571Y-79078571D01*
X94252381Y-79040476D01*
X94214286Y-79040476D01*
X94138095Y-79078571D01*
X94100000Y-79116666D01*
X94061905Y-79192857D01*
X94061905Y-79345238D01*
X94100000Y-79421428D01*
X94138095Y-79459524D01*
X94214286Y-79497619D01*
X94252381Y-79497619D01*
X94328571Y-79459524D01*
X94366667Y-79421428D01*
X94404762Y-79345238D01*
X94404762Y-79192857D01*
X94442857Y-79116666D01*
X94480952Y-79078571D01*
X94557143Y-79040476D01*
X94709524Y-79040476D01*
X94785714Y-79078571D01*
X94823810Y-79116666D01*
X94861905Y-79192857D01*
X94861905Y-79345238D01*
X94823810Y-79421428D01*
X94785714Y-79459524D01*
X94709524Y-79497619D01*
X94557143Y-79497619D01*
X94480952Y-79459524D01*
X94442857Y-79421428D01*
X94404762Y-79345238D01*
X94861905Y-80259524D02*
X94861905Y-79802381D01*
X94861905Y-80030952D02*
X94061905Y-80030952D01*
X94176190Y-79954762D01*
X94252381Y-79878571D01*
X94290476Y-79802381D01*
X109192857Y-77447619D02*
X109192857Y-77714286D01*
X109611905Y-77828572D02*
X109611905Y-77447619D01*
X108811905Y-77447619D01*
X108811905Y-77828572D01*
X109078571Y-78514286D02*
X109611905Y-78514286D01*
X108773810Y-78323810D02*
X109345238Y-78133334D01*
X109345238Y-78628572D01*
X93692857Y-69697619D02*
X93692857Y-69964286D01*
X94111905Y-70078572D02*
X94111905Y-69697619D01*
X93311905Y-69697619D01*
X93311905Y-70078572D01*
X93311905Y-70802382D02*
X93311905Y-70421429D01*
X93692857Y-70383334D01*
X93654762Y-70421429D01*
X93616667Y-70497620D01*
X93616667Y-70688096D01*
X93654762Y-70764286D01*
X93692857Y-70802382D01*
X93769048Y-70840477D01*
X93959524Y-70840477D01*
X94035714Y-70802382D01*
X94073810Y-70764286D01*
X94111905Y-70688096D01*
X94111905Y-70497620D01*
X94073810Y-70421429D01*
X94035714Y-70383334D01*
X109395238Y-76361905D02*
X109661905Y-75980952D01*
X109852381Y-76361905D02*
X109852381Y-75561905D01*
X109547619Y-75561905D01*
X109471428Y-75600000D01*
X109433333Y-75638095D01*
X109395238Y-75714286D01*
X109395238Y-75828571D01*
X109433333Y-75904762D01*
X109471428Y-75942857D01*
X109547619Y-75980952D01*
X109852381Y-75980952D01*
X108633333Y-76361905D02*
X109090476Y-76361905D01*
X108861905Y-76361905D02*
X108861905Y-75561905D01*
X108938095Y-75676190D01*
X109014286Y-75752381D01*
X109090476Y-75790476D01*
X108138095Y-75561905D02*
X108061904Y-75561905D01*
X107985714Y-75600000D01*
X107947619Y-75638095D01*
X107909523Y-75714286D01*
X107871428Y-75866667D01*
X107871428Y-76057143D01*
X107909523Y-76209524D01*
X107947619Y-76285714D01*
X107985714Y-76323810D01*
X108061904Y-76361905D01*
X108138095Y-76361905D01*
X108214285Y-76323810D01*
X108252381Y-76285714D01*
X108290476Y-76209524D01*
X108328571Y-76057143D01*
X108328571Y-75866667D01*
X108290476Y-75714286D01*
X108252381Y-75638095D01*
X108214285Y-75600000D01*
X108138095Y-75561905D01*
X107490476Y-76361905D02*
X107338095Y-76361905D01*
X107261904Y-76323810D01*
X107223809Y-76285714D01*
X107147618Y-76171429D01*
X107109523Y-76019048D01*
X107109523Y-75714286D01*
X107147618Y-75638095D01*
X107185714Y-75600000D01*
X107261904Y-75561905D01*
X107414285Y-75561905D01*
X107490476Y-75600000D01*
X107528571Y-75638095D01*
X107566666Y-75714286D01*
X107566666Y-75904762D01*
X107528571Y-75980952D01*
X107490476Y-76019048D01*
X107414285Y-76057143D01*
X107261904Y-76057143D01*
X107185714Y-76019048D01*
X107147618Y-75980952D01*
X107109523Y-75904762D01*
X109264286Y-70035714D02*
X109302381Y-70073810D01*
X109416667Y-70111905D01*
X109492857Y-70111905D01*
X109607143Y-70073810D01*
X109683334Y-69997619D01*
X109721429Y-69921429D01*
X109759524Y-69769048D01*
X109759524Y-69654762D01*
X109721429Y-69502381D01*
X109683334Y-69426190D01*
X109607143Y-69350000D01*
X109492857Y-69311905D01*
X109416667Y-69311905D01*
X109302381Y-69350000D01*
X109264286Y-69388095D01*
X108807143Y-69654762D02*
X108883334Y-69616667D01*
X108921429Y-69578571D01*
X108959524Y-69502381D01*
X108959524Y-69464286D01*
X108921429Y-69388095D01*
X108883334Y-69350000D01*
X108807143Y-69311905D01*
X108654762Y-69311905D01*
X108578572Y-69350000D01*
X108540476Y-69388095D01*
X108502381Y-69464286D01*
X108502381Y-69502381D01*
X108540476Y-69578571D01*
X108578572Y-69616667D01*
X108654762Y-69654762D01*
X108807143Y-69654762D01*
X108883334Y-69692857D01*
X108921429Y-69730952D01*
X108959524Y-69807143D01*
X108959524Y-69959524D01*
X108921429Y-70035714D01*
X108883334Y-70073810D01*
X108807143Y-70111905D01*
X108654762Y-70111905D01*
X108578572Y-70073810D01*
X108540476Y-70035714D01*
X108502381Y-69959524D01*
X108502381Y-69807143D01*
X108540476Y-69730952D01*
X108578572Y-69692857D01*
X108654762Y-69654762D01*
X108197619Y-69388095D02*
X108159524Y-69350000D01*
X108083333Y-69311905D01*
X107892857Y-69311905D01*
X107816667Y-69350000D01*
X107778571Y-69388095D01*
X107740476Y-69464286D01*
X107740476Y-69540476D01*
X107778571Y-69654762D01*
X108235714Y-70111905D01*
X107740476Y-70111905D01*
%LPC*%
D13*
X138357143Y-126392857D02*
X138571429Y-126464286D01*
X138642857Y-126535714D01*
X138714286Y-126678571D01*
X138714286Y-126892857D01*
X138642857Y-127035714D01*
X138571429Y-127107143D01*
X138428571Y-127178571D01*
X137857143Y-127178571D01*
X137857143Y-125678571D01*
X138357143Y-125678571D01*
X138500000Y-125750000D01*
X138571429Y-125821429D01*
X138642857Y-125964286D01*
X138642857Y-126107143D01*
X138571429Y-126250000D01*
X138500000Y-126321429D01*
X138357143Y-126392857D01*
X137857143Y-126392857D01*
X139642857Y-125678571D02*
X139928571Y-125678571D01*
X140071429Y-125750000D01*
X140214286Y-125892857D01*
X140285714Y-126178571D01*
X140285714Y-126678571D01*
X140214286Y-126964286D01*
X140071429Y-127107143D01*
X139928571Y-127178571D01*
X139642857Y-127178571D01*
X139500000Y-127107143D01*
X139357143Y-126964286D01*
X139285714Y-126678571D01*
X139285714Y-126178571D01*
X139357143Y-125892857D01*
X139500000Y-125750000D01*
X139642857Y-125678571D01*
X140714286Y-125678571D02*
X141571429Y-125678571D01*
X141142858Y-127178571D02*
X141142858Y-125678571D01*
X142071429Y-127178571D02*
X142071429Y-125678571D01*
X142571429Y-126750000D01*
X143071429Y-125678571D01*
X143071429Y-127178571D01*
X143714286Y-126750000D02*
X144428572Y-126750000D01*
X143571429Y-127178571D02*
X144071429Y-125678571D01*
X144571429Y-127178571D01*
X145000000Y-127107143D02*
X145214286Y-127178571D01*
X145571429Y-127178571D01*
X145714286Y-127107143D01*
X145785715Y-127035714D01*
X145857143Y-126892857D01*
X145857143Y-126750000D01*
X145785715Y-126607143D01*
X145714286Y-126535714D01*
X145571429Y-126464286D01*
X145285715Y-126392857D01*
X145142857Y-126321429D01*
X145071429Y-126250000D01*
X145000000Y-126107143D01*
X145000000Y-125964286D01*
X145071429Y-125821429D01*
X145142857Y-125750000D01*
X145285715Y-125678571D01*
X145642857Y-125678571D01*
X145857143Y-125750000D01*
X146500000Y-127178571D02*
X146500000Y-125678571D01*
X147357143Y-127178571D02*
X146714286Y-126321429D01*
X147357143Y-125678571D02*
X146500000Y-126535714D01*
D18*
X109190000Y-90385000D03*
X116810000Y-89369000D03*
X116810000Y-91401000D03*
D19*
X109190000Y-87845000D03*
X109190000Y-92925000D03*
X114905000Y-92925000D03*
X114905000Y-87845000D03*
D20*
X85800000Y-71100000D03*
X101000000Y-95000000D03*
D21*
X100000000Y-112500000D03*
D22*
X100000000Y-118500000D03*
D23*
X85000000Y-35000000D03*
D24*
X87250000Y-35000000D03*
X86125000Y-36949000D03*
X83875000Y-36949000D03*
X82750000Y-35000000D03*
X83875000Y-33051000D03*
X86125000Y-33051000D03*
D23*
X85000000Y-115000000D03*
D24*
X87250000Y-115000000D03*
X86125000Y-116949000D03*
X83875000Y-116949000D03*
X82750000Y-115000000D03*
X83875000Y-113051000D03*
X86125000Y-113051000D03*
D23*
X165000000Y-115000000D03*
D24*
X167250000Y-115000000D03*
X166125000Y-116949000D03*
X163875000Y-116949000D03*
X162750000Y-115000000D03*
X163875000Y-113051000D03*
X166125000Y-113051000D03*
D23*
X165000000Y-35000000D03*
D24*
X167250000Y-35000000D03*
X166125000Y-36949000D03*
X163875000Y-36949000D03*
X162750000Y-35000000D03*
X163875000Y-33051000D03*
X166125000Y-33051000D03*
D25*
X131100000Y-79750000D03*
X132900000Y-79750000D03*
X155600000Y-79500000D03*
X157400000Y-79500000D03*
D26*
X160000000Y-108100000D03*
X160000000Y-109900000D03*
X164000000Y-108900000D03*
X164000000Y-107100000D03*
D27*
X156500000Y-107550000D03*
X156500000Y-110450000D03*
X166250000Y-109450000D03*
X166250000Y-106550000D03*
D28*
X137850000Y-110050000D03*
X137850000Y-111950000D03*
D29*
X135650000Y-111000000D03*
D28*
X137850000Y-106300000D03*
X137850000Y-108200000D03*
D29*
X135650000Y-107250000D03*
D30*
X82500000Y-123500000D03*
X89500000Y-123500000D03*
D31*
X83500000Y-120800000D03*
X88500000Y-120800000D03*
D32*
X149000000Y-46500000D03*
X149000000Y-41500000D03*
X123000000Y-46500000D03*
X123000000Y-41500000D03*
D20*
X99000000Y-100500000D03*
X99000000Y-98500000D03*
D32*
X128000000Y-120000000D03*
D33*
X125450000Y-117450000D03*
X130550000Y-117450000D03*
X125450000Y-122550000D03*
X130550000Y-122550000D03*
D32*
X143500000Y-120000000D03*
D33*
X140950000Y-117450000D03*
X146050000Y-117450000D03*
X140950000Y-122550000D03*
X146050000Y-122550000D03*
D32*
X158000000Y-120000000D03*
D33*
X155450000Y-117450000D03*
X160550000Y-117450000D03*
X155450000Y-122550000D03*
X160550000Y-122550000D03*
D34*
X95570000Y-56524000D03*
D35*
X98110000Y-56524000D03*
X100650000Y-56524000D03*
X103190000Y-56524000D03*
X105730000Y-56524000D03*
X108270000Y-56524000D03*
X110810000Y-56524000D03*
X113350000Y-56524000D03*
X115890000Y-56524000D03*
X118430000Y-56524000D03*
X95570000Y-53476000D03*
X98110000Y-53476000D03*
X100650000Y-53476000D03*
X103190000Y-53476000D03*
X105730000Y-53476000D03*
X108270000Y-53476000D03*
X110810000Y-53476000D03*
X113350000Y-53476000D03*
X115890000Y-53476000D03*
X118430000Y-53476000D03*
D34*
X108150000Y-121000000D03*
D35*
X110690000Y-121000000D03*
X113230000Y-121000000D03*
X115770000Y-121000000D03*
X118310000Y-121000000D03*
X120850000Y-121000000D03*
D20*
X127000000Y-66000000D03*
X125000000Y-64500000D03*
X127000000Y-63500000D03*
X127000000Y-61500000D03*
X125000000Y-66750000D03*
X125000000Y-62500000D03*
X129000000Y-54500000D03*
D36*
X128500000Y-80750000D03*
X128500000Y-79250000D03*
X153000000Y-80750000D03*
X153000000Y-79250000D03*
D37*
X129750000Y-81750000D03*
X131250000Y-81750000D03*
X132750000Y-81750000D03*
X134250000Y-81750000D03*
X154250000Y-81750000D03*
X155750000Y-81750000D03*
X157250000Y-81750000D03*
X158750000Y-81750000D03*
D36*
X164500000Y-100250000D03*
X164500000Y-98750000D03*
D26*
X167500000Y-100400000D03*
X167500000Y-98600000D03*
D36*
X159500000Y-101500000D03*
X159500000Y-103000000D03*
D26*
X157500000Y-101350000D03*
X157500000Y-103150000D03*
D37*
X85250000Y-120750000D03*
X86750000Y-120750000D03*
D38*
X147500000Y-104250000D03*
X146000000Y-104250000D03*
X147500000Y-106000000D03*
X146000000Y-106000000D03*
D37*
X136750000Y-102250000D03*
X138250000Y-102250000D03*
X135250000Y-102250000D03*
X133750000Y-102250000D03*
D38*
X134250000Y-110000000D03*
X132750000Y-110000000D03*
D39*
X140000000Y-108000000D03*
X140000000Y-106500000D03*
D26*
X95750000Y-72600000D03*
X95750000Y-74400000D03*
X109250000Y-79850000D03*
X109250000Y-81650000D03*
X96000000Y-78350000D03*
X96000000Y-80150000D03*
D40*
X107750000Y-77950000D03*
X107750000Y-79550000D03*
X95000000Y-69500000D03*
X95000000Y-71100000D03*
D38*
X106250000Y-76000000D03*
X104750000Y-76000000D03*
D37*
X106750000Y-69750000D03*
X105250000Y-69750000D03*
D41*
X164230000Y-121500000D03*
D42*
X166770000Y-121500000D03*
D43*
G36*
X81127000Y-119127000D02*
X80127000Y-119127000D01*
X80127000Y-124877000D01*
X75123000Y-124877000D01*
X75123000Y-124000000D01*
X75123000Y-25123000D01*
X81127000Y-25123000D01*
X81127000Y-119127000D01*
X81127000Y-119127000D01*
G37*
X81127000Y-119127000D02*
X80127000Y-119127000D01*
X80127000Y-124877000D01*
X75123000Y-124877000D01*
X75123000Y-124000000D01*
X75123000Y-25123000D01*
X81127000Y-25123000D01*
X81127000Y-119127000D01*
G36*
X174877000Y-124877000D02*
X168873000Y-124877000D01*
X168873000Y-25123000D01*
X174877000Y-25123000D01*
X174877000Y-124877000D01*
X174877000Y-124877000D01*
G37*
X174877000Y-124877000D02*
X168873000Y-124877000D01*
X168873000Y-25123000D01*
X174877000Y-25123000D01*
X174877000Y-124877000D01*
D13*
G36*
X163150000Y-108350000D02*
X160850000Y-108350000D01*
X160850000Y-105650000D01*
X163150000Y-105650000D01*
X163150000Y-108350000D01*
X163150000Y-108350000D01*
G37*
X163150000Y-108350000D02*
X160850000Y-108350000D01*
X160850000Y-105650000D01*
X163150000Y-105650000D01*
X163150000Y-108350000D01*
D11*
G36*
X163350000Y-102850000D02*
X161226393Y-102850000D01*
X160650000Y-102561803D01*
X160650000Y-99150000D01*
X163350000Y-99150000D01*
X163350000Y-102850000D01*
X163350000Y-102850000D01*
G37*
X163350000Y-102850000D02*
X161226393Y-102850000D01*
X160650000Y-102561803D01*
X160650000Y-99150000D01*
X163350000Y-99150000D01*
X163350000Y-102850000D01*
G36*
X147350000Y-69850000D02*
X140650000Y-69850000D01*
X140650000Y-63150000D01*
X147350000Y-63150000D01*
X147350000Y-69850000D01*
X147350000Y-69850000D01*
G37*
X147350000Y-69850000D02*
X140650000Y-69850000D01*
X140650000Y-63150000D01*
X147350000Y-63150000D01*
X147350000Y-69850000D01*
M02*
