G04 #@! TF.FileFunction,Soldermask,Bot*
%FSLAX46Y46*%
G04 Gerber Fmt 4.6, Leading zero omitted, Abs format (unit mm)*
G04 Created by KiCad (PCBNEW (2015-03-11 BZR 5506)-product) date Wed 11 Mar 2015 07:23:38 PM EDT*
%MOMM*%
G01*
G04 APERTURE LIST*
%ADD10C,0.100000*%
%ADD11C,0.300000*%
G04 APERTURE END LIST*
D10*
D11*
X138357143Y-126392857D02*
X138571429Y-126464286D01*
X138642857Y-126535714D01*
X138714286Y-126678571D01*
X138714286Y-126892857D01*
X138642857Y-127035714D01*
X138571429Y-127107143D01*
X138428571Y-127178571D01*
X137857143Y-127178571D01*
X137857143Y-125678571D01*
X138357143Y-125678571D01*
X138500000Y-125750000D01*
X138571429Y-125821429D01*
X138642857Y-125964286D01*
X138642857Y-126107143D01*
X138571429Y-126250000D01*
X138500000Y-126321429D01*
X138357143Y-126392857D01*
X137857143Y-126392857D01*
X139642857Y-125678571D02*
X139928571Y-125678571D01*
X140071429Y-125750000D01*
X140214286Y-125892857D01*
X140285714Y-126178571D01*
X140285714Y-126678571D01*
X140214286Y-126964286D01*
X140071429Y-127107143D01*
X139928571Y-127178571D01*
X139642857Y-127178571D01*
X139500000Y-127107143D01*
X139357143Y-126964286D01*
X139285714Y-126678571D01*
X139285714Y-126178571D01*
X139357143Y-125892857D01*
X139500000Y-125750000D01*
X139642857Y-125678571D01*
X140714286Y-125678571D02*
X141571429Y-125678571D01*
X141142858Y-127178571D02*
X141142858Y-125678571D01*
X142071429Y-127178571D02*
X142071429Y-125678571D01*
X142571429Y-126750000D01*
X143071429Y-125678571D01*
X143071429Y-127178571D01*
X143714286Y-126750000D02*
X144428572Y-126750000D01*
X143571429Y-127178571D02*
X144071429Y-125678571D01*
X144571429Y-127178571D01*
X145000000Y-127107143D02*
X145214286Y-127178571D01*
X145571429Y-127178571D01*
X145714286Y-127107143D01*
X145785715Y-127035714D01*
X145857143Y-126892857D01*
X145857143Y-126750000D01*
X145785715Y-126607143D01*
X145714286Y-126535714D01*
X145571429Y-126464286D01*
X145285715Y-126392857D01*
X145142857Y-126321429D01*
X145071429Y-126250000D01*
X145000000Y-126107143D01*
X145000000Y-125964286D01*
X145071429Y-125821429D01*
X145142857Y-125750000D01*
X145285715Y-125678571D01*
X145642857Y-125678571D01*
X145857143Y-125750000D01*
X146500000Y-127178571D02*
X146500000Y-125678571D01*
X147357143Y-127178571D02*
X146714286Y-126321429D01*
X147357143Y-125678571D02*
X146500000Y-126535714D01*
D10*
G36*
X81300000Y-119300000D02*
X80300000Y-119300000D01*
X80300000Y-125050000D01*
X74950000Y-125050000D01*
X74950000Y-124000000D01*
X74950000Y-24950000D01*
X81300000Y-24950000D01*
X81300000Y-119300000D01*
X81300000Y-119300000D01*
G37*
G36*
X83278736Y-123505406D02*
X83262935Y-123655737D01*
X83262929Y-123655755D01*
X83262921Y-123655835D01*
X83218194Y-123800325D01*
X83146254Y-123933375D01*
X83049842Y-124049917D01*
X82932628Y-124145514D01*
X82799080Y-124216523D01*
X82654282Y-124260240D01*
X82503750Y-124275000D01*
X82499341Y-124275000D01*
X82496250Y-124275000D01*
X82496175Y-124275000D01*
X82489485Y-124274953D01*
X82489480Y-124274952D01*
X82485429Y-124274924D01*
X82335118Y-124258064D01*
X82190945Y-124212330D01*
X82058401Y-124139463D01*
X81942534Y-124042239D01*
X81847758Y-123924361D01*
X81777683Y-123790320D01*
X81734977Y-123645221D01*
X81734970Y-123645154D01*
X81734964Y-123645131D01*
X81721264Y-123494594D01*
X81737065Y-123344263D01*
X81737070Y-123344244D01*
X81737079Y-123344165D01*
X81781806Y-123199675D01*
X81853746Y-123066625D01*
X81950158Y-122950083D01*
X82067372Y-122854486D01*
X82200920Y-122783477D01*
X82345718Y-122739760D01*
X82496250Y-122725000D01*
X82500659Y-122725000D01*
X82503750Y-122725000D01*
X82503825Y-122725000D01*
X82510515Y-122725047D01*
X82510519Y-122725047D01*
X82514571Y-122725076D01*
X82664882Y-122741936D01*
X82809055Y-122787670D01*
X82941599Y-122860537D01*
X83057466Y-122957761D01*
X83152242Y-123075639D01*
X83222317Y-123209680D01*
X83265023Y-123354779D01*
X83265029Y-123354845D01*
X83265036Y-123354869D01*
X83278736Y-123505406D01*
X83278736Y-123505406D01*
G37*
G36*
X84128013Y-120804358D02*
X84115273Y-120925577D01*
X84115267Y-120925595D01*
X84115259Y-120925674D01*
X84079188Y-121042197D01*
X84021172Y-121149496D01*
X83943420Y-121243482D01*
X83848894Y-121320576D01*
X83741193Y-121377841D01*
X83624420Y-121413097D01*
X83503024Y-121425000D01*
X83498614Y-121425000D01*
X83496976Y-121425000D01*
X83496908Y-121425000D01*
X83492307Y-121424968D01*
X83492300Y-121424967D01*
X83488250Y-121424939D01*
X83367031Y-121411342D01*
X83250762Y-121374460D01*
X83143872Y-121315696D01*
X83050431Y-121237290D01*
X82973998Y-121142227D01*
X82917486Y-121034129D01*
X82883046Y-120917113D01*
X82883039Y-120917046D01*
X82883033Y-120917023D01*
X82871987Y-120795642D01*
X82884727Y-120674423D01*
X82884732Y-120674404D01*
X82884741Y-120674326D01*
X82920812Y-120557803D01*
X82978828Y-120450504D01*
X83056580Y-120356518D01*
X83151106Y-120279424D01*
X83258807Y-120222159D01*
X83375580Y-120186903D01*
X83496976Y-120175000D01*
X83501386Y-120175000D01*
X83503024Y-120175000D01*
X83503092Y-120175000D01*
X83507693Y-120175032D01*
X83507699Y-120175032D01*
X83511750Y-120175061D01*
X83632969Y-120188658D01*
X83749238Y-120225540D01*
X83856128Y-120284304D01*
X83949569Y-120362710D01*
X84026002Y-120457773D01*
X84082514Y-120565871D01*
X84116954Y-120682887D01*
X84116960Y-120682953D01*
X84116967Y-120682977D01*
X84128013Y-120804358D01*
X84128013Y-120804358D01*
G37*
G36*
X85700000Y-121225000D02*
X84800000Y-121225000D01*
X84800000Y-120275000D01*
X85700000Y-120275000D01*
X85700000Y-121225000D01*
X85700000Y-121225000D01*
G37*
G36*
X86400026Y-71041167D02*
X86398149Y-71175564D01*
X86397998Y-71176227D01*
X86397998Y-71176251D01*
X86372084Y-71290309D01*
X86324226Y-71397798D01*
X86256396Y-71493954D01*
X86171186Y-71575098D01*
X86071837Y-71638146D01*
X85962136Y-71680697D01*
X85846253Y-71701131D01*
X85728612Y-71698666D01*
X85613691Y-71673400D01*
X85505866Y-71626292D01*
X85409245Y-71559138D01*
X85327506Y-71474495D01*
X85263764Y-71375587D01*
X85220448Y-71266183D01*
X85199207Y-71150450D01*
X85200850Y-71032797D01*
X85225314Y-70917700D01*
X85271669Y-70809545D01*
X85338147Y-70712458D01*
X85422216Y-70630131D01*
X85520674Y-70565702D01*
X85629772Y-70521623D01*
X85745356Y-70499574D01*
X85863026Y-70500396D01*
X85978285Y-70524055D01*
X86086755Y-70569652D01*
X86184310Y-70635453D01*
X86267220Y-70718944D01*
X86332334Y-70816950D01*
X86377176Y-70925744D01*
X86399893Y-71040474D01*
X86399892Y-71040493D01*
X86400026Y-71041167D01*
X86400026Y-71041167D01*
G37*
G36*
X87200000Y-121225000D02*
X86300000Y-121225000D01*
X86300000Y-120275000D01*
X87200000Y-120275000D01*
X87200000Y-121225000D01*
X87200000Y-121225000D01*
G37*
G36*
X88000129Y-34705835D02*
X87990746Y-35377819D01*
X87990594Y-35378486D01*
X87990594Y-35378506D01*
X87860407Y-35951528D01*
X87621108Y-36489003D01*
X87281979Y-36969748D01*
X86855925Y-37375473D01*
X86359176Y-37690720D01*
X85810668Y-37903472D01*
X85231270Y-38005636D01*
X84643069Y-37993315D01*
X84068461Y-37866979D01*
X83529337Y-37631442D01*
X83046231Y-37295674D01*
X82637541Y-36872463D01*
X82318836Y-36377930D01*
X82102257Y-35830913D01*
X81996052Y-35252247D01*
X82004266Y-34663977D01*
X82126587Y-34088501D01*
X82358357Y-33547741D01*
X82690745Y-33062303D01*
X83111090Y-32650669D01*
X83603383Y-32328522D01*
X84148873Y-32108129D01*
X84726786Y-31997886D01*
X85315103Y-32001994D01*
X85891421Y-32120295D01*
X86433778Y-32348281D01*
X86921530Y-32677273D01*
X87336086Y-33094734D01*
X87661662Y-33584766D01*
X87885859Y-34128708D01*
X87999996Y-34705145D01*
X87999995Y-34705162D01*
X88000129Y-34705835D01*
X88000129Y-34705835D01*
G37*
G36*
X88000129Y-114705835D02*
X87990746Y-115377819D01*
X87990594Y-115378486D01*
X87990594Y-115378506D01*
X87860407Y-115951528D01*
X87621108Y-116489003D01*
X87281979Y-116969748D01*
X86855925Y-117375473D01*
X86359176Y-117690720D01*
X85810668Y-117903472D01*
X85231270Y-118005636D01*
X84643069Y-117993315D01*
X84068461Y-117866979D01*
X83529337Y-117631442D01*
X83046231Y-117295674D01*
X82637541Y-116872463D01*
X82318836Y-116377930D01*
X82102257Y-115830913D01*
X81996052Y-115252247D01*
X82004266Y-114663977D01*
X82126587Y-114088501D01*
X82358357Y-113547741D01*
X82690745Y-113062303D01*
X83111090Y-112650669D01*
X83603383Y-112328522D01*
X84148873Y-112108129D01*
X84726786Y-111997886D01*
X85315103Y-112001994D01*
X85891421Y-112120295D01*
X86433778Y-112348281D01*
X86921530Y-112677273D01*
X87336086Y-113094734D01*
X87661662Y-113584766D01*
X87885859Y-114128708D01*
X87999996Y-114705145D01*
X87999995Y-114705162D01*
X88000129Y-114705835D01*
X88000129Y-114705835D01*
G37*
G36*
X89128013Y-120804358D02*
X89115273Y-120925577D01*
X89115267Y-120925595D01*
X89115259Y-120925674D01*
X89079188Y-121042197D01*
X89021172Y-121149496D01*
X88943420Y-121243482D01*
X88848894Y-121320576D01*
X88741193Y-121377841D01*
X88624420Y-121413097D01*
X88503024Y-121425000D01*
X88498614Y-121425000D01*
X88496976Y-121425000D01*
X88496908Y-121425000D01*
X88492307Y-121424968D01*
X88492300Y-121424967D01*
X88488250Y-121424939D01*
X88367031Y-121411342D01*
X88250762Y-121374460D01*
X88143872Y-121315696D01*
X88050431Y-121237290D01*
X87973998Y-121142227D01*
X87917486Y-121034129D01*
X87883046Y-120917113D01*
X87883039Y-120917046D01*
X87883033Y-120917023D01*
X87871987Y-120795642D01*
X87884727Y-120674423D01*
X87884732Y-120674404D01*
X87884741Y-120674326D01*
X87920812Y-120557803D01*
X87978828Y-120450504D01*
X88056580Y-120356518D01*
X88151106Y-120279424D01*
X88258807Y-120222159D01*
X88375580Y-120186903D01*
X88496976Y-120175000D01*
X88501386Y-120175000D01*
X88503024Y-120175000D01*
X88503092Y-120175000D01*
X88507693Y-120175032D01*
X88507699Y-120175032D01*
X88511750Y-120175061D01*
X88632969Y-120188658D01*
X88749238Y-120225540D01*
X88856128Y-120284304D01*
X88949569Y-120362710D01*
X89026002Y-120457773D01*
X89082514Y-120565871D01*
X89116954Y-120682887D01*
X89116960Y-120682953D01*
X89116967Y-120682977D01*
X89128013Y-120804358D01*
X89128013Y-120804358D01*
G37*
G36*
X90278736Y-123505406D02*
X90262935Y-123655737D01*
X90262929Y-123655755D01*
X90262921Y-123655835D01*
X90218194Y-123800325D01*
X90146254Y-123933375D01*
X90049842Y-124049917D01*
X89932628Y-124145514D01*
X89799080Y-124216523D01*
X89654282Y-124260240D01*
X89503750Y-124275000D01*
X89499341Y-124275000D01*
X89496250Y-124275000D01*
X89496175Y-124275000D01*
X89489485Y-124274953D01*
X89489480Y-124274952D01*
X89485429Y-124274924D01*
X89335118Y-124258064D01*
X89190945Y-124212330D01*
X89058401Y-124139463D01*
X88942534Y-124042239D01*
X88847758Y-123924361D01*
X88777683Y-123790320D01*
X88734977Y-123645221D01*
X88734970Y-123645154D01*
X88734964Y-123645131D01*
X88721264Y-123494594D01*
X88737065Y-123344263D01*
X88737070Y-123344244D01*
X88737079Y-123344165D01*
X88781806Y-123199675D01*
X88853746Y-123066625D01*
X88950158Y-122950083D01*
X89067372Y-122854486D01*
X89200920Y-122783477D01*
X89345718Y-122739760D01*
X89496250Y-122725000D01*
X89500659Y-122725000D01*
X89503750Y-122725000D01*
X89503825Y-122725000D01*
X89510515Y-122725047D01*
X89510519Y-122725047D01*
X89514571Y-122725076D01*
X89664882Y-122741936D01*
X89809055Y-122787670D01*
X89941599Y-122860537D01*
X90057466Y-122957761D01*
X90152242Y-123075639D01*
X90222317Y-123209680D01*
X90265023Y-123354779D01*
X90265029Y-123354845D01*
X90265036Y-123354869D01*
X90278736Y-123505406D01*
X90278736Y-123505406D01*
G37*
G36*
X95500000Y-69975000D02*
X94500000Y-69975000D01*
X94500000Y-69025000D01*
X95500000Y-69025000D01*
X95500000Y-69975000D01*
X95500000Y-69975000D01*
G37*
G36*
X95500000Y-71575000D02*
X94500000Y-71575000D01*
X94500000Y-70625000D01*
X95500000Y-70625000D01*
X95500000Y-71575000D01*
X95500000Y-71575000D01*
G37*
G36*
X96332000Y-53862603D02*
X96331955Y-53869112D01*
X96331954Y-53869119D01*
X96331926Y-53873169D01*
X96315348Y-54020959D01*
X96270381Y-54162714D01*
X96198736Y-54293035D01*
X96103143Y-54406958D01*
X95987243Y-54500144D01*
X95855450Y-54569044D01*
X95712785Y-54611033D01*
X95712720Y-54611038D01*
X95712693Y-54611047D01*
X95564685Y-54624516D01*
X95416877Y-54608981D01*
X95416854Y-54608973D01*
X95416779Y-54608966D01*
X95274713Y-54564990D01*
X95143895Y-54494257D01*
X95029307Y-54399461D01*
X94935314Y-54284214D01*
X94865496Y-54152906D01*
X94822512Y-54010537D01*
X94808000Y-53862530D01*
X94808000Y-53858121D01*
X94808000Y-53089470D01*
X94808000Y-53089397D01*
X94808045Y-53082888D01*
X94808045Y-53082880D01*
X94808074Y-53078831D01*
X94824652Y-52931041D01*
X94869619Y-52789286D01*
X94941264Y-52658965D01*
X95036857Y-52545042D01*
X95152757Y-52451856D01*
X95284550Y-52382956D01*
X95427215Y-52340967D01*
X95427279Y-52340961D01*
X95427307Y-52340953D01*
X95575315Y-52327484D01*
X95723123Y-52343019D01*
X95723145Y-52343026D01*
X95723221Y-52343034D01*
X95865287Y-52387010D01*
X95996105Y-52457743D01*
X96110693Y-52552539D01*
X96204686Y-52667786D01*
X96274504Y-52799094D01*
X96317488Y-52941463D01*
X96332000Y-53089470D01*
X96332000Y-53093879D01*
X96332000Y-53862530D01*
X96332000Y-53862603D01*
X96332000Y-53862603D01*
G37*
G36*
X96332000Y-57667000D02*
X94808000Y-57667000D01*
X94808000Y-55381000D01*
X96332000Y-55381000D01*
X96332000Y-57667000D01*
X96332000Y-57667000D01*
G37*
G36*
X96475000Y-73175000D02*
X95025000Y-73175000D01*
X95025000Y-72025000D01*
X96475000Y-72025000D01*
X96475000Y-73175000D01*
X96475000Y-73175000D01*
G37*
G36*
X96475000Y-74975000D02*
X95025000Y-74975000D01*
X95025000Y-73825000D01*
X96475000Y-73825000D01*
X96475000Y-74975000D01*
X96475000Y-74975000D01*
G37*
G36*
X96725000Y-78925000D02*
X95275000Y-78925000D01*
X95275000Y-77775000D01*
X96725000Y-77775000D01*
X96725000Y-78925000D01*
X96725000Y-78925000D01*
G37*
G36*
X96725000Y-80725000D02*
X95275000Y-80725000D01*
X95275000Y-79575000D01*
X96725000Y-79575000D01*
X96725000Y-80725000D01*
X96725000Y-80725000D01*
G37*
G36*
X98872000Y-53862603D02*
X98871955Y-53869112D01*
X98871954Y-53869119D01*
X98871926Y-53873169D01*
X98855348Y-54020959D01*
X98810381Y-54162714D01*
X98738736Y-54293035D01*
X98643143Y-54406958D01*
X98527243Y-54500144D01*
X98395450Y-54569044D01*
X98252785Y-54611033D01*
X98252720Y-54611038D01*
X98252693Y-54611047D01*
X98104685Y-54624516D01*
X97956877Y-54608981D01*
X97956854Y-54608973D01*
X97956779Y-54608966D01*
X97814713Y-54564990D01*
X97683895Y-54494257D01*
X97569307Y-54399461D01*
X97475314Y-54284214D01*
X97405496Y-54152906D01*
X97362512Y-54010537D01*
X97348000Y-53862530D01*
X97348000Y-53858121D01*
X97348000Y-53089470D01*
X97348000Y-53089397D01*
X97348045Y-53082888D01*
X97348045Y-53082880D01*
X97348074Y-53078831D01*
X97364652Y-52931041D01*
X97409619Y-52789286D01*
X97481264Y-52658965D01*
X97576857Y-52545042D01*
X97692757Y-52451856D01*
X97824550Y-52382956D01*
X97967215Y-52340967D01*
X97967279Y-52340961D01*
X97967307Y-52340953D01*
X98115315Y-52327484D01*
X98263123Y-52343019D01*
X98263145Y-52343026D01*
X98263221Y-52343034D01*
X98405287Y-52387010D01*
X98536105Y-52457743D01*
X98650693Y-52552539D01*
X98744686Y-52667786D01*
X98814504Y-52799094D01*
X98857488Y-52941463D01*
X98872000Y-53089470D01*
X98872000Y-53093879D01*
X98872000Y-53862530D01*
X98872000Y-53862603D01*
X98872000Y-53862603D01*
G37*
G36*
X98872000Y-56910603D02*
X98871955Y-56917112D01*
X98871954Y-56917119D01*
X98871926Y-56921169D01*
X98855348Y-57068959D01*
X98810381Y-57210714D01*
X98738736Y-57341035D01*
X98643143Y-57454958D01*
X98527243Y-57548144D01*
X98395450Y-57617044D01*
X98252785Y-57659033D01*
X98252720Y-57659038D01*
X98252693Y-57659047D01*
X98104685Y-57672516D01*
X97956877Y-57656981D01*
X97956854Y-57656973D01*
X97956779Y-57656966D01*
X97814713Y-57612990D01*
X97683895Y-57542257D01*
X97569307Y-57447461D01*
X97475314Y-57332214D01*
X97405496Y-57200906D01*
X97362512Y-57058537D01*
X97348000Y-56910530D01*
X97348000Y-56906121D01*
X97348000Y-56137470D01*
X97348000Y-56137397D01*
X97348045Y-56130888D01*
X97348045Y-56130880D01*
X97348074Y-56126831D01*
X97364652Y-55979041D01*
X97409619Y-55837286D01*
X97481264Y-55706965D01*
X97576857Y-55593042D01*
X97692757Y-55499856D01*
X97824550Y-55430956D01*
X97967215Y-55388967D01*
X97967279Y-55388961D01*
X97967307Y-55388953D01*
X98115315Y-55375484D01*
X98263123Y-55391019D01*
X98263145Y-55391026D01*
X98263221Y-55391034D01*
X98405287Y-55435010D01*
X98536105Y-55505743D01*
X98650693Y-55600539D01*
X98744686Y-55715786D01*
X98814504Y-55847094D01*
X98857488Y-55989463D01*
X98872000Y-56137470D01*
X98872000Y-56141879D01*
X98872000Y-56910530D01*
X98872000Y-56910603D01*
X98872000Y-56910603D01*
G37*
G36*
X101412000Y-53862603D02*
X101411955Y-53869112D01*
X101411954Y-53869119D01*
X101411926Y-53873169D01*
X101395348Y-54020959D01*
X101350381Y-54162714D01*
X101278736Y-54293035D01*
X101183143Y-54406958D01*
X101067243Y-54500144D01*
X100935450Y-54569044D01*
X100792785Y-54611033D01*
X100792720Y-54611038D01*
X100792693Y-54611047D01*
X100644685Y-54624516D01*
X100496877Y-54608981D01*
X100496854Y-54608973D01*
X100496779Y-54608966D01*
X100354713Y-54564990D01*
X100223895Y-54494257D01*
X100109307Y-54399461D01*
X100015314Y-54284214D01*
X99945496Y-54152906D01*
X99902512Y-54010537D01*
X99888000Y-53862530D01*
X99888000Y-53858121D01*
X99888000Y-53089470D01*
X99888000Y-53089397D01*
X99888045Y-53082888D01*
X99888045Y-53082880D01*
X99888074Y-53078831D01*
X99904652Y-52931041D01*
X99949619Y-52789286D01*
X100021264Y-52658965D01*
X100116857Y-52545042D01*
X100232757Y-52451856D01*
X100364550Y-52382956D01*
X100507215Y-52340967D01*
X100507279Y-52340961D01*
X100507307Y-52340953D01*
X100655315Y-52327484D01*
X100803123Y-52343019D01*
X100803145Y-52343026D01*
X100803221Y-52343034D01*
X100945287Y-52387010D01*
X101076105Y-52457743D01*
X101190693Y-52552539D01*
X101284686Y-52667786D01*
X101354504Y-52799094D01*
X101397488Y-52941463D01*
X101412000Y-53089470D01*
X101412000Y-53093879D01*
X101412000Y-53862530D01*
X101412000Y-53862603D01*
X101412000Y-53862603D01*
G37*
G36*
X101412000Y-56910603D02*
X101411955Y-56917112D01*
X101411954Y-56917119D01*
X101411926Y-56921169D01*
X101395348Y-57068959D01*
X101350381Y-57210714D01*
X101278736Y-57341035D01*
X101183143Y-57454958D01*
X101067243Y-57548144D01*
X100935450Y-57617044D01*
X100792785Y-57659033D01*
X100792720Y-57659038D01*
X100792693Y-57659047D01*
X100644685Y-57672516D01*
X100496877Y-57656981D01*
X100496854Y-57656973D01*
X100496779Y-57656966D01*
X100354713Y-57612990D01*
X100223895Y-57542257D01*
X100109307Y-57447461D01*
X100015314Y-57332214D01*
X99945496Y-57200906D01*
X99902512Y-57058537D01*
X99888000Y-56910530D01*
X99888000Y-56906121D01*
X99888000Y-56137470D01*
X99888000Y-56137397D01*
X99888045Y-56130888D01*
X99888045Y-56130880D01*
X99888074Y-56126831D01*
X99904652Y-55979041D01*
X99949619Y-55837286D01*
X100021264Y-55706965D01*
X100116857Y-55593042D01*
X100232757Y-55499856D01*
X100364550Y-55430956D01*
X100507215Y-55388967D01*
X100507279Y-55388961D01*
X100507307Y-55388953D01*
X100655315Y-55375484D01*
X100803123Y-55391019D01*
X100803145Y-55391026D01*
X100803221Y-55391034D01*
X100945287Y-55435010D01*
X101076105Y-55505743D01*
X101190693Y-55600539D01*
X101284686Y-55715786D01*
X101354504Y-55847094D01*
X101397488Y-55989463D01*
X101412000Y-56137470D01*
X101412000Y-56141879D01*
X101412000Y-56910530D01*
X101412000Y-56910603D01*
X101412000Y-56910603D01*
G37*
G36*
X101600026Y-98441167D02*
X101598149Y-98575564D01*
X101597998Y-98576227D01*
X101597998Y-98576251D01*
X101572084Y-98690309D01*
X101524226Y-98797798D01*
X101456396Y-98893954D01*
X101371186Y-98975098D01*
X101271837Y-99038146D01*
X101162136Y-99080697D01*
X101046253Y-99101131D01*
X100928612Y-99098666D01*
X100813691Y-99073400D01*
X100705866Y-99026292D01*
X100609245Y-98959138D01*
X100527506Y-98874495D01*
X100463764Y-98775587D01*
X100420448Y-98666183D01*
X100399207Y-98550450D01*
X100400850Y-98432797D01*
X100425314Y-98317700D01*
X100471669Y-98209545D01*
X100538147Y-98112458D01*
X100622216Y-98030131D01*
X100720674Y-97965702D01*
X100829772Y-97921623D01*
X100945356Y-97899574D01*
X101063026Y-97900396D01*
X101178285Y-97924055D01*
X101286755Y-97969652D01*
X101384310Y-98035453D01*
X101467220Y-98118944D01*
X101532334Y-98216950D01*
X101577176Y-98325744D01*
X101599893Y-98440474D01*
X101599892Y-98440493D01*
X101600026Y-98441167D01*
X101600026Y-98441167D01*
G37*
G36*
X102250000Y-113500000D02*
X97750000Y-113500000D01*
X97750000Y-111500000D01*
X102250000Y-111500000D01*
X102250000Y-113500000D01*
X102250000Y-113500000D01*
G37*
G36*
X102512076Y-118506976D02*
X102491686Y-118700980D01*
X102491678Y-118701002D01*
X102491671Y-118701078D01*
X102433959Y-118887516D01*
X102341134Y-119059193D01*
X102216730Y-119209571D01*
X102065488Y-119332921D01*
X101893166Y-119424546D01*
X101706330Y-119480955D01*
X101512096Y-119500000D01*
X101507687Y-119500000D01*
X98487904Y-119500000D01*
X98487830Y-119500000D01*
X98477998Y-119499932D01*
X98477990Y-119499931D01*
X98473942Y-119499903D01*
X98279992Y-119478148D01*
X98093962Y-119419135D01*
X97922937Y-119325113D01*
X97773431Y-119199663D01*
X97651140Y-119047563D01*
X97560720Y-118874607D01*
X97505617Y-118687381D01*
X97505611Y-118687319D01*
X97505603Y-118687291D01*
X97487924Y-118493024D01*
X97508314Y-118299020D01*
X97508321Y-118298997D01*
X97508329Y-118298922D01*
X97566041Y-118112484D01*
X97658866Y-117940807D01*
X97783270Y-117790429D01*
X97934512Y-117667079D01*
X98106834Y-117575454D01*
X98293670Y-117519045D01*
X98487904Y-117500000D01*
X98492313Y-117500000D01*
X101512096Y-117500000D01*
X101512170Y-117500000D01*
X101522002Y-117500068D01*
X101522009Y-117500068D01*
X101526058Y-117500097D01*
X101720008Y-117521852D01*
X101906038Y-117580865D01*
X102077063Y-117674887D01*
X102226569Y-117800337D01*
X102348860Y-117952437D01*
X102439280Y-118125393D01*
X102494383Y-118312619D01*
X102494388Y-118312680D01*
X102494397Y-118312709D01*
X102512076Y-118506976D01*
X102512076Y-118506976D01*
G37*
G36*
X103952000Y-53862603D02*
X103951955Y-53869112D01*
X103951954Y-53869119D01*
X103951926Y-53873169D01*
X103935348Y-54020959D01*
X103890381Y-54162714D01*
X103818736Y-54293035D01*
X103723143Y-54406958D01*
X103607243Y-54500144D01*
X103475450Y-54569044D01*
X103332785Y-54611033D01*
X103332720Y-54611038D01*
X103332693Y-54611047D01*
X103184685Y-54624516D01*
X103036877Y-54608981D01*
X103036854Y-54608973D01*
X103036779Y-54608966D01*
X102894713Y-54564990D01*
X102763895Y-54494257D01*
X102649307Y-54399461D01*
X102555314Y-54284214D01*
X102485496Y-54152906D01*
X102442512Y-54010537D01*
X102428000Y-53862530D01*
X102428000Y-53858121D01*
X102428000Y-53089470D01*
X102428000Y-53089397D01*
X102428045Y-53082888D01*
X102428045Y-53082880D01*
X102428074Y-53078831D01*
X102444652Y-52931041D01*
X102489619Y-52789286D01*
X102561264Y-52658965D01*
X102656857Y-52545042D01*
X102772757Y-52451856D01*
X102904550Y-52382956D01*
X103047215Y-52340967D01*
X103047279Y-52340961D01*
X103047307Y-52340953D01*
X103195315Y-52327484D01*
X103343123Y-52343019D01*
X103343145Y-52343026D01*
X103343221Y-52343034D01*
X103485287Y-52387010D01*
X103616105Y-52457743D01*
X103730693Y-52552539D01*
X103824686Y-52667786D01*
X103894504Y-52799094D01*
X103937488Y-52941463D01*
X103952000Y-53089470D01*
X103952000Y-53093879D01*
X103952000Y-53862530D01*
X103952000Y-53862603D01*
X103952000Y-53862603D01*
G37*
G36*
X103952000Y-56910603D02*
X103951955Y-56917112D01*
X103951954Y-56917119D01*
X103951926Y-56921169D01*
X103935348Y-57068959D01*
X103890381Y-57210714D01*
X103818736Y-57341035D01*
X103723143Y-57454958D01*
X103607243Y-57548144D01*
X103475450Y-57617044D01*
X103332785Y-57659033D01*
X103332720Y-57659038D01*
X103332693Y-57659047D01*
X103184685Y-57672516D01*
X103036877Y-57656981D01*
X103036854Y-57656973D01*
X103036779Y-57656966D01*
X102894713Y-57612990D01*
X102763895Y-57542257D01*
X102649307Y-57447461D01*
X102555314Y-57332214D01*
X102485496Y-57200906D01*
X102442512Y-57058537D01*
X102428000Y-56910530D01*
X102428000Y-56906121D01*
X102428000Y-56137470D01*
X102428000Y-56137397D01*
X102428045Y-56130888D01*
X102428045Y-56130880D01*
X102428074Y-56126831D01*
X102444652Y-55979041D01*
X102489619Y-55837286D01*
X102561264Y-55706965D01*
X102656857Y-55593042D01*
X102772757Y-55499856D01*
X102904550Y-55430956D01*
X103047215Y-55388967D01*
X103047279Y-55388961D01*
X103047307Y-55388953D01*
X103195315Y-55375484D01*
X103343123Y-55391019D01*
X103343145Y-55391026D01*
X103343221Y-55391034D01*
X103485287Y-55435010D01*
X103616105Y-55505743D01*
X103730693Y-55600539D01*
X103824686Y-55715786D01*
X103894504Y-55847094D01*
X103937488Y-55989463D01*
X103952000Y-56137470D01*
X103952000Y-56141879D01*
X103952000Y-56910530D01*
X103952000Y-56910603D01*
X103952000Y-56910603D01*
G37*
G36*
X105175000Y-76500000D02*
X104325000Y-76500000D01*
X104325000Y-75500000D01*
X105175000Y-75500000D01*
X105175000Y-76500000D01*
X105175000Y-76500000D01*
G37*
G36*
X105700000Y-70225000D02*
X104800000Y-70225000D01*
X104800000Y-69275000D01*
X105700000Y-69275000D01*
X105700000Y-70225000D01*
X105700000Y-70225000D01*
G37*
G36*
X106492000Y-53862603D02*
X106491955Y-53869112D01*
X106491954Y-53869119D01*
X106491926Y-53873169D01*
X106475348Y-54020959D01*
X106430381Y-54162714D01*
X106358736Y-54293035D01*
X106263143Y-54406958D01*
X106147243Y-54500144D01*
X106015450Y-54569044D01*
X105872785Y-54611033D01*
X105872720Y-54611038D01*
X105872693Y-54611047D01*
X105724685Y-54624516D01*
X105576877Y-54608981D01*
X105576854Y-54608973D01*
X105576779Y-54608966D01*
X105434713Y-54564990D01*
X105303895Y-54494257D01*
X105189307Y-54399461D01*
X105095314Y-54284214D01*
X105025496Y-54152906D01*
X104982512Y-54010537D01*
X104968000Y-53862530D01*
X104968000Y-53858121D01*
X104968000Y-53089470D01*
X104968000Y-53089397D01*
X104968045Y-53082888D01*
X104968045Y-53082880D01*
X104968074Y-53078831D01*
X104984652Y-52931041D01*
X105029619Y-52789286D01*
X105101264Y-52658965D01*
X105196857Y-52545042D01*
X105312757Y-52451856D01*
X105444550Y-52382956D01*
X105587215Y-52340967D01*
X105587279Y-52340961D01*
X105587307Y-52340953D01*
X105735315Y-52327484D01*
X105883123Y-52343019D01*
X105883145Y-52343026D01*
X105883221Y-52343034D01*
X106025287Y-52387010D01*
X106156105Y-52457743D01*
X106270693Y-52552539D01*
X106364686Y-52667786D01*
X106434504Y-52799094D01*
X106477488Y-52941463D01*
X106492000Y-53089470D01*
X106492000Y-53093879D01*
X106492000Y-53862530D01*
X106492000Y-53862603D01*
X106492000Y-53862603D01*
G37*
G36*
X106492000Y-56910603D02*
X106491955Y-56917112D01*
X106491954Y-56917119D01*
X106491926Y-56921169D01*
X106475348Y-57068959D01*
X106430381Y-57210714D01*
X106358736Y-57341035D01*
X106263143Y-57454958D01*
X106147243Y-57548144D01*
X106015450Y-57617044D01*
X105872785Y-57659033D01*
X105872720Y-57659038D01*
X105872693Y-57659047D01*
X105724685Y-57672516D01*
X105576877Y-57656981D01*
X105576854Y-57656973D01*
X105576779Y-57656966D01*
X105434713Y-57612990D01*
X105303895Y-57542257D01*
X105189307Y-57447461D01*
X105095314Y-57332214D01*
X105025496Y-57200906D01*
X104982512Y-57058537D01*
X104968000Y-56910530D01*
X104968000Y-56906121D01*
X104968000Y-56137470D01*
X104968000Y-56137397D01*
X104968045Y-56130888D01*
X104968045Y-56130880D01*
X104968074Y-56126831D01*
X104984652Y-55979041D01*
X105029619Y-55837286D01*
X105101264Y-55706965D01*
X105196857Y-55593042D01*
X105312757Y-55499856D01*
X105444550Y-55430956D01*
X105587215Y-55388967D01*
X105587279Y-55388961D01*
X105587307Y-55388953D01*
X105735315Y-55375484D01*
X105883123Y-55391019D01*
X105883145Y-55391026D01*
X105883221Y-55391034D01*
X106025287Y-55435010D01*
X106156105Y-55505743D01*
X106270693Y-55600539D01*
X106364686Y-55715786D01*
X106434504Y-55847094D01*
X106477488Y-55989463D01*
X106492000Y-56137470D01*
X106492000Y-56141879D01*
X106492000Y-56910530D01*
X106492000Y-56910603D01*
X106492000Y-56910603D01*
G37*
G36*
X106675000Y-76500000D02*
X105825000Y-76500000D01*
X105825000Y-75500000D01*
X106675000Y-75500000D01*
X106675000Y-76500000D01*
X106675000Y-76500000D01*
G37*
G36*
X107200000Y-70225000D02*
X106300000Y-70225000D01*
X106300000Y-69275000D01*
X107200000Y-69275000D01*
X107200000Y-70225000D01*
X107200000Y-70225000D01*
G37*
G36*
X108250000Y-78425000D02*
X107250000Y-78425000D01*
X107250000Y-77475000D01*
X108250000Y-77475000D01*
X108250000Y-78425000D01*
X108250000Y-78425000D01*
G37*
G36*
X108250000Y-80025000D02*
X107250000Y-80025000D01*
X107250000Y-79075000D01*
X108250000Y-79075000D01*
X108250000Y-80025000D01*
X108250000Y-80025000D01*
G37*
G36*
X108912000Y-122143000D02*
X107388000Y-122143000D01*
X107388000Y-119857000D01*
X108912000Y-119857000D01*
X108912000Y-122143000D01*
X108912000Y-122143000D01*
G37*
G36*
X109032000Y-53862603D02*
X109031955Y-53869112D01*
X109031954Y-53869119D01*
X109031926Y-53873169D01*
X109015348Y-54020959D01*
X108970381Y-54162714D01*
X108898736Y-54293035D01*
X108803143Y-54406958D01*
X108687243Y-54500144D01*
X108555450Y-54569044D01*
X108412785Y-54611033D01*
X108412720Y-54611038D01*
X108412693Y-54611047D01*
X108264685Y-54624516D01*
X108116877Y-54608981D01*
X108116854Y-54608973D01*
X108116779Y-54608966D01*
X107974713Y-54564990D01*
X107843895Y-54494257D01*
X107729307Y-54399461D01*
X107635314Y-54284214D01*
X107565496Y-54152906D01*
X107522512Y-54010537D01*
X107508000Y-53862530D01*
X107508000Y-53858121D01*
X107508000Y-53089470D01*
X107508000Y-53089397D01*
X107508045Y-53082888D01*
X107508045Y-53082880D01*
X107508074Y-53078831D01*
X107524652Y-52931041D01*
X107569619Y-52789286D01*
X107641264Y-52658965D01*
X107736857Y-52545042D01*
X107852757Y-52451856D01*
X107984550Y-52382956D01*
X108127215Y-52340967D01*
X108127279Y-52340961D01*
X108127307Y-52340953D01*
X108275315Y-52327484D01*
X108423123Y-52343019D01*
X108423145Y-52343026D01*
X108423221Y-52343034D01*
X108565287Y-52387010D01*
X108696105Y-52457743D01*
X108810693Y-52552539D01*
X108904686Y-52667786D01*
X108974504Y-52799094D01*
X109017488Y-52941463D01*
X109032000Y-53089470D01*
X109032000Y-53093879D01*
X109032000Y-53862530D01*
X109032000Y-53862603D01*
X109032000Y-53862603D01*
G37*
G36*
X109032000Y-56910603D02*
X109031955Y-56917112D01*
X109031954Y-56917119D01*
X109031926Y-56921169D01*
X109015348Y-57068959D01*
X108970381Y-57210714D01*
X108898736Y-57341035D01*
X108803143Y-57454958D01*
X108687243Y-57548144D01*
X108555450Y-57617044D01*
X108412785Y-57659033D01*
X108412720Y-57659038D01*
X108412693Y-57659047D01*
X108264685Y-57672516D01*
X108116877Y-57656981D01*
X108116854Y-57656973D01*
X108116779Y-57656966D01*
X107974713Y-57612990D01*
X107843895Y-57542257D01*
X107729307Y-57447461D01*
X107635314Y-57332214D01*
X107565496Y-57200906D01*
X107522512Y-57058537D01*
X107508000Y-56910530D01*
X107508000Y-56906121D01*
X107508000Y-56137470D01*
X107508000Y-56137397D01*
X107508045Y-56130888D01*
X107508045Y-56130880D01*
X107508074Y-56126831D01*
X107524652Y-55979041D01*
X107569619Y-55837286D01*
X107641264Y-55706965D01*
X107736857Y-55593042D01*
X107852757Y-55499856D01*
X107984550Y-55430956D01*
X108127215Y-55388967D01*
X108127279Y-55388961D01*
X108127307Y-55388953D01*
X108275315Y-55375484D01*
X108423123Y-55391019D01*
X108423145Y-55391026D01*
X108423221Y-55391034D01*
X108565287Y-55435010D01*
X108696105Y-55505743D01*
X108810693Y-55600539D01*
X108904686Y-55715786D01*
X108974504Y-55847094D01*
X109017488Y-55989463D01*
X109032000Y-56137470D01*
X109032000Y-56141879D01*
X109032000Y-56910530D01*
X109032000Y-56910603D01*
X109032000Y-56910603D01*
G37*
G36*
X109685322Y-90336433D02*
X109683773Y-90447378D01*
X109683620Y-90448050D01*
X109683620Y-90448066D01*
X109662256Y-90542100D01*
X109622749Y-90630832D01*
X109566755Y-90710209D01*
X109496416Y-90777192D01*
X109414399Y-90829242D01*
X109323843Y-90864366D01*
X109228182Y-90881234D01*
X109131069Y-90879199D01*
X109036202Y-90858342D01*
X108947195Y-90819456D01*
X108867430Y-90764017D01*
X108799956Y-90694146D01*
X108747335Y-90612494D01*
X108711579Y-90522186D01*
X108694045Y-90426647D01*
X108695401Y-90329524D01*
X108715597Y-90234508D01*
X108753861Y-90145232D01*
X108808741Y-90065083D01*
X108878136Y-89997126D01*
X108959420Y-89943935D01*
X109049476Y-89907550D01*
X109144891Y-89889348D01*
X109242029Y-89890027D01*
X109337175Y-89909557D01*
X109426716Y-89947197D01*
X109507247Y-90001516D01*
X109575690Y-90070438D01*
X109629442Y-90151342D01*
X109666459Y-90241152D01*
X109685188Y-90335741D01*
X109685187Y-90335755D01*
X109685322Y-90336433D01*
X109685322Y-90336433D01*
G37*
G36*
X109975000Y-80425000D02*
X108525000Y-80425000D01*
X108525000Y-79275000D01*
X109975000Y-79275000D01*
X109975000Y-80425000D01*
X109975000Y-80425000D01*
G37*
G36*
X109975000Y-82225000D02*
X108525000Y-82225000D01*
X108525000Y-81075000D01*
X109975000Y-81075000D01*
X109975000Y-82225000D01*
X109975000Y-82225000D01*
G37*
G36*
X110377501Y-87728564D02*
X110373787Y-87994547D01*
X110373635Y-87995214D01*
X110373635Y-87995234D01*
X110322198Y-88221635D01*
X110227482Y-88434368D01*
X110093245Y-88624663D01*
X109924608Y-88785253D01*
X109727983Y-88910035D01*
X109510879Y-88994244D01*
X109281540Y-89034683D01*
X109048720Y-89029806D01*
X108821280Y-88979800D01*
X108607886Y-88886571D01*
X108416665Y-88753668D01*
X108254898Y-88586154D01*
X108128749Y-88390408D01*
X108043023Y-88173889D01*
X108000985Y-87944843D01*
X108004236Y-87711998D01*
X108052653Y-87484213D01*
X108144392Y-87270169D01*
X108275957Y-87078025D01*
X108442337Y-86915094D01*
X108637194Y-86787583D01*
X108853108Y-86700348D01*
X109081857Y-86656711D01*
X109314723Y-86658338D01*
X109542841Y-86705163D01*
X109757514Y-86795403D01*
X109950575Y-86925625D01*
X110114663Y-87090862D01*
X110243531Y-87284824D01*
X110332274Y-87500131D01*
X110377368Y-87727872D01*
X110377367Y-87727890D01*
X110377501Y-87728564D01*
X110377501Y-87728564D01*
G37*
G36*
X110377501Y-92808564D02*
X110373787Y-93074547D01*
X110373635Y-93075214D01*
X110373635Y-93075234D01*
X110322198Y-93301635D01*
X110227482Y-93514368D01*
X110093245Y-93704663D01*
X109924608Y-93865253D01*
X109727983Y-93990035D01*
X109510879Y-94074244D01*
X109281540Y-94114683D01*
X109048720Y-94109806D01*
X108821280Y-94059800D01*
X108607886Y-93966571D01*
X108416665Y-93833668D01*
X108254898Y-93666154D01*
X108128749Y-93470408D01*
X108043023Y-93253889D01*
X108000985Y-93024843D01*
X108004236Y-92791998D01*
X108052653Y-92564213D01*
X108144392Y-92350169D01*
X108275957Y-92158025D01*
X108442337Y-91995094D01*
X108637194Y-91867583D01*
X108853108Y-91780348D01*
X109081857Y-91736711D01*
X109314723Y-91738338D01*
X109542841Y-91785163D01*
X109757514Y-91875403D01*
X109950575Y-92005625D01*
X110114663Y-92170862D01*
X110243531Y-92364824D01*
X110332274Y-92580131D01*
X110377368Y-92807872D01*
X110377367Y-92807890D01*
X110377501Y-92808564D01*
X110377501Y-92808564D01*
G37*
G36*
X111452000Y-121386603D02*
X111451955Y-121393112D01*
X111451954Y-121393119D01*
X111451926Y-121397169D01*
X111435348Y-121544959D01*
X111390381Y-121686714D01*
X111318736Y-121817035D01*
X111223143Y-121930958D01*
X111107243Y-122024144D01*
X110975450Y-122093044D01*
X110832785Y-122135033D01*
X110832720Y-122135038D01*
X110832693Y-122135047D01*
X110684685Y-122148516D01*
X110536877Y-122132981D01*
X110536854Y-122132973D01*
X110536779Y-122132966D01*
X110394713Y-122088990D01*
X110263895Y-122018257D01*
X110149307Y-121923461D01*
X110055314Y-121808214D01*
X109985496Y-121676906D01*
X109942512Y-121534537D01*
X109928000Y-121386530D01*
X109928000Y-121382121D01*
X109928000Y-120613470D01*
X109928000Y-120613397D01*
X109928045Y-120606888D01*
X109928045Y-120606880D01*
X109928074Y-120602831D01*
X109944652Y-120455041D01*
X109989619Y-120313286D01*
X110061264Y-120182965D01*
X110156857Y-120069042D01*
X110272757Y-119975856D01*
X110404550Y-119906956D01*
X110547215Y-119864967D01*
X110547279Y-119864961D01*
X110547307Y-119864953D01*
X110695315Y-119851484D01*
X110843123Y-119867019D01*
X110843145Y-119867026D01*
X110843221Y-119867034D01*
X110985287Y-119911010D01*
X111116105Y-119981743D01*
X111230693Y-120076539D01*
X111324686Y-120191786D01*
X111394504Y-120323094D01*
X111437488Y-120465463D01*
X111452000Y-120613470D01*
X111452000Y-120617879D01*
X111452000Y-121386530D01*
X111452000Y-121386603D01*
X111452000Y-121386603D01*
G37*
G36*
X111572000Y-53862603D02*
X111571955Y-53869112D01*
X111571954Y-53869119D01*
X111571926Y-53873169D01*
X111555348Y-54020959D01*
X111510381Y-54162714D01*
X111438736Y-54293035D01*
X111343143Y-54406958D01*
X111227243Y-54500144D01*
X111095450Y-54569044D01*
X110952785Y-54611033D01*
X110952720Y-54611038D01*
X110952693Y-54611047D01*
X110804685Y-54624516D01*
X110656877Y-54608981D01*
X110656854Y-54608973D01*
X110656779Y-54608966D01*
X110514713Y-54564990D01*
X110383895Y-54494257D01*
X110269307Y-54399461D01*
X110175314Y-54284214D01*
X110105496Y-54152906D01*
X110062512Y-54010537D01*
X110048000Y-53862530D01*
X110048000Y-53858121D01*
X110048000Y-53089470D01*
X110048000Y-53089397D01*
X110048045Y-53082888D01*
X110048045Y-53082880D01*
X110048074Y-53078831D01*
X110064652Y-52931041D01*
X110109619Y-52789286D01*
X110181264Y-52658965D01*
X110276857Y-52545042D01*
X110392757Y-52451856D01*
X110524550Y-52382956D01*
X110667215Y-52340967D01*
X110667279Y-52340961D01*
X110667307Y-52340953D01*
X110815315Y-52327484D01*
X110963123Y-52343019D01*
X110963145Y-52343026D01*
X110963221Y-52343034D01*
X111105287Y-52387010D01*
X111236105Y-52457743D01*
X111350693Y-52552539D01*
X111444686Y-52667786D01*
X111514504Y-52799094D01*
X111557488Y-52941463D01*
X111572000Y-53089470D01*
X111572000Y-53093879D01*
X111572000Y-53862530D01*
X111572000Y-53862603D01*
X111572000Y-53862603D01*
G37*
G36*
X111572000Y-56910603D02*
X111571955Y-56917112D01*
X111571954Y-56917119D01*
X111571926Y-56921169D01*
X111555348Y-57068959D01*
X111510381Y-57210714D01*
X111438736Y-57341035D01*
X111343143Y-57454958D01*
X111227243Y-57548144D01*
X111095450Y-57617044D01*
X110952785Y-57659033D01*
X110952720Y-57659038D01*
X110952693Y-57659047D01*
X110804685Y-57672516D01*
X110656877Y-57656981D01*
X110656854Y-57656973D01*
X110656779Y-57656966D01*
X110514713Y-57612990D01*
X110383895Y-57542257D01*
X110269307Y-57447461D01*
X110175314Y-57332214D01*
X110105496Y-57200906D01*
X110062512Y-57058537D01*
X110048000Y-56910530D01*
X110048000Y-56906121D01*
X110048000Y-56137470D01*
X110048000Y-56137397D01*
X110048045Y-56130888D01*
X110048045Y-56130880D01*
X110048074Y-56126831D01*
X110064652Y-55979041D01*
X110109619Y-55837286D01*
X110181264Y-55706965D01*
X110276857Y-55593042D01*
X110392757Y-55499856D01*
X110524550Y-55430956D01*
X110667215Y-55388967D01*
X110667279Y-55388961D01*
X110667307Y-55388953D01*
X110815315Y-55375484D01*
X110963123Y-55391019D01*
X110963145Y-55391026D01*
X110963221Y-55391034D01*
X111105287Y-55435010D01*
X111236105Y-55505743D01*
X111350693Y-55600539D01*
X111444686Y-55715786D01*
X111514504Y-55847094D01*
X111557488Y-55989463D01*
X111572000Y-56137470D01*
X111572000Y-56141879D01*
X111572000Y-56910530D01*
X111572000Y-56910603D01*
X111572000Y-56910603D01*
G37*
G36*
X113992000Y-121386603D02*
X113991955Y-121393112D01*
X113991954Y-121393119D01*
X113991926Y-121397169D01*
X113975348Y-121544959D01*
X113930381Y-121686714D01*
X113858736Y-121817035D01*
X113763143Y-121930958D01*
X113647243Y-122024144D01*
X113515450Y-122093044D01*
X113372785Y-122135033D01*
X113372720Y-122135038D01*
X113372693Y-122135047D01*
X113224685Y-122148516D01*
X113076877Y-122132981D01*
X113076854Y-122132973D01*
X113076779Y-122132966D01*
X112934713Y-122088990D01*
X112803895Y-122018257D01*
X112689307Y-121923461D01*
X112595314Y-121808214D01*
X112525496Y-121676906D01*
X112482512Y-121534537D01*
X112468000Y-121386530D01*
X112468000Y-121382121D01*
X112468000Y-120613470D01*
X112468000Y-120613397D01*
X112468045Y-120606888D01*
X112468045Y-120606880D01*
X112468074Y-120602831D01*
X112484652Y-120455041D01*
X112529619Y-120313286D01*
X112601264Y-120182965D01*
X112696857Y-120069042D01*
X112812757Y-119975856D01*
X112944550Y-119906956D01*
X113087215Y-119864967D01*
X113087279Y-119864961D01*
X113087307Y-119864953D01*
X113235315Y-119851484D01*
X113383123Y-119867019D01*
X113383145Y-119867026D01*
X113383221Y-119867034D01*
X113525287Y-119911010D01*
X113656105Y-119981743D01*
X113770693Y-120076539D01*
X113864686Y-120191786D01*
X113934504Y-120323094D01*
X113977488Y-120465463D01*
X113992000Y-120613470D01*
X113992000Y-120617879D01*
X113992000Y-121386530D01*
X113992000Y-121386603D01*
X113992000Y-121386603D01*
G37*
G36*
X114112000Y-53862603D02*
X114111955Y-53869112D01*
X114111954Y-53869119D01*
X114111926Y-53873169D01*
X114095348Y-54020959D01*
X114050381Y-54162714D01*
X113978736Y-54293035D01*
X113883143Y-54406958D01*
X113767243Y-54500144D01*
X113635450Y-54569044D01*
X113492785Y-54611033D01*
X113492720Y-54611038D01*
X113492693Y-54611047D01*
X113344685Y-54624516D01*
X113196877Y-54608981D01*
X113196854Y-54608973D01*
X113196779Y-54608966D01*
X113054713Y-54564990D01*
X112923895Y-54494257D01*
X112809307Y-54399461D01*
X112715314Y-54284214D01*
X112645496Y-54152906D01*
X112602512Y-54010537D01*
X112588000Y-53862530D01*
X112588000Y-53858121D01*
X112588000Y-53089470D01*
X112588000Y-53089397D01*
X112588045Y-53082888D01*
X112588045Y-53082880D01*
X112588074Y-53078831D01*
X112604652Y-52931041D01*
X112649619Y-52789286D01*
X112721264Y-52658965D01*
X112816857Y-52545042D01*
X112932757Y-52451856D01*
X113064550Y-52382956D01*
X113207215Y-52340967D01*
X113207279Y-52340961D01*
X113207307Y-52340953D01*
X113355315Y-52327484D01*
X113503123Y-52343019D01*
X113503145Y-52343026D01*
X113503221Y-52343034D01*
X113645287Y-52387010D01*
X113776105Y-52457743D01*
X113890693Y-52552539D01*
X113984686Y-52667786D01*
X114054504Y-52799094D01*
X114097488Y-52941463D01*
X114112000Y-53089470D01*
X114112000Y-53093879D01*
X114112000Y-53862530D01*
X114112000Y-53862603D01*
X114112000Y-53862603D01*
G37*
G36*
X114112000Y-56910603D02*
X114111955Y-56917112D01*
X114111954Y-56917119D01*
X114111926Y-56921169D01*
X114095348Y-57068959D01*
X114050381Y-57210714D01*
X113978736Y-57341035D01*
X113883143Y-57454958D01*
X113767243Y-57548144D01*
X113635450Y-57617044D01*
X113492785Y-57659033D01*
X113492720Y-57659038D01*
X113492693Y-57659047D01*
X113344685Y-57672516D01*
X113196877Y-57656981D01*
X113196854Y-57656973D01*
X113196779Y-57656966D01*
X113054713Y-57612990D01*
X112923895Y-57542257D01*
X112809307Y-57447461D01*
X112715314Y-57332214D01*
X112645496Y-57200906D01*
X112602512Y-57058537D01*
X112588000Y-56910530D01*
X112588000Y-56906121D01*
X112588000Y-56137470D01*
X112588000Y-56137397D01*
X112588045Y-56130888D01*
X112588045Y-56130880D01*
X112588074Y-56126831D01*
X112604652Y-55979041D01*
X112649619Y-55837286D01*
X112721264Y-55706965D01*
X112816857Y-55593042D01*
X112932757Y-55499856D01*
X113064550Y-55430956D01*
X113207215Y-55388967D01*
X113207279Y-55388961D01*
X113207307Y-55388953D01*
X113355315Y-55375484D01*
X113503123Y-55391019D01*
X113503145Y-55391026D01*
X113503221Y-55391034D01*
X113645287Y-55435010D01*
X113776105Y-55505743D01*
X113890693Y-55600539D01*
X113984686Y-55715786D01*
X114054504Y-55847094D01*
X114097488Y-55989463D01*
X114112000Y-56137470D01*
X114112000Y-56141879D01*
X114112000Y-56910530D01*
X114112000Y-56910603D01*
X114112000Y-56910603D01*
G37*
G36*
X116092501Y-87728564D02*
X116088787Y-87994547D01*
X116088635Y-87995214D01*
X116088635Y-87995234D01*
X116037198Y-88221635D01*
X115942482Y-88434368D01*
X115808245Y-88624663D01*
X115639608Y-88785253D01*
X115442983Y-88910035D01*
X115225879Y-88994244D01*
X114996540Y-89034683D01*
X114763720Y-89029806D01*
X114536280Y-88979800D01*
X114322886Y-88886571D01*
X114131665Y-88753668D01*
X113969898Y-88586154D01*
X113843749Y-88390408D01*
X113758023Y-88173889D01*
X113715985Y-87944843D01*
X113719236Y-87711998D01*
X113767653Y-87484213D01*
X113859392Y-87270169D01*
X113990957Y-87078025D01*
X114157337Y-86915094D01*
X114352194Y-86787583D01*
X114568108Y-86700348D01*
X114796857Y-86656711D01*
X115029723Y-86658338D01*
X115257841Y-86705163D01*
X115472514Y-86795403D01*
X115665575Y-86925625D01*
X115829663Y-87090862D01*
X115958531Y-87284824D01*
X116047274Y-87500131D01*
X116092368Y-87727872D01*
X116092367Y-87727890D01*
X116092501Y-87728564D01*
X116092501Y-87728564D01*
G37*
G36*
X116092501Y-92808564D02*
X116088787Y-93074547D01*
X116088635Y-93075214D01*
X116088635Y-93075234D01*
X116037198Y-93301635D01*
X115942482Y-93514368D01*
X115808245Y-93704663D01*
X115639608Y-93865253D01*
X115442983Y-93990035D01*
X115225879Y-94074244D01*
X114996540Y-94114683D01*
X114763720Y-94109806D01*
X114536280Y-94059800D01*
X114322886Y-93966571D01*
X114131665Y-93833668D01*
X113969898Y-93666154D01*
X113843749Y-93470408D01*
X113758023Y-93253889D01*
X113715985Y-93024843D01*
X113719236Y-92791998D01*
X113767653Y-92564213D01*
X113859392Y-92350169D01*
X113990957Y-92158025D01*
X114157337Y-91995094D01*
X114352194Y-91867583D01*
X114568108Y-91780348D01*
X114796857Y-91736711D01*
X115029723Y-91738338D01*
X115257841Y-91785163D01*
X115472514Y-91875403D01*
X115665575Y-92005625D01*
X115829663Y-92170862D01*
X115958531Y-92364824D01*
X116047274Y-92580131D01*
X116092368Y-92807872D01*
X116092367Y-92807890D01*
X116092501Y-92808564D01*
X116092501Y-92808564D01*
G37*
G36*
X116532000Y-121386603D02*
X116531955Y-121393112D01*
X116531954Y-121393119D01*
X116531926Y-121397169D01*
X116515348Y-121544959D01*
X116470381Y-121686714D01*
X116398736Y-121817035D01*
X116303143Y-121930958D01*
X116187243Y-122024144D01*
X116055450Y-122093044D01*
X115912785Y-122135033D01*
X115912720Y-122135038D01*
X115912693Y-122135047D01*
X115764685Y-122148516D01*
X115616877Y-122132981D01*
X115616854Y-122132973D01*
X115616779Y-122132966D01*
X115474713Y-122088990D01*
X115343895Y-122018257D01*
X115229307Y-121923461D01*
X115135314Y-121808214D01*
X115065496Y-121676906D01*
X115022512Y-121534537D01*
X115008000Y-121386530D01*
X115008000Y-121382121D01*
X115008000Y-120613470D01*
X115008000Y-120613397D01*
X115008045Y-120606888D01*
X115008045Y-120606880D01*
X115008074Y-120602831D01*
X115024652Y-120455041D01*
X115069619Y-120313286D01*
X115141264Y-120182965D01*
X115236857Y-120069042D01*
X115352757Y-119975856D01*
X115484550Y-119906956D01*
X115627215Y-119864967D01*
X115627279Y-119864961D01*
X115627307Y-119864953D01*
X115775315Y-119851484D01*
X115923123Y-119867019D01*
X115923145Y-119867026D01*
X115923221Y-119867034D01*
X116065287Y-119911010D01*
X116196105Y-119981743D01*
X116310693Y-120076539D01*
X116404686Y-120191786D01*
X116474504Y-120323094D01*
X116517488Y-120465463D01*
X116532000Y-120613470D01*
X116532000Y-120617879D01*
X116532000Y-121386530D01*
X116532000Y-121386603D01*
X116532000Y-121386603D01*
G37*
G36*
X116652000Y-53862603D02*
X116651955Y-53869112D01*
X116651954Y-53869119D01*
X116651926Y-53873169D01*
X116635348Y-54020959D01*
X116590381Y-54162714D01*
X116518736Y-54293035D01*
X116423143Y-54406958D01*
X116307243Y-54500144D01*
X116175450Y-54569044D01*
X116032785Y-54611033D01*
X116032720Y-54611038D01*
X116032693Y-54611047D01*
X115884685Y-54624516D01*
X115736877Y-54608981D01*
X115736854Y-54608973D01*
X115736779Y-54608966D01*
X115594713Y-54564990D01*
X115463895Y-54494257D01*
X115349307Y-54399461D01*
X115255314Y-54284214D01*
X115185496Y-54152906D01*
X115142512Y-54010537D01*
X115128000Y-53862530D01*
X115128000Y-53858121D01*
X115128000Y-53089470D01*
X115128000Y-53089397D01*
X115128045Y-53082888D01*
X115128045Y-53082880D01*
X115128074Y-53078831D01*
X115144652Y-52931041D01*
X115189619Y-52789286D01*
X115261264Y-52658965D01*
X115356857Y-52545042D01*
X115472757Y-52451856D01*
X115604550Y-52382956D01*
X115747215Y-52340967D01*
X115747279Y-52340961D01*
X115747307Y-52340953D01*
X115895315Y-52327484D01*
X116043123Y-52343019D01*
X116043145Y-52343026D01*
X116043221Y-52343034D01*
X116185287Y-52387010D01*
X116316105Y-52457743D01*
X116430693Y-52552539D01*
X116524686Y-52667786D01*
X116594504Y-52799094D01*
X116637488Y-52941463D01*
X116652000Y-53089470D01*
X116652000Y-53093879D01*
X116652000Y-53862530D01*
X116652000Y-53862603D01*
X116652000Y-53862603D01*
G37*
G36*
X116652000Y-56910603D02*
X116651955Y-56917112D01*
X116651954Y-56917119D01*
X116651926Y-56921169D01*
X116635348Y-57068959D01*
X116590381Y-57210714D01*
X116518736Y-57341035D01*
X116423143Y-57454958D01*
X116307243Y-57548144D01*
X116175450Y-57617044D01*
X116032785Y-57659033D01*
X116032720Y-57659038D01*
X116032693Y-57659047D01*
X115884685Y-57672516D01*
X115736877Y-57656981D01*
X115736854Y-57656973D01*
X115736779Y-57656966D01*
X115594713Y-57612990D01*
X115463895Y-57542257D01*
X115349307Y-57447461D01*
X115255314Y-57332214D01*
X115185496Y-57200906D01*
X115142512Y-57058537D01*
X115128000Y-56910530D01*
X115128000Y-56906121D01*
X115128000Y-56137470D01*
X115128000Y-56137397D01*
X115128045Y-56130888D01*
X115128045Y-56130880D01*
X115128074Y-56126831D01*
X115144652Y-55979041D01*
X115189619Y-55837286D01*
X115261264Y-55706965D01*
X115356857Y-55593042D01*
X115472757Y-55499856D01*
X115604550Y-55430956D01*
X115747215Y-55388967D01*
X115747279Y-55388961D01*
X115747307Y-55388953D01*
X115895315Y-55375484D01*
X116043123Y-55391019D01*
X116043145Y-55391026D01*
X116043221Y-55391034D01*
X116185287Y-55435010D01*
X116316105Y-55505743D01*
X116430693Y-55600539D01*
X116524686Y-55715786D01*
X116594504Y-55847094D01*
X116637488Y-55989463D01*
X116652000Y-56137470D01*
X116652000Y-56141879D01*
X116652000Y-56910530D01*
X116652000Y-56910603D01*
X116652000Y-56910603D01*
G37*
G36*
X117305322Y-89320433D02*
X117303773Y-89431378D01*
X117303620Y-89432050D01*
X117303620Y-89432066D01*
X117282256Y-89526100D01*
X117242749Y-89614832D01*
X117186755Y-89694209D01*
X117116416Y-89761192D01*
X117034399Y-89813242D01*
X116943843Y-89848366D01*
X116848182Y-89865234D01*
X116751069Y-89863199D01*
X116656202Y-89842342D01*
X116567195Y-89803456D01*
X116487430Y-89748017D01*
X116419956Y-89678146D01*
X116367335Y-89596494D01*
X116331579Y-89506186D01*
X116314045Y-89410647D01*
X116315401Y-89313524D01*
X116335597Y-89218508D01*
X116373861Y-89129232D01*
X116428741Y-89049083D01*
X116498136Y-88981126D01*
X116579420Y-88927935D01*
X116669476Y-88891550D01*
X116764891Y-88873348D01*
X116862029Y-88874027D01*
X116957175Y-88893557D01*
X117046716Y-88931197D01*
X117127247Y-88985516D01*
X117195690Y-89054438D01*
X117249442Y-89135342D01*
X117286459Y-89225152D01*
X117305188Y-89319741D01*
X117305187Y-89319755D01*
X117305322Y-89320433D01*
X117305322Y-89320433D01*
G37*
G36*
X117305322Y-91352433D02*
X117303773Y-91463378D01*
X117303620Y-91464050D01*
X117303620Y-91464066D01*
X117282256Y-91558100D01*
X117242749Y-91646832D01*
X117186755Y-91726209D01*
X117116416Y-91793192D01*
X117034399Y-91845242D01*
X116943843Y-91880366D01*
X116848182Y-91897234D01*
X116751069Y-91895199D01*
X116656202Y-91874342D01*
X116567195Y-91835456D01*
X116487430Y-91780017D01*
X116419956Y-91710146D01*
X116367335Y-91628494D01*
X116331579Y-91538186D01*
X116314045Y-91442647D01*
X116315401Y-91345524D01*
X116335597Y-91250508D01*
X116373861Y-91161232D01*
X116428741Y-91081083D01*
X116498136Y-91013126D01*
X116579420Y-90959935D01*
X116669476Y-90923550D01*
X116764891Y-90905348D01*
X116862029Y-90906027D01*
X116957175Y-90925557D01*
X117046716Y-90963197D01*
X117127247Y-91017516D01*
X117195690Y-91086438D01*
X117249442Y-91167342D01*
X117286459Y-91257152D01*
X117305188Y-91351741D01*
X117305187Y-91351755D01*
X117305322Y-91352433D01*
X117305322Y-91352433D01*
G37*
G36*
X119072000Y-121386603D02*
X119071955Y-121393112D01*
X119071954Y-121393119D01*
X119071926Y-121397169D01*
X119055348Y-121544959D01*
X119010381Y-121686714D01*
X118938736Y-121817035D01*
X118843143Y-121930958D01*
X118727243Y-122024144D01*
X118595450Y-122093044D01*
X118452785Y-122135033D01*
X118452720Y-122135038D01*
X118452693Y-122135047D01*
X118304685Y-122148516D01*
X118156877Y-122132981D01*
X118156854Y-122132973D01*
X118156779Y-122132966D01*
X118014713Y-122088990D01*
X117883895Y-122018257D01*
X117769307Y-121923461D01*
X117675314Y-121808214D01*
X117605496Y-121676906D01*
X117562512Y-121534537D01*
X117548000Y-121386530D01*
X117548000Y-121382121D01*
X117548000Y-120613470D01*
X117548000Y-120613397D01*
X117548045Y-120606888D01*
X117548045Y-120606880D01*
X117548074Y-120602831D01*
X117564652Y-120455041D01*
X117609619Y-120313286D01*
X117681264Y-120182965D01*
X117776857Y-120069042D01*
X117892757Y-119975856D01*
X118024550Y-119906956D01*
X118167215Y-119864967D01*
X118167279Y-119864961D01*
X118167307Y-119864953D01*
X118315315Y-119851484D01*
X118463123Y-119867019D01*
X118463145Y-119867026D01*
X118463221Y-119867034D01*
X118605287Y-119911010D01*
X118736105Y-119981743D01*
X118850693Y-120076539D01*
X118944686Y-120191786D01*
X119014504Y-120323094D01*
X119057488Y-120465463D01*
X119072000Y-120613470D01*
X119072000Y-120617879D01*
X119072000Y-121386530D01*
X119072000Y-121386603D01*
X119072000Y-121386603D01*
G37*
G36*
X119192000Y-53862603D02*
X119191955Y-53869112D01*
X119191954Y-53869119D01*
X119191926Y-53873169D01*
X119175348Y-54020959D01*
X119130381Y-54162714D01*
X119058736Y-54293035D01*
X118963143Y-54406958D01*
X118847243Y-54500144D01*
X118715450Y-54569044D01*
X118572785Y-54611033D01*
X118572720Y-54611038D01*
X118572693Y-54611047D01*
X118424685Y-54624516D01*
X118276877Y-54608981D01*
X118276854Y-54608973D01*
X118276779Y-54608966D01*
X118134713Y-54564990D01*
X118003895Y-54494257D01*
X117889307Y-54399461D01*
X117795314Y-54284214D01*
X117725496Y-54152906D01*
X117682512Y-54010537D01*
X117668000Y-53862530D01*
X117668000Y-53858121D01*
X117668000Y-53089470D01*
X117668000Y-53089397D01*
X117668045Y-53082888D01*
X117668045Y-53082880D01*
X117668074Y-53078831D01*
X117684652Y-52931041D01*
X117729619Y-52789286D01*
X117801264Y-52658965D01*
X117896857Y-52545042D01*
X118012757Y-52451856D01*
X118144550Y-52382956D01*
X118287215Y-52340967D01*
X118287279Y-52340961D01*
X118287307Y-52340953D01*
X118435315Y-52327484D01*
X118583123Y-52343019D01*
X118583145Y-52343026D01*
X118583221Y-52343034D01*
X118725287Y-52387010D01*
X118856105Y-52457743D01*
X118970693Y-52552539D01*
X119064686Y-52667786D01*
X119134504Y-52799094D01*
X119177488Y-52941463D01*
X119192000Y-53089470D01*
X119192000Y-53093879D01*
X119192000Y-53862530D01*
X119192000Y-53862603D01*
X119192000Y-53862603D01*
G37*
G36*
X119192000Y-56910603D02*
X119191955Y-56917112D01*
X119191954Y-56917119D01*
X119191926Y-56921169D01*
X119175348Y-57068959D01*
X119130381Y-57210714D01*
X119058736Y-57341035D01*
X118963143Y-57454958D01*
X118847243Y-57548144D01*
X118715450Y-57617044D01*
X118572785Y-57659033D01*
X118572720Y-57659038D01*
X118572693Y-57659047D01*
X118424685Y-57672516D01*
X118276877Y-57656981D01*
X118276854Y-57656973D01*
X118276779Y-57656966D01*
X118134713Y-57612990D01*
X118003895Y-57542257D01*
X117889307Y-57447461D01*
X117795314Y-57332214D01*
X117725496Y-57200906D01*
X117682512Y-57058537D01*
X117668000Y-56910530D01*
X117668000Y-56906121D01*
X117668000Y-56137470D01*
X117668000Y-56137397D01*
X117668045Y-56130888D01*
X117668045Y-56130880D01*
X117668074Y-56126831D01*
X117684652Y-55979041D01*
X117729619Y-55837286D01*
X117801264Y-55706965D01*
X117896857Y-55593042D01*
X118012757Y-55499856D01*
X118144550Y-55430956D01*
X118287215Y-55388967D01*
X118287279Y-55388961D01*
X118287307Y-55388953D01*
X118435315Y-55375484D01*
X118583123Y-55391019D01*
X118583145Y-55391026D01*
X118583221Y-55391034D01*
X118725287Y-55435010D01*
X118856105Y-55505743D01*
X118970693Y-55600539D01*
X119064686Y-55715786D01*
X119134504Y-55847094D01*
X119177488Y-55989463D01*
X119192000Y-56137470D01*
X119192000Y-56141879D01*
X119192000Y-56910530D01*
X119192000Y-56910603D01*
X119192000Y-56910603D01*
G37*
G36*
X121612000Y-121386603D02*
X121611955Y-121393112D01*
X121611954Y-121393119D01*
X121611926Y-121397169D01*
X121595348Y-121544959D01*
X121550381Y-121686714D01*
X121478736Y-121817035D01*
X121383143Y-121930958D01*
X121267243Y-122024144D01*
X121135450Y-122093044D01*
X120992785Y-122135033D01*
X120992720Y-122135038D01*
X120992693Y-122135047D01*
X120844685Y-122148516D01*
X120696877Y-122132981D01*
X120696854Y-122132973D01*
X120696779Y-122132966D01*
X120554713Y-122088990D01*
X120423895Y-122018257D01*
X120309307Y-121923461D01*
X120215314Y-121808214D01*
X120145496Y-121676906D01*
X120102512Y-121534537D01*
X120088000Y-121386530D01*
X120088000Y-121382121D01*
X120088000Y-120613470D01*
X120088000Y-120613397D01*
X120088045Y-120606888D01*
X120088045Y-120606880D01*
X120088074Y-120602831D01*
X120104652Y-120455041D01*
X120149619Y-120313286D01*
X120221264Y-120182965D01*
X120316857Y-120069042D01*
X120432757Y-119975856D01*
X120564550Y-119906956D01*
X120707215Y-119864967D01*
X120707279Y-119864961D01*
X120707307Y-119864953D01*
X120855315Y-119851484D01*
X121003123Y-119867019D01*
X121003145Y-119867026D01*
X121003221Y-119867034D01*
X121145287Y-119911010D01*
X121276105Y-119981743D01*
X121390693Y-120076539D01*
X121484686Y-120191786D01*
X121554504Y-120323094D01*
X121597488Y-120465463D01*
X121612000Y-120613470D01*
X121612000Y-120617879D01*
X121612000Y-121386530D01*
X121612000Y-121386603D01*
X121612000Y-121386603D01*
G37*
G36*
X124000043Y-41401945D02*
X123996916Y-41625940D01*
X123996763Y-41626612D01*
X123996763Y-41626627D01*
X123953471Y-41817180D01*
X123873706Y-41996335D01*
X123760662Y-42156583D01*
X123618644Y-42291826D01*
X123453057Y-42396910D01*
X123270226Y-42467826D01*
X123077089Y-42501881D01*
X122881022Y-42497774D01*
X122689486Y-42455662D01*
X122509778Y-42377150D01*
X122348743Y-42265227D01*
X122212512Y-42124156D01*
X122106278Y-41959311D01*
X122034082Y-41776969D01*
X121998682Y-41584082D01*
X122001419Y-41387993D01*
X122042194Y-41196162D01*
X122119448Y-41015915D01*
X122230247Y-40854099D01*
X122370362Y-40716888D01*
X122534459Y-40609506D01*
X122716289Y-40536041D01*
X122908928Y-40499293D01*
X123105035Y-40500663D01*
X123297143Y-40540097D01*
X123477927Y-40616091D01*
X123640513Y-40725757D01*
X123778697Y-40864909D01*
X123887221Y-41028253D01*
X123961956Y-41209573D01*
X123999910Y-41401252D01*
X123999909Y-41401271D01*
X124000043Y-41401945D01*
X124000043Y-41401945D01*
G37*
G36*
X124000043Y-46401945D02*
X123996916Y-46625940D01*
X123996763Y-46626612D01*
X123996763Y-46626627D01*
X123953471Y-46817180D01*
X123873706Y-46996335D01*
X123760662Y-47156583D01*
X123618644Y-47291826D01*
X123453057Y-47396910D01*
X123270226Y-47467826D01*
X123077089Y-47501881D01*
X122881022Y-47497774D01*
X122689486Y-47455662D01*
X122509778Y-47377150D01*
X122348743Y-47265227D01*
X122212512Y-47124156D01*
X122106278Y-46959311D01*
X122034082Y-46776969D01*
X121998682Y-46584082D01*
X122001419Y-46387993D01*
X122042194Y-46196162D01*
X122119448Y-46015915D01*
X122230247Y-45854099D01*
X122370362Y-45716888D01*
X122534459Y-45609506D01*
X122716289Y-45536041D01*
X122908928Y-45499293D01*
X123105035Y-45500663D01*
X123297143Y-45540097D01*
X123477927Y-45616091D01*
X123640513Y-45725757D01*
X123778697Y-45864909D01*
X123887221Y-46028253D01*
X123961956Y-46209573D01*
X123999910Y-46401252D01*
X123999909Y-46401271D01*
X124000043Y-46401945D01*
X124000043Y-46401945D01*
G37*
G36*
X126650051Y-117332334D02*
X126646298Y-117601128D01*
X126646147Y-117601791D01*
X126646147Y-117601815D01*
X126594164Y-117830612D01*
X126498445Y-118045603D01*
X126362794Y-118237900D01*
X126192372Y-118400191D01*
X125993669Y-118526291D01*
X125774270Y-118611391D01*
X125542507Y-118652257D01*
X125307226Y-118647328D01*
X125077385Y-118596795D01*
X124861734Y-118502579D01*
X124668491Y-118368272D01*
X124505015Y-118198987D01*
X124377533Y-118001173D01*
X124290899Y-117782363D01*
X124248418Y-117550900D01*
X124251704Y-117315592D01*
X124300633Y-117085400D01*
X124393341Y-116869094D01*
X124526296Y-116674919D01*
X124694433Y-116510268D01*
X124891354Y-116381406D01*
X125109547Y-116293250D01*
X125340714Y-116249152D01*
X125576041Y-116250796D01*
X125806570Y-116298116D01*
X126023512Y-116389310D01*
X126218615Y-116520908D01*
X126384436Y-116687891D01*
X126514666Y-116883904D01*
X126604347Y-117101486D01*
X126649919Y-117331641D01*
X126649918Y-117331665D01*
X126650051Y-117332334D01*
X126650051Y-117332334D01*
G37*
G36*
X126650051Y-122432334D02*
X126646298Y-122701128D01*
X126646147Y-122701791D01*
X126646147Y-122701815D01*
X126594164Y-122930612D01*
X126498445Y-123145603D01*
X126362794Y-123337900D01*
X126192372Y-123500191D01*
X125993669Y-123626291D01*
X125774270Y-123711391D01*
X125542507Y-123752257D01*
X125307226Y-123747328D01*
X125077385Y-123696795D01*
X124861734Y-123602579D01*
X124668491Y-123468272D01*
X124505015Y-123298987D01*
X124377533Y-123101173D01*
X124290899Y-122882363D01*
X124248418Y-122650900D01*
X124251704Y-122415592D01*
X124300633Y-122185400D01*
X124393341Y-121969094D01*
X124526296Y-121774919D01*
X124694433Y-121610268D01*
X124891354Y-121481406D01*
X125109547Y-121393250D01*
X125340714Y-121349152D01*
X125576041Y-121350796D01*
X125806570Y-121398116D01*
X126023512Y-121489310D01*
X126218615Y-121620908D01*
X126384436Y-121787891D01*
X126514666Y-121983904D01*
X126604347Y-122201486D01*
X126649919Y-122431641D01*
X126649918Y-122431665D01*
X126650051Y-122432334D01*
X126650051Y-122432334D01*
G37*
G36*
X128975000Y-79700000D02*
X128025000Y-79700000D01*
X128025000Y-78800000D01*
X128975000Y-78800000D01*
X128975000Y-79700000D01*
X128975000Y-79700000D01*
G37*
G36*
X128975000Y-81200000D02*
X128025000Y-81200000D01*
X128025000Y-80300000D01*
X128975000Y-80300000D01*
X128975000Y-81200000D01*
X128975000Y-81200000D01*
G37*
G36*
X129000043Y-119901945D02*
X128996916Y-120125940D01*
X128996763Y-120126612D01*
X128996763Y-120126627D01*
X128953471Y-120317180D01*
X128873706Y-120496335D01*
X128760662Y-120656583D01*
X128618644Y-120791826D01*
X128453057Y-120896910D01*
X128270226Y-120967826D01*
X128077089Y-121001881D01*
X127881022Y-120997774D01*
X127689486Y-120955662D01*
X127509778Y-120877150D01*
X127348743Y-120765227D01*
X127212512Y-120624156D01*
X127106278Y-120459311D01*
X127034082Y-120276969D01*
X126998682Y-120084082D01*
X127001419Y-119887993D01*
X127042194Y-119696162D01*
X127119448Y-119515915D01*
X127230247Y-119354099D01*
X127370362Y-119216888D01*
X127534459Y-119109506D01*
X127716289Y-119036041D01*
X127908928Y-118999293D01*
X128105035Y-119000663D01*
X128297143Y-119040097D01*
X128477927Y-119116091D01*
X128640513Y-119225757D01*
X128778697Y-119364909D01*
X128887221Y-119528253D01*
X128961956Y-119709573D01*
X128999910Y-119901252D01*
X128999909Y-119901271D01*
X129000043Y-119901945D01*
X129000043Y-119901945D01*
G37*
G36*
X129600026Y-54441167D02*
X129598149Y-54575564D01*
X129597998Y-54576227D01*
X129597998Y-54576251D01*
X129572084Y-54690309D01*
X129524226Y-54797798D01*
X129456396Y-54893954D01*
X129371186Y-54975098D01*
X129271837Y-55038146D01*
X129162136Y-55080697D01*
X129046253Y-55101131D01*
X128928612Y-55098666D01*
X128813691Y-55073400D01*
X128705866Y-55026292D01*
X128609245Y-54959138D01*
X128527506Y-54874495D01*
X128463764Y-54775587D01*
X128420448Y-54666183D01*
X128399207Y-54550450D01*
X128400850Y-54432797D01*
X128425314Y-54317700D01*
X128471669Y-54209545D01*
X128538147Y-54112458D01*
X128622216Y-54030131D01*
X128720674Y-53965702D01*
X128829772Y-53921623D01*
X128945356Y-53899574D01*
X129063026Y-53900396D01*
X129178285Y-53924055D01*
X129286755Y-53969652D01*
X129384310Y-54035453D01*
X129467220Y-54118944D01*
X129532334Y-54216950D01*
X129577176Y-54325744D01*
X129599893Y-54440474D01*
X129599892Y-54440493D01*
X129600026Y-54441167D01*
X129600026Y-54441167D01*
G37*
G36*
X130200000Y-82225000D02*
X129300000Y-82225000D01*
X129300000Y-81275000D01*
X130200000Y-81275000D01*
X130200000Y-82225000D01*
X130200000Y-82225000D01*
G37*
G36*
X131675000Y-80475000D02*
X130525000Y-80475000D01*
X130525000Y-79025000D01*
X131675000Y-79025000D01*
X131675000Y-80475000D01*
X131675000Y-80475000D01*
G37*
G36*
X131700000Y-82225000D02*
X130800000Y-82225000D01*
X130800000Y-81275000D01*
X131700000Y-81275000D01*
X131700000Y-82225000D01*
X131700000Y-82225000D01*
G37*
G36*
X131750051Y-117332334D02*
X131746298Y-117601128D01*
X131746147Y-117601791D01*
X131746147Y-117601815D01*
X131694164Y-117830612D01*
X131598445Y-118045603D01*
X131462794Y-118237900D01*
X131292372Y-118400191D01*
X131093669Y-118526291D01*
X130874270Y-118611391D01*
X130642507Y-118652257D01*
X130407226Y-118647328D01*
X130177385Y-118596795D01*
X129961734Y-118502579D01*
X129768491Y-118368272D01*
X129605015Y-118198987D01*
X129477533Y-118001173D01*
X129390899Y-117782363D01*
X129348418Y-117550900D01*
X129351704Y-117315592D01*
X129400633Y-117085400D01*
X129493341Y-116869094D01*
X129626296Y-116674919D01*
X129794433Y-116510268D01*
X129991354Y-116381406D01*
X130209547Y-116293250D01*
X130440714Y-116249152D01*
X130676041Y-116250796D01*
X130906570Y-116298116D01*
X131123512Y-116389310D01*
X131318615Y-116520908D01*
X131484436Y-116687891D01*
X131614666Y-116883904D01*
X131704347Y-117101486D01*
X131749919Y-117331641D01*
X131749918Y-117331665D01*
X131750051Y-117332334D01*
X131750051Y-117332334D01*
G37*
G36*
X131750051Y-122432334D02*
X131746298Y-122701128D01*
X131746147Y-122701791D01*
X131746147Y-122701815D01*
X131694164Y-122930612D01*
X131598445Y-123145603D01*
X131462794Y-123337900D01*
X131292372Y-123500191D01*
X131093669Y-123626291D01*
X130874270Y-123711391D01*
X130642507Y-123752257D01*
X130407226Y-123747328D01*
X130177385Y-123696795D01*
X129961734Y-123602579D01*
X129768491Y-123468272D01*
X129605015Y-123298987D01*
X129477533Y-123101173D01*
X129390899Y-122882363D01*
X129348418Y-122650900D01*
X129351704Y-122415592D01*
X129400633Y-122185400D01*
X129493341Y-121969094D01*
X129626296Y-121774919D01*
X129794433Y-121610268D01*
X129991354Y-121481406D01*
X130209547Y-121393250D01*
X130440714Y-121349152D01*
X130676041Y-121350796D01*
X130906570Y-121398116D01*
X131123512Y-121489310D01*
X131318615Y-121620908D01*
X131484436Y-121787891D01*
X131614666Y-121983904D01*
X131704347Y-122201486D01*
X131749919Y-122431641D01*
X131749918Y-122431665D01*
X131750051Y-122432334D01*
X131750051Y-122432334D01*
G37*
G36*
X133175000Y-110500000D02*
X132325000Y-110500000D01*
X132325000Y-109500000D01*
X133175000Y-109500000D01*
X133175000Y-110500000D01*
X133175000Y-110500000D01*
G37*
G36*
X133200000Y-82225000D02*
X132300000Y-82225000D01*
X132300000Y-81275000D01*
X133200000Y-81275000D01*
X133200000Y-82225000D01*
X133200000Y-82225000D01*
G37*
G36*
X133475000Y-80475000D02*
X132325000Y-80475000D01*
X132325000Y-79025000D01*
X133475000Y-79025000D01*
X133475000Y-80475000D01*
X133475000Y-80475000D01*
G37*
G36*
X134200000Y-102725000D02*
X133300000Y-102725000D01*
X133300000Y-101775000D01*
X134200000Y-101775000D01*
X134200000Y-102725000D01*
X134200000Y-102725000D01*
G37*
G36*
X134675000Y-110500000D02*
X133825000Y-110500000D01*
X133825000Y-109500000D01*
X134675000Y-109500000D01*
X134675000Y-110500000D01*
X134675000Y-110500000D01*
G37*
G36*
X134700000Y-82225000D02*
X133800000Y-82225000D01*
X133800000Y-81275000D01*
X134700000Y-81275000D01*
X134700000Y-82225000D01*
X134700000Y-82225000D01*
G37*
G36*
X135700000Y-102725000D02*
X134800000Y-102725000D01*
X134800000Y-101775000D01*
X135700000Y-101775000D01*
X135700000Y-102725000D01*
X135700000Y-102725000D01*
G37*
G36*
X136300000Y-107650000D02*
X135000000Y-107650000D01*
X135000000Y-106850000D01*
X136300000Y-106850000D01*
X136300000Y-107650000D01*
X136300000Y-107650000D01*
G37*
G36*
X136300000Y-111400000D02*
X135000000Y-111400000D01*
X135000000Y-110600000D01*
X136300000Y-110600000D01*
X136300000Y-111400000D01*
X136300000Y-111400000D01*
G37*
G36*
X137200000Y-102725000D02*
X136300000Y-102725000D01*
X136300000Y-101775000D01*
X137200000Y-101775000D01*
X137200000Y-102725000D01*
X137200000Y-102725000D01*
G37*
G36*
X138500000Y-106750000D02*
X137200000Y-106750000D01*
X137200000Y-105850000D01*
X138500000Y-105850000D01*
X138500000Y-106750000D01*
X138500000Y-106750000D01*
G37*
G36*
X138500000Y-108650000D02*
X137200000Y-108650000D01*
X137200000Y-107750000D01*
X138500000Y-107750000D01*
X138500000Y-108650000D01*
X138500000Y-108650000D01*
G37*
G36*
X138500000Y-110500000D02*
X137200000Y-110500000D01*
X137200000Y-109600000D01*
X138500000Y-109600000D01*
X138500000Y-110500000D01*
X138500000Y-110500000D01*
G37*
G36*
X138500000Y-112400000D02*
X137200000Y-112400000D01*
X137200000Y-111500000D01*
X138500000Y-111500000D01*
X138500000Y-112400000D01*
X138500000Y-112400000D01*
G37*
G36*
X138700000Y-102725000D02*
X137800000Y-102725000D01*
X137800000Y-101775000D01*
X138700000Y-101775000D01*
X138700000Y-102725000D01*
X138700000Y-102725000D01*
G37*
G36*
X140500000Y-106925000D02*
X139500000Y-106925000D01*
X139500000Y-106075000D01*
X140500000Y-106075000D01*
X140500000Y-106925000D01*
X140500000Y-106925000D01*
G37*
G36*
X140500000Y-108425000D02*
X139500000Y-108425000D01*
X139500000Y-107575000D01*
X140500000Y-107575000D01*
X140500000Y-108425000D01*
X140500000Y-108425000D01*
G37*
G36*
X142150051Y-117332334D02*
X142146298Y-117601128D01*
X142146147Y-117601791D01*
X142146147Y-117601815D01*
X142094164Y-117830612D01*
X141998445Y-118045603D01*
X141862794Y-118237900D01*
X141692372Y-118400191D01*
X141493669Y-118526291D01*
X141274270Y-118611391D01*
X141042507Y-118652257D01*
X140807226Y-118647328D01*
X140577385Y-118596795D01*
X140361734Y-118502579D01*
X140168491Y-118368272D01*
X140005015Y-118198987D01*
X139877533Y-118001173D01*
X139790899Y-117782363D01*
X139748418Y-117550900D01*
X139751704Y-117315592D01*
X139800633Y-117085400D01*
X139893341Y-116869094D01*
X140026296Y-116674919D01*
X140194433Y-116510268D01*
X140391354Y-116381406D01*
X140609547Y-116293250D01*
X140840714Y-116249152D01*
X141076041Y-116250796D01*
X141306570Y-116298116D01*
X141523512Y-116389310D01*
X141718615Y-116520908D01*
X141884436Y-116687891D01*
X142014666Y-116883904D01*
X142104347Y-117101486D01*
X142149919Y-117331641D01*
X142149918Y-117331665D01*
X142150051Y-117332334D01*
X142150051Y-117332334D01*
G37*
G36*
X142150051Y-122432334D02*
X142146298Y-122701128D01*
X142146147Y-122701791D01*
X142146147Y-122701815D01*
X142094164Y-122930612D01*
X141998445Y-123145603D01*
X141862794Y-123337900D01*
X141692372Y-123500191D01*
X141493669Y-123626291D01*
X141274270Y-123711391D01*
X141042507Y-123752257D01*
X140807226Y-123747328D01*
X140577385Y-123696795D01*
X140361734Y-123602579D01*
X140168491Y-123468272D01*
X140005015Y-123298987D01*
X139877533Y-123101173D01*
X139790899Y-122882363D01*
X139748418Y-122650900D01*
X139751704Y-122415592D01*
X139800633Y-122185400D01*
X139893341Y-121969094D01*
X140026296Y-121774919D01*
X140194433Y-121610268D01*
X140391354Y-121481406D01*
X140609547Y-121393250D01*
X140840714Y-121349152D01*
X141076041Y-121350796D01*
X141306570Y-121398116D01*
X141523512Y-121489310D01*
X141718615Y-121620908D01*
X141884436Y-121787891D01*
X142014666Y-121983904D01*
X142104347Y-122201486D01*
X142149919Y-122431641D01*
X142149918Y-122431665D01*
X142150051Y-122432334D01*
X142150051Y-122432334D01*
G37*
G36*
X144500043Y-119901945D02*
X144496916Y-120125940D01*
X144496763Y-120126612D01*
X144496763Y-120126627D01*
X144453471Y-120317180D01*
X144373706Y-120496335D01*
X144260662Y-120656583D01*
X144118644Y-120791826D01*
X143953057Y-120896910D01*
X143770226Y-120967826D01*
X143577089Y-121001881D01*
X143381022Y-120997774D01*
X143189486Y-120955662D01*
X143009778Y-120877150D01*
X142848743Y-120765227D01*
X142712512Y-120624156D01*
X142606278Y-120459311D01*
X142534082Y-120276969D01*
X142498682Y-120084082D01*
X142501419Y-119887993D01*
X142542194Y-119696162D01*
X142619448Y-119515915D01*
X142730247Y-119354099D01*
X142870362Y-119216888D01*
X143034459Y-119109506D01*
X143216289Y-119036041D01*
X143408928Y-118999293D01*
X143605035Y-119000663D01*
X143797143Y-119040097D01*
X143977927Y-119116091D01*
X144140513Y-119225757D01*
X144278697Y-119364909D01*
X144387221Y-119528253D01*
X144461956Y-119709573D01*
X144499910Y-119901252D01*
X144499909Y-119901271D01*
X144500043Y-119901945D01*
X144500043Y-119901945D01*
G37*
G36*
X146425000Y-104750000D02*
X145575000Y-104750000D01*
X145575000Y-103750000D01*
X146425000Y-103750000D01*
X146425000Y-104750000D01*
X146425000Y-104750000D01*
G37*
G36*
X146425000Y-106500000D02*
X145575000Y-106500000D01*
X145575000Y-105500000D01*
X146425000Y-105500000D01*
X146425000Y-106500000D01*
X146425000Y-106500000D01*
G37*
G36*
X147250051Y-117332334D02*
X147246298Y-117601128D01*
X147246147Y-117601791D01*
X147246147Y-117601815D01*
X147194164Y-117830612D01*
X147098445Y-118045603D01*
X146962794Y-118237900D01*
X146792372Y-118400191D01*
X146593669Y-118526291D01*
X146374270Y-118611391D01*
X146142507Y-118652257D01*
X145907226Y-118647328D01*
X145677385Y-118596795D01*
X145461734Y-118502579D01*
X145268491Y-118368272D01*
X145105015Y-118198987D01*
X144977533Y-118001173D01*
X144890899Y-117782363D01*
X144848418Y-117550900D01*
X144851704Y-117315592D01*
X144900633Y-117085400D01*
X144993341Y-116869094D01*
X145126296Y-116674919D01*
X145294433Y-116510268D01*
X145491354Y-116381406D01*
X145709547Y-116293250D01*
X145940714Y-116249152D01*
X146176041Y-116250796D01*
X146406570Y-116298116D01*
X146623512Y-116389310D01*
X146818615Y-116520908D01*
X146984436Y-116687891D01*
X147114666Y-116883904D01*
X147204347Y-117101486D01*
X147249919Y-117331641D01*
X147249918Y-117331665D01*
X147250051Y-117332334D01*
X147250051Y-117332334D01*
G37*
G36*
X147250051Y-122432334D02*
X147246298Y-122701128D01*
X147246147Y-122701791D01*
X147246147Y-122701815D01*
X147194164Y-122930612D01*
X147098445Y-123145603D01*
X146962794Y-123337900D01*
X146792372Y-123500191D01*
X146593669Y-123626291D01*
X146374270Y-123711391D01*
X146142507Y-123752257D01*
X145907226Y-123747328D01*
X145677385Y-123696795D01*
X145461734Y-123602579D01*
X145268491Y-123468272D01*
X145105015Y-123298987D01*
X144977533Y-123101173D01*
X144890899Y-122882363D01*
X144848418Y-122650900D01*
X144851704Y-122415592D01*
X144900633Y-122185400D01*
X144993341Y-121969094D01*
X145126296Y-121774919D01*
X145294433Y-121610268D01*
X145491354Y-121481406D01*
X145709547Y-121393250D01*
X145940714Y-121349152D01*
X146176041Y-121350796D01*
X146406570Y-121398116D01*
X146623512Y-121489310D01*
X146818615Y-121620908D01*
X146984436Y-121787891D01*
X147114666Y-121983904D01*
X147204347Y-122201486D01*
X147249919Y-122431641D01*
X147249918Y-122431665D01*
X147250051Y-122432334D01*
X147250051Y-122432334D01*
G37*
G36*
X147925000Y-104750000D02*
X147075000Y-104750000D01*
X147075000Y-103750000D01*
X147925000Y-103750000D01*
X147925000Y-104750000D01*
X147925000Y-104750000D01*
G37*
G36*
X147925000Y-106500000D02*
X147075000Y-106500000D01*
X147075000Y-105500000D01*
X147925000Y-105500000D01*
X147925000Y-106500000D01*
X147925000Y-106500000D01*
G37*
G36*
X150000043Y-41401945D02*
X149996916Y-41625940D01*
X149996763Y-41626612D01*
X149996763Y-41626627D01*
X149953471Y-41817180D01*
X149873706Y-41996335D01*
X149760662Y-42156583D01*
X149618644Y-42291826D01*
X149453057Y-42396910D01*
X149270226Y-42467826D01*
X149077089Y-42501881D01*
X148881022Y-42497774D01*
X148689486Y-42455662D01*
X148509778Y-42377150D01*
X148348743Y-42265227D01*
X148212512Y-42124156D01*
X148106278Y-41959311D01*
X148034082Y-41776969D01*
X147998682Y-41584082D01*
X148001419Y-41387993D01*
X148042194Y-41196162D01*
X148119448Y-41015915D01*
X148230247Y-40854099D01*
X148370362Y-40716888D01*
X148534459Y-40609506D01*
X148716289Y-40536041D01*
X148908928Y-40499293D01*
X149105035Y-40500663D01*
X149297143Y-40540097D01*
X149477927Y-40616091D01*
X149640513Y-40725757D01*
X149778697Y-40864909D01*
X149887221Y-41028253D01*
X149961956Y-41209573D01*
X149999910Y-41401252D01*
X149999909Y-41401271D01*
X150000043Y-41401945D01*
X150000043Y-41401945D01*
G37*
G36*
X150000043Y-46401945D02*
X149996916Y-46625940D01*
X149996763Y-46626612D01*
X149996763Y-46626627D01*
X149953471Y-46817180D01*
X149873706Y-46996335D01*
X149760662Y-47156583D01*
X149618644Y-47291826D01*
X149453057Y-47396910D01*
X149270226Y-47467826D01*
X149077089Y-47501881D01*
X148881022Y-47497774D01*
X148689486Y-47455662D01*
X148509778Y-47377150D01*
X148348743Y-47265227D01*
X148212512Y-47124156D01*
X148106278Y-46959311D01*
X148034082Y-46776969D01*
X147998682Y-46584082D01*
X148001419Y-46387993D01*
X148042194Y-46196162D01*
X148119448Y-46015915D01*
X148230247Y-45854099D01*
X148370362Y-45716888D01*
X148534459Y-45609506D01*
X148716289Y-45536041D01*
X148908928Y-45499293D01*
X149105035Y-45500663D01*
X149297143Y-45540097D01*
X149477927Y-45616091D01*
X149640513Y-45725757D01*
X149778697Y-45864909D01*
X149887221Y-46028253D01*
X149961956Y-46209573D01*
X149999910Y-46401252D01*
X149999909Y-46401271D01*
X150000043Y-46401945D01*
X150000043Y-46401945D01*
G37*
G36*
X153475000Y-79700000D02*
X152525000Y-79700000D01*
X152525000Y-78800000D01*
X153475000Y-78800000D01*
X153475000Y-79700000D01*
X153475000Y-79700000D01*
G37*
G36*
X153475000Y-81200000D02*
X152525000Y-81200000D01*
X152525000Y-80300000D01*
X153475000Y-80300000D01*
X153475000Y-81200000D01*
X153475000Y-81200000D01*
G37*
G36*
X154700000Y-82225000D02*
X153800000Y-82225000D01*
X153800000Y-81275000D01*
X154700000Y-81275000D01*
X154700000Y-82225000D01*
X154700000Y-82225000D01*
G37*
G36*
X156175000Y-80225000D02*
X155025000Y-80225000D01*
X155025000Y-78775000D01*
X156175000Y-78775000D01*
X156175000Y-80225000D01*
X156175000Y-80225000D01*
G37*
G36*
X156200000Y-82225000D02*
X155300000Y-82225000D01*
X155300000Y-81275000D01*
X156200000Y-81275000D01*
X156200000Y-82225000D01*
X156200000Y-82225000D01*
G37*
G36*
X156650051Y-117332334D02*
X156646298Y-117601128D01*
X156646147Y-117601791D01*
X156646147Y-117601815D01*
X156594164Y-117830612D01*
X156498445Y-118045603D01*
X156362794Y-118237900D01*
X156192372Y-118400191D01*
X155993669Y-118526291D01*
X155774270Y-118611391D01*
X155542507Y-118652257D01*
X155307226Y-118647328D01*
X155077385Y-118596795D01*
X154861734Y-118502579D01*
X154668491Y-118368272D01*
X154505015Y-118198987D01*
X154377533Y-118001173D01*
X154290899Y-117782363D01*
X154248418Y-117550900D01*
X154251704Y-117315592D01*
X154300633Y-117085400D01*
X154393341Y-116869094D01*
X154526296Y-116674919D01*
X154694433Y-116510268D01*
X154891354Y-116381406D01*
X155109547Y-116293250D01*
X155340714Y-116249152D01*
X155576041Y-116250796D01*
X155806570Y-116298116D01*
X156023512Y-116389310D01*
X156218615Y-116520908D01*
X156384436Y-116687891D01*
X156514666Y-116883904D01*
X156604347Y-117101486D01*
X156649919Y-117331641D01*
X156649918Y-117331665D01*
X156650051Y-117332334D01*
X156650051Y-117332334D01*
G37*
G36*
X156650051Y-122432334D02*
X156646298Y-122701128D01*
X156646147Y-122701791D01*
X156646147Y-122701815D01*
X156594164Y-122930612D01*
X156498445Y-123145603D01*
X156362794Y-123337900D01*
X156192372Y-123500191D01*
X155993669Y-123626291D01*
X155774270Y-123711391D01*
X155542507Y-123752257D01*
X155307226Y-123747328D01*
X155077385Y-123696795D01*
X154861734Y-123602579D01*
X154668491Y-123468272D01*
X154505015Y-123298987D01*
X154377533Y-123101173D01*
X154290899Y-122882363D01*
X154248418Y-122650900D01*
X154251704Y-122415592D01*
X154300633Y-122185400D01*
X154393341Y-121969094D01*
X154526296Y-121774919D01*
X154694433Y-121610268D01*
X154891354Y-121481406D01*
X155109547Y-121393250D01*
X155340714Y-121349152D01*
X155576041Y-121350796D01*
X155806570Y-121398116D01*
X156023512Y-121489310D01*
X156218615Y-121620908D01*
X156384436Y-121787891D01*
X156514666Y-121983904D01*
X156604347Y-122201486D01*
X156649919Y-122431641D01*
X156649918Y-122431665D01*
X156650051Y-122432334D01*
X156650051Y-122432334D01*
G37*
G36*
X157400000Y-108150000D02*
X155600000Y-108150000D01*
X155600000Y-106950000D01*
X157400000Y-106950000D01*
X157400000Y-108150000D01*
X157400000Y-108150000D01*
G37*
G36*
X157400000Y-111050000D02*
X155600000Y-111050000D01*
X155600000Y-109850000D01*
X157400000Y-109850000D01*
X157400000Y-111050000D01*
X157400000Y-111050000D01*
G37*
G36*
X157700000Y-82225000D02*
X156800000Y-82225000D01*
X156800000Y-81275000D01*
X157700000Y-81275000D01*
X157700000Y-82225000D01*
X157700000Y-82225000D01*
G37*
G36*
X157975000Y-80225000D02*
X156825000Y-80225000D01*
X156825000Y-78775000D01*
X157975000Y-78775000D01*
X157975000Y-80225000D01*
X157975000Y-80225000D01*
G37*
G36*
X158225000Y-101925000D02*
X156775000Y-101925000D01*
X156775000Y-100775000D01*
X158225000Y-100775000D01*
X158225000Y-101925000D01*
X158225000Y-101925000D01*
G37*
G36*
X158225000Y-103725000D02*
X156775000Y-103725000D01*
X156775000Y-102575000D01*
X158225000Y-102575000D01*
X158225000Y-103725000D01*
X158225000Y-103725000D01*
G37*
G36*
X159000043Y-119901945D02*
X158996916Y-120125940D01*
X158996763Y-120126612D01*
X158996763Y-120126627D01*
X158953471Y-120317180D01*
X158873706Y-120496335D01*
X158760662Y-120656583D01*
X158618644Y-120791826D01*
X158453057Y-120896910D01*
X158270226Y-120967826D01*
X158077089Y-121001881D01*
X157881022Y-120997774D01*
X157689486Y-120955662D01*
X157509778Y-120877150D01*
X157348743Y-120765227D01*
X157212512Y-120624156D01*
X157106278Y-120459311D01*
X157034082Y-120276969D01*
X156998682Y-120084082D01*
X157001419Y-119887993D01*
X157042194Y-119696162D01*
X157119448Y-119515915D01*
X157230247Y-119354099D01*
X157370362Y-119216888D01*
X157534459Y-119109506D01*
X157716289Y-119036041D01*
X157908928Y-118999293D01*
X158105035Y-119000663D01*
X158297143Y-119040097D01*
X158477927Y-119116091D01*
X158640513Y-119225757D01*
X158778697Y-119364909D01*
X158887221Y-119528253D01*
X158961956Y-119709573D01*
X158999910Y-119901252D01*
X158999909Y-119901271D01*
X159000043Y-119901945D01*
X159000043Y-119901945D01*
G37*
G36*
X159200000Y-82225000D02*
X158300000Y-82225000D01*
X158300000Y-81275000D01*
X159200000Y-81275000D01*
X159200000Y-82225000D01*
X159200000Y-82225000D01*
G37*
G36*
X159975000Y-101950000D02*
X159025000Y-101950000D01*
X159025000Y-101050000D01*
X159975000Y-101050000D01*
X159975000Y-101950000D01*
X159975000Y-101950000D01*
G37*
G36*
X159975000Y-103450000D02*
X159025000Y-103450000D01*
X159025000Y-102550000D01*
X159975000Y-102550000D01*
X159975000Y-103450000D01*
X159975000Y-103450000D01*
G37*
G36*
X160725000Y-110475000D02*
X159275000Y-110475000D01*
X159275000Y-109325000D01*
X160725000Y-109325000D01*
X160725000Y-110475000D01*
X160725000Y-110475000D01*
G37*
G36*
X161750051Y-117332334D02*
X161746298Y-117601128D01*
X161746147Y-117601791D01*
X161746147Y-117601815D01*
X161694164Y-117830612D01*
X161598445Y-118045603D01*
X161462794Y-118237900D01*
X161292372Y-118400191D01*
X161093669Y-118526291D01*
X160874270Y-118611391D01*
X160642507Y-118652257D01*
X160407226Y-118647328D01*
X160177385Y-118596795D01*
X159961734Y-118502579D01*
X159768491Y-118368272D01*
X159605015Y-118198987D01*
X159477533Y-118001173D01*
X159390899Y-117782363D01*
X159348418Y-117550900D01*
X159351704Y-117315592D01*
X159400633Y-117085400D01*
X159493341Y-116869094D01*
X159626296Y-116674919D01*
X159794433Y-116510268D01*
X159991354Y-116381406D01*
X160209547Y-116293250D01*
X160440714Y-116249152D01*
X160676041Y-116250796D01*
X160906570Y-116298116D01*
X161123512Y-116389310D01*
X161318615Y-116520908D01*
X161484436Y-116687891D01*
X161614666Y-116883904D01*
X161704347Y-117101486D01*
X161749919Y-117331641D01*
X161749918Y-117331665D01*
X161750051Y-117332334D01*
X161750051Y-117332334D01*
G37*
G36*
X161750051Y-122432334D02*
X161746298Y-122701128D01*
X161746147Y-122701791D01*
X161746147Y-122701815D01*
X161694164Y-122930612D01*
X161598445Y-123145603D01*
X161462794Y-123337900D01*
X161292372Y-123500191D01*
X161093669Y-123626291D01*
X160874270Y-123711391D01*
X160642507Y-123752257D01*
X160407226Y-123747328D01*
X160177385Y-123696795D01*
X159961734Y-123602579D01*
X159768491Y-123468272D01*
X159605015Y-123298987D01*
X159477533Y-123101173D01*
X159390899Y-122882363D01*
X159348418Y-122650900D01*
X159351704Y-122415592D01*
X159400633Y-122185400D01*
X159493341Y-121969094D01*
X159626296Y-121774919D01*
X159794433Y-121610268D01*
X159991354Y-121481406D01*
X160209547Y-121393250D01*
X160440714Y-121349152D01*
X160676041Y-121350796D01*
X160906570Y-121398116D01*
X161123512Y-121489310D01*
X161318615Y-121620908D01*
X161484436Y-121787891D01*
X161614666Y-121983904D01*
X161704347Y-122201486D01*
X161749919Y-122431641D01*
X161749918Y-122431665D01*
X161750051Y-122432334D01*
X161750051Y-122432334D01*
G37*
G36*
X163450000Y-102950000D02*
X161202786Y-102950000D01*
X160550000Y-102623607D01*
X160550000Y-99050000D01*
X163450000Y-99050000D01*
X163450000Y-102950000D01*
X163450000Y-102950000D01*
G37*
G36*
X164725000Y-109475000D02*
X163275000Y-109475000D01*
X163275000Y-108500000D01*
X160725000Y-108500000D01*
X160725000Y-108675000D01*
X159275000Y-108675000D01*
X159275000Y-107525000D01*
X160700000Y-107525000D01*
X160700000Y-105500000D01*
X163300000Y-105500000D01*
X163300000Y-106525000D01*
X164725000Y-106525000D01*
X164725000Y-107675000D01*
X163300000Y-107675000D01*
X163300000Y-108325000D01*
X164725000Y-108325000D01*
X164725000Y-109475000D01*
X164725000Y-109475000D01*
G37*
G36*
X164975000Y-99200000D02*
X164025000Y-99200000D01*
X164025000Y-98300000D01*
X164975000Y-98300000D01*
X164975000Y-99200000D01*
X164975000Y-99200000D01*
G37*
G36*
X164975000Y-100700000D02*
X164025000Y-100700000D01*
X164025000Y-99800000D01*
X164975000Y-99800000D01*
X164975000Y-100700000D01*
X164975000Y-100700000D01*
G37*
G36*
X167150000Y-107150000D02*
X165350000Y-107150000D01*
X165350000Y-105950000D01*
X167150000Y-105950000D01*
X167150000Y-107150000D01*
X167150000Y-107150000D01*
G37*
G36*
X167150000Y-110050000D02*
X165350000Y-110050000D01*
X165350000Y-108850000D01*
X167150000Y-108850000D01*
X167150000Y-110050000D01*
X167150000Y-110050000D01*
G37*
G36*
X168000129Y-34705835D02*
X167990746Y-35377819D01*
X167990594Y-35378486D01*
X167990594Y-35378506D01*
X167860407Y-35951528D01*
X167621108Y-36489003D01*
X167281979Y-36969748D01*
X166855925Y-37375473D01*
X166359176Y-37690720D01*
X165810668Y-37903472D01*
X165231270Y-38005636D01*
X164643069Y-37993315D01*
X164068461Y-37866979D01*
X163529337Y-37631442D01*
X163046231Y-37295674D01*
X162637541Y-36872463D01*
X162318836Y-36377930D01*
X162102257Y-35830913D01*
X161996052Y-35252247D01*
X162004266Y-34663977D01*
X162126587Y-34088501D01*
X162358357Y-33547741D01*
X162690745Y-33062303D01*
X163111090Y-32650669D01*
X163603383Y-32328522D01*
X164148873Y-32108129D01*
X164726786Y-31997886D01*
X165315103Y-32001994D01*
X165891421Y-32120295D01*
X166433778Y-32348281D01*
X166921530Y-32677273D01*
X167336086Y-33094734D01*
X167661662Y-33584766D01*
X167885859Y-34128708D01*
X167999996Y-34705145D01*
X167999995Y-34705162D01*
X168000129Y-34705835D01*
X168000129Y-34705835D01*
G37*
G36*
X168000129Y-114705835D02*
X167990746Y-115377819D01*
X167990594Y-115378486D01*
X167990594Y-115378506D01*
X167860407Y-115951528D01*
X167621108Y-116489003D01*
X167281979Y-116969748D01*
X166855925Y-117375473D01*
X166359176Y-117690720D01*
X165810668Y-117903472D01*
X165231270Y-118005636D01*
X164643069Y-117993315D01*
X164068461Y-117866979D01*
X163529337Y-117631442D01*
X163046231Y-117295674D01*
X162637541Y-116872463D01*
X162318836Y-116377930D01*
X162102257Y-115830913D01*
X161996052Y-115252247D01*
X162004266Y-114663977D01*
X162126587Y-114088501D01*
X162358357Y-113547741D01*
X162690745Y-113062303D01*
X163111090Y-112650669D01*
X163603383Y-112328522D01*
X164148873Y-112108129D01*
X164726786Y-111997886D01*
X165315103Y-112001994D01*
X165891421Y-112120295D01*
X166433778Y-112348281D01*
X166921530Y-112677273D01*
X167336086Y-113094734D01*
X167661662Y-113584766D01*
X167885859Y-114128708D01*
X167999996Y-114705145D01*
X167999995Y-114705162D01*
X168000129Y-114705835D01*
X168000129Y-114705835D01*
G37*
G36*
X168225000Y-99175000D02*
X166775000Y-99175000D01*
X166775000Y-98025000D01*
X168225000Y-98025000D01*
X168225000Y-99175000D01*
X168225000Y-99175000D01*
G37*
G36*
X168225000Y-100975000D02*
X166775000Y-100975000D01*
X166775000Y-99825000D01*
X168225000Y-99825000D01*
X168225000Y-100975000D01*
X168225000Y-100975000D01*
G37*
G36*
X175050000Y-125050000D02*
X168700000Y-125050000D01*
X168700000Y-24950000D01*
X175050000Y-24950000D01*
X175050000Y-125050000D01*
X175050000Y-125050000D01*
G37*
M02*
