G04 #@! TF.FileFunction,Other,ECO1*
%FSLAX46Y46*%
G04 Gerber Fmt 4.6, Leading zero omitted, Abs format (unit mm)*
G04 Created by KiCad (PCBNEW (after 2015-mar-04 BZR unknown)-product) date Tue 17 Mar 2015 04:44:01 PM EDT*
%MOMM*%
G01*
G04 APERTURE LIST*
%ADD10C,0.100000*%
%ADD11C,0.300000*%
%ADD12C,0.200000*%
G04 APERTURE END LIST*
D10*
D11*
X76142857Y-134478571D02*
X75285714Y-134478571D01*
X75714286Y-134478571D02*
X75714286Y-132978571D01*
X75571429Y-133192857D01*
X75428571Y-133335714D01*
X75285714Y-133407143D01*
X76785714Y-134335714D02*
X76857142Y-134407143D01*
X76785714Y-134478571D01*
X76714285Y-134407143D01*
X76785714Y-134335714D01*
X76785714Y-134478571D01*
X78142857Y-132978571D02*
X77857143Y-132978571D01*
X77714286Y-133050000D01*
X77642857Y-133121429D01*
X77500000Y-133335714D01*
X77428571Y-133621429D01*
X77428571Y-134192857D01*
X77500000Y-134335714D01*
X77571428Y-134407143D01*
X77714286Y-134478571D01*
X78000000Y-134478571D01*
X78142857Y-134407143D01*
X78214286Y-134335714D01*
X78285714Y-134192857D01*
X78285714Y-133835714D01*
X78214286Y-133692857D01*
X78142857Y-133621429D01*
X78000000Y-133550000D01*
X77714286Y-133550000D01*
X77571428Y-133621429D01*
X77500000Y-133692857D01*
X77428571Y-133835714D01*
X78928571Y-134478571D02*
X78928571Y-133478571D01*
X78928571Y-133621429D02*
X78999999Y-133550000D01*
X79142857Y-133478571D01*
X79357142Y-133478571D01*
X79499999Y-133550000D01*
X79571428Y-133692857D01*
X79571428Y-134478571D01*
X79571428Y-133692857D02*
X79642857Y-133550000D01*
X79785714Y-133478571D01*
X79999999Y-133478571D01*
X80142857Y-133550000D01*
X80214285Y-133692857D01*
X80214285Y-134478571D01*
X80928571Y-134478571D02*
X80928571Y-133478571D01*
X80928571Y-133621429D02*
X80999999Y-133550000D01*
X81142857Y-133478571D01*
X81357142Y-133478571D01*
X81499999Y-133550000D01*
X81571428Y-133692857D01*
X81571428Y-134478571D01*
X81571428Y-133692857D02*
X81642857Y-133550000D01*
X81785714Y-133478571D01*
X81999999Y-133478571D01*
X82142857Y-133550000D01*
X82214285Y-133692857D01*
X82214285Y-134478571D01*
X84571428Y-133692857D02*
X84071428Y-133692857D01*
X84071428Y-134478571D02*
X84071428Y-132978571D01*
X84785714Y-132978571D01*
X86214285Y-134478571D02*
X85714285Y-133764286D01*
X85357142Y-134478571D02*
X85357142Y-132978571D01*
X85928570Y-132978571D01*
X86071428Y-133050000D01*
X86142856Y-133121429D01*
X86214285Y-133264286D01*
X86214285Y-133478571D01*
X86142856Y-133621429D01*
X86071428Y-133692857D01*
X85928570Y-133764286D01*
X85357142Y-133764286D01*
X87499999Y-133478571D02*
X87499999Y-134478571D01*
X87142856Y-132907143D02*
X86785713Y-133978571D01*
X87714285Y-133978571D01*
X88357141Y-134407143D02*
X88357141Y-134478571D01*
X88285713Y-134621429D01*
X88214284Y-134692857D01*
X90785713Y-133478571D02*
X90785713Y-134478571D01*
X90428570Y-132907143D02*
X90071427Y-133978571D01*
X90999999Y-133978571D01*
X93428570Y-134478571D02*
X92714284Y-134478571D01*
X92714284Y-132978571D01*
X93857141Y-134050000D02*
X94571427Y-134050000D01*
X93714284Y-134478571D02*
X94214284Y-132978571D01*
X94714284Y-134478571D01*
X95499998Y-133764286D02*
X95499998Y-134478571D01*
X94999998Y-132978571D02*
X95499998Y-133764286D01*
X95999998Y-132978571D01*
X96499998Y-133692857D02*
X96999998Y-133692857D01*
X97214284Y-134478571D02*
X96499998Y-134478571D01*
X96499998Y-132978571D01*
X97214284Y-132978571D01*
X98714284Y-134478571D02*
X98214284Y-133764286D01*
X97857141Y-134478571D02*
X97857141Y-132978571D01*
X98428569Y-132978571D01*
X98571427Y-133050000D01*
X98642855Y-133121429D01*
X98714284Y-133264286D01*
X98714284Y-133478571D01*
X98642855Y-133621429D01*
X98571427Y-133692857D01*
X98428569Y-133764286D01*
X97857141Y-133764286D01*
X76214286Y-136878571D02*
X75714286Y-136164286D01*
X75357143Y-136878571D02*
X75357143Y-135378571D01*
X75928571Y-135378571D01*
X76071429Y-135450000D01*
X76142857Y-135521429D01*
X76214286Y-135664286D01*
X76214286Y-135878571D01*
X76142857Y-136021429D01*
X76071429Y-136092857D01*
X75928571Y-136164286D01*
X75357143Y-136164286D01*
X77142857Y-135378571D02*
X77428571Y-135378571D01*
X77571429Y-135450000D01*
X77714286Y-135592857D01*
X77785714Y-135878571D01*
X77785714Y-136378571D01*
X77714286Y-136664286D01*
X77571429Y-136807143D01*
X77428571Y-136878571D01*
X77142857Y-136878571D01*
X77000000Y-136807143D01*
X76857143Y-136664286D01*
X76785714Y-136378571D01*
X76785714Y-135878571D01*
X76857143Y-135592857D01*
X77000000Y-135450000D01*
X77142857Y-135378571D01*
X78428572Y-136878571D02*
X78428572Y-135378571D01*
X78428572Y-136092857D02*
X79285715Y-136092857D01*
X79285715Y-136878571D02*
X79285715Y-135378571D01*
X79928572Y-136807143D02*
X80142858Y-136878571D01*
X80500001Y-136878571D01*
X80642858Y-136807143D01*
X80714287Y-136735714D01*
X80785715Y-136592857D01*
X80785715Y-136450000D01*
X80714287Y-136307143D01*
X80642858Y-136235714D01*
X80500001Y-136164286D01*
X80214287Y-136092857D01*
X80071429Y-136021429D01*
X80000001Y-135950000D01*
X79928572Y-135807143D01*
X79928572Y-135664286D01*
X80000001Y-135521429D01*
X80071429Y-135450000D01*
X80214287Y-135378571D01*
X80571429Y-135378571D01*
X80785715Y-135450000D01*
X82571429Y-136878571D02*
X82571429Y-135378571D01*
X82571429Y-136092857D02*
X83428572Y-136092857D01*
X83428572Y-136878571D02*
X83428572Y-135378571D01*
X84071429Y-136450000D02*
X84785715Y-136450000D01*
X83928572Y-136878571D02*
X84428572Y-135378571D01*
X84928572Y-136878571D01*
X85357143Y-136807143D02*
X85571429Y-136878571D01*
X85928572Y-136878571D01*
X86071429Y-136807143D01*
X86142858Y-136735714D01*
X86214286Y-136592857D01*
X86214286Y-136450000D01*
X86142858Y-136307143D01*
X86071429Y-136235714D01*
X85928572Y-136164286D01*
X85642858Y-136092857D01*
X85500000Y-136021429D01*
X85428572Y-135950000D01*
X85357143Y-135807143D01*
X85357143Y-135664286D01*
X85428572Y-135521429D01*
X85500000Y-135450000D01*
X85642858Y-135378571D01*
X86000000Y-135378571D01*
X86214286Y-135450000D01*
X87571429Y-136878571D02*
X86857143Y-136878571D01*
X86857143Y-135378571D01*
X75642857Y-125678571D02*
X75928571Y-125678571D01*
X76071429Y-125750000D01*
X76214286Y-125892857D01*
X76285714Y-126178571D01*
X76285714Y-126678571D01*
X76214286Y-126964286D01*
X76071429Y-127107143D01*
X75928571Y-127178571D01*
X75642857Y-127178571D01*
X75500000Y-127107143D01*
X75357143Y-126964286D01*
X75285714Y-126678571D01*
X75285714Y-126178571D01*
X75357143Y-125892857D01*
X75500000Y-125750000D01*
X75642857Y-125678571D01*
X76928572Y-125678571D02*
X76928572Y-126892857D01*
X77000000Y-127035714D01*
X77071429Y-127107143D01*
X77214286Y-127178571D01*
X77500000Y-127178571D01*
X77642858Y-127107143D01*
X77714286Y-127035714D01*
X77785715Y-126892857D01*
X77785715Y-125678571D01*
X78285715Y-125678571D02*
X79142858Y-125678571D01*
X78714287Y-127178571D02*
X78714287Y-125678571D01*
X80357144Y-127178571D02*
X79642858Y-127178571D01*
X79642858Y-125678571D01*
X80857144Y-127178571D02*
X80857144Y-125678571D01*
X81571430Y-127178571D02*
X81571430Y-125678571D01*
X82428573Y-127178571D01*
X82428573Y-125678571D01*
X83142859Y-126392857D02*
X83642859Y-126392857D01*
X83857145Y-127178571D02*
X83142859Y-127178571D01*
X83142859Y-125678571D01*
X83857145Y-125678571D01*
X182028571Y-81071427D02*
X182028571Y-81928570D01*
X182028571Y-81499998D02*
X180528571Y-81499998D01*
X180742857Y-81642855D01*
X180885714Y-81785713D01*
X180957143Y-81928570D01*
X180528571Y-80142856D02*
X180528571Y-79999999D01*
X180600000Y-79857142D01*
X180671429Y-79785713D01*
X180814286Y-79714284D01*
X181100000Y-79642856D01*
X181457143Y-79642856D01*
X181742857Y-79714284D01*
X181885714Y-79785713D01*
X181957143Y-79857142D01*
X182028571Y-79999999D01*
X182028571Y-80142856D01*
X181957143Y-80285713D01*
X181885714Y-80357142D01*
X181742857Y-80428570D01*
X181457143Y-80499999D01*
X181100000Y-80499999D01*
X180814286Y-80428570D01*
X180671429Y-80357142D01*
X180600000Y-80285713D01*
X180528571Y-80142856D01*
X180528571Y-78714285D02*
X180528571Y-78571428D01*
X180600000Y-78428571D01*
X180671429Y-78357142D01*
X180814286Y-78285713D01*
X181100000Y-78214285D01*
X181457143Y-78214285D01*
X181742857Y-78285713D01*
X181885714Y-78357142D01*
X181957143Y-78428571D01*
X182028571Y-78571428D01*
X182028571Y-78714285D01*
X181957143Y-78857142D01*
X181885714Y-78928571D01*
X181742857Y-78999999D01*
X181457143Y-79071428D01*
X181100000Y-79071428D01*
X180814286Y-78999999D01*
X180671429Y-78928571D01*
X180600000Y-78857142D01*
X180528571Y-78714285D01*
X181885714Y-77571428D02*
X181957143Y-77500000D01*
X182028571Y-77571428D01*
X181957143Y-77642857D01*
X181885714Y-77571428D01*
X182028571Y-77571428D01*
X180528571Y-76571428D02*
X180528571Y-76428571D01*
X180600000Y-76285714D01*
X180671429Y-76214285D01*
X180814286Y-76142856D01*
X181100000Y-76071428D01*
X181457143Y-76071428D01*
X181742857Y-76142856D01*
X181885714Y-76214285D01*
X181957143Y-76285714D01*
X182028571Y-76428571D01*
X182028571Y-76571428D01*
X181957143Y-76714285D01*
X181885714Y-76785714D01*
X181742857Y-76857142D01*
X181457143Y-76928571D01*
X181100000Y-76928571D01*
X180814286Y-76857142D01*
X180671429Y-76785714D01*
X180600000Y-76714285D01*
X180528571Y-76571428D01*
X180528571Y-75142857D02*
X180528571Y-75000000D01*
X180600000Y-74857143D01*
X180671429Y-74785714D01*
X180814286Y-74714285D01*
X181100000Y-74642857D01*
X181457143Y-74642857D01*
X181742857Y-74714285D01*
X181885714Y-74785714D01*
X181957143Y-74857143D01*
X182028571Y-75000000D01*
X182028571Y-75142857D01*
X181957143Y-75285714D01*
X181885714Y-75357143D01*
X181742857Y-75428571D01*
X181457143Y-75500000D01*
X181100000Y-75500000D01*
X180814286Y-75428571D01*
X180671429Y-75357143D01*
X180600000Y-75285714D01*
X180528571Y-75142857D01*
X180528571Y-73714286D02*
X180528571Y-73571429D01*
X180600000Y-73428572D01*
X180671429Y-73357143D01*
X180814286Y-73285714D01*
X181100000Y-73214286D01*
X181457143Y-73214286D01*
X181742857Y-73285714D01*
X181885714Y-73357143D01*
X181957143Y-73428572D01*
X182028571Y-73571429D01*
X182028571Y-73714286D01*
X181957143Y-73857143D01*
X181885714Y-73928572D01*
X181742857Y-74000000D01*
X181457143Y-74071429D01*
X181100000Y-74071429D01*
X180814286Y-74000000D01*
X180671429Y-73928572D01*
X180600000Y-73857143D01*
X180528571Y-73714286D01*
X182028571Y-71428572D02*
X181028571Y-71428572D01*
X181171429Y-71428572D02*
X181100000Y-71357144D01*
X181028571Y-71214286D01*
X181028571Y-71000001D01*
X181100000Y-70857144D01*
X181242857Y-70785715D01*
X182028571Y-70785715D01*
X181242857Y-70785715D02*
X181100000Y-70714286D01*
X181028571Y-70571429D01*
X181028571Y-70357144D01*
X181100000Y-70214286D01*
X181242857Y-70142858D01*
X182028571Y-70142858D01*
X182028571Y-69428572D02*
X181028571Y-69428572D01*
X181171429Y-69428572D02*
X181100000Y-69357144D01*
X181028571Y-69214286D01*
X181028571Y-69000001D01*
X181100000Y-68857144D01*
X181242857Y-68785715D01*
X182028571Y-68785715D01*
X181242857Y-68785715D02*
X181100000Y-68714286D01*
X181028571Y-68571429D01*
X181028571Y-68357144D01*
X181100000Y-68214286D01*
X181242857Y-68142858D01*
X182028571Y-68142858D01*
X180000000Y-125000000D02*
X180000000Y-25000000D01*
X177500000Y-125000000D02*
X182700000Y-125000000D01*
X177500000Y-25000000D02*
X182700000Y-25000000D01*
X180000000Y-25000000D02*
X180586421Y-26126504D01*
X180000000Y-25000000D02*
X179413579Y-26126504D01*
X180000000Y-125000000D02*
X180586421Y-123873496D01*
X180000000Y-125000000D02*
X179413579Y-123873496D01*
D12*
X75000000Y-125000000D02*
X75000000Y-25000000D01*
X175000000Y-125000000D02*
X75000000Y-125000000D01*
X175000000Y-25000000D02*
X175000000Y-125000000D01*
X75000000Y-25000000D02*
X175000000Y-25000000D01*
D11*
X118928573Y-132028571D02*
X118071430Y-132028571D01*
X118500002Y-132028571D02*
X118500002Y-130528571D01*
X118357145Y-130742857D01*
X118214287Y-130885714D01*
X118071430Y-130957143D01*
X119857144Y-130528571D02*
X120000001Y-130528571D01*
X120142858Y-130600000D01*
X120214287Y-130671429D01*
X120285716Y-130814286D01*
X120357144Y-131100000D01*
X120357144Y-131457143D01*
X120285716Y-131742857D01*
X120214287Y-131885714D01*
X120142858Y-131957143D01*
X120000001Y-132028571D01*
X119857144Y-132028571D01*
X119714287Y-131957143D01*
X119642858Y-131885714D01*
X119571430Y-131742857D01*
X119500001Y-131457143D01*
X119500001Y-131100000D01*
X119571430Y-130814286D01*
X119642858Y-130671429D01*
X119714287Y-130600000D01*
X119857144Y-130528571D01*
X121285715Y-130528571D02*
X121428572Y-130528571D01*
X121571429Y-130600000D01*
X121642858Y-130671429D01*
X121714287Y-130814286D01*
X121785715Y-131100000D01*
X121785715Y-131457143D01*
X121714287Y-131742857D01*
X121642858Y-131885714D01*
X121571429Y-131957143D01*
X121428572Y-132028571D01*
X121285715Y-132028571D01*
X121142858Y-131957143D01*
X121071429Y-131885714D01*
X121000001Y-131742857D01*
X120928572Y-131457143D01*
X120928572Y-131100000D01*
X121000001Y-130814286D01*
X121071429Y-130671429D01*
X121142858Y-130600000D01*
X121285715Y-130528571D01*
X122428572Y-131885714D02*
X122500000Y-131957143D01*
X122428572Y-132028571D01*
X122357143Y-131957143D01*
X122428572Y-131885714D01*
X122428572Y-132028571D01*
X123428572Y-130528571D02*
X123571429Y-130528571D01*
X123714286Y-130600000D01*
X123785715Y-130671429D01*
X123857144Y-130814286D01*
X123928572Y-131100000D01*
X123928572Y-131457143D01*
X123857144Y-131742857D01*
X123785715Y-131885714D01*
X123714286Y-131957143D01*
X123571429Y-132028571D01*
X123428572Y-132028571D01*
X123285715Y-131957143D01*
X123214286Y-131885714D01*
X123142858Y-131742857D01*
X123071429Y-131457143D01*
X123071429Y-131100000D01*
X123142858Y-130814286D01*
X123214286Y-130671429D01*
X123285715Y-130600000D01*
X123428572Y-130528571D01*
X124857143Y-130528571D02*
X125000000Y-130528571D01*
X125142857Y-130600000D01*
X125214286Y-130671429D01*
X125285715Y-130814286D01*
X125357143Y-131100000D01*
X125357143Y-131457143D01*
X125285715Y-131742857D01*
X125214286Y-131885714D01*
X125142857Y-131957143D01*
X125000000Y-132028571D01*
X124857143Y-132028571D01*
X124714286Y-131957143D01*
X124642857Y-131885714D01*
X124571429Y-131742857D01*
X124500000Y-131457143D01*
X124500000Y-131100000D01*
X124571429Y-130814286D01*
X124642857Y-130671429D01*
X124714286Y-130600000D01*
X124857143Y-130528571D01*
X126285714Y-130528571D02*
X126428571Y-130528571D01*
X126571428Y-130600000D01*
X126642857Y-130671429D01*
X126714286Y-130814286D01*
X126785714Y-131100000D01*
X126785714Y-131457143D01*
X126714286Y-131742857D01*
X126642857Y-131885714D01*
X126571428Y-131957143D01*
X126428571Y-132028571D01*
X126285714Y-132028571D01*
X126142857Y-131957143D01*
X126071428Y-131885714D01*
X126000000Y-131742857D01*
X125928571Y-131457143D01*
X125928571Y-131100000D01*
X126000000Y-130814286D01*
X126071428Y-130671429D01*
X126142857Y-130600000D01*
X126285714Y-130528571D01*
X128571428Y-132028571D02*
X128571428Y-131028571D01*
X128571428Y-131171429D02*
X128642856Y-131100000D01*
X128785714Y-131028571D01*
X128999999Y-131028571D01*
X129142856Y-131100000D01*
X129214285Y-131242857D01*
X129214285Y-132028571D01*
X129214285Y-131242857D02*
X129285714Y-131100000D01*
X129428571Y-131028571D01*
X129642856Y-131028571D01*
X129785714Y-131100000D01*
X129857142Y-131242857D01*
X129857142Y-132028571D01*
X130571428Y-132028571D02*
X130571428Y-131028571D01*
X130571428Y-131171429D02*
X130642856Y-131100000D01*
X130785714Y-131028571D01*
X130999999Y-131028571D01*
X131142856Y-131100000D01*
X131214285Y-131242857D01*
X131214285Y-132028571D01*
X131214285Y-131242857D02*
X131285714Y-131100000D01*
X131428571Y-131028571D01*
X131642856Y-131028571D01*
X131785714Y-131100000D01*
X131857142Y-131242857D01*
X131857142Y-132028571D01*
X75000000Y-130000000D02*
X175000000Y-130000000D01*
X75000000Y-127500000D02*
X75000000Y-132700000D01*
X175000000Y-127500000D02*
X175000000Y-132700000D01*
X175000000Y-130000000D02*
X173873496Y-130586421D01*
X175000000Y-130000000D02*
X173873496Y-129413579D01*
X75000000Y-130000000D02*
X76126504Y-130586421D01*
X75000000Y-130000000D02*
X76126504Y-129413579D01*
M02*
